<svg width="130" height="46" viewBox="0 0 130 46" fill="none" xmlns="http://www.w3.org/2000/svg">
<rect y="0.00488281" width="130" height="45" rx="22.5" fill="white"/>
<path fill-rule="evenodd" clip-rule="evenodd" d="M30.7805 16.4401C31.43 15.6693 31.7558 14.8365 31.7558 13.9447C31.7558 13.8264 31.7503 13.7071 31.7371 13.5879C31.2847 13.6114 30.8036 13.7484 30.295 13.9963C29.7853 14.2479 29.3651 14.5633 29.0346 14.9426C28.3727 15.6918 28 16.6081 28 17.4643C28 17.5827 28.0076 17.6953 28.0207 17.8023C29.0487 17.8858 29.9967 17.3564 30.7805 16.4401ZM34.2381 29.2094C34.6079 28.6821 34.9272 28.1086 35.1969 27.4855C35.3081 27.2214 35.4127 26.9462 35.5117 26.6588C35.0549 26.4673 34.6443 26.1977 34.2767 25.8487C33.4654 25.0968 33.0526 24.1499 33.0404 23.012C33.0272 21.5512 33.691 20.4124 35.0328 19.5993C34.2832 18.5338 33.156 17.9423 31.6556 17.8212C31.1019 17.7742 30.426 17.8935 29.6252 18.1817C28.7784 18.4925 28.2788 18.6484 28.1314 18.6484C27.9343 18.6484 27.4846 18.5151 26.7843 18.2522C26.082 17.9902 25.5168 17.8569 25.0858 17.8569C24.2982 17.87 23.5669 18.0747 22.89 18.4765C22.2131 18.8783 21.6723 19.4256 21.2657 20.1195C20.7485 20.9833 20.4902 22.014 20.4902 23.2092C20.4902 24.2525 20.6818 25.3302 21.0639 26.4431C21.4206 27.4735 21.876 28.3772 22.4299 29.1566C22.9462 29.8864 23.3772 30.4016 23.7217 30.7021C24.2616 31.2041 24.8024 31.4429 25.345 31.4199C25.7017 31.4077 26.1684 31.2855 26.7476 31.0511C27.326 30.8177 27.8667 30.7021 28.3709 30.7021C28.8516 30.7021 29.3773 30.8177 29.9494 31.0511C30.5196 31.2855 31.0094 31.4011 31.4157 31.4011C31.9815 31.3879 32.5099 31.1556 33.003 30.7021C33.3212 30.4258 33.734 29.9282 34.2381 29.2094Z" fill="#0F0F10"/>
<path d="M45.2637 17.0712V13.4472H46.1517C47.0797 13.4472 47.8477 14.0312 47.8477 15.2632C47.8477 16.4952 47.0717 17.0712 46.1437 17.0712H45.2637ZM46.1837 18.0952C47.7997 18.0952 48.9917 17.0552 48.9917 15.2632C48.9917 13.4712 47.8077 12.4232 46.1917 12.4232H44.1597V18.0952H46.1837ZM51.6602 17.2472C51.1402 17.2472 50.6602 16.8632 50.6602 16.1272C50.6602 15.3832 51.1402 15.0072 51.6602 15.0072C52.1802 15.0072 52.6602 15.3832 52.6602 16.1272C52.6602 16.8712 52.1802 17.2472 51.6602 17.2472ZM51.6602 14.0392C50.4842 14.0392 49.5962 14.9112 49.5962 16.1272C49.5962 17.3352 50.4842 18.2152 51.6602 18.2152C52.8362 18.2152 53.7242 17.3352 53.7242 16.1272C53.7242 14.9112 52.8362 14.0392 51.6602 14.0392ZM56.6945 14.1592L55.8385 16.6872L55.1105 14.1592H53.9905L55.2465 18.0952H56.3265L57.2305 15.4072L58.1505 18.0952H59.2145L60.4465 14.1592H59.3905L58.6625 16.6952L57.8145 14.1592H56.6945ZM62.175 15.8312C62.175 15.3752 62.447 15.0152 62.911 15.0152C63.423 15.0152 63.639 15.3592 63.639 15.7992V18.0952H64.703V15.6152C64.703 14.7512 64.255 14.0552 63.279 14.0552C62.855 14.0552 62.383 14.2392 62.143 14.6472V14.1592H61.111V18.0952H62.175V15.8312ZM66.8468 18.0952V12.3032H65.7828V18.0952H66.8468ZM69.754 17.2472C69.234 17.2472 68.754 16.8632 68.754 16.1272C68.754 15.3832 69.234 15.0072 69.754 15.0072C70.274 15.0072 70.754 15.3832 70.754 16.1272C70.754 16.8712 70.274 17.2472 69.754 17.2472ZM69.754 14.0392C68.578 14.0392 67.69 14.9112 67.69 16.1272C67.69 17.3352 68.578 18.2152 69.754 18.2152C70.93 18.2152 71.818 17.3352 71.818 16.1272C71.818 14.9112 70.93 14.0392 69.754 14.0392ZM72.4178 17.0232C72.4178 17.6392 72.9298 18.2072 73.7698 18.2072C74.3538 18.2072 74.7298 17.9352 74.9298 17.6232C74.9298 17.7752 74.9458 17.9912 74.9698 18.0952H75.9458C75.9218 17.9592 75.8978 17.6792 75.8978 17.4712V15.5352C75.8978 14.7432 75.4338 14.0392 74.1858 14.0392C73.1298 14.0392 72.5618 14.7192 72.4978 15.3352L73.4418 15.5352C73.4738 15.1912 73.7298 14.8952 74.1938 14.8952C74.6418 14.8952 74.8578 15.1272 74.8578 15.4072C74.8578 15.5432 74.7858 15.6552 74.5618 15.6872L73.5938 15.8312C72.9378 15.9272 72.4178 16.3192 72.4178 17.0232ZM73.9938 17.4152C73.6498 17.4152 73.4818 17.1912 73.4818 16.9592C73.4818 16.6552 73.6978 16.5032 73.9698 16.4632L74.8578 16.3272V16.5032C74.8578 17.1992 74.4418 17.4152 73.9938 17.4152ZM80.7067 12.3032H79.6587V14.5512C79.5467 14.3432 79.2267 14.0632 78.5467 14.0632C77.4347 14.0632 76.6587 14.9672 76.6587 16.1192C76.6587 17.3112 77.4587 18.1912 78.5787 18.1912C79.1067 18.1912 79.5067 17.9512 79.6827 17.6392C79.6827 17.8232 79.7067 18.0152 79.7227 18.0952H80.7387C80.7227 17.9352 80.7067 17.6472 80.7067 17.3832V12.3032ZM77.7307 16.1192C77.7307 15.4152 78.1627 15.0152 78.7067 15.0152C79.2507 15.0152 79.6747 15.4072 79.6747 16.1112C79.6747 16.8232 79.2507 17.2392 78.7067 17.2392C78.1467 17.2392 77.7307 16.8232 77.7307 16.1192ZM85.6055 17.2472C85.0855 17.2472 84.6055 16.8632 84.6055 16.1272C84.6055 15.3832 85.0855 15.0072 85.6055 15.0072C86.1255 15.0072 86.6055 15.3832 86.6055 16.1272C86.6055 16.8712 86.1255 17.2472 85.6055 17.2472ZM85.6055 14.0392C84.4295 14.0392 83.5415 14.9112 83.5415 16.1272C83.5415 17.3352 84.4295 18.2152 85.6055 18.2152C86.7815 18.2152 87.6695 17.3352 87.6695 16.1272C87.6695 14.9112 86.7815 14.0392 85.6055 14.0392ZM89.5734 15.8312C89.5734 15.3752 89.8454 15.0152 90.3094 15.0152C90.8214 15.0152 91.0374 15.3592 91.0374 15.7992V18.0952H92.1014V15.6152C92.1014 14.7512 91.6534 14.0552 90.6774 14.0552C90.2534 14.0552 89.7814 14.2392 89.5414 14.6472V14.1592H88.5094V18.0952H89.5734V15.8312ZM96.4698 12.9832H95.5098V13.5352C95.5098 13.8872 95.3178 14.1592 94.9018 14.1592H94.7018V15.1032H95.4138V16.9352C95.4138 17.6952 95.8938 18.1512 96.6618 18.1512C96.9738 18.1512 97.1658 18.0952 97.2618 18.0552V17.1752C97.2058 17.1912 97.0618 17.2072 96.9338 17.2072C96.6298 17.2072 96.4698 17.0952 96.4698 16.7512V15.1032H97.2618V14.1592H96.4698V12.9832ZM99.0343 15.7832C99.0583 15.3512 99.3223 15.0152 99.7703 15.0152C100.282 15.0152 100.498 15.3592 100.498 15.7992V18.0952H101.562V15.6152C101.562 14.7512 101.098 14.0552 100.098 14.0552C99.7223 14.0552 99.2903 14.1832 99.0343 14.4872V12.3032H97.9703V18.0952H99.0343V15.7832ZM103.418 15.6792C103.442 15.3192 103.746 14.9032 104.298 14.9032C104.906 14.9032 105.162 15.2872 105.178 15.6792H103.418ZM105.282 16.7032C105.154 17.0552 104.882 17.3032 104.386 17.3032C103.858 17.3032 103.418 16.9272 103.394 16.4072H106.21C106.21 16.3912 106.226 16.2312 106.226 16.0792C106.226 14.8152 105.498 14.0392 104.282 14.0392C103.274 14.0392 102.346 14.8552 102.346 16.1112C102.346 17.4392 103.298 18.2152 104.378 18.2152C105.346 18.2152 105.97 17.6472 106.17 16.9672L105.282 16.7032Z" fill="#0F0F10"/>
<path d="M51.3797 31.9141H53.4797L49.6997 21.9881H47.4597L43.6517 31.9141H45.6957L46.5217 29.6461H50.5537L51.3797 31.9141ZM48.5377 24.1301L49.9097 27.8821H47.1657L48.5377 24.1301ZM56.4439 34.5741V31.2421C56.7799 31.7041 57.4799 32.0821 58.4319 32.0821C60.3779 32.0821 61.6799 30.5421 61.6799 28.4561C61.6799 26.4121 60.5179 24.8721 58.5019 24.8721C57.4659 24.8721 56.6959 25.3341 56.3879 25.8661V25.0261H54.5819V34.5741H56.4439ZM59.8459 28.4701C59.8459 29.7021 59.0899 30.4161 58.1379 30.4161C57.1859 30.4161 56.4159 29.6881 56.4159 28.4701C56.4159 27.2521 57.1859 26.5381 58.1379 26.5381C59.0899 26.5381 59.8459 27.2521 59.8459 28.4701ZM65.0162 34.5741V31.2421C65.3522 31.7041 66.0522 32.0821 67.0042 32.0821C68.9502 32.0821 70.2522 30.5421 70.2522 28.4561C70.2522 26.4121 69.0902 24.8721 67.0742 24.8721C66.0382 24.8721 65.2682 25.3341 64.9602 25.8661V25.0261H63.1542V34.5741H65.0162ZM68.4182 28.4701C68.4182 29.7021 67.6622 30.4161 66.7102 30.4161C65.7582 30.4161 64.9882 29.6881 64.9882 28.4701C64.9882 27.2521 65.7582 26.5381 66.7102 26.5381C67.6622 26.5381 68.4182 27.2521 68.4182 28.4701ZM82.0034 24.3541C81.7794 23.2341 80.8554 21.7781 78.4474 21.7781C76.5714 21.7781 74.9894 23.1221 74.9894 24.8861C74.9894 26.3841 76.0114 27.4061 77.5934 27.7281L78.9794 28.0081C79.7494 28.1621 80.1834 28.6101 80.1834 29.1841C80.1834 29.8841 79.6094 30.4021 78.5734 30.4021C77.1734 30.4021 76.4874 29.5201 76.4034 28.5401L74.6114 29.0161C74.7654 30.4301 75.9274 32.1241 78.5594 32.1241C80.8694 32.1241 82.1434 30.5841 82.1434 29.0581C82.1434 27.6581 81.1774 26.4821 79.3714 26.1321L77.9854 25.8661C77.2574 25.7261 76.9074 25.2921 76.9074 24.7461C76.9074 24.0881 77.5234 23.4861 78.4614 23.4861C79.7214 23.4861 80.1694 24.3401 80.2674 24.8861L82.0034 24.3541ZM85.999 22.9681H84.319V23.9341C84.319 24.5501 83.983 25.0261 83.255 25.0261H82.905V26.6781H84.151V29.8841C84.151 31.2141 84.991 32.0121 86.335 32.0121C86.881 32.0121 87.217 31.9141 87.385 31.8441V30.3041C87.287 30.3321 87.035 30.3601 86.811 30.3601C86.279 30.3601 85.999 30.1641 85.999 29.5621V26.6781H87.385V25.0261H85.999V22.9681ZM91.9923 30.4301C91.0823 30.4301 90.2423 29.7581 90.2423 28.4701C90.2423 27.1681 91.0823 26.5101 91.9923 26.5101C92.9023 26.5101 93.7423 27.1681 93.7423 28.4701C93.7423 29.7721 92.9023 30.4301 91.9923 30.4301ZM91.9923 24.8161C89.9343 24.8161 88.3803 26.3421 88.3803 28.4701C88.3803 30.5841 89.9343 32.1241 91.9923 32.1241C94.0503 32.1241 95.6043 30.5841 95.6043 28.4701C95.6043 26.3421 94.0503 24.8161 91.9923 24.8161ZM101.274 24.9981C101.134 24.9841 100.994 24.9701 100.84 24.9701C100.252 24.9701 99.3001 25.1381 98.8801 26.0481V25.0261H97.0741V31.9141H98.9361V28.7641C98.9361 27.2801 99.7621 26.8181 100.714 26.8181C100.882 26.8181 101.064 26.8321 101.274 26.8741V24.9981ZM103.873 27.6861C103.915 27.0561 104.447 26.3281 105.413 26.3281C106.477 26.3281 106.925 27.0001 106.953 27.6861H103.873ZM107.135 29.4781C106.911 30.0941 106.435 30.5281 105.567 30.5281C104.643 30.5281 103.873 29.8701 103.831 28.9601H108.759C108.759 28.9321 108.787 28.6521 108.787 28.3861C108.787 26.1741 107.513 24.8161 105.385 24.8161C103.621 24.8161 101.997 26.2441 101.997 28.4421C101.997 30.7661 103.663 32.1241 105.553 32.1241C107.247 32.1241 108.339 31.1301 108.689 29.9401L107.135 29.4781Z" fill="#0F0F10"/>
</svg>
