<svg width="136" height="51" viewBox="0 0 136 51" fill="none" xmlns="http://www.w3.org/2000/svg">
<rect x="0.09375" width="135.779" height="50.1523" rx="25.0761" fill="white"/>
<path fill-rule="evenodd" clip-rule="evenodd" d="M33.0255 18.1546C33.7668 17.2749 34.1386 16.3245 34.1386 15.3066C34.1386 15.1716 34.1324 15.0355 34.1173 14.8994C33.6009 14.9262 33.0519 15.0826 32.4715 15.3655C31.8897 15.6527 31.4101 16.0127 31.0329 16.4456C30.2776 17.3007 29.8521 18.3464 29.8521 19.3236C29.8521 19.4587 29.8608 19.5872 29.8757 19.7093C31.049 19.8047 32.131 19.2004 33.0255 18.1546ZM36.9717 32.7282C37.3938 32.1264 37.7581 31.4719 38.0659 30.7608C38.1929 30.4593 38.3122 30.1452 38.4252 29.8173C37.9039 29.5987 37.4352 29.2909 37.0157 28.8927C36.0897 28.0345 35.6186 26.9539 35.6048 25.6552C35.5897 23.9879 36.3472 22.6882 37.8787 21.7603C37.0232 20.5441 35.7367 19.8691 34.0243 19.7309C33.3923 19.6773 32.621 19.8135 31.707 20.1424C30.7405 20.497 30.1703 20.6749 30.0021 20.6749C29.7771 20.6749 29.2639 20.5228 28.4646 20.2228C27.6631 19.9238 27.0181 19.7716 26.5262 19.7716C25.6273 19.7866 24.7926 20.0203 24.0201 20.4788C23.2475 20.9374 22.6303 21.562 22.1663 22.3539C21.576 23.3397 21.2812 24.5162 21.2812 25.8802C21.2812 27.071 21.4999 28.3009 21.9359 29.5711C22.3431 30.747 22.8629 31.7785 23.495 32.6679C24.0843 33.5009 24.5761 34.0889 24.9694 34.4318C25.5855 35.0047 26.2027 35.2773 26.822 35.251C27.2291 35.2372 27.7617 35.0977 28.4228 34.8301C29.0829 34.5638 29.7 34.4318 30.2754 34.4318C30.824 34.4318 31.4241 34.5638 32.077 34.8301C32.7277 35.0977 33.2868 35.2296 33.7504 35.2296C34.3962 35.2145 34.9992 34.9494 35.5621 34.4318C35.9252 34.1165 36.3963 33.5486 36.9717 32.7282Z" fill="#0F0F10"/>
<path d="M47.4375 18.8674V15.2434H48.3255C49.2535 15.2434 50.0215 15.8274 50.0215 17.0594C50.0215 18.2914 49.2455 18.8674 48.3175 18.8674H47.4375ZM48.3575 19.8914C49.9735 19.8914 51.1655 18.8514 51.1655 17.0594C51.1655 15.2674 49.9815 14.2194 48.3655 14.2194H46.3335V19.8914H48.3575ZM53.834 19.0434C53.314 19.0434 52.834 18.6594 52.834 17.9234C52.834 17.1794 53.314 16.8034 53.834 16.8034C54.354 16.8034 54.834 17.1794 54.834 17.9234C54.834 18.6674 54.354 19.0434 53.834 19.0434ZM53.834 15.8354C52.658 15.8354 51.77 16.7074 51.77 17.9234C51.77 19.1314 52.658 20.0114 53.834 20.0114C55.01 20.0114 55.898 19.1314 55.898 17.9234C55.898 16.7074 55.01 15.8354 53.834 15.8354ZM58.8684 15.9554L58.0124 18.4834L57.2844 15.9554H56.1644L57.4204 19.8914H58.5004L59.4044 17.2034L60.3244 19.8914H61.3884L62.6204 15.9554H61.5644L60.8364 18.4914L59.9884 15.9554H58.8684ZM64.3488 17.6274C64.3488 17.1714 64.6208 16.8114 65.0848 16.8114C65.5968 16.8114 65.8128 17.1554 65.8128 17.5954V19.8914H66.8768V17.4114C66.8768 16.5474 66.4288 15.8514 65.4528 15.8514C65.0288 15.8514 64.5568 16.0354 64.3168 16.4434V15.9554H63.2848V19.8914H64.3488V17.6274ZM69.0207 19.8914V14.0994H67.9567V19.8914H69.0207ZM71.9278 19.0434C71.4078 19.0434 70.9278 18.6594 70.9278 17.9234C70.9278 17.1794 71.4078 16.8034 71.9278 16.8034C72.4478 16.8034 72.9278 17.1794 72.9278 17.9234C72.9278 18.6674 72.4478 19.0434 71.9278 19.0434ZM71.9278 15.8354C70.7518 15.8354 69.8638 16.7074 69.8638 17.9234C69.8638 19.1314 70.7518 20.0114 71.9278 20.0114C73.1038 20.0114 73.9918 19.1314 73.9918 17.9234C73.9918 16.7074 73.1038 15.8354 71.9278 15.8354ZM74.5917 18.8194C74.5917 19.4354 75.1037 20.0034 75.9437 20.0034C76.5277 20.0034 76.9037 19.7314 77.1037 19.4194C77.1037 19.5714 77.1197 19.7874 77.1437 19.8914H78.1197C78.0957 19.7554 78.0717 19.4754 78.0717 19.2674V17.3314C78.0717 16.5394 77.6077 15.8354 76.3597 15.8354C75.3037 15.8354 74.7357 16.5154 74.6717 17.1314L75.6157 17.3314C75.6477 16.9874 75.9037 16.6914 76.3677 16.6914C76.8157 16.6914 77.0317 16.9234 77.0317 17.2034C77.0317 17.3394 76.9597 17.4514 76.7357 17.4834L75.7677 17.6274C75.1117 17.7234 74.5917 18.1154 74.5917 18.8194ZM76.1677 19.2114C75.8237 19.2114 75.6557 18.9874 75.6557 18.7554C75.6557 18.4514 75.8717 18.2994 76.1437 18.2594L77.0317 18.1234V18.2994C77.0317 18.9954 76.6157 19.2114 76.1677 19.2114ZM82.8805 14.0994H81.8325V16.3474C81.7205 16.1394 81.4005 15.8594 80.7205 15.8594C79.6085 15.8594 78.8325 16.7634 78.8325 17.9154C78.8325 19.1074 79.6325 19.9874 80.7525 19.9874C81.2805 19.9874 81.6805 19.7474 81.8565 19.4354C81.8565 19.6194 81.8805 19.8114 81.8965 19.8914H82.9125C82.8965 19.7314 82.8805 19.4434 82.8805 19.1794V14.0994ZM79.9045 17.9154C79.9045 17.2114 80.3365 16.8114 80.8805 16.8114C81.4245 16.8114 81.8485 17.2034 81.8485 17.9074C81.8485 18.6194 81.4245 19.0354 80.8805 19.0354C80.3205 19.0354 79.9045 18.6194 79.9045 17.9154ZM87.7794 19.0434C87.2594 19.0434 86.7794 18.6594 86.7794 17.9234C86.7794 17.1794 87.2594 16.8034 87.7794 16.8034C88.2994 16.8034 88.7794 17.1794 88.7794 17.9234C88.7794 18.6674 88.2994 19.0434 87.7794 19.0434ZM87.7794 15.8354C86.6034 15.8354 85.7154 16.7074 85.7154 17.9234C85.7154 19.1314 86.6034 20.0114 87.7794 20.0114C88.9554 20.0114 89.8434 19.1314 89.8434 17.9234C89.8434 16.7074 88.9554 15.8354 87.7794 15.8354ZM91.7472 17.6274C91.7472 17.1714 92.0192 16.8114 92.4832 16.8114C92.9952 16.8114 93.2112 17.1554 93.2112 17.5954V19.8914H94.2752V17.4114C94.2752 16.5474 93.8272 15.8514 92.8512 15.8514C92.4272 15.8514 91.9552 16.0354 91.7152 16.4434V15.9554H90.6832V19.8914H91.7472V17.6274ZM98.6437 14.7794H97.6837V15.3314C97.6837 15.6834 97.4917 15.9554 97.0757 15.9554H96.8757V16.8994H97.5877V18.7314C97.5877 19.4914 98.0677 19.9474 98.8357 19.9474C99.1477 19.9474 99.3397 19.8914 99.4357 19.8514V18.9714C99.3797 18.9874 99.2357 19.0034 99.1077 19.0034C98.8037 19.0034 98.6437 18.8914 98.6437 18.5474V16.8994H99.4357V15.9554H98.6437V14.7794ZM101.208 17.5794C101.232 17.1474 101.496 16.8114 101.944 16.8114C102.456 16.8114 102.672 17.1554 102.672 17.5954V19.8914H103.736V17.4114C103.736 16.5474 103.272 15.8514 102.272 15.8514C101.896 15.8514 101.464 15.9794 101.208 16.2834V14.0994H100.144V19.8914H101.208V17.5794ZM105.592 17.4754C105.616 17.1154 105.92 16.6994 106.472 16.6994C107.08 16.6994 107.336 17.0834 107.352 17.4754H105.592ZM107.456 18.4994C107.328 18.8514 107.056 19.0994 106.56 19.0994C106.032 19.0994 105.592 18.7234 105.568 18.2034H108.384C108.384 18.1874 108.4 18.0274 108.4 17.8754C108.4 16.6114 107.672 15.8354 106.456 15.8354C105.448 15.8354 104.52 16.6514 104.52 17.9074C104.52 19.2354 105.472 20.0114 106.552 20.0114C107.52 20.0114 108.144 19.4434 108.344 18.7634L107.456 18.4994Z" fill="#0F0F10"/>
<path d="M53.8468 35.2609H56.0251L52.1042 24.9649H49.7807L45.8308 35.2609H47.9509L48.8077 32.9083H52.99L53.8468 35.2609ZM50.8989 27.1867L52.322 31.0786H49.4757L50.8989 27.1867ZM59.0997 38.02V34.5638C59.4483 35.043 60.1743 35.4351 61.1618 35.4351C63.1804 35.4351 64.5309 33.8377 64.5309 31.674C64.5309 29.5538 63.3256 27.9564 61.2344 27.9564C60.1598 27.9564 59.3611 28.4356 59.0416 28.9874V28.1161H57.1683V38.02H59.0997ZM62.6285 31.6885C62.6285 32.9664 61.8444 33.707 60.8569 33.707C59.8694 33.707 59.0707 32.9519 59.0707 31.6885C59.0707 30.4251 59.8694 29.6845 60.8569 29.6845C61.8444 29.6845 62.6285 30.4251 62.6285 31.6885ZM67.9915 38.02V34.5638C68.34 35.043 69.0661 35.4351 70.0536 35.4351C72.0721 35.4351 73.4227 33.8377 73.4227 31.674C73.4227 29.5538 72.2173 27.9564 70.1262 27.9564C69.0516 27.9564 68.2529 28.4356 67.9334 28.9874V28.1161H66.0601V38.02H67.9915ZM71.5203 31.6885C71.5203 32.9664 70.7361 33.707 69.7486 33.707C68.7612 33.707 67.9625 32.9519 67.9625 31.6885C67.9625 30.4251 68.7612 29.6845 69.7486 29.6845C70.7361 29.6845 71.5203 30.4251 71.5203 31.6885ZM85.6119 27.4191C85.3796 26.2573 84.4211 24.7471 81.9234 24.7471C79.9774 24.7471 78.3365 26.1412 78.3365 27.9709C78.3365 29.5247 79.3966 30.5848 81.0375 30.9188L82.4752 31.2093C83.2739 31.369 83.7241 31.8337 83.7241 32.4291C83.7241 33.1552 83.1287 33.6925 82.0541 33.6925C80.6019 33.6925 79.8903 32.7776 79.8032 31.7611L77.9444 32.2548C78.1041 33.7216 79.3094 35.4787 82.0395 35.4787C84.4356 35.4787 85.7571 33.8813 85.7571 32.2984C85.7571 30.8462 84.7551 29.6264 82.8818 29.2634L81.4441 28.9874C80.689 28.8422 80.326 28.392 80.326 27.8257C80.326 27.1432 80.9649 26.5187 81.9379 26.5187C83.2448 26.5187 83.7095 27.4046 83.8112 27.9709L85.6119 27.4191ZM89.7564 25.9814H88.0138V26.9834C88.0138 27.6224 87.6653 28.1161 86.9101 28.1161H86.5471V29.8297H87.8395V33.1552C87.8395 34.5348 88.7108 35.3625 90.1049 35.3625C90.6713 35.3625 91.0198 35.2609 91.1941 35.1883V33.5909C91.0924 33.6199 90.831 33.6489 90.5987 33.6489C90.0468 33.6489 89.7564 33.4456 89.7564 32.8212V29.8297H91.1941V28.1161H89.7564V25.9814ZM95.9731 33.7216C95.0292 33.7216 94.1579 33.0245 94.1579 31.6885C94.1579 30.338 95.0292 29.6554 95.9731 29.6554C96.917 29.6554 97.7883 30.338 97.7883 31.6885C97.7883 33.039 96.917 33.7216 95.9731 33.7216ZM95.9731 27.8983C93.8384 27.8983 92.2265 29.4812 92.2265 31.6885C92.2265 33.8813 93.8384 35.4787 95.9731 35.4787C98.1078 35.4787 99.7197 33.8813 99.7197 31.6885C99.7197 29.4812 98.1078 27.8983 95.9731 27.8983ZM105.601 28.0871C105.456 28.0726 105.31 28.058 105.151 28.058C104.541 28.058 103.553 28.2323 103.118 29.1762V28.1161H101.244V35.2609H103.176V31.9935C103.176 30.4541 104.032 29.9749 105.02 29.9749C105.194 29.9749 105.383 29.9894 105.601 30.033V28.0871ZM108.297 30.8753C108.341 30.2218 108.893 29.4667 109.895 29.4667C110.998 29.4667 111.463 30.1637 111.492 30.8753H108.297ZM111.681 32.7341C111.448 33.373 110.955 33.8232 110.054 33.8232C109.096 33.8232 108.297 33.1407 108.254 32.1968H113.365C113.365 32.1677 113.394 31.8773 113.394 31.6014C113.394 29.3069 112.073 27.8983 109.865 27.8983C108.036 27.8983 106.351 29.3795 106.351 31.6595C106.351 34.0701 108.079 35.4787 110.04 35.4787C111.797 35.4787 112.93 34.4476 113.293 33.2133L111.681 32.7341Z" fill="#0F0F10"/>
</svg>
