<svg width="131" height="46" viewBox="0 0 131 46" fill="none" xmlns="http://www.w3.org/2000/svg">
<rect x="0.896484" y="0.00488281" width="130" height="45" rx="22.5" fill="white"/>
<path d="M28.7376 18.9916L32.2256 20.9771C32.8028 21.4868 32.8028 21.798 32.8028 22.2001C32.8028 22.6022 32.8028 23.0568 32.2256 23.525L28.7376 25.6438L25.7089 22.2001L28.7376 18.9916Z" fill="#F7CB45"/>
<path d="M16.8974 13.7425C16.9639 13.6782 17.0385 13.622 17.1213 13.5747C17.4709 13.3744 18.0534 13.2272 18.4052 13.4223L28.7376 18.9916L25.7089 22.2001L16.8974 13.7425Z" fill="#6DEB84"/>
<path fill-rule="evenodd" clip-rule="evenodd" d="M25.7089 22.2001L16.785 31.435L16.9269 31.531C17.2765 31.7314 18.4229 31.7262 18.7748 31.531L28.7376 25.6438L25.7089 22.2001Z" fill="#EB4D4D"/>
<path d="M25.7089 22.2001L16.785 31.435V31.435C16.4422 30.8383 16.2617 30.1621 16.2617 29.4738V15.5439C16.2617 14.8885 16.486 14.2528 16.8974 13.7425V13.7425L25.7089 22.2001Z" fill="#60D6FB"/>
<path d="M43.5867 18.0952V15.1432H40.7547V16.1032H42.5467C42.4827 16.5032 42.0747 17.2072 41.0267 17.2072C40.0747 17.2072 39.2347 16.5432 39.2347 15.2632C39.2347 13.9192 40.1627 13.3352 41.0187 13.3352C41.9387 13.3352 42.4107 13.9192 42.5547 14.4232L43.6107 14.0472C43.3307 13.1752 42.5067 12.3032 41.0187 12.3032C39.4827 12.3032 38.1147 13.4312 38.1147 15.2632C38.1147 17.0952 39.4187 18.2152 40.9467 18.2152C41.8027 18.2152 42.3627 17.8312 42.6187 17.4472L42.6907 18.0952H43.5867ZM48.2527 18.0952V17.0552H45.8047V15.7432H48.0207V14.7592H45.8047V13.4632H48.2527V12.4232H44.7007V18.0952H48.2527ZM53.6267 13.4712V12.4232H48.9307V13.4712H50.7227V18.0952H51.8347V13.4712H53.6267ZM57.5004 18.0952V12.4232H56.3804V18.0952H57.5004ZM62.9705 13.4712V12.4232H58.2745V13.4712H60.0665V18.0952H61.1785V13.4712H62.9705ZM66.5322 15.2552C66.5322 13.9752 67.4282 13.3672 68.3002 13.3672C69.1802 13.3672 70.0762 13.9752 70.0762 15.2552C70.0762 16.5352 69.1802 17.1432 68.3002 17.1432C67.4282 17.1432 66.5322 16.5352 66.5322 15.2552ZM65.3882 15.2632C65.3882 17.0872 66.7642 18.2152 68.3002 18.2152C69.8442 18.2152 71.2202 17.0872 71.2202 15.2632C71.2202 13.4312 69.8442 12.3032 68.3002 12.3032C66.7642 12.3032 65.3882 13.4312 65.3882 15.2632ZM77.0173 18.0952V12.4232H75.9133V16.1752L73.5533 12.4232H72.1773V18.0952H73.2813V14.0712L75.8573 18.0952H77.0173Z" fill="#0F0F10"/>
<path d="M47.9247 31.9141V26.7481H42.9687V28.4281H46.1047C45.9927 29.1281 45.2787 30.3601 43.4447 30.3601C41.7787 30.3601 40.3087 29.1981 40.3087 26.9581C40.3087 24.6061 41.9327 23.5841 43.4307 23.5841C45.0407 23.5841 45.8667 24.6061 46.1187 25.4881L47.9667 24.8301C47.4767 23.3041 46.0347 21.7781 43.4307 21.7781C40.7427 21.7781 38.3487 23.7521 38.3487 26.9581C38.3487 30.1641 40.6307 32.1241 43.3047 32.1241C44.8027 32.1241 45.7827 31.4521 46.2307 30.7801L46.3567 31.9141H47.9247ZM52.8282 30.4301C51.9182 30.4301 51.0782 29.7581 51.0782 28.4701C51.0782 27.1681 51.9182 26.5101 52.8282 26.5101C53.7382 26.5101 54.5782 27.1681 54.5782 28.4701C54.5782 29.7721 53.7382 30.4301 52.8282 30.4301ZM52.8282 24.8161C50.7702 24.8161 49.2162 26.3421 49.2162 28.4701C49.2162 30.5841 50.7702 32.1241 52.8282 32.1241C54.8862 32.1241 56.4402 30.5841 56.4402 28.4701C56.4402 26.3421 54.8862 24.8161 52.8282 24.8161ZM61.004 30.4301C60.094 30.4301 59.254 29.7581 59.254 28.4701C59.254 27.1681 60.094 26.5101 61.004 26.5101C61.914 26.5101 62.754 27.1681 62.754 28.4701C62.754 29.7721 61.914 30.4301 61.004 30.4301ZM61.004 24.8161C58.946 24.8161 57.392 26.3421 57.392 28.4701C57.392 30.5841 58.946 32.1241 61.004 32.1241C63.062 32.1241 64.616 30.5841 64.616 28.4701C64.616 26.3421 63.062 24.8161 61.004 24.8161ZM65.5958 32.2921C65.7918 33.6081 67.0518 34.7841 68.9418 34.7841C71.5318 34.7841 72.5538 33.0621 72.5538 31.1721V25.0261H70.7618V25.8381C70.5238 25.3761 69.8938 24.9001 68.8018 24.9001C66.9118 24.9001 65.5958 26.4401 65.5958 28.2601C65.5958 30.1921 66.9678 31.6061 68.8018 31.6061C69.7958 31.6061 70.4398 31.1721 70.7198 30.7241V31.2281C70.7198 32.5581 70.0618 33.1461 68.8858 33.1461C68.0038 33.1461 67.4018 32.6001 67.2758 31.8441L65.5958 32.2921ZM69.1238 30.0101C68.1578 30.0101 67.4718 29.3381 67.4718 28.2601C67.4718 27.1961 68.1998 26.5241 69.1238 26.5241C70.0198 26.5241 70.7478 27.1961 70.7478 28.2601C70.7478 29.3241 70.0758 30.0101 69.1238 30.0101ZM76.3013 31.9141V21.7781H74.4393V31.9141H76.3013ZM79.6528 27.6861C79.6948 27.0561 80.2268 26.3281 81.1928 26.3281C82.2568 26.3281 82.7048 27.0001 82.7328 27.6861H79.6528ZM82.9148 29.4781C82.6908 30.0941 82.2148 30.5281 81.3468 30.5281C80.4228 30.5281 79.6528 29.8701 79.6108 28.9601H84.5388C84.5388 28.9321 84.5668 28.6521 84.5668 28.3861C84.5668 26.1741 83.2928 24.8161 81.1648 24.8161C79.4008 24.8161 77.7768 26.2441 77.7768 28.4421C77.7768 30.7661 79.4428 32.1241 81.3328 32.1241C83.0268 32.1241 84.1188 31.1301 84.4688 29.9401L82.9148 29.4781ZM91.578 26.5101V23.6681H93.104C94.07 23.6681 94.658 24.2141 94.658 25.0961C94.658 25.9501 94.07 26.5101 93.104 26.5101H91.578ZM93.342 28.1761C95.302 28.1761 96.604 26.8881 96.604 25.0821C96.604 23.2901 95.302 21.9881 93.342 21.9881H89.632V31.9141H91.564V28.1761H93.342ZM99.7486 31.9141V21.7781H97.8866V31.9141H99.7486ZM101.281 30.0381C101.281 31.1161 102.177 32.1101 103.647 32.1101C104.669 32.1101 105.327 31.6341 105.677 31.0881C105.677 31.3541 105.705 31.7321 105.747 31.9141H107.455C107.413 31.6761 107.371 31.1861 107.371 30.8221V27.4341C107.371 26.0481 106.559 24.8161 104.375 24.8161C102.527 24.8161 101.533 26.0061 101.421 27.0841L103.073 27.4341C103.129 26.8321 103.577 26.3141 104.389 26.3141C105.173 26.3141 105.551 26.7201 105.551 27.2101C105.551 27.4481 105.425 27.6441 105.033 27.7001L103.339 27.9521C102.191 28.1201 101.281 28.8061 101.281 30.0381ZM104.039 30.7241C103.437 30.7241 103.143 30.3321 103.143 29.9261C103.143 29.3941 103.521 29.1281 103.997 29.0581L105.551 28.8201V29.1281C105.551 30.3461 104.823 30.7241 104.039 30.7241ZM111.45 34.6301L115.776 25.0261H113.788L112.094 29.0581L110.26 25.0261H108.174L111.1 31.0461L109.476 34.6301H111.45Z" fill="#0F0F10"/>
</svg>
