<svg width="134" height="51" viewBox="0 0 134 51" fill="none" xmlns="http://www.w3.org/2000/svg">
<rect x="0.449219" width="133.457" height="50.1523" rx="25.0761" fill="white"/>
<path d="M31.3872 21.0664L35.368 23.3325C36.0268 23.9142 36.0268 24.2693 36.0268 24.7283C36.0268 25.1871 36.0268 25.706 35.368 26.2404L31.3872 28.6585L27.9305 24.7283L31.3872 21.0664Z" fill="#F7CB45"/>
<path d="M17.8739 15.0756C17.9498 15.0022 18.035 14.9381 18.1295 14.8841C18.5285 14.6555 19.1932 14.4874 19.5948 14.7101L31.3872 21.0664L27.9305 24.7283L17.8739 15.0756Z" fill="#6DEB84"/>
<path fill-rule="evenodd" clip-rule="evenodd" d="M27.9305 24.7283L17.7457 35.268L17.9076 35.3776C18.3067 35.6063 19.615 35.6004 20.0166 35.3776L31.3872 28.6585L27.9305 24.7283Z" fill="#EB4D4D"/>
<path d="M27.9305 24.7283L17.7457 35.268V35.268C17.3544 34.587 17.1484 33.8152 17.1484 33.0298V17.1315C17.1484 16.3835 17.4044 15.658 17.8739 15.0756V15.0756L27.9305 24.7283Z" fill="#60D6FB"/>
<path d="M45.4422 19.8914V16.9394H42.6102V17.8994H44.4022C44.3382 18.2994 43.9302 19.0034 42.8822 19.0034C41.9302 19.0034 41.0902 18.3394 41.0902 17.0594C41.0902 15.7154 42.0182 15.1314 42.8742 15.1314C43.7942 15.1314 44.2662 15.7154 44.4102 16.2194L45.4662 15.8434C45.1862 14.9714 44.3622 14.0994 42.8742 14.0994C41.3382 14.0994 39.9702 15.2274 39.9702 17.0594C39.9702 18.8914 41.2742 20.0114 42.8022 20.0114C43.6582 20.0114 44.2182 19.6274 44.4742 19.2434L44.5462 19.8914H45.4422ZM50.1082 19.8914V18.8514H47.6602V17.5394H49.8762V16.5554H47.6602V15.2594H50.1082V14.2194H46.5562V19.8914H50.1082ZM55.4822 15.2674V14.2194H50.7862V15.2674H52.5782V19.8914H53.6902V15.2674H55.4822ZM59.3559 19.8914V14.2194H58.2359V19.8914H59.3559ZM64.826 15.2674V14.2194H60.13V15.2674H61.922V19.8914H63.034V15.2674H64.826ZM68.3876 17.0514C68.3876 15.7714 69.2836 15.1634 70.1556 15.1634C71.0356 15.1634 71.9316 15.7714 71.9316 17.0514C71.9316 18.3314 71.0356 18.9394 70.1556 18.9394C69.2836 18.9394 68.3876 18.3314 68.3876 17.0514ZM67.2436 17.0594C67.2436 18.8834 68.6196 20.0114 70.1556 20.0114C71.6996 20.0114 73.0756 18.8834 73.0756 17.0594C73.0756 15.2274 71.6996 14.0994 70.1556 14.0994C68.6196 14.0994 67.2436 15.2274 67.2436 17.0594ZM78.8728 19.8914V14.2194H77.7688V17.9714L75.4088 14.2194H74.0328V19.8914H75.1368V15.8674L77.7128 19.8914H78.8728Z" fill="#0F0F10"/>
<path d="M49.7802 35.2609V30.0949H44.8242V31.7749H47.9602C47.8482 32.4749 47.1342 33.7069 45.3002 33.7069C43.6342 33.7069 42.1642 32.5449 42.1642 30.3049C42.1642 27.9529 43.7882 26.9309 45.2862 26.9309C46.8962 26.9309 47.7222 27.9529 47.9742 28.8349L49.8222 28.1769C49.3322 26.6509 47.8902 25.1249 45.2862 25.1249C42.5982 25.1249 40.2042 27.0989 40.2042 30.3049C40.2042 33.5109 42.4862 35.4709 45.1602 35.4709C46.6582 35.4709 47.6382 34.7989 48.0862 34.1269L48.2122 35.2609H49.7802ZM54.6837 33.7769C53.7737 33.7769 52.9337 33.1049 52.9337 31.8169C52.9337 30.5149 53.7737 29.8569 54.6837 29.8569C55.5937 29.8569 56.4337 30.5149 56.4337 31.8169C56.4337 33.1189 55.5937 33.7769 54.6837 33.7769ZM54.6837 28.1629C52.6257 28.1629 51.0717 29.6889 51.0717 31.8169C51.0717 33.9309 52.6257 35.4709 54.6837 35.4709C56.7417 35.4709 58.2957 33.9309 58.2957 31.8169C58.2957 29.6889 56.7417 28.1629 54.6837 28.1629ZM62.8595 33.7769C61.9495 33.7769 61.1095 33.1049 61.1095 31.8169C61.1095 30.5149 61.9495 29.8569 62.8595 29.8569C63.7695 29.8569 64.6095 30.5149 64.6095 31.8169C64.6095 33.1189 63.7695 33.7769 62.8595 33.7769ZM62.8595 28.1629C60.8015 28.1629 59.2475 29.6889 59.2475 31.8169C59.2475 33.9309 60.8015 35.4709 62.8595 35.4709C64.9175 35.4709 66.4715 33.9309 66.4715 31.8169C66.4715 29.6889 64.9175 28.1629 62.8595 28.1629ZM67.4513 35.6389C67.6473 36.9549 68.9073 38.1309 70.7973 38.1309C73.3873 38.1309 74.4093 36.4089 74.4093 34.5189V28.3729H72.6173V29.1849C72.3793 28.7229 71.7493 28.2469 70.6573 28.2469C68.7673 28.2469 67.4513 29.7869 67.4513 31.6069C67.4513 33.5389 68.8233 34.9529 70.6573 34.9529C71.6513 34.9529 72.2953 34.5189 72.5753 34.0709V34.5749C72.5753 35.9049 71.9173 36.4929 70.7413 36.4929C69.8593 36.4929 69.2573 35.9469 69.1313 35.1909L67.4513 35.6389ZM70.9793 33.3569C70.0133 33.3569 69.3273 32.6849 69.3273 31.6069C69.3273 30.5429 70.0553 29.8709 70.9793 29.8709C71.8753 29.8709 72.6033 30.5429 72.6033 31.6069C72.6033 32.6709 71.9313 33.3569 70.9793 33.3569ZM78.1568 35.2609V25.1249H76.2948V35.2609H78.1568ZM81.5083 31.0329C81.5503 30.4029 82.0823 29.6749 83.0483 29.6749C84.1123 29.6749 84.5603 30.3469 84.5883 31.0329H81.5083ZM84.7703 32.8249C84.5463 33.4409 84.0703 33.8749 83.2023 33.8749C82.2783 33.8749 81.5083 33.2169 81.4663 32.3069H86.3943C86.3943 32.2789 86.4223 31.9989 86.4223 31.7329C86.4223 29.5209 85.1483 28.1629 83.0203 28.1629C81.2563 28.1629 79.6323 29.5909 79.6323 31.7889C79.6323 34.1129 81.2983 35.4709 83.1883 35.4709C84.8823 35.4709 85.9743 34.4769 86.3243 33.2869L84.7703 32.8249ZM93.4335 29.8569V27.0149H94.9595C95.9255 27.0149 96.5135 27.5609 96.5135 28.4429C96.5135 29.2969 95.9255 29.8569 94.9595 29.8569H93.4335ZM95.1975 31.5229C97.1575 31.5229 98.4595 30.2349 98.4595 28.4289C98.4595 26.6369 97.1575 25.3349 95.1975 25.3349H91.4875V35.2609H93.4195V31.5229H95.1975ZM101.604 35.2609V25.1249H99.742V35.2609H101.604ZM103.137 33.3849C103.137 34.4629 104.033 35.4569 105.503 35.4569C106.525 35.4569 107.183 34.9809 107.533 34.4349C107.533 34.7009 107.561 35.0789 107.603 35.2609H109.311C109.269 35.0229 109.227 34.5329 109.227 34.1689V30.7809C109.227 29.3949 108.415 28.1629 106.231 28.1629C104.383 28.1629 103.389 29.3529 103.277 30.4309L104.929 30.7809C104.985 30.1789 105.433 29.6609 106.245 29.6609C107.029 29.6609 107.407 30.0669 107.407 30.5569C107.407 30.7949 107.281 30.9909 106.889 31.0469L105.195 31.2989C104.047 31.4669 103.137 32.1529 103.137 33.3849ZM105.895 34.0709C105.293 34.0709 104.999 33.6789 104.999 33.2729C104.999 32.7409 105.377 32.4749 105.853 32.4049L107.407 32.1669V32.4749C107.407 33.6929 106.678 34.0709 105.895 34.0709ZM113.306 37.9769L117.632 28.3729H115.644L113.95 32.4049L112.116 28.3729H110.03L112.956 34.3929L111.332 37.9769H113.306Z" fill="#0F0F10"/>
</svg>
