<svg width="14" height="12" viewBox="0 0 14 12" fill="none" xmlns="http://www.w3.org/2000/svg">
<g clip-path="url(#clip0_4443_23187)">
<path fill-rule="evenodd" clip-rule="evenodd" d="M-0.00195312 0.794434H19.798V1.59638H-0.00195312V0.794434ZM-0.00195312 2.3983H19.798V3.20024H-0.00195312V2.3983ZM-0.00195312 4.00012H19.798V4.80409H-0.00195312V4.00012ZM-0.00195312 5.60399H19.798V6.40593H-0.00195312V5.60399ZM-0.00195312 7.20785H19.798V8.0098H-0.00195312V7.20785ZM-0.00195312 8.80968H19.798V9.61162H-0.00195312V8.80968ZM-0.00195312 10.4135H19.798V11.2155H-0.00195312V10.4135Z" fill="#BD3D44"/>
<path fill-rule="evenodd" clip-rule="evenodd" d="M-0.00195312 1.59619H19.798V2.39811H-0.00195312V1.59619ZM-0.00195312 3.20003H19.798V3.99994H-0.00195312V3.20003ZM-0.00195312 4.80188H19.798V5.6038H-0.00195312V4.80188ZM-0.00195312 6.40575H19.798V7.20767H-0.00195312V6.40575ZM-0.00195312 8.00961H19.798V8.81153H-0.00195312V8.00961ZM-0.00195312 9.61143H19.798V10.4134H-0.00195312V9.61143Z" fill="white"/>
<path fill-rule="evenodd" clip-rule="evenodd" d="M-0.00195312 0.794434H7.91763V6.40593H-0.00195312V0.794434Z" fill="#192F5D"/>
<path fill-rule="evenodd" clip-rule="evenodd" d="M0.658809 1.03467L0.732082 1.25648H0.964124L0.776849 1.39287L0.848103 1.61675L0.658809 1.47834L0.471556 1.61471L0.542788 1.39287L0.353516 1.25648H0.589618L0.658809 1.03467ZM1.97976 1.03467L2.051 1.25648H2.28506L2.09576 1.39287L2.16702 1.61675L1.97976 1.47834L1.79047 1.61471L1.8617 1.39287L1.67445 1.25648H1.90649L1.97976 1.03467ZM3.29868 1.03467L3.37195 1.25651H3.60195L3.4147 1.39289L3.48591 1.61677L3.29664 1.47837L3.10938 1.61473L3.18062 1.39289L2.99132 1.25651H3.22541L3.29868 1.03467ZM4.61963 1.03467L4.69084 1.25651H4.92493L4.73563 1.39289L4.80891 1.61677L4.61961 1.47837L4.43034 1.61473L4.50361 1.39289L4.31432 1.25651H4.54636L4.61963 1.03467ZM5.93855 1.03467L6.01182 1.25651H6.24384L6.05659 1.39289L6.12782 1.61677L5.93853 1.47837L5.75127 1.61473L5.82253 1.39289L5.63527 1.25651H5.86729L5.93855 1.03467ZM7.25948 1.03467L7.33071 1.25651H7.5648L7.3755 1.39289L7.44878 1.61677L7.25948 1.47837L7.07019 1.61473L7.14346 1.39289L6.95419 1.25651H7.18825L7.25948 1.03467ZM1.32031 1.59638L1.39154 1.81827H1.6256L1.43631 1.95461L1.50552 2.17649L1.32233 2.0401L1.13305 2.17647L1.2002 1.95463L1.01703 1.81824H1.24907L1.32031 1.59638ZM2.63922 1.59638L2.71249 1.81827H2.94451L2.75522 1.95461L2.82852 2.17649L2.6392 2.0401L2.44993 2.17647L2.5232 1.95463L2.33391 1.81824H2.56797L2.63922 1.59638ZM3.96018 1.59638L4.03139 1.81827H4.26547L4.07618 1.95461L4.14741 2.17649L3.96015 2.0401L3.77088 2.17647L3.84211 1.95465L3.65486 1.81827H3.8869L3.96018 1.59638ZM5.27909 1.59638L5.35236 1.81827H5.58438L5.39509 1.95461L5.46836 2.17649L5.27907 2.0401L5.09182 2.17647L5.16307 1.95463L4.97378 1.81824H5.20988L5.27909 1.59638ZM6.60002 1.59638L6.67126 1.81827H6.90534L6.71605 1.95461L6.78728 2.17649L6.60002 2.0401L6.41073 2.17647L6.48198 1.95463L6.29473 1.81824H6.52675L6.60002 1.59638ZM0.658809 2.15617L0.732082 2.38209H0.964124L0.776849 2.51845L0.848103 2.74031L0.658809 2.60191L0.471556 2.74031L0.542788 2.51641L0.353516 2.38007H0.589618L0.658809 2.15617ZM1.97976 2.15617L2.051 2.38H2.28506L2.09576 2.51637L2.16702 2.73825L1.97976 2.59982L1.79047 2.73823L1.8617 2.51435L1.67445 2.37799H1.90649L1.97976 2.15617ZM3.29868 2.15617L3.37195 2.38005H3.60195L3.4147 2.51641L3.48591 2.73829L3.29664 2.59987L3.10938 2.73827L3.18062 2.51439L2.99132 2.37803H3.22541L3.29868 2.15617ZM4.61963 2.15617L4.69084 2.38005H4.92493L4.73563 2.51641L4.80891 2.73829L4.61961 2.59987L4.43034 2.73827L4.50361 2.51439L4.31432 2.37803H4.54636L4.61963 2.15617ZM5.93855 2.15617L6.01182 2.38005H6.24384L6.05659 2.51639L6.12782 2.73827L5.93853 2.59984L5.75127 2.73825L5.82253 2.51437L5.63527 2.37801H5.86729L5.93855 2.15617ZM7.25948 2.15617L7.33071 2.38005H7.5648L7.3755 2.51641L7.44878 2.73829L7.25948 2.59987L7.07019 2.73827L7.14346 2.51439L6.95419 2.37803H7.18825L7.25948 2.15617ZM1.32031 2.71791L1.39154 2.93977H1.6256L1.43631 3.07611L1.50756 3.30001L1.32031 3.1616L1.13101 3.29797L1.20225 3.07613L1.01499 2.93977H1.24706L1.32031 2.71791ZM2.63922 2.71791L2.71249 2.93977H2.94451L2.75522 3.07611L2.82852 3.30001L2.6392 3.1616L2.44993 3.29797L2.5232 3.07613L2.33391 2.93977H2.56797L2.63922 2.71791ZM3.96018 2.71791L4.03139 2.93977H4.26547L4.07618 3.07611L4.14741 3.30001L3.96015 3.1616L3.77088 3.29797L3.84211 3.07613L3.65486 2.93977H3.8869L3.96018 2.71791ZM5.27909 2.71791L5.35236 2.93977H5.58438L5.39713 3.07611L5.46836 3.30001L5.27907 3.1616L5.09182 3.29797L5.16307 3.07613L4.97378 2.93977H5.20988L5.27909 2.71791ZM6.60002 2.71791L6.67126 2.93977H6.90534L6.71605 3.07611L6.78728 3.30001L6.60002 3.1616L6.41073 3.29797L6.48198 3.07613L6.29473 2.93977H6.52675L6.60002 2.71791ZM0.658809 3.27967L0.732082 3.50153H0.964124L0.776849 3.63787L0.848103 3.86177L0.658809 3.72336L0.471556 3.85973L0.542788 3.63789L0.353516 3.50153H0.589618L0.658809 3.27967ZM1.97976 3.27967L2.051 3.50153H2.28506L2.09576 3.63787L2.16702 3.85975L1.97976 3.72336L1.79047 3.85973L1.8617 3.63789L1.67445 3.50153H1.90649L1.97976 3.27967ZM3.29868 3.27967L3.37195 3.50153H3.60195L3.4147 3.63787L3.48591 3.86177L3.29664 3.72336L3.10938 3.85973L3.18062 3.63789L2.99132 3.50153H3.22541L3.29868 3.27967ZM4.61963 3.27967L4.69084 3.50153H4.92493L4.73563 3.63787L4.80891 3.86177L4.61961 3.72336L4.43034 3.85973L4.50361 3.63789L4.31432 3.50153H4.54636L4.61963 3.27967ZM5.93855 3.27967L6.01182 3.50153H6.24384L6.05659 3.63787L6.12782 3.86177L5.93853 3.72336L5.75127 3.85973L5.82253 3.63789L5.63527 3.50153H5.86729L5.93855 3.27967ZM7.25948 3.27967L7.33071 3.50153H7.5648L7.3755 3.63787L7.44878 3.86177L7.25948 3.72336L7.07019 3.85973L7.14346 3.63789L6.95419 3.50153H7.18825L7.25948 3.27967ZM1.32031 3.84143L1.39154 4.06329H1.6256L1.43631 4.19963L1.50756 4.42151L1.32031 4.28311L1.13101 4.42151L1.20225 4.19761L1.01499 4.06125H1.24706L1.32031 3.84143ZM2.63922 3.84143L2.71249 4.06329H2.94451L2.75522 4.19963L2.82852 4.42151L2.6392 4.28311L2.44993 4.42151L2.5232 4.19761L2.33391 4.06125H2.56797L2.63922 3.84143ZM3.96018 3.84143L4.03139 4.06329H4.26547L4.07618 4.19963L4.14741 4.42151L3.96015 4.28311L3.77088 4.42151L3.84211 4.19761L3.65486 4.06125H3.8869L3.96018 3.84143ZM5.27909 3.84143L5.35236 4.06329H5.58438L5.39713 4.19963L5.46836 4.42151L5.27907 4.28311L5.09182 4.42151L5.16307 4.19761L4.97378 4.06125H5.20988L5.27909 3.84143ZM6.60002 3.84143L6.67126 4.06329H6.90534L6.71605 4.19963L6.78728 4.42151L6.60002 4.28311L6.41073 4.42151L6.48198 4.19761L6.29473 4.06125H6.52675L6.60002 3.84143ZM0.658809 4.40115L0.732082 4.62505H0.964124L0.776849 4.76139L0.848103 4.98123L0.658809 4.84487L0.471556 4.98121L0.542788 4.75937L0.353516 4.62301H0.589618L0.658809 4.40115ZM1.97976 4.40115L2.051 4.62505H2.28506L2.09576 4.76139L2.16906 4.98123L1.97974 4.84487L1.79047 4.98121L1.86374 4.75937L1.67445 4.62301H1.90649L1.97976 4.40115ZM3.29868 4.40115L3.37195 4.62505H3.60195L3.4147 4.76139L3.48591 4.98123L3.29664 4.84487L3.10938 4.98121L3.18062 4.75937L2.99132 4.62301H3.22541L3.29868 4.40115ZM4.61963 4.40115L4.69084 4.62505H4.92493L4.73563 4.76139L4.80891 4.98123L4.61961 4.84487L4.43034 4.98121L4.50361 4.75937L4.31432 4.62301H4.54636L4.61963 4.40115ZM5.93855 4.40115L6.01182 4.62505H6.24384L6.05659 4.76139L6.12782 4.98123L5.93853 4.84487L5.75127 4.98121L5.82253 4.75937L5.63527 4.62301H5.86729L5.93855 4.40115ZM7.25948 4.40115L7.33071 4.62505H7.5648L7.3755 4.76139L7.44878 4.98123L7.25948 4.84487L7.07019 4.98121L7.14346 4.75937L6.95419 4.62301H7.18825L7.25948 4.40115ZM1.32031 4.96291L1.39154 5.18477H1.6256L1.43631 5.32113L1.50756 5.54503L1.32031 5.40663L1.13101 5.54297L1.20225 5.32113L1.01499 5.18477H1.24706L1.32031 4.96291ZM2.63922 4.96291L2.71249 5.18477H2.94451L2.75522 5.32113L2.82852 5.54503L2.6392 5.40663L2.44993 5.54297L2.5232 5.32113L2.33391 5.18477H2.56797L2.63922 4.96291ZM3.96018 4.96291L4.03139 5.18477H4.26547L4.07618 5.32113L4.14741 5.54503L3.96015 5.40663L3.77088 5.54297L3.84211 5.32113L3.65486 5.18477H3.8869L3.96018 4.96291ZM5.27909 4.96291L5.35236 5.18477H5.58438L5.39713 5.32113L5.46836 5.54503L5.27907 5.40663L5.09182 5.54297L5.16307 5.32113L4.97378 5.18477H5.20988L5.27909 4.96291ZM6.60002 4.96291L6.67126 5.18477H6.90534L6.71605 5.32113L6.78728 5.54503L6.60002 5.40663L6.41073 5.54297L6.48198 5.32113L6.29473 5.18477H6.52675L6.60002 4.96291ZM0.658809 5.52467L0.732082 5.74652H0.964124L0.776849 5.88289L0.848103 6.10475L0.658809 5.96839L0.471556 6.10473L0.542788 5.88085L0.353516 5.74448H0.589618L0.658809 5.52467ZM1.97976 5.52467L2.051 5.74652H2.28506L2.09576 5.88289L2.16906 6.10475L1.97974 5.96839L1.79047 6.10473L1.86374 5.88085L1.67445 5.74448H1.90649L1.97976 5.52467ZM3.29868 5.52467L3.37195 5.74652H3.60195L3.41876 5.88289L3.48999 6.10475L3.3007 5.96839L3.11344 6.10473L3.1847 5.88085L2.9954 5.74448H3.22947L3.29868 5.52467ZM4.61963 5.52467L4.69084 5.74652H4.92493L4.73563 5.88289L4.80891 6.10475L4.61961 5.96839L4.43034 6.10473L4.50361 5.88085L4.31432 5.74448H4.54636L4.61963 5.52467ZM5.93855 5.52467L6.01182 5.74652H6.24384L6.05659 5.88289L6.12782 6.10475L5.93853 5.96839L5.75127 6.10473L5.82253 5.88085L5.63527 5.74448H5.86729L5.93855 5.52467ZM7.25948 5.52467L7.33071 5.74652H7.5648L7.3755 5.88289L7.44878 6.10475L7.25948 5.96839L7.07019 6.10473L7.14346 5.88085L6.95419 5.74448H7.18825L7.25948 5.52467Z" fill="white"/>
</g>
<defs>
<clipPath id="clip0_4443_23187">
<rect width="13.8947" height="10.4211" fill="white" transform="translate(0 0.794434)"/>
</clipPath>
</defs>
</svg>
