<svg width="75" height="20" viewBox="0 0 75 20" fill="none" xmlns="http://www.w3.org/2000/svg">
<g clip-path="url(#clip0_4443_23098)">
<path d="M7.62755 2.26743H9.25109C10.2398 2.12177 11.2496 2.24983 12.1706 2.63771C13.3262 3.33292 14.1643 4.45215 14.5063 5.75663C14.7484 6.44022 14.7484 6.44023 15.3323 6.19812H15.788V0.786298H0.506735V1.74049H1.13337C1.40567 1.7386 1.67494 1.79775 1.92139 1.91358C2.16784 2.02941 2.38521 2.19898 2.55753 2.40984C3.14144 3.34979 3.24113 4.40367 3.24113 9.8867C3.24113 15.7115 3.11295 17.1357 2.55753 17.862C2.42041 18.0487 2.24288 18.2021 2.0382 18.3106C1.83352 18.4191 1.60697 18.48 1.37547 18.4886C0.506735 18.6453 0.506735 18.6311 0.506735 19.0156C0.458693 19.1442 0.458693 19.2858 0.506735 19.4143H10.1483C10.2121 19.2886 10.2454 19.1495 10.2454 19.0085C10.2454 18.8674 10.2121 18.7284 10.1483 18.6026C9.91479 18.5376 9.67678 18.49 9.43624 18.4602C9.17601 18.4292 8.91879 18.3768 8.66719 18.3035C8.3069 18.0405 8.02148 17.688 7.83915 17.2808C7.65682 16.8737 7.58388 16.4261 7.62755 15.9821C7.48513 15.0422 7.41392 13.3189 7.41392 11.8948V10.7697H7.98359C8.69333 10.748 9.40265 10.8246 10.0914 10.9975C10.4213 11.2014 10.7021 11.4756 10.9139 11.8006C11.1256 12.1256 11.2629 12.4933 11.3161 12.8774L11.4443 13.3189H12.313V7.00989H11.5155L11.3873 7.62228C11.3334 8.01516 11.1881 8.38991 10.963 8.7164C10.7379 9.0429 10.4394 9.31203 10.0914 9.50218C9.75433 9.60247 9.39926 9.62679 9.05171 9.57338H7.41392V8.03529C7.41392 6.44023 7.49937 3.0792 7.55634 2.55226L7.62755 2.26743ZM74.2784 13.561C73.6052 12.4776 72.5552 11.6812 71.3304 11.3251C70.3913 11.0316 69.5234 10.5467 68.7811 9.90094C68.6141 9.73939 68.4891 9.53943 68.4171 9.3185C68.3452 9.09756 68.3283 8.86237 68.3681 8.63344C68.3692 8.18438 68.5485 7.75412 68.8666 7.43714C69.0821 7.21135 69.355 7.04836 69.656 6.96559C69.957 6.88281 70.2748 6.88336 70.5756 6.96717C71.1981 7.1446 71.7611 7.48714 72.2049 7.95849C72.6487 8.42984 72.9567 9.01245 73.0963 9.64459C73.3242 10.2855 73.3527 10.2855 73.7657 10.1146L74.022 10.0149V6.46871L73.8369 6.38326C72.4348 5.89082 70.9475 5.68735 69.4647 5.78511C68.1877 5.81746 66.9688 6.32534 66.0467 7.20927C65.6285 7.60076 65.3009 8.07893 65.0869 8.6103C64.8729 9.14167 64.7776 9.7134 64.8077 10.2855C64.8157 11.1601 65.1629 11.9974 65.7761 12.6211C66.4538 13.2876 67.2854 13.7768 68.1972 14.0453C70.4046 14.914 71.0455 15.4694 71.0455 16.4806C71.055 16.907 70.9192 17.3239 70.6604 17.663C70.4016 18.002 70.0352 18.2429 69.6214 18.3462C69.1241 18.4555 68.609 18.4555 68.1118 18.3462C67.4607 18.0935 66.8793 17.689 66.4161 17.1664C65.9529 16.6437 65.6212 16.018 65.4486 15.3412L65.2634 14.8855H65.0071C64.8846 14.8946 64.7643 14.9235 64.651 14.971H64.5086V19.0156H64.7507C65.7129 19.3357 66.7056 19.5552 67.713 19.6707H69.1371C69.7548 19.716 70.3756 19.6583 70.9743 19.4998C71.7344 19.3595 72.4445 19.0228 73.0341 18.5232C73.6237 18.0235 74.0723 17.3782 74.3353 16.6515C74.5053 16.2456 74.5925 15.8098 74.5917 15.3697C74.6478 14.7498 74.5397 14.126 74.2784 13.561ZM60.8628 6.19812C60.0093 5.83981 59.0898 5.666 58.1645 5.68809C57.2392 5.71018 56.329 5.92767 55.4937 6.32629C54.7085 6.71037 54.0125 7.25482 53.4508 7.9245C52.889 8.59419 52.474 9.37422 52.2323 10.2143C51.9243 11.1306 51.7938 12.0973 51.8478 13.0626C51.8376 13.5878 51.8806 14.1126 51.976 14.6292C52.206 15.8992 52.8191 17.0685 53.7331 17.9799C54.647 18.8913 55.818 19.5012 57.0887 19.7277C57.9162 19.8319 58.7535 19.8319 59.581 19.7277C60.4397 19.5763 61.2615 19.2621 62.0021 18.802C62.6147 18.4585 63.1332 17.9694 63.5117 17.3778C63.4874 17.285 63.4446 17.198 63.3859 17.1222C63.3271 17.0463 63.2537 16.9831 63.1699 16.9363C63.0074 16.9952 62.8539 17.0767 62.7142 17.1784C62.0058 17.6453 61.1694 17.8793 60.3216 17.8478C59.7589 17.8858 59.1948 17.7982 58.6701 17.5913C58.1454 17.3844 57.6734 17.0634 57.2881 16.6515C56.9901 16.3747 56.7441 16.0467 56.5618 15.683C56.1192 14.7977 55.8808 13.8244 55.8639 12.8347V12.2793H63.7538V11.9945C63.7712 11.7099 63.7712 11.4245 63.7538 11.14C63.751 10.1344 63.482 9.14744 62.9742 8.27945C62.4664 7.41147 61.738 6.69337 60.8628 6.19812ZM56.8893 11.1257H55.8924V10.2855C56.22 8.13498 57.0318 6.85323 58.0287 6.85323C59.0256 6.85323 59.4528 8.12074 59.638 10.4421V11.0972H58.7835L56.8893 11.1257ZM36.4099 5.72814C35.9178 5.70906 35.4286 5.81179 34.9857 6.02722C34.0232 6.49467 33.2457 7.27212 32.7783 8.23467L32.5931 8.57647V5.72814H32.5219C32.351 5.72814 27.0816 6.78202 26.9107 6.85323C26.7398 6.92444 26.7968 6.93868 26.7968 7.19503C26.7968 7.45138 26.7968 7.49411 26.9107 7.50835L27.4661 7.62228C27.6217 7.6261 27.7744 7.66527 27.9125 7.73682C28.0507 7.80838 28.1708 7.91044 28.2637 8.03529C28.6197 8.50526 28.6909 9.33127 28.6909 12.849C28.7613 14.4326 28.6946 16.0193 28.4915 17.5914C28.4437 17.8285 28.3235 18.0448 28.1475 18.2107C27.9715 18.3765 27.7483 18.4836 27.5089 18.5171L27.0247 18.6168H26.8395V19.0156C26.7878 19.1484 26.7878 19.2958 26.8395 19.4286H34.8006V19.0156C34.8282 18.8793 34.8282 18.7389 34.8006 18.6026C34.3213 18.5839 33.8446 18.5219 33.3764 18.4174C33.1215 18.2841 32.9129 18.0766 32.7782 17.8224C32.6434 17.5682 32.5888 17.2791 32.6216 16.9933C32.5077 16.1673 32.4507 13.7462 32.4792 11.8948C32.5077 10.0434 32.4792 9.92942 32.6359 9.80125C33.1124 9.43586 33.7021 9.24937 34.3021 9.27431C34.8677 9.28664 35.423 9.4279 35.9257 9.68732C36.0999 9.78409 36.2869 9.856 36.4811 9.90094C36.4811 9.90094 37.9053 6.45447 37.9053 6.29781C37.723 6.08603 37.4908 5.92303 37.2297 5.82356C36.9686 5.7241 36.6868 5.6913 36.4099 5.72814ZM26.811 11.7096C26.7613 10.6919 26.4691 9.70084 25.9588 8.81893C25.4485 7.93702 24.7348 7.18983 23.8773 6.63961C22.8581 6.08981 21.7243 5.78666 20.5667 5.7545C19.4092 5.72235 18.2602 5.96209 17.2122 6.45447C15.7303 7.23588 14.6115 8.5642 14.0932 10.1573C13.558 11.9409 13.558 13.8424 14.0932 15.6261C14.3738 16.6009 14.8983 17.4881 15.6171 18.2038C16.5123 19.0773 17.6667 19.637 18.9069 19.7989C19.7031 19.8654 20.5034 19.8654 21.2995 19.7989C21.5925 19.7543 21.8826 19.6925 22.1683 19.6137C23.3275 19.2895 24.3704 18.6418 25.1749 17.7464C25.9795 16.8511 26.5124 15.7451 26.7113 14.558C26.8535 13.6155 26.887 12.6598 26.811 11.7096ZM20.8865 18.8304C19.4623 19.2577 18.3942 17.8763 18.0382 14.971C17.9074 13.4499 17.9074 11.9204 18.0382 10.3994C18.323 8.06377 19.0493 6.88172 20.1744 6.88172C20.4014 6.86765 20.6285 6.90815 20.8366 6.99982C21.0447 7.0915 21.2279 7.23169 21.3707 7.40866C22.3249 8.36284 22.7949 10.257 22.7949 13.1053C22.9134 14.7173 22.66 16.335 22.0543 17.8335C21.7869 18.2706 21.3731 18.5986 20.8865 18.7592V18.8304ZM46.5214 6.01298C46.1196 5.96126 45.7128 5.96126 45.3109 6.01298C44.5395 6.01232 43.777 6.17745 43.075 6.49719L42.6335 6.68233V3.5919C42.7106 2.54894 42.7106 1.5017 42.6335 0.45874C42.4626 0.45874 37.0223 1.49838 36.9368 1.5411C36.8948 1.64625 36.8948 1.76352 36.9368 1.86866C36.9368 2.16774 36.9368 2.15349 37.5777 2.29591C37.7576 2.33626 37.9305 2.40348 38.0904 2.49529C38.3684 2.75671 38.5534 3.10176 38.6173 3.47797C38.7795 4.56179 38.832 5.65919 38.774 6.75354V19.2577L39.1585 19.3431C39.7282 19.4713 41.3375 19.7419 41.8644 19.7989C42.9166 19.8826 43.9739 19.8826 45.0261 19.7989C46.194 19.6796 47.3072 19.2439 48.2458 18.5387C49.1844 17.8335 49.9128 16.8855 50.3524 15.797C50.6146 15.0983 50.7961 14.3721 50.8936 13.6322C50.9784 12.6301 50.9449 11.6215 50.7939 10.6273C50.6411 9.51274 50.1492 8.47218 49.3849 7.64674C48.6206 6.82129 47.6209 6.25092 46.5214 6.01298ZM42.7901 18.5883C42.7901 18.4032 42.6477 12.1654 42.6762 9.67307V7.72197L43.0892 7.62228C43.3679 7.58236 43.6508 7.58236 43.9295 7.62228C44.2376 7.59094 44.5476 7.66094 44.8124 7.82166C45.3443 8.18872 45.786 8.67165 46.1042 9.23409C46.4224 9.79652 46.6089 10.4238 46.6496 11.0688C46.7534 12.1058 46.7534 13.1506 46.6496 14.1877C46.5644 15.6949 45.9836 17.1318 44.9976 18.275C44.7177 18.5408 44.3663 18.7191 43.9864 18.7877C43.699 18.8377 43.4051 18.8377 43.1177 18.7877C42.8471 18.7877 42.8471 18.7023 42.8471 18.5883H42.7901Z" fill="#33629A" style="mix-blend-mode:luminosity"/>
</g>
<defs>
<clipPath id="clip0_4443_23098">
<rect width="74.1135" height="19.4113" fill="white" transform="translate(0.488281 0.458496)"/>
</clipPath>
</defs>
</svg>
