<svg width="143" height="20" viewBox="0 0 143 20" fill="none" xmlns="http://www.w3.org/2000/svg">
<path d="M0.400391 0.458496V6.97023H6.90309V19.9838H13.4148V6.97023H19.9175V0.458496H0.400391ZM26.4293 13.4721V6.96941H19.9167V19.983H39.4429V13.4713L26.4293 13.4721ZM26.4293 0.458496H39.4429V6.97023H26.4293V0.458496Z" fill="#0A9600" style="mix-blend-mode:luminosity"/>
<path d="M53.9693 7.3081V16.1814H50.7128V7.3081H47.4297V4.46865H57.2524V7.3081H53.9693ZM64.848 12.6676H59.6571C59.6528 12.8609 59.689 13.053 59.7635 13.2314C59.838 13.4099 59.949 13.5708 60.0895 13.7037C60.2299 13.8366 60.3967 13.9386 60.5789 14.0032C60.7612 14.0677 60.955 14.0933 61.1478 14.0784C61.9491 14.0741 62.7354 13.86 63.4282 13.4573L64.6084 15.4094C63.5408 16.0667 62.3127 16.4167 61.0591 16.421C58.3971 16.421 56.9507 14.5398 56.9507 11.8424C56.9507 8.80769 58.6633 7.24599 60.9703 7.24599C63.2774 7.24599 64.8923 8.84318 64.8923 12.1086C64.8568 12.3215 64.8568 12.5079 64.848 12.6587V12.6676ZM60.855 9.44657C60.1629 9.44657 59.7902 9.91685 59.6837 10.7953H62.1948C62.044 9.90798 61.7512 9.44657 60.8639 9.44657H60.855ZM70.4559 16.3944C67.8826 16.3944 66.3387 14.7528 66.3387 11.7802C66.3387 9.11826 67.7052 7.21937 70.5269 7.21937C71.2208 7.1964 71.907 7.37102 72.5055 7.72291C73.104 8.07479 73.5902 8.58946 73.9076 9.20699L71.8312 10.8042C71.4142 10.0411 71.1214 9.6684 70.4736 9.6684C69.8259 9.6684 69.3201 10.4404 69.3201 11.8335C69.3201 13.2266 69.7371 13.9453 70.5624 13.9453C71.1302 13.9453 71.5384 13.6259 72.0886 12.7918L73.9963 14.2825C72.967 15.791 72.0176 16.3855 70.447 16.3855L70.4559 16.3944ZM80.7489 16.2169V11.2212C80.7489 10.0677 80.3673 9.77488 79.7462 9.77488C79.1251 9.77488 78.7169 10.0766 78.7169 11.1946V16.2258H75.7V5.22288L78.7169 4.01611V8.00909C79.3415 7.49698 80.1277 7.22339 80.9352 7.23712C82.8607 7.23712 83.7747 8.53262 83.7747 10.8397V16.2258L80.7489 16.2169Z" fill="#0A9600" style="mix-blend-mode:luminosity"/>
<path d="M90.8728 16.4121C87.3856 16.4121 85.5488 13.8388 85.5488 10.3605C85.5488 6.58937 87.7672 4.30893 90.8728 4.30893C93.7566 4.30893 94.8924 5.55119 95.6999 7.76951L92.7539 8.92304C92.328 7.83163 91.9287 7.14838 90.8551 7.14838C89.4974 7.14838 88.9029 8.506 88.9029 10.3694C88.9029 12.2328 89.4708 13.5815 90.8817 13.5815C91.9021 13.5815 92.3369 13.0314 92.9758 11.9222L95.7265 13.3863C95.3192 14.3254 94.636 15.1186 93.7676 15.6606C92.8992 16.2025 91.8865 16.4677 90.8639 16.421L90.8728 16.4121ZM103.171 10.7332C103.005 10.5163 102.793 10.3382 102.551 10.211C102.309 10.0839 102.042 10.0108 101.769 9.99671C101.033 9.99671 100.58 10.3516 100.58 11.4164V16.208H97.5633V7.42346H100.58V8.06233C100.997 7.62259 101.551 7.33809 102.151 7.25581C102.751 7.17354 103.361 7.2984 103.881 7.6098L103.171 10.7332ZM110.359 16.2169V15.6312C109.742 16.1449 108.96 16.419 108.158 16.4032C106.232 16.4032 105.319 15.1077 105.319 12.7918V7.4412H108.335V12.4102C108.335 13.546 108.726 13.8477 109.347 13.8477C109.968 13.8477 110.35 13.546 110.35 12.4457V7.4412H113.384V16.2435L110.359 16.2169ZM120.616 16.2169V11.2212C120.616 10.0677 120.226 9.77488 119.613 9.77488C119.001 9.77488 118.584 10.0766 118.584 11.1946V16.2258H115.567V7.4412H118.584V8.02684C119.209 7.51473 119.995 7.24114 120.802 7.25487C122.728 7.25487 123.642 8.55036 123.642 10.8574V16.2435L120.616 16.2169ZM129.534 16.3944C126.96 16.3944 125.408 14.7528 125.408 11.7802C125.408 9.11826 126.783 7.21937 129.596 7.21937C130.291 7.19789 130.977 7.37305 131.577 7.72468C132.177 8.07631 132.665 8.59013 132.985 9.20699L130.909 10.7776C130.483 10.0145 130.199 9.64178 129.551 9.64178C128.904 9.64178 128.398 10.4138 128.398 11.8069C128.398 13.2 128.815 13.9187 129.64 13.9187C130.208 13.9187 130.616 13.5993 131.166 12.7652L133.074 14.2559C132.054 15.7998 131.095 16.3855 129.543 16.3855L129.534 16.3944ZM139.827 16.2169V11.2212C139.827 10.0677 139.445 9.77488 138.824 9.77488C138.203 9.77488 137.804 10.0766 137.804 11.1946V16.2258H134.787V5.22288L137.804 4.01611V8.00909C138.424 7.49553 139.208 7.2216 140.013 7.23712C141.947 7.23712 142.853 8.53262 142.853 10.8397V16.2258L139.827 16.2169Z" fill="#5B5B5C" style="mix-blend-mode:luminosity"/>
</svg>
