<svg width="135" height="38" viewBox="0 0 135 38" fill="none" xmlns="http://www.w3.org/2000/svg">
<path fill-rule="evenodd" clip-rule="evenodd" d="M16.869 9.46741C17.8899 8.25586 18.402 6.94693 18.402 5.54504C18.402 5.3591 18.3934 5.17166 18.3726 4.98425C17.6615 5.02114 16.9053 5.2366 16.1059 5.62619C15.3048 6.02168 14.6442 6.51745 14.1247 7.11371C13.0844 8.29134 12.4985 9.73162 12.4985 11.0774C12.4985 11.2634 12.5104 11.4404 12.531 11.6086C14.1469 11.74 15.6371 10.9077 16.869 9.46741ZM22.3038 29.5388C22.8851 28.71 23.3869 27.8086 23.8109 26.8291C23.9857 26.4139 24.15 25.9814 24.3057 25.5297C23.5877 25.2286 22.9422 24.8048 22.3644 24.2563C21.0892 23.0745 20.4403 21.5861 20.4213 19.7975C20.4005 17.5012 21.4438 15.7113 23.553 14.4333C22.3747 12.7584 20.603 11.8287 18.2445 11.6384C17.3742 11.5645 16.3118 11.7521 15.0531 12.205C13.7219 12.6935 12.9367 12.9385 12.7051 12.9385C12.3952 12.9385 11.6883 12.729 10.5875 12.3158C9.48362 11.904 8.5953 11.6945 7.9179 11.6945C6.67989 11.715 5.53029 12.0369 4.46634 12.6684C3.40239 13.3 2.55231 14.1603 1.91331 15.2509C1.10026 16.6086 0.694336 18.2288 0.694336 20.1074C0.694336 21.7474 0.995404 23.4413 1.59598 25.1907C2.15677 26.8102 2.87259 28.2308 3.74325 29.4557C4.55476 30.603 5.23216 31.4127 5.77374 31.8851C6.62227 32.6741 7.47235 33.0495 8.32521 33.0133C8.886 32.9942 9.61945 32.8021 10.5299 32.4336C11.439 32.0668 12.2889 31.8851 13.0814 31.8851C13.837 31.8851 14.6634 32.0668 15.5626 32.4336C16.4589 32.8021 17.2288 32.9838 17.8674 32.9838C18.7568 32.963 19.5873 32.5979 20.3624 31.8851C20.8625 31.4507 21.5114 30.6687 22.3038 29.5388Z" fill="white"/>
<path d="M36.4957 11.72V7.19H37.6057C38.7657 7.19 39.7257 7.92 39.7257 9.46C39.7257 11 38.7557 11.72 37.5957 11.72H36.4957ZM37.6457 13C39.6657 13 41.1557 11.7 41.1557 9.46C41.1557 7.22 39.6757 5.91 37.6557 5.91H35.1157V13H37.6457ZM44.4913 11.94C43.8413 11.94 43.2413 11.46 43.2413 10.54C43.2413 9.61 43.8413 9.14 44.4913 9.14C45.1413 9.14 45.7413 9.61 45.7413 10.54C45.7413 11.47 45.1413 11.94 44.4913 11.94ZM44.4913 7.93C43.0213 7.93 41.9113 9.02 41.9113 10.54C41.9113 12.05 43.0213 13.15 44.4913 13.15C45.9613 13.15 47.0713 12.05 47.0713 10.54C47.0713 9.02 45.9613 7.93 44.4913 7.93ZM50.7842 8.08L49.7142 11.24L48.8042 8.08H47.4042L48.9742 13H50.3242L51.4542 9.64L52.6042 13H53.9342L55.4742 8.08H54.1542L53.2442 11.25L52.1842 8.08H50.7842ZM57.6347 10.17C57.6347 9.6 57.9747 9.15 58.5547 9.15C59.1947 9.15 59.4647 9.58 59.4647 10.13V13H60.7947V9.9C60.7947 8.82 60.2347 7.95 59.0147 7.95C58.4847 7.95 57.8947 8.18 57.5947 8.69V8.08H56.3047V13H57.6347V10.17ZM63.4746 13V5.76H62.1446V13H63.4746ZM67.1085 11.94C66.4585 11.94 65.8585 11.46 65.8585 10.54C65.8585 9.61 66.4585 9.14 67.1085 9.14C67.7585 9.14 68.3585 9.61 68.3585 10.54C68.3585 11.47 67.7585 11.94 67.1085 11.94ZM67.1085 7.93C65.6385 7.93 64.5285 9.02 64.5285 10.54C64.5285 12.05 65.6385 13.15 67.1085 13.15C68.5785 13.15 69.6885 12.05 69.6885 10.54C69.6885 9.02 68.5785 7.93 67.1085 7.93ZM70.4383 11.66C70.4383 12.43 71.0783 13.14 72.1283 13.14C72.8583 13.14 73.3283 12.8 73.5783 12.41C73.5783 12.6 73.5983 12.87 73.6283 13H74.8483C74.8183 12.83 74.7883 12.48 74.7883 12.22V9.8C74.7883 8.81 74.2083 7.93 72.6483 7.93C71.3283 7.93 70.6183 8.78 70.5383 9.55L71.7183 9.8C71.7583 9.37 72.0783 9 72.6583 9C73.2183 9 73.4883 9.29 73.4883 9.64C73.4883 9.81 73.3983 9.95 73.1183 9.99L71.9083 10.17C71.0883 10.29 70.4383 10.78 70.4383 11.66ZM72.4083 12.15C71.9783 12.15 71.7683 11.87 71.7683 11.58C71.7683 11.2 72.0383 11.01 72.3783 10.96L73.4883 10.79V11.01C73.4883 11.88 72.9683 12.15 72.4083 12.15ZM80.7994 5.76H79.4894V8.57C79.3494 8.31 78.9494 7.96 78.0994 7.96C76.7094 7.96 75.7394 9.09 75.7394 10.53C75.7394 12.02 76.7394 13.12 78.1394 13.12C78.7994 13.12 79.2994 12.82 79.5194 12.43C79.5194 12.66 79.5494 12.9 79.5694 13H80.8394C80.8194 12.8 80.7994 12.44 80.7994 12.11V5.76ZM77.0794 10.53C77.0794 9.65 77.6194 9.15 78.2994 9.15C78.9794 9.15 79.5094 9.64 79.5094 10.52C79.5094 11.41 78.9794 11.93 78.2994 11.93C77.5994 11.93 77.0794 11.41 77.0794 10.53ZM86.9229 11.94C86.2729 11.94 85.6729 11.46 85.6729 10.54C85.6729 9.61 86.2729 9.14 86.9229 9.14C87.5729 9.14 88.1729 9.61 88.1729 10.54C88.1729 11.47 87.5729 11.94 86.9229 11.94ZM86.9229 7.93C85.4529 7.93 84.3429 9.02 84.3429 10.54C84.3429 12.05 85.4529 13.15 86.9229 13.15C88.3929 13.15 89.5029 12.05 89.5029 10.54C89.5029 9.02 88.3929 7.93 86.9229 7.93ZM91.8828 10.17C91.8828 9.6 92.2228 9.15 92.8028 9.15C93.4428 9.15 93.7128 9.58 93.7128 10.13V13H95.0428V9.9C95.0428 8.82 94.4828 7.95 93.2628 7.95C92.7328 7.95 92.1428 8.18 91.8428 8.69V8.08H90.5528V13H91.8828V10.17ZM100.503 6.61H99.3033V7.3C99.3033 7.74 99.0633 8.08 98.5433 8.08H98.2933V9.26H99.1833V11.55C99.1833 12.5 99.7833 13.07 100.743 13.07C101.133 13.07 101.373 13 101.493 12.95V11.85C101.423 11.87 101.243 11.89 101.083 11.89C100.703 11.89 100.503 11.75 100.503 11.32V9.26H101.493V8.08H100.503V6.61ZM103.709 10.11C103.739 9.57 104.069 9.15 104.629 9.15C105.269 9.15 105.539 9.58 105.539 10.13V13H106.869V9.9C106.869 8.82 106.289 7.95 105.039 7.95C104.569 7.95 104.029 8.11 103.709 8.49V5.76H102.379V13H103.709V10.11ZM109.189 9.98C109.219 9.53 109.599 9.01 110.289 9.01C111.049 9.01 111.369 9.49 111.389 9.98H109.189ZM111.519 11.26C111.359 11.7 111.019 12.01 110.399 12.01C109.739 12.01 109.189 11.54 109.159 10.89H112.679C112.679 10.87 112.699 10.67 112.699 10.48C112.699 8.9 111.789 7.93 110.269 7.93C109.009 7.93 107.849 8.95 107.849 10.52C107.849 12.18 109.039 13.15 110.389 13.15C111.599 13.15 112.379 12.44 112.629 11.59L111.519 11.26Z" fill="white"/>
<path d="M39.0057 28.14L38.0657 31H34.6257L39.6257 17.08H43.7857L48.7857 31H45.2657L44.3057 28.14H39.0057ZM43.4257 25.48L41.5857 20.06L39.8257 25.48H43.4257ZM53.2104 34.86H49.9504V20.32H52.8904V21.92C53.2304 21.4 53.7104 20.98 54.3304 20.64C54.9504 20.3 55.6104 20.14 56.3504 20.14C57.2704 20.14 58.0904 20.36 58.8104 20.82C59.5104 21.28 60.0704 21.9 60.4904 22.72C60.8904 23.54 61.0904 24.5 61.0904 25.56C61.0904 26.64 60.8704 27.6 60.4504 28.44C60.0304 29.3 59.4304 29.96 58.6704 30.42C57.8904 30.88 57.0304 31.12 56.0704 31.12C55.5104 31.12 54.9904 31 54.4904 30.78C53.9904 30.56 53.5704 30.28 53.2104 29.92V34.86ZM55.5504 28.24C56.1704 28.24 56.7104 28 57.1704 27.52C57.6104 27.04 57.8304 26.4 57.8304 25.62C57.8304 24.84 57.6104 24.2 57.1704 23.74C56.7304 23.28 56.1904 23.04 55.5704 23.04C54.9104 23.04 54.3504 23.26 53.8904 23.68C53.4304 24.12 53.2104 24.72 53.2104 25.5V25.78C53.2104 26.54 53.4504 27.14 53.9104 27.58C54.3704 28.02 54.9104 28.24 55.5504 28.24ZM65.7494 34.86H62.4894V20.32H65.4294V21.92C65.7694 21.4 66.2494 20.98 66.8694 20.64C67.4894 20.3 68.1494 20.14 68.8894 20.14C69.8094 20.14 70.6294 20.36 71.3494 20.82C72.0494 21.28 72.6094 21.9 73.0294 22.72C73.4294 23.54 73.6294 24.5 73.6294 25.56C73.6294 26.64 73.4094 27.6 72.9894 28.44C72.5694 29.3 71.9694 29.96 71.2094 30.42C70.4294 30.88 69.5694 31.12 68.6094 31.12C68.0494 31.12 67.5294 31 67.0294 30.78C66.5294 30.56 66.1094 30.28 65.7494 29.92V34.86ZM68.0894 28.24C68.7094 28.24 69.2494 28 69.7094 27.52C70.1494 27.04 70.3694 26.4 70.3694 25.62C70.3694 24.84 70.1494 24.2 69.7094 23.74C69.2694 23.28 68.7294 23.04 68.1094 23.04C67.4494 23.04 66.8894 23.26 66.4294 23.68C65.9694 24.12 65.7494 24.72 65.7494 25.5V25.78C65.7494 26.54 65.9894 27.14 66.4494 27.58C66.9094 28.02 67.4494 28.24 68.0894 28.24ZM84.9499 31.2C83.9499 31.2 82.9699 31.06 82.0099 30.76C81.0299 30.48 80.2299 30.14 79.5699 29.76L80.4899 26.94C81.0699 27.26 81.7699 27.54 82.5899 27.8C83.4099 28.06 84.2299 28.18 85.0499 28.18C86.3299 28.18 86.9699 27.8 86.9699 27.06C86.9699 26.68 86.7699 26.36 86.3699 26.12C85.9699 25.9 85.2699 25.62 84.2899 25.32C83.3299 25 82.5699 24.66 81.9899 24.3C81.4099 23.94 80.9899 23.5 80.7099 22.98C80.4099 22.46 80.2699 21.82 80.2699 21.04C80.2699 20.2 80.4899 19.46 80.9499 18.84C81.3899 18.22 82.0099 17.72 82.7899 17.38C83.5699 17.04 84.4499 16.88 85.4299 16.88C86.1699 16.88 86.9699 17 87.7899 17.22C88.6099 17.46 89.3299 17.78 89.9899 18.18L89.1299 20.86C88.5699 20.56 87.9499 20.34 87.2899 20.16C86.6099 19.98 85.9899 19.9 85.4299 19.9C84.8899 19.9 84.4699 19.98 84.1699 20.16C83.8499 20.34 83.6899 20.64 83.6899 21.02C83.6899 21.36 83.8499 21.64 84.1899 21.84C84.5099 22.06 85.0499 22.3 85.8099 22.58C86.9299 22.98 87.8099 23.36 88.4499 23.72C89.0899 24.08 89.5699 24.52 89.9099 25.04C90.2499 25.58 90.4099 26.24 90.4099 27.04C90.4099 27.9 90.1899 28.64 89.7499 29.26C89.2899 29.88 88.6499 30.36 87.8299 30.7C87.0099 31.04 86.0499 31.2 84.9499 31.2ZM97.6277 31.16C96.3077 31.16 95.2677 30.74 94.4877 29.92C93.7077 29.1 93.3077 27.9 93.3077 26.34V23.14H91.2477V20.32H93.3077V17.04H96.5877V20.32H100.148L99.7477 23.14H96.5877V26.28C96.5877 26.86 96.7277 27.32 97.0077 27.66C97.2677 28 97.6477 28.18 98.1277 28.18C98.4277 28.18 98.7077 28.14 98.9677 28.08C99.2277 28.02 99.4877 27.9 99.7477 27.76L100.588 30.32C99.7677 30.88 98.7677 31.16 97.6277 31.16ZM107.223 31.16C106.203 31.16 105.263 30.92 104.423 30.44C103.583 29.96 102.923 29.3 102.423 28.44C101.923 27.6 101.683 26.66 101.683 25.64C101.683 24.62 101.923 23.7 102.423 22.86C102.923 22.02 103.583 21.36 104.443 20.86C105.283 20.38 106.203 20.14 107.223 20.14C108.243 20.14 109.163 20.38 110.023 20.86C110.883 21.36 111.543 22.02 112.043 22.86C112.543 23.7 112.783 24.62 112.783 25.64C112.783 26.66 112.543 27.6 112.043 28.44C111.543 29.28 110.883 29.94 110.043 30.42C109.183 30.92 108.243 31.16 107.223 31.16ZM107.223 28.2C107.883 28.2 108.443 27.96 108.863 27.48C109.283 27.02 109.503 26.4 109.503 25.64C109.503 24.9 109.283 24.28 108.863 23.8C108.443 23.34 107.883 23.1 107.223 23.1C106.563 23.1 106.003 23.34 105.583 23.82C105.163 24.3 104.943 24.9 104.943 25.64C104.943 26.4 105.163 27.02 105.583 27.48C106.003 27.96 106.563 28.2 107.223 28.2ZM117.527 31H114.267V20.32H117.207V21.9C117.507 21.36 117.967 20.94 118.567 20.64C119.147 20.34 119.787 20.2 120.467 20.2C120.887 20.2 121.287 20.24 121.667 20.32L121.127 23.44C120.707 23.32 120.267 23.26 119.767 23.26C119.107 23.26 118.567 23.48 118.147 23.9C117.727 24.32 117.527 24.92 117.527 25.68V31ZM128.238 31.16C127.138 31.16 126.158 30.92 125.318 30.46C124.478 30 123.838 29.34 123.378 28.5C122.918 27.66 122.678 26.7 122.678 25.62C122.678 24.56 122.898 23.62 123.338 22.78C123.778 21.96 124.398 21.3 125.178 20.84C125.958 20.38 126.858 20.14 127.838 20.14C129.398 20.14 130.618 20.62 131.478 21.6C132.338 22.58 132.758 23.94 132.758 25.64V26.52H125.838C125.998 27.12 126.318 27.6 126.798 27.94C127.258 28.3 127.838 28.48 128.498 28.48C129.158 28.48 129.718 28.42 130.198 28.28C130.678 28.14 131.138 27.94 131.598 27.68L132.178 30.16C131.618 30.5 130.998 30.74 130.318 30.9C129.638 31.08 128.938 31.16 128.238 31.16ZM125.798 24.5H129.698C129.638 23.22 129.018 22.58 127.858 22.58C127.258 22.58 126.798 22.76 126.458 23.1C126.118 23.44 125.898 23.92 125.798 24.5Z" fill="white"/>
</svg>
