<svg width="90" height="27" viewBox="0 0 90 27" fill="none" xmlns="http://www.w3.org/2000/svg">
<path fill-rule="evenodd" clip-rule="evenodd" d="M10.7796 7.4403C11.429 6.66952 11.7548 5.83678 11.7548 4.9449C11.7548 4.82661 11.7493 4.70736 11.7361 4.58813C11.2837 4.6116 10.8026 4.74868 10.2941 4.99653C9.78437 5.24814 9.36414 5.56355 9.03364 5.94289C8.37177 6.69209 7.99901 7.60839 7.99901 8.46459C7.99901 8.58293 8.00661 8.69554 8.0197 8.80254C9.04771 8.88609 9.99577 8.3566 10.7796 7.4403ZM14.2371 20.2097C14.607 19.6824 14.9262 19.1089 15.1959 18.4858C15.3071 18.2216 15.4117 17.9465 15.5107 17.6591C15.0539 17.4675 14.6433 17.1979 14.2757 16.849C13.4644 16.0971 13.0516 15.1502 13.0395 14.0123C13.0263 12.5514 13.69 11.4126 15.0319 10.5996C14.2822 9.53402 13.1551 8.94256 11.6546 8.82147C11.1009 8.77446 10.4251 8.89379 9.62423 9.18198C8.77738 9.49273 8.27783 9.64861 8.13044 9.64861C7.93329 9.64861 7.48361 9.5153 6.78329 9.25243C6.08098 8.99044 5.51583 8.85714 5.08487 8.85714C4.29725 8.87024 3.56588 9.07499 2.889 9.47678C2.21211 9.87857 1.6713 10.4259 1.26477 11.1197C0.747504 11.9835 0.489258 13.0143 0.489258 14.2095C0.489258 15.2528 0.680796 16.3304 1.06288 17.4434C1.41965 18.4737 1.87505 19.3775 2.42897 20.1568C2.94525 20.8867 3.37621 21.4019 3.72076 21.7024C4.26059 22.2043 4.80141 22.4432 5.344 22.4201C5.70077 22.408 6.16739 22.2858 6.74663 22.0513C7.32499 21.8179 7.8657 21.7024 8.36989 21.7024C8.85061 21.7024 9.37633 21.8179 9.94841 22.0513C10.5186 22.2858 11.0085 22.4013 11.4147 22.4013C11.9805 22.3881 12.5089 22.1559 13.002 21.7024C13.3202 21.426 13.733 20.9285 14.2371 20.2097Z" fill="#0F0F10"/>
<path d="M25.2627 8.07134V4.44734H26.1507C27.0787 4.44734 27.8467 5.03134 27.8467 6.26334C27.8467 7.49534 27.0707 8.07134 26.1427 8.07134H25.2627ZM26.1827 9.09534C27.7987 9.09534 28.9907 8.05534 28.9907 6.26334C28.9907 4.47134 27.8067 3.42334 26.1907 3.42334H24.1587V9.09534H26.1827ZM31.6592 8.24734C31.1392 8.24734 30.6592 7.86334 30.6592 7.12734C30.6592 6.38334 31.1392 6.00734 31.6592 6.00734C32.1792 6.00734 32.6592 6.38334 32.6592 7.12734C32.6592 7.87134 32.1792 8.24734 31.6592 8.24734ZM31.6592 5.03934C30.4832 5.03934 29.5952 5.91134 29.5952 7.12734C29.5952 8.33534 30.4832 9.21534 31.6592 9.21534C32.8352 9.21534 33.7232 8.33534 33.7232 7.12734C33.7232 5.91134 32.8352 5.03934 31.6592 5.03934ZM36.6936 5.15934L35.8376 7.68734L35.1096 5.15934H33.9896L35.2456 9.09534H36.3256L37.2296 6.40734L38.1496 9.09534H39.2136L40.4456 5.15934H39.3896L38.6616 7.69534L37.8136 5.15934H36.6936ZM42.174 6.83134C42.174 6.37534 42.446 6.01534 42.91 6.01534C43.422 6.01534 43.638 6.35934 43.638 6.79934V9.09534H44.702V6.61534C44.702 5.75134 44.254 5.05534 43.278 5.05534C42.854 5.05534 42.382 5.23934 42.142 5.64734V5.15934H41.11V9.09534H42.174V6.83134ZM46.8459 9.09534V3.30334H45.7819V9.09534H46.8459ZM49.753 8.24734C49.233 8.24734 48.753 7.86334 48.753 7.12734C48.753 6.38334 49.233 6.00734 49.753 6.00734C50.273 6.00734 50.753 6.38334 50.753 7.12734C50.753 7.87134 50.273 8.24734 49.753 8.24734ZM49.753 5.03934C48.577 5.03934 47.689 5.91134 47.689 7.12734C47.689 8.33534 48.577 9.21534 49.753 9.21534C50.929 9.21534 51.817 8.33534 51.817 7.12734C51.817 5.91134 50.929 5.03934 49.753 5.03934ZM52.4169 8.02334C52.4169 8.63934 52.9289 9.20734 53.7689 9.20734C54.3529 9.20734 54.7289 8.93534 54.9289 8.62334C54.9289 8.77534 54.9449 8.99134 54.9689 9.09534H55.9449C55.9209 8.95934 55.8969 8.67934 55.8969 8.47134V6.53534C55.8969 5.74334 55.4329 5.03934 54.1849 5.03934C53.1289 5.03934 52.5609 5.71934 52.4969 6.33534L53.4409 6.53534C53.4729 6.19134 53.7289 5.89534 54.1929 5.89534C54.6409 5.89534 54.8569 6.12734 54.8569 6.40734C54.8569 6.54334 54.7849 6.65534 54.5609 6.68734L53.5929 6.83134C52.9369 6.92734 52.4169 7.31934 52.4169 8.02334ZM53.9929 8.41534C53.6489 8.41534 53.4809 8.19134 53.4809 7.95934C53.4809 7.65534 53.6969 7.50334 53.9689 7.46334L54.8569 7.32734V7.50334C54.8569 8.19934 54.4409 8.41534 53.9929 8.41534ZM60.7057 3.30334H59.6577V5.55134C59.5457 5.34334 59.2257 5.06334 58.5457 5.06334C57.4337 5.06334 56.6577 5.96734 56.6577 7.11934C56.6577 8.31134 57.4577 9.19134 58.5777 9.19134C59.1057 9.19134 59.5057 8.95134 59.6817 8.63934C59.6817 8.82334 59.7057 9.01534 59.7217 9.09534H60.7377C60.7217 8.93534 60.7057 8.64734 60.7057 8.38334V3.30334ZM57.7297 7.11934C57.7297 6.41534 58.1617 6.01534 58.7057 6.01534C59.2497 6.01534 59.6737 6.40734 59.6737 7.11134C59.6737 7.82334 59.2497 8.23934 58.7057 8.23934C58.1457 8.23934 57.7297 7.82334 57.7297 7.11934ZM65.6046 8.24734C65.0846 8.24734 64.6046 7.86334 64.6046 7.12734C64.6046 6.38334 65.0846 6.00734 65.6046 6.00734C66.1246 6.00734 66.6046 6.38334 66.6046 7.12734C66.6046 7.87134 66.1246 8.24734 65.6046 8.24734ZM65.6046 5.03934C64.4286 5.03934 63.5406 5.91134 63.5406 7.12734C63.5406 8.33534 64.4286 9.21534 65.6046 9.21534C66.7806 9.21534 67.6686 8.33534 67.6686 7.12734C67.6686 5.91134 66.7806 5.03934 65.6046 5.03934ZM69.5724 6.83134C69.5724 6.37534 69.8444 6.01534 70.3084 6.01534C70.8204 6.01534 71.0364 6.35934 71.0364 6.79934V9.09534H72.1004V6.61534C72.1004 5.75134 71.6524 5.05534 70.6764 5.05534C70.2524 5.05534 69.7804 5.23934 69.5404 5.64734V5.15934H68.5084V9.09534H69.5724V6.83134ZM76.4689 3.98334H75.5089V4.53534C75.5089 4.88734 75.3169 5.15934 74.9009 5.15934H74.7009V6.10334H75.4129V7.93534C75.4129 8.69534 75.8929 9.15134 76.6609 9.15134C76.9729 9.15134 77.1649 9.09534 77.2609 9.05534V8.17534C77.2049 8.19134 77.0609 8.20734 76.9329 8.20734C76.6289 8.20734 76.4689 8.09534 76.4689 7.75134V6.10334H77.2609V5.15934H76.4689V3.98334ZM79.0334 6.78334C79.0574 6.35134 79.3214 6.01534 79.7694 6.01534C80.2814 6.01534 80.4974 6.35934 80.4974 6.79934V9.09534H81.5614V6.61534C81.5614 5.75134 81.0974 5.05534 80.0974 5.05534C79.7214 5.05534 79.2894 5.18334 79.0334 5.48734V3.30334H77.9694V9.09534H79.0334V6.78334ZM83.4172 6.67934C83.4412 6.31934 83.7452 5.90334 84.2972 5.90334C84.9052 5.90334 85.1612 6.28734 85.1772 6.67934H83.4172ZM85.2812 7.70334C85.1532 8.05534 84.8812 8.30334 84.3852 8.30334C83.8572 8.30334 83.4172 7.92734 83.3932 7.40734H86.2092C86.2092 7.39134 86.2252 7.23134 86.2252 7.07934C86.2252 5.81534 85.4972 5.03934 84.2812 5.03934C83.2732 5.03934 82.3452 5.85534 82.3452 7.11134C82.3452 8.43934 83.2972 9.21534 84.3772 9.21534C85.3452 9.21534 85.9692 8.64734 86.1692 7.96734L85.2812 7.70334Z" fill="#0F0F10"/>
<path d="M31.3787 22.9143H33.4787L29.6987 12.9883H27.4587L23.6507 22.9143H25.6947L26.5207 20.6463H30.5527L31.3787 22.9143ZM28.5367 15.1303L29.9087 18.8823H27.1647L28.5367 15.1303ZM36.4429 25.5743V22.2423C36.7789 22.7043 37.4789 23.0823 38.4309 23.0823C40.3769 23.0823 41.6789 21.5423 41.6789 19.4563C41.6789 17.4123 40.5169 15.8723 38.5009 15.8723C37.4649 15.8723 36.6949 16.3343 36.3869 16.8663V16.0263H34.5809V25.5743H36.4429ZM39.8449 19.4703C39.8449 20.7023 39.0889 21.4163 38.1369 21.4163C37.1849 21.4163 36.4149 20.6883 36.4149 19.4703C36.4149 18.2523 37.1849 17.5383 38.1369 17.5383C39.0889 17.5383 39.8449 18.2523 39.8449 19.4703ZM45.0152 25.5743V22.2423C45.3512 22.7043 46.0512 23.0823 47.0032 23.0823C48.9492 23.0823 50.2512 21.5423 50.2512 19.4563C50.2512 17.4123 49.0892 15.8723 47.0732 15.8723C46.0372 15.8723 45.2672 16.3343 44.9592 16.8663V16.0263H43.1532V25.5743H45.0152ZM48.4172 19.4703C48.4172 20.7023 47.6612 21.4163 46.7092 21.4163C45.7572 21.4163 44.9872 20.6883 44.9872 19.4703C44.9872 18.2523 45.7572 17.5383 46.7092 17.5383C47.6612 17.5383 48.4172 18.2523 48.4172 19.4703ZM62.0024 15.3543C61.7784 14.2343 60.8544 12.7783 58.4464 12.7783C56.5704 12.7783 54.9884 14.1223 54.9884 15.8863C54.9884 17.3843 56.0104 18.4063 57.5924 18.7283L58.9784 19.0083C59.7484 19.1623 60.1824 19.6103 60.1824 20.1843C60.1824 20.8843 59.6084 21.4023 58.5724 21.4023C57.1724 21.4023 56.4864 20.5203 56.4024 19.5403L54.6104 20.0163C54.7644 21.4303 55.9264 23.1243 58.5584 23.1243C60.8684 23.1243 62.1424 21.5843 62.1424 20.0583C62.1424 18.6583 61.1764 17.4823 59.3704 17.1323L57.9844 16.8663C57.2564 16.7263 56.9064 16.2923 56.9064 15.7463C56.9064 15.0883 57.5224 14.4863 58.4604 14.4863C59.7204 14.4863 60.1684 15.3403 60.2664 15.8863L62.0024 15.3543ZM65.998 13.9683H64.318V14.9343C64.318 15.5503 63.982 16.0263 63.254 16.0263H62.904V17.6783H64.15V20.8843C64.15 22.2143 64.99 23.0123 66.334 23.0123C66.88 23.0123 67.216 22.9143 67.384 22.8443V21.3043C67.286 21.3323 67.034 21.3603 66.81 21.3603C66.278 21.3603 65.998 21.1643 65.998 20.5623V17.6783H67.384V16.0263H65.998V13.9683ZM71.9913 21.4303C71.0813 21.4303 70.2413 20.7583 70.2413 19.4703C70.2413 18.1683 71.0813 17.5103 71.9913 17.5103C72.9013 17.5103 73.7413 18.1683 73.7413 19.4703C73.7413 20.7723 72.9013 21.4303 71.9913 21.4303ZM71.9913 15.8163C69.9333 15.8163 68.3793 17.3423 68.3793 19.4703C68.3793 21.5843 69.9333 23.1243 71.9913 23.1243C74.0493 23.1243 75.6033 21.5843 75.6033 19.4703C75.6033 17.3423 74.0493 15.8163 71.9913 15.8163ZM81.2731 15.9983C81.1331 15.9843 80.9931 15.9703 80.8391 15.9703C80.2511 15.9703 79.2991 16.1383 78.8791 17.0483V16.0263H77.0731V22.9143H78.9351V19.7643C78.9351 18.2803 79.7611 17.8183 80.7131 17.8183C80.8811 17.8183 81.0631 17.8323 81.2731 17.8743V15.9983ZM83.8725 18.6863C83.9145 18.0563 84.4465 17.3283 85.4125 17.3283C86.4765 17.3283 86.9245 18.0003 86.9525 18.6863H83.8725ZM87.1345 20.4783C86.9105 21.0943 86.4345 21.5283 85.5665 21.5283C84.6425 21.5283 83.8725 20.8703 83.8305 19.9603H88.7585C88.7585 19.9323 88.7865 19.6523 88.7865 19.3863C88.7865 17.1743 87.5125 15.8163 85.3845 15.8163C83.6205 15.8163 81.9965 17.2443 81.9965 19.4423C81.9965 21.7663 83.6625 23.1243 85.5525 23.1243C87.2465 23.1243 88.3385 22.1303 88.6885 20.9403L87.1345 20.4783Z" fill="#0F0F10"/>
</svg>
