<svg width="32" height="32" viewBox="0 0 32 32" fill="none" xmlns="http://www.w3.org/2000/svg">
<g id="Component 4">
<g id="_x30_1._Facebook">
<path id="Icon_11_" d="M13.4617 17.1263C13.3896 17.1263 11.8053 17.1263 11.0852 17.1263C10.7011 17.1263 10.5811 16.9823 10.5811 16.6222C10.5811 15.662 10.5811 14.6778 10.5811 13.7176C10.5811 13.3335 10.7251 13.2135 11.0852 13.2135H13.4617C13.4617 13.1415 13.4617 11.7492 13.4617 11.101C13.4617 10.1408 13.6297 9.22866 14.1098 8.38848C14.6139 7.5243 15.334 6.94818 16.2462 6.61211C16.8464 6.39607 17.4465 6.30005 18.0946 6.30005H20.4471C20.7832 6.30005 20.9272 6.44408 20.9272 6.78015V9.51672C20.9272 9.85279 20.7832 9.99682 20.4471 9.99682C19.799 9.99682 19.1508 9.99682 18.5027 10.0208C17.8546 10.0208 17.5185 10.3329 17.5185 11.005C17.4945 11.7252 17.5185 12.4213 17.5185 13.1655H20.3031C20.6872 13.1655 20.8312 13.3095 20.8312 13.6936V16.5982C20.8312 16.9823 20.7112 17.1023 20.3031 17.1023C19.4389 17.1023 17.5905 17.1023 17.5185 17.1023V24.9279C17.5185 25.336 17.3985 25.48 16.9664 25.48C15.9582 25.48 14.974 25.48 13.9658 25.48C13.6057 25.48 13.4617 25.336 13.4617 24.9759C13.4617 22.4554 13.4617 17.1983 13.4617 17.1263Z" fill="white"/>
</g>
</g>
</svg>
