<svg width="87" height="24" viewBox="0 0 87 24" fill="none" xmlns="http://www.w3.org/2000/svg">
<g clip-path="url(#clip0_6996_144489)">
<path d="M8.53999 2.66205H10.44C11.597 2.4916 12.7787 2.64146 13.8566 3.09538C15.2089 3.90897 16.1897 5.21876 16.5899 6.74534C16.8732 7.54534 16.8732 7.54534 17.5566 7.26201H18.0899V0.928739H0.206748V2.04539H0.940073C1.25874 2.04319 1.57386 2.1124 1.86227 2.24796C2.15069 2.38351 2.40507 2.58196 2.60672 2.82872C3.29005 3.92871 3.40671 5.16203 3.40671 11.5786C3.40671 18.3952 3.25672 20.0619 2.60672 20.9119C2.44626 21.1304 2.2385 21.3098 1.99897 21.4368C1.75944 21.5638 1.49432 21.635 1.2234 21.6452C0.206748 21.8285 0.206748 21.8119 0.206748 22.2618C0.150526 22.4123 0.150526 22.578 0.206748 22.7285H11.49C11.5646 22.5813 11.6035 22.4186 11.6035 22.2535C11.6035 22.0885 11.5646 21.9257 11.49 21.7785C11.2167 21.7025 10.9381 21.6468 10.6566 21.6119C10.3521 21.5756 10.0511 21.5143 9.75665 21.4285C9.33501 21.1207 9.001 20.7082 8.78762 20.2317C8.57424 19.7553 8.48889 19.2314 8.53999 18.7119C8.37333 17.6119 8.29 15.5953 8.29 13.9286V12.6119H8.95666C9.78724 12.5865 10.6173 12.6763 11.4233 12.8786C11.8094 13.1172 12.1381 13.4381 12.3858 13.8184C12.6336 14.1987 12.7944 14.629 12.8566 15.0786L13.0066 15.5953H14.0233V8.212H13.0899L12.9399 8.92865C12.8768 9.38843 12.7067 9.82698 12.4433 10.2091C12.1799 10.5912 11.8306 10.9061 11.4233 11.1286C11.0289 11.246 10.6134 11.2745 10.2066 11.212H8.29V9.41198C8.29 7.54534 8.38999 3.61204 8.45666 2.99538L8.53999 2.66205ZM86.5392 15.8786C85.7514 14.6106 84.5226 13.6787 83.0892 13.2619C81.9903 12.9184 80.9745 12.351 80.1059 11.5953C79.9104 11.4062 79.7642 11.1722 79.68 10.9137C79.5957 10.6551 79.576 10.3799 79.6226 10.112C79.6239 9.58646 79.8337 9.08294 80.2059 8.71199C80.4582 8.44776 80.7775 8.25702 81.1298 8.16015C81.482 8.06328 81.854 8.06392 82.2059 8.162C82.9345 8.36964 83.5933 8.7705 84.1127 9.32211C84.632 9.87371 84.9925 10.5555 85.1559 11.2953C85.4225 12.0453 85.4558 12.0453 85.9392 11.8453L86.2392 11.7286V7.57867L86.0225 7.47867C84.3817 6.90239 82.6412 6.66428 80.9059 6.77868C79.4115 6.81654 77.9851 7.41089 76.9059 8.44533C76.4165 8.90347 76.0332 9.46306 75.7827 10.0849C75.5322 10.7067 75.4207 11.3758 75.456 12.0453C75.4653 13.0688 75.8716 14.0487 76.5893 14.7786C77.3824 15.5586 78.3555 16.131 79.4226 16.4452C82.0059 17.4619 82.7559 18.1119 82.7559 19.2952C82.767 19.7942 82.608 20.2822 82.3051 20.6789C82.0023 21.0757 81.5735 21.3576 81.0892 21.4785C80.5073 21.6064 79.9045 21.6064 79.3226 21.4785C78.5607 21.1828 77.8803 20.7094 77.3383 20.0978C76.7962 19.4861 76.408 18.7538 76.2059 17.9619L75.9893 17.4286H75.6893C75.5459 17.4392 75.4052 17.473 75.2726 17.5286H75.106V22.2618H75.3893C76.5153 22.6364 77.677 22.8933 78.8559 23.0285H80.5226C81.2454 23.0815 81.9719 23.014 82.6725 22.8285C83.562 22.6644 84.393 22.2703 85.083 21.6856C85.773 21.1008 86.298 20.3457 86.6058 19.4952C86.8047 19.0202 86.9067 18.5102 86.9058 17.9952C86.9715 17.2697 86.845 16.5397 86.5392 15.8786ZM70.8393 7.26201C69.8406 6.84269 68.7645 6.63929 67.6817 6.66514C66.5988 6.69099 65.5336 6.94551 64.5561 7.412C63.6372 7.86147 62.8228 8.49862 62.1654 9.28233C61.508 10.066 61.0222 10.9789 60.7394 11.962C60.3789 13.0344 60.2262 14.1657 60.2894 15.2953C60.2775 15.9099 60.3278 16.5241 60.4394 17.1286C60.7086 18.6149 61.4261 19.9833 62.4957 21.0498C63.5653 22.1164 64.9356 22.8302 66.4227 23.0952C67.3911 23.2172 68.371 23.2172 69.3393 23.0952C70.3442 22.9181 71.306 22.5503 72.1727 22.0118C72.8896 21.6099 73.4964 21.0375 73.9393 20.3452C73.9109 20.2366 73.8608 20.1348 73.7921 20.046C73.7233 19.9572 73.6373 19.8833 73.5393 19.8285C73.3491 19.8974 73.1695 19.9928 73.006 20.1119C72.177 20.6582 71.1981 20.9321 70.206 20.8952C69.5475 20.9397 68.8873 20.8372 68.2733 20.595C67.6594 20.3529 67.1069 19.9772 66.656 19.4952C66.3073 19.1713 66.0194 18.7874 65.8061 18.3619C65.2882 17.3258 65.0091 16.1868 64.9894 15.0286V14.3786H74.2226V14.0453C74.243 13.7122 74.243 13.3783 74.2226 13.0453C74.2193 11.8685 73.9045 10.7135 73.3103 9.69772C72.7161 8.68195 71.8635 7.84159 70.8393 7.26201ZM66.1894 13.0286H65.0227V12.0453C65.4061 9.52865 66.356 8.02866 67.5227 8.02866C68.6894 8.02866 69.1894 9.51198 69.406 12.2286V12.9953H68.406L66.1894 13.0286ZM42.223 6.71201C41.6471 6.68968 41.0746 6.8099 40.5563 7.06201C39.4299 7.60905 38.5201 8.51888 37.973 9.64531L37.7564 10.0453V6.71201H37.673C37.473 6.71201 31.3064 7.94533 31.1064 8.02866C30.9064 8.112 30.9731 8.12866 30.9731 8.42866C30.9731 8.72866 30.9731 8.77866 31.1064 8.79532L31.7564 8.92865C31.9385 8.93312 32.1171 8.97896 32.2788 9.0627C32.4405 9.14644 32.581 9.26588 32.6897 9.41198C33.1064 9.96198 33.1897 10.9286 33.1897 15.0453C33.2721 16.8985 33.194 18.7554 32.9564 20.5952C32.9005 20.8726 32.7598 21.1258 32.5538 21.3199C32.3478 21.5139 32.0867 21.6392 31.8064 21.6785L31.2398 21.7952H31.0231V22.2618C30.9626 22.4173 30.9626 22.5897 31.0231 22.7452H40.3397V22.2618C40.372 22.1024 40.372 21.938 40.3397 21.7785C39.7787 21.7567 39.2209 21.6841 38.673 21.5619C38.3747 21.4058 38.1306 21.163 37.9729 20.8655C37.8152 20.568 37.7513 20.2297 37.7897 19.8952C37.6564 18.9285 37.5897 16.0952 37.623 13.9286C37.6564 11.762 37.623 11.6286 37.8064 11.4786C38.3641 11.051 39.0542 10.8328 39.7563 10.862C40.4182 10.8764 41.068 11.0417 41.6563 11.3453C41.8603 11.4585 42.079 11.5427 42.3063 11.5953C42.3063 11.5953 43.973 7.562 43.973 7.37867C43.7597 7.13083 43.488 6.94008 43.1824 6.82368C42.8769 6.70728 42.5471 6.6689 42.223 6.71201ZM30.9898 13.7119C30.9316 12.521 30.5897 11.3611 29.9925 10.3291C29.3952 9.29699 28.5601 8.42258 27.5565 7.77867C26.3638 7.13525 25.0369 6.78049 23.6823 6.74286C22.3276 6.70523 20.9831 6.98579 19.7565 7.562C18.0224 8.47646 16.713 10.0309 16.1066 11.8953C15.4802 13.9826 15.4802 16.2079 16.1066 18.2952C16.435 19.436 17.0487 20.4742 17.8899 21.3119C18.9375 22.3341 20.2884 22.9891 21.7399 23.1785C22.6716 23.2564 23.6081 23.2564 24.5398 23.1785C24.8827 23.1263 25.2222 23.054 25.5565 22.9618C26.9131 22.5824 28.1335 21.8244 29.0751 20.7766C30.0166 19.7288 30.6403 18.4345 30.8731 17.0452C31.0395 15.9423 31.0786 14.8238 30.9898 13.7119ZM24.0565 22.0452C22.3898 22.5452 21.1399 20.9285 20.7232 17.5286C20.5702 15.7485 20.5702 13.9587 20.7232 12.1786C21.0565 9.44532 21.9065 8.062 23.2232 8.062C23.4888 8.04553 23.7545 8.09293 23.9981 8.20021C24.2417 8.3075 24.456 8.47156 24.6232 8.67866C25.7398 9.79531 26.2898 12.012 26.2898 15.3453C26.4285 17.2317 26.132 19.1248 25.4231 20.8785C25.1102 21.39 24.6259 21.7739 24.0565 21.9618V22.0452ZM54.0562 7.04534C53.5859 6.98483 53.1098 6.98483 52.6395 7.04534C51.7368 7.04457 50.8444 7.23782 50.0229 7.612L49.5062 7.82867V4.21204C49.5965 2.9915 49.5965 1.76595 49.5062 0.54541C49.3062 0.54541 42.9396 1.76206 42.8396 1.81206C42.7905 1.93511 42.7905 2.07234 42.8396 2.19539C42.8396 2.54539 42.8396 2.52872 43.5896 2.69539C43.8002 2.74261 44.0025 2.82127 44.1896 2.92872C44.5149 3.23465 44.7315 3.63844 44.8063 4.07871C44.996 5.34706 45.0575 6.63132 44.9896 7.912V22.5452L45.4396 22.6452C46.1063 22.7952 47.9896 23.1118 48.6062 23.1785C49.8376 23.2764 51.0748 23.2764 52.3062 23.1785C53.673 23.0389 54.9757 22.529 56.0741 21.7037C57.1725 20.8785 58.0249 19.7691 58.5395 18.4952C58.8462 17.6776 59.0587 16.8277 59.1728 15.9619C59.272 14.7892 59.2328 13.6089 59.0561 12.4453C58.8773 11.141 58.3017 9.92326 57.4072 8.95728C56.5128 7.99129 55.3429 7.3238 54.0562 7.04534ZM49.6896 21.7619C49.6896 21.5452 49.5229 14.2453 49.5562 11.3286V9.04532L50.0396 8.92865C50.3657 8.88193 50.6968 8.88193 51.0229 8.92865C51.3835 8.89198 51.7463 8.9739 52.0562 9.16199C52.6786 9.59154 53.1955 10.1567 53.5679 10.8149C53.9403 11.4731 54.1585 12.2072 54.2062 12.9619C54.3276 14.1756 54.3276 15.3983 54.2062 16.6119C54.1064 18.3758 53.4268 20.0574 52.2729 21.3952C51.9454 21.7063 51.534 21.9148 51.0895 21.9952C50.7532 22.0537 50.4093 22.0537 50.0729 21.9952C49.7562 21.9952 49.7562 21.8952 49.7562 21.7619H49.6896Z" fill="#33629A" style="mix-blend-mode:luminosity"/>
</g>
<defs>
<clipPath id="clip0_6996_144489">
<rect width="86.7324" height="22.7164" fill="white" transform="translate(0.190002 0.545166)"/>
</clipPath>
</defs>
</svg>
