<svg width="32" height="32" viewBox="0 0 32 32" fill="none" xmlns="http://www.w3.org/2000/svg">
<path d="M15.9998 8.62149C18.4028 8.62149 18.6878 8.63049 19.6366 8.67399C20.6176 8.71899 21.6278 8.94249 22.3426 9.65724C23.0641 10.3787 23.2808 11.3792 23.3258 12.3632C23.3693 13.312 23.3783 13.597 23.3783 16C23.3783 18.4029 23.3693 18.6879 23.3258 19.6367C23.2816 20.6124 23.0528 21.6324 22.3426 22.3427C21.6211 23.0642 20.6213 23.2809 19.6366 23.3259C18.6878 23.3694 18.4028 23.3784 15.9998 23.3784C13.5968 23.3784 13.3118 23.3694 12.3631 23.3259C11.3949 23.2817 10.3614 23.0477 9.65712 22.3427C8.93937 21.6249 8.71887 20.6147 8.67387 19.6367C8.63037 18.6879 8.62137 18.4029 8.62137 16C8.62137 13.597 8.63037 13.312 8.67387 12.3632C8.71812 11.3912 8.94912 10.3652 9.65712 9.65724C10.3771 8.93724 11.3814 8.71899 12.3631 8.67399C13.3118 8.63049 13.5968 8.62149 15.9998 8.62149ZM15.9998 7C13.5556 7 13.2488 7.0105 12.2889 7.054C10.8976 7.11775 9.51612 7.50475 8.51037 8.51049C7.50088 9.51999 7.11763 10.8985 7.05388 12.289C7.01038 13.249 6.99988 13.5557 6.99988 16C6.99988 18.4442 7.01038 18.7509 7.05388 19.7109C7.11763 21.1007 7.50613 22.4859 8.51037 23.4894C9.51912 24.4982 10.8999 24.8822 12.2889 24.9459C13.2488 24.9894 13.5556 24.9999 15.9998 24.9999C18.4441 24.9999 18.7508 24.9894 19.7108 24.9459C21.1013 24.8822 22.4843 24.4944 23.4893 23.4894C24.4995 22.4792 24.882 21.1014 24.9458 19.7109C24.9893 18.7509 24.9998 18.4442 24.9998 16C24.9998 13.5557 24.9893 13.249 24.9458 12.289C24.882 10.8977 24.4943 9.51549 23.4893 8.51049C22.4821 7.50325 21.0976 7.117 19.7108 7.054C18.7508 7.0105 18.4441 7 15.9998 7Z" fill="white"/>
<path d="M16.0001 11.3784C13.4479 11.3784 11.3787 13.4477 11.3787 15.9999C11.3787 18.5521 13.4479 20.6214 16.0001 20.6214C18.5524 20.6214 20.6216 18.5521 20.6216 15.9999C20.6216 13.4477 18.5524 11.3784 16.0001 11.3784ZM16.0001 18.9999C14.3434 18.9999 13.0002 17.6566 13.0002 15.9999C13.0002 14.3432 14.3434 12.9999 16.0001 12.9999C17.6569 12.9999 19.0001 14.3432 19.0001 15.9999C19.0001 17.6566 17.6569 18.9999 16.0001 18.9999Z" fill="white"/>
<path d="M20.8042 12.2755C21.4006 12.2755 21.8842 11.7919 21.8842 11.1955C21.8842 10.599 21.4006 10.1155 20.8042 10.1155C20.2077 10.1155 19.7242 10.599 19.7242 11.1955C19.7242 11.7919 20.2077 12.2755 20.8042 12.2755Z" fill="white"/>
</svg>
