<svg width="32" height="32" viewBox="0 0 32 32" fill="none" xmlns="http://www.w3.org/2000/svg">
<g id="Component 1">
<g id="Group 1000003130">
<path id="Vector" d="M24.9938 25V24.9993H24.9983V18.3978C24.9983 15.1684 24.3031 12.6807 20.5276 12.6807C18.7127 12.6807 17.4947 13.6767 16.9974 14.6209H16.9449V12.9822H13.3652V24.9993H17.0927V19.0488C17.0927 17.4821 17.3897 15.9671 19.3299 15.9671C21.2416 15.9671 21.2701 17.7551 21.2701 19.1493V25H24.9938Z" fill="white"/>
<path id="Vector_2" d="M7.29175 12.9827H11.0237V24.9998H7.29175V12.9827Z" fill="white"/>
<path id="Vector_3" d="M9.16037 7C7.96714 7 6.9989 7.96824 6.9989 9.16147C6.9989 10.3547 7.96714 11.3432 9.16037 11.3432C10.3536 11.3432 11.3218 10.3547 11.3218 9.16147C11.3211 7.96824 10.3529 7 9.16037 7V7Z" fill="white"/>
</g>
</g>
</svg>
