<svg width="68" height="24" viewBox="0 0 68 24" fill="none" xmlns="http://www.w3.org/2000/svg">
<g id="Frame" clip-path="url(#clip0_6996_148398)">
<path id="Vector" d="M36.477 2.4712C36.5994 1.23402 35.6957 0.131867 34.4586 0.00947022C33.2214 -0.112926 32.1192 0.790782 31.9968 2.02796C31.8744 3.26514 32.7781 4.36729 34.0153 4.48968C35.2525 4.61208 36.3546 3.70837 36.477 2.4712Z" fill="white"/>
<path id="Vector_2" d="M37.899 10.1616V10.1636V10.1655L38.1169 10.2225L37.899 10.1616Z" fill="white"/>
<path id="Vector_3" d="M66.3534 5.82436L66.1277 5.83221L66.3534 5.82436L66.3475 5.63989L66.165 5.61045L62.6461 5.02561L62.6088 5.24738L62.6461 5.02561L62.3694 4.98047L62.3832 5.25915C62.495 7.4729 62.4813 10.0556 61.9357 12.1281C61.3901 14.2025 60.3362 15.6881 58.4208 15.8765C57.6985 15.9472 57.0313 15.6862 56.5446 15.2976C56.0834 14.9031 55.8165 14.3811 55.7458 13.7138L55.5221 13.7374L55.7458 13.7138V13.704L55.7419 13.6942C55.7301 13.6353 55.7242 13.5686 55.7242 13.4901V13.2192C55.7242 12.5068 55.895 11.8886 56.2306 11.3587C56.5681 10.8249 57.0313 10.4089 57.6259 10.1106L57.5278 9.91824L57.5239 9.91039L57.6259 10.1106C58.2363 9.79852 58.9291 9.63956 59.7062 9.63956C59.7435 9.63956 59.9025 9.64741 60.083 9.65722C60.3814 9.67292 60.6738 9.73376 60.9564 9.83385L61.133 9.89665L61.2096 9.6847L61.4274 9.73965C61.5864 9.09986 61.6649 8.35213 61.6845 7.68093C61.7041 7.01367 61.6668 6.39939 61.5864 6.03632L61.5608 5.92445L61.4568 5.87932L61.3666 6.08538L61.4568 5.87932C60.8524 5.61241 60.1282 5.54568 59.5944 5.54568C58.5483 5.54568 57.5455 5.73016 56.5897 6.10108C55.634 6.45631 54.7763 6.97246 54.0207 7.6515L54.1719 7.81831L54.0227 7.6515C53.2789 8.33446 52.6921 9.15481 52.2584 10.1125C51.8227 11.0604 51.6088 12.1222 51.6088 13.2899C51.6088 14.54 51.8796 15.6783 52.4232 16.7047V16.7087L52.6175 16.6007H52.6195L52.4232 16.7087C52.9806 17.7154 53.7342 18.5162 54.6821 19.1089C54.6821 19.1089 54.6821 19.1089 54.6841 19.1089C55.6359 19.7172 56.6996 20.0214 57.8654 20.0214C58.7583 20.0214 59.6788 19.9606 60.5364 19.6957C62.3321 19.1403 63.8767 18.0628 64.9247 15.9099C65.9648 13.7707 66.5065 10.5875 66.3534 5.83025V5.82436Z" fill="white"/>
<path id="Vector_4" d="M66.8246 15.2528L66.7578 15.4687L66.8246 15.2528L66.3143 15.0958L66.1023 15.031L66.0337 15.241L66.2476 15.3117L66.0337 15.241C65.6333 16.4637 65.1544 17.545 64.0711 18.5204L63.7905 18.7736L64.1476 18.8992L66.12 19.5979L66.3791 19.6901L66.4183 19.4173L66.1946 19.3859L66.4183 19.4173L66.9816 15.5001L67.009 15.3097L66.8265 15.2528H66.8246Z" fill="white"/>
<path id="Vector_5" d="M35.9853 8.51121H36.0226L36.209 8.51514C36.2247 7.49854 36.262 6.64875 36.3209 5.96382L36.0971 5.9442V5.71851L32.2231 5.74009H32.0092L31.9994 5.95597C31.9542 7.0393 31.9169 8.24038 31.8875 9.56314C31.858 10.8859 31.8423 12.2459 31.8423 13.6433C31.8423 14.7109 31.8502 15.7766 31.8639 16.8442C31.8796 17.8981 31.9091 18.8911 31.9542 19.8233L31.964 20.0373H36.3287L36.3209 19.8057L36.0952 19.8135L36.3209 19.8057C36.3052 19.3406 36.2836 18.6792 36.2542 17.8235C36.2385 16.9541 36.2247 15.9885 36.209 14.9248C36.1933 13.8611 36.1874 12.7798 36.1874 11.6866C36.1874 10.5935 36.1953 9.51996 36.209 8.51514L35.9833 8.51121H35.9853Z" fill="white"/>
<path id="Vector_6" d="M36.3207 5.96383L36.3423 5.71655L36.097 5.71852V5.94421L36.3207 5.96383Z" fill="white"/>
<path id="Vector_7" d="M25.8939 19.835L25.8684 20.0842L26.1196 20.0822L26.1177 19.8585L25.8939 19.835Z" fill="white"/>
<path id="Vector_8" d="M46.3789 5.24513H46.1532V5.90651C45.9432 5.8437 45.7254 5.78679 45.4957 5.74361C45.1503 5.68081 44.7774 5.64941 44.3751 5.64941C43.0622 5.64941 41.9533 5.85548 41.0584 6.27939C40.189 6.69741 39.4923 7.25281 38.9722 7.94559V7.94756L39.1528 8.07905L38.9703 7.94756C38.4737 8.62856 38.1166 9.36648 37.9007 10.1593L38.1185 10.2182L37.9007 10.1633C37.7005 10.9444 37.6004 11.7078 37.6004 12.4477C37.6004 12.8402 37.6475 13.2955 37.7397 13.8156L37.9576 13.7763H37.9556L37.7397 13.8156C37.8339 14.3317 38.0047 14.8675 38.25 15.4209L38.4561 15.3307H38.4541L38.252 15.4209C38.5032 15.9705 38.8466 16.4846 39.2803 16.9655H39.2823L39.2843 16.9714C39.7435 17.4463 40.3166 17.829 40.9995 18.1253C41.6962 18.4256 42.5303 18.5708 43.4979 18.5708C43.9708 18.5708 44.4772 18.5002 45.0169 18.3608C45.4388 18.2529 45.8529 18.0723 46.2592 17.8211C46.2278 18.1391 46.1748 18.4374 46.0963 18.7121V18.7161L46.0943 18.72C46.0021 19.1027 45.7999 19.401 45.4859 19.6247H45.484L45.482 19.6286C45.1798 19.8563 44.6813 19.9898 43.9512 19.9898C43.2211 19.9898 42.6422 19.9093 42.1771 19.7542L42.1064 19.9682V19.9642L42.1771 19.7542H42.1731L42.1692 19.7523C41.6943 19.609 41.2821 19.4088 40.9289 19.1557H40.9269L40.925 19.1517C40.556 18.9005 40.187 18.6199 39.8181 18.3098L39.5963 18.1234L39.4707 18.3844L37.8281 21.8071L37.7476 21.9739L37.8967 22.0858C38.4973 22.5332 39.1606 22.8943 39.8828 23.171C40.6011 23.4615 41.3194 23.6676 42.0417 23.7912C42.0417 23.7912 42.0436 23.7912 42.0456 23.7912C42.7599 23.9286 43.4194 23.9973 44.0199 23.9973C44.2711 23.9973 44.6401 23.9737 45.1209 23.9286C45.639 23.8972 46.1885 23.7716 46.7694 23.5577H46.7734C46.7734 23.5577 46.7734 23.5577 46.7753 23.5577C47.3876 23.3516 47.9725 23.016 48.5298 22.5509C49.1049 22.072 49.5661 21.4008 49.9213 20.551C50.2824 19.6875 50.4571 18.5983 50.4571 17.2893C50.4571 16.3433 50.4492 15.47 50.4355 14.6732V12.3594C50.4355 10.9346 50.4433 9.6589 50.4571 8.53436L50.2883 8.5324H50.2647L50.4571 8.53436C50.4728 7.39412 50.4865 6.37359 50.5022 5.47278L50.5061 5.24316H46.3828L46.3789 5.24513ZM42.0613 14.004C41.6452 13.5604 41.4254 12.9462 41.4254 12.1337C41.4254 11.3212 41.6825 10.7442 42.183 10.2987C42.703 9.83356 43.4095 9.59021 44.33 9.59021C45.0286 9.59021 45.641 9.75703 46.1787 10.0789C46.1905 10.5185 46.1983 10.9699 46.1983 11.435V11.4409C46.2121 11.9178 46.2199 12.3868 46.2199 12.85C45.9491 13.4721 45.6174 13.9255 45.2328 14.2218C44.8422 14.5241 44.3869 14.6752 43.857 14.6752C43.0798 14.6752 42.4911 14.4436 42.0613 14.002V14.004Z" fill="white"/>
<path id="Vector_9" d="M15.3295 11.7429C15.3295 11.7429 15.3295 11.7429 15.3295 11.7409C15.3295 11.7409 15.3295 11.7409 15.3295 11.7389C14.937 11.0913 14.4522 10.5438 13.8752 10.1041C13.312 9.67435 12.7624 9.31128 12.2267 9.01297C11.7812 8.7755 11.2846 8.54588 10.7371 8.32411C10.2092 8.09057 9.66751 7.87077 9.11015 7.6647C8.57045 7.46059 8.07392 7.27808 7.62057 7.11715C7.18489 6.94248 6.83948 6.79921 6.58042 6.68342L6.48818 6.88949L6.57846 6.68342H6.5765C5.93867 6.40671 5.57167 6.16335 5.42056 5.96709C5.26748 5.74925 5.20075 5.54711 5.20075 5.35674C5.20075 5.27824 5.24393 5.14282 5.38131 4.93479C5.50495 4.75424 5.75615 4.57172 6.17614 4.40294L6.09175 4.19295L6.17418 4.40294C6.58631 4.23024 7.20844 4.13604 8.05822 4.13604C10.0365 4.13604 11.8145 4.91124 13.3983 6.48128L13.6024 6.68342L13.7496 6.43614L15.7651 3.06252L15.8613 2.89963L15.718 2.77599L15.5709 2.94673L15.718 2.77599C15.1783 2.31087 14.5307 1.87126 13.7751 1.45716C13.0274 1.03914 12.1639 0.697653 11.1865 0.430746C10.1994 0.146177 9.07482 0.00683594 7.81879 0.00683594C6.66089 0.00683594 5.6541 0.161877 4.80432 0.481773C3.96238 0.797743 3.25979 1.2295 2.70832 1.78294C2.15684 2.33638 1.75059 2.93692 1.47584 3.61007V3.61204L1.68583 3.69446L1.47584 3.61204C1.21678 4.26556 1.08725 4.93676 1.08725 5.62365C1.08725 6.68931 1.37182 7.62545 1.94488 8.42224C2.51795 9.21904 3.36969 9.86275 4.48442 10.3632C4.78077 10.4967 5.18505 10.6654 5.69924 10.8715L5.78363 10.6615L5.69924 10.8715H5.7012L5.70316 10.8735C6.21343 11.0638 6.75313 11.2679 7.32227 11.4858C7.88944 11.7036 8.3997 11.9077 8.84913 12.0961H8.85305L8.85698 12.1001L8.93548 11.8901L8.85698 12.1001C9.3221 12.2747 9.63218 12.4023 9.79508 12.4828C10.0286 12.6142 10.3053 12.7673 10.6233 12.94H10.6292L10.635 12.9459L10.7312 12.7438L10.635 12.9459C10.9451 13.0931 11.212 13.2952 11.4417 13.5504L11.6085 13.4012L11.4417 13.5504L11.4456 13.5543L11.4495 13.5582C11.6654 13.7741 11.7772 14.0508 11.7772 14.4061C11.7772 14.83 11.5574 15.1871 11.0393 15.4796C10.5153 15.7622 9.78919 15.9113 8.84717 15.9113C8.22896 15.9113 7.5931 15.8132 6.94153 15.615C6.30174 15.4148 5.68943 15.1459 5.10459 14.8025C4.52171 14.461 4.01145 14.0705 3.5738 13.6328C3.15381 13.1991 2.85943 12.7497 2.68084 12.2865L2.47085 12.367L2.68084 12.2865L2.51991 11.8646L2.28048 12.2453L0.0902772 15.7268L0.280644 15.8466L0.0902772 15.7268L0 15.8701L0.113828 15.9957C0.753618 16.7101 1.49546 17.3773 2.33936 17.9995L2.47281 17.8189L2.33936 17.9995V18.0014C3.20484 18.6138 4.17434 19.1044 5.24393 19.4773C6.32137 19.8521 7.48712 20.0366 8.7353 20.0366C10.1699 20.0366 11.3632 19.8443 12.3052 19.4498C13.2354 19.0593 13.9753 18.551 14.515 17.921C15.0429 17.3028 15.4178 16.6571 15.6317 15.98L15.4178 15.9113L15.6317 15.9781C15.8417 15.3049 15.9477 14.6828 15.9477 14.1136C15.9477 13.1912 15.7436 12.3964 15.3236 11.7409L15.3295 11.7429Z" fill="white"/>
<path id="Vector_10" d="M61.1371 9.89213L61.3726 9.97652L61.4315 9.73513L61.2136 9.68018L61.1371 9.89213Z" fill="white"/>
<path id="Vector_11" d="M30.2371 11.1392C30.1606 10.5092 30.0232 9.87331 29.823 9.23156C29.6209 8.57999 29.3265 7.98141 28.9379 7.43583C28.9379 7.43583 28.9379 7.43583 28.9379 7.43386C28.5415 6.86473 28.0194 6.40745 27.3777 6.06204C26.7359 5.70878 25.9372 5.54001 24.9971 5.54001C23.7685 5.54001 22.6617 5.93055 21.6824 6.7038C21.7236 5.48702 21.7707 4.335 21.8217 3.2556C21.8727 2.19779 21.9257 1.27931 21.9767 0.49822L21.751 0.48252L21.9767 0.49822L21.9924 0.258789H17.72L17.7121 0.474669L17.9378 0.48252L17.7121 0.474669C17.6415 2.29591 17.5787 4.11716 17.5237 5.9384H17.5374H17.5237L17.7474 5.94625L17.5217 5.94036C17.4766 7.8774 17.4393 9.72416 17.4099 11.4806H17.4256H17.4099L17.6336 11.4846H17.4099C17.3942 13.2391 17.3804 14.8366 17.3647 16.2771H17.5904H17.3647V20.0393H21.5567L21.5528 19.8097C21.545 19.4388 21.5528 19.0364 21.5587 18.6302C21.5646 18.2279 21.5685 17.8197 21.5528 17.4468C21.5371 16.6971 21.5312 15.8964 21.5312 15.0427C21.5312 14.1262 21.5391 13.1782 21.5528 12.2029C21.7687 11.5984 22.0474 11.1215 22.3889 10.7663C22.7637 10.3934 23.1445 10.1265 23.533 9.95966C23.9334 9.78696 24.2867 9.70846 24.5928 9.70846C24.8362 9.70846 25.0383 9.77322 25.211 9.8949C25.3857 10.0185 25.5407 10.2128 25.6722 10.4915C25.9372 11.0548 26.0785 11.9261 26.0785 13.1311C26.0785 13.8651 26.0706 14.6443 26.0569 15.4685V15.4725C26.0569 16.281 26.0412 17.066 26.0117 17.8275V17.8314L26.2355 17.8354L26.0098 17.8314C25.9941 18.5929 25.9568 19.2621 25.8979 19.8391L26.1216 19.8627V20.0884L30.0624 20.0668H30.2862V18.2887C30.3019 17.5547 30.3156 16.6991 30.3313 15.7256C30.347 14.7483 30.3529 13.765 30.3529 12.772C30.3529 12.2951 30.3136 11.7534 30.2391 11.147L30.2371 11.1392ZM22.224 10.6034H22.226H22.224ZM30.0134 11.1666H30.0153H30.0134Z" fill="white"/>
</g>
<defs>
<clipPath id="clip0_6996_148398">
<rect width="67.0092" height="24" fill="white"/>
</clipPath>
</defs>
</svg>
