<svg width="148" height="38" viewBox="0 0 148 38" fill="none" xmlns="http://www.w3.org/2000/svg">
<path d="M19.6101 13.4776L25.0927 16.5985C26 17.3997 26 17.8888 26 18.5209C26 19.1528 26 19.8674 25.0927 20.6034L19.6101 23.9338L14.8495 18.5209L19.6101 13.4776Z" fill="#F7CB45"/>
<path d="M0.999148 5.22686C1.10371 5.12578 1.22105 5.03749 1.35116 4.96313C1.90069 4.64829 2.81619 4.41679 3.3692 4.72351L19.6101 13.4776L14.8495 18.5209L0.999148 5.22686Z" fill="#6DEB84"/>
<path fill-rule="evenodd" clip-rule="evenodd" d="M14.8495 18.5209L0.82256 33.0366L1.04561 33.1876C1.59515 33.5025 3.39709 33.4943 3.9501 33.1876L19.6101 23.9338L14.8495 18.5209Z" fill="#EB4D4D"/>
<path d="M14.8495 18.5209L0.82256 33.0366C0.283615 32.0986 0 31.0358 0 29.954V8.05832C0 7.0281 0.352587 6.02892 0.999148 5.22686L14.8495 18.5209Z" fill="#60D6FB"/>
<path d="M38.23 13V9.31H34.69V10.51H36.93C36.85 11.01 36.34 11.89 35.03 11.89C33.84 11.89 32.79 11.06 32.79 9.46C32.79 7.78 33.95 7.05 35.02 7.05C36.17 7.05 36.76 7.78 36.94 8.41L38.26 7.94C37.91 6.85 36.88 5.76 35.02 5.76C33.1 5.76 31.39 7.17 31.39 9.46C31.39 11.75 33.02 13.15 34.93 13.15C36 13.15 36.7 12.67 37.02 12.19L37.11 13H38.23ZM44.0625 13V11.7H41.0025V10.06H43.7725V8.83H41.0025V7.21H44.0625V5.91H39.6225V13H44.0625ZM50.78 7.22V5.91H44.91V7.22H47.15V13H48.54V7.22H50.78ZM55.6221 13V5.91H54.2221V13H55.6221ZM62.4597 7.22V5.91H56.5897V7.22H58.8297V13H60.2197V7.22H62.4597ZM66.9118 9.45C66.9118 7.85 68.0318 7.09 69.1218 7.09C70.2218 7.09 71.3418 7.85 71.3418 9.45C71.3418 11.05 70.2218 11.81 69.1218 11.81C68.0318 11.81 66.9118 11.05 66.9118 9.45ZM65.4818 9.46C65.4818 11.74 67.2018 13.15 69.1218 13.15C71.0518 13.15 72.7718 11.74 72.7718 9.46C72.7718 7.17 71.0518 5.76 69.1218 5.76C67.2018 5.76 65.4818 7.17 65.4818 9.46ZM80.0182 13V5.91H78.6382V10.6L75.6882 5.91H73.9682V13H75.3482V7.97L78.5682 13H80.0182Z" fill="white"/>
<path d="M38.34 31.18C37.1 31.18 35.96 30.88 34.94 30.28C33.92 29.7 33.1 28.86 32.5 27.76C31.9 26.66 31.6 25.4 31.6 23.94C31.6 22.66 31.92 21.48 32.54 20.4C33.16 19.32 34.02 18.46 35.1 17.82C36.18 17.2 37.36 16.88 38.64 16.88C39.48 16.88 40.22 16.96 40.88 17.14C41.52 17.32 42.14 17.6 42.76 17.98L41.96 20.78C41.46 20.52 40.96 20.34 40.48 20.2C40 20.06 39.44 20 38.78 20C38.08 20 37.46 20.16 36.9 20.46C36.32 20.76 35.88 21.22 35.54 21.8C35.2 22.38 35.04 23.08 35.04 23.88C35.04 25.22 35.38 26.28 36.04 27.02C36.7 27.76 37.56 28.14 38.62 28.14C39.44 28.14 40.12 28.04 40.64 27.82V25.7H38.4V23.08H43.64V29.78C42.9 30.2 42.12 30.54 41.28 30.8C40.42 31.06 39.44 31.18 38.34 31.18ZM50.4413 31.16C49.4212 31.16 48.4813 30.92 47.6413 30.44C46.8013 29.96 46.1413 29.3 45.6413 28.44C45.1413 27.6 44.9013 26.66 44.9013 25.64C44.9013 24.62 45.1413 23.7 45.6413 22.86C46.1413 22.02 46.8013 21.36 47.6613 20.86C48.5013 20.38 49.4212 20.14 50.4413 20.14C51.4613 20.14 52.3813 20.38 53.2413 20.86C54.1013 21.36 54.7613 22.02 55.2613 22.86C55.7613 23.7 56.0013 24.62 56.0013 25.64C56.0013 26.66 55.7613 27.6 55.2613 28.44C54.7613 29.28 54.1013 29.94 53.2613 30.42C52.4013 30.92 51.4613 31.16 50.4413 31.16ZM50.4413 28.2C51.1013 28.2 51.6613 27.96 52.0813 27.48C52.5013 27.02 52.7213 26.4 52.7213 25.64C52.7213 24.9 52.5013 24.28 52.0813 23.8C51.6613 23.34 51.1013 23.1 50.4413 23.1C49.7813 23.1 49.2213 23.34 48.8013 23.82C48.3813 24.3 48.1613 24.9 48.1613 25.64C48.1613 26.4 48.3813 27.02 48.8013 27.48C49.2213 27.96 49.7813 28.2 50.4413 28.2ZM62.8045 31.16C61.7845 31.16 60.8445 30.92 60.0045 30.44C59.1645 29.96 58.5045 29.3 58.0045 28.44C57.5045 27.6 57.2645 26.66 57.2645 25.64C57.2645 24.62 57.5045 23.7 58.0045 22.86C58.5045 22.02 59.1645 21.36 60.0245 20.86C60.8645 20.38 61.7845 20.14 62.8045 20.14C63.8245 20.14 64.7445 20.38 65.6045 20.86C66.4645 21.36 67.1245 22.02 67.6245 22.86C68.1245 23.7 68.3645 24.62 68.3645 25.64C68.3645 26.66 68.1245 27.6 67.6245 28.44C67.1245 29.28 66.4645 29.94 65.6245 30.42C64.7645 30.92 63.8245 31.16 62.8045 31.16ZM62.8045 28.2C63.4645 28.2 64.0245 27.96 64.4445 27.48C64.8645 27.02 65.0845 26.4 65.0845 25.64C65.0845 24.9 64.8645 24.28 64.4445 23.8C64.0245 23.34 63.4645 23.1 62.8045 23.1C62.1445 23.1 61.5845 23.34 61.1645 23.82C60.7445 24.3 60.5245 24.9 60.5245 25.64C60.5245 26.4 60.7445 27.02 61.1645 27.48C61.5845 27.96 62.1445 28.2 62.8045 28.2ZM74.5478 35.06C73.7478 35.06 72.9078 34.94 72.0478 34.7C71.1678 34.46 70.4678 34.18 69.9478 33.88L70.7478 31.14C71.2478 31.44 71.8278 31.66 72.4878 31.84C73.1478 32.02 73.8078 32.1 74.4878 32.1C75.4078 32.1 76.1078 31.88 76.6078 31.42C77.0878 30.98 77.3278 30.36 77.3278 29.56V28.9C76.9678 29.36 76.5078 29.72 75.9478 29.98C75.3878 30.24 74.7878 30.38 74.1678 30.38C73.2278 30.38 72.4078 30.16 71.7078 29.7C70.9878 29.26 70.4278 28.66 70.0478 27.88C69.6678 27.12 69.4678 26.28 69.4678 25.36C69.4678 24.34 69.6878 23.44 70.1078 22.64C70.5278 21.86 71.1278 21.24 71.8878 20.8C72.6278 20.36 73.4878 20.14 74.4478 20.14C75.1478 20.14 75.7678 20.28 76.3078 20.58C76.8478 20.88 77.2878 21.3 77.6278 21.82V20.34H80.5478V29.54C80.5478 31.28 80.0078 32.64 78.9278 33.6C77.8478 34.58 76.3878 35.06 74.5478 35.06ZM74.9878 27.76C75.6078 27.76 76.1478 27.56 76.6078 27.14C77.0478 26.74 77.2678 26.2 77.2678 25.5V25.2C77.2678 24.5 77.0478 23.94 76.6078 23.52C76.1478 23.1 75.6278 22.88 75.0078 22.88C74.3878 22.88 73.8678 23.1 73.4478 23.56C73.0278 24.02 72.8078 24.62 72.8078 25.36C72.8078 26.08 73.0278 26.66 73.4478 27.1C73.8678 27.54 74.3678 27.76 74.9878 27.76ZM85.9953 31.16C84.7353 31.16 83.7753 30.76 83.0953 29.98C82.4153 29.2 82.0753 28.08 82.0753 26.62V16H85.3553V26.56C85.3553 27.06 85.4553 27.46 85.6753 27.74C85.8753 28.04 86.1553 28.18 86.5353 28.18C86.7553 28.18 86.9753 28.16 87.1553 28.1C87.3353 28.06 87.5153 27.98 87.7353 27.88L88.5553 30.46C87.8353 30.92 86.9753 31.16 85.9953 31.16ZM95.225 31.16C94.125 31.16 93.145 30.92 92.305 30.46C91.465 30 90.825 29.34 90.365 28.5C89.905 27.66 89.665 26.7 89.665 25.62C89.665 24.56 89.885 23.62 90.325 22.78C90.765 21.96 91.385 21.3 92.165 20.84C92.945 20.38 93.845 20.14 94.825 20.14C96.385 20.14 97.605 20.62 98.465 21.6C99.325 22.58 99.745 23.94 99.745 25.64V26.52H92.825C92.985 27.12 93.305 27.6 93.785 27.94C94.245 28.3 94.825 28.48 95.485 28.48C96.145 28.48 96.705 28.42 97.185 28.28C97.665 28.14 98.125 27.94 98.585 27.68L99.165 30.16C98.605 30.5 97.985 30.74 97.305 30.9C96.625 31.08 95.925 31.16 95.225 31.16ZM92.785 24.5H96.685C96.625 23.22 96.005 22.58 94.845 22.58C94.245 22.58 93.785 22.76 93.445 23.1C93.105 23.44 92.885 23.92 92.785 24.5ZM109.276 31H105.996V17.08H111.496C112.596 17.08 113.556 17.26 114.376 17.62C115.196 18 115.836 18.52 116.296 19.2C116.756 19.9 116.976 20.7 116.976 21.6C116.976 23.04 116.336 24.24 115.076 25.22C113.816 26.2 111.876 26.88 109.276 27.28V31ZM109.276 19.92V24.42C110.916 24.18 112.036 23.82 112.656 23.36C113.276 22.9 113.576 22.34 113.576 21.68C113.576 21.12 113.396 20.68 113.036 20.38C112.676 20.08 112.136 19.92 111.416 19.92H109.276ZM122.265 31.16C121.005 31.16 120.045 30.76 119.365 29.98C118.685 29.2 118.345 28.08 118.345 26.62V16H121.625V26.56C121.625 27.06 121.725 27.46 121.945 27.74C122.145 28.04 122.425 28.18 122.805 28.18C123.025 28.18 123.245 28.16 123.425 28.1C123.605 28.06 123.785 27.98 124.005 27.88L124.825 30.46C124.105 30.92 123.245 31.16 122.265 31.16ZM130.075 20.14C131.615 20.14 132.815 20.54 133.675 21.32C134.535 22.1 134.955 23.22 134.955 24.64V31H132.035V29.62C131.715 30.08 131.275 30.46 130.735 30.74C130.175 31.02 129.555 31.16 128.875 31.16C127.875 31.16 127.095 30.9 126.535 30.38C125.975 29.86 125.695 29.16 125.695 28.3C125.695 27.18 126.175 26.3 127.115 25.68C128.055 25.06 129.655 24.64 131.895 24.42V24.36C131.895 23.38 131.275 22.9 130.015 22.9C128.995 22.9 127.915 23.22 126.755 23.84L126.055 21.24C126.635 20.9 127.295 20.64 128.015 20.44C128.735 20.24 129.415 20.14 130.075 20.14ZM129.635 28.78C130.255 28.78 130.795 28.56 131.235 28.12C131.675 27.7 131.895 27.12 131.895 26.4C130.875 26.5 130.095 26.66 129.515 26.88C128.935 27.1 128.655 27.44 128.655 27.9C128.655 28.16 128.735 28.38 128.915 28.54C129.095 28.7 129.335 28.78 129.635 28.78ZM140.95 35.06C140.15 35.06 139.31 34.94 138.45 34.7C137.57 34.46 136.87 34.18 136.35 33.88L137.15 31.14C137.65 31.44 138.23 31.66 138.89 31.84C139.55 32.02 140.21 32.1 140.89 32.1C141.81 32.1 142.51 31.88 143.01 31.42C143.49 30.98 143.73 30.36 143.73 29.56C143.73 29.56 146.95 26.56 146.95 28.76C146.95 29.24 146.95 29.54 146.95 29.54C146.95 31.28 146.41 32.64 145.33 33.6C144.25 34.58 142.79 35.06 140.95 35.06ZM140.71 30.24C139.29 30.24 138.19 29.8 137.41 28.92C136.63 28.04 136.27 26.86 136.27 25.34V20.5H139.67V25.22C139.67 26.74 140.27 27.5 141.47 27.5C142.15 27.5 142.65 27.3 143.01 26.9C143.35 26.5 143.55 25.98 143.55 25.34V20.5H146.95V29.96L143.73 29.88L143.75 28.62C143.43 29.1 143.11 29.5 142.55 29.78C141.95 30.1 141.35 30.24 140.71 30.24Z" fill="white"/>
</svg>
