<svg width="101" height="27" viewBox="0 0 101 27" fill="none" xmlns="http://www.w3.org/2000/svg">
<path d="M12.7373 9.99149L16.2252 11.977C16.8025 12.4867 16.8025 12.7979 16.8025 13.2C16.8025 13.602 16.8025 14.0567 16.2252 14.5249L12.7373 16.6437L9.70857 13.2L12.7373 9.99149Z" fill="#F7CB45"/>
<path d="M0.897007 4.74239C0.963531 4.67809 1.03818 4.62191 1.12096 4.57461C1.47057 4.3743 2.053 4.22703 2.40483 4.42216L12.7373 9.99149L9.70857 13.2L0.897007 4.74239Z" fill="#6DEB84"/>
<path fill-rule="evenodd" clip-rule="evenodd" d="M9.70857 13.2L0.784662 22.4349L0.926569 22.5309C1.27618 22.7312 2.42257 22.7261 2.77439 22.5309L12.7373 16.6437L9.70857 13.2Z" fill="#EB4D4D"/>
<path d="M9.70857 13.2L0.784662 22.4349C0.441787 21.8381 0.261353 21.1619 0.261353 20.4737V6.54375C0.261353 5.88834 0.485667 5.25266 0.897007 4.74239L9.70857 13.2Z" fill="#60D6FB"/>
<path d="M27.5865 9.09534V6.14334H24.7545V7.10334H26.5465C26.4825 7.50334 26.0745 8.20734 25.0265 8.20734C24.0745 8.20734 23.2345 7.54334 23.2345 6.26334C23.2345 4.91934 24.1625 4.33534 25.0185 4.33534C25.9385 4.33534 26.4105 4.91934 26.5545 5.42334L27.6105 5.04734C27.3305 4.17534 26.5065 3.30334 25.0185 3.30334C23.4825 3.30334 22.1145 4.43134 22.1145 6.26334C22.1145 8.09534 23.4185 9.21534 24.9465 9.21534C25.8025 9.21534 26.3625 8.83134 26.6185 8.44734L26.6905 9.09534H27.5865ZM32.2525 9.09534V8.05534H29.8045V6.74334H32.0205V5.75934H29.8045V4.46334H32.2525V3.42334H28.7005V9.09534H32.2525ZM37.6265 4.47134V3.42334H32.9305V4.47134H34.7225V9.09534H35.8345V4.47134H37.6265ZM41.5002 9.09534V3.42334H40.3802V9.09534H41.5002ZM46.9702 4.47134V3.42334H42.2742V4.47134H44.0662V9.09534H45.1782V4.47134H46.9702ZM50.5319 6.25534C50.5319 4.97534 51.4279 4.36734 52.2999 4.36734C53.1799 4.36734 54.0759 4.97534 54.0759 6.25534C54.0759 7.53534 53.1799 8.14334 52.2999 8.14334C51.4279 8.14334 50.5319 7.53534 50.5319 6.25534ZM49.3879 6.26334C49.3879 8.08734 50.7639 9.21534 52.2999 9.21534C53.8439 9.21534 55.2199 8.08734 55.2199 6.26334C55.2199 4.43134 53.8439 3.30334 52.2999 3.30334C50.7639 3.30334 49.3879 4.43134 49.3879 6.26334ZM61.0171 9.09534V3.42334H59.9131V7.17534L57.5531 3.42334H56.1771V9.09534H57.2811V5.07134L59.8571 9.09534H61.0171Z" fill="#0F0F10"/>
<path d="M31.9245 22.9143V17.7483H26.9685V19.4283H30.1045C29.9925 20.1283 29.2785 21.3603 27.4445 21.3603C25.7785 21.3603 24.3085 20.1983 24.3085 17.9583C24.3085 15.6063 25.9325 14.5843 27.4305 14.5843C29.0405 14.5843 29.8665 15.6063 30.1185 16.4883L31.9665 15.8303C31.4765 14.3043 30.0345 12.7783 27.4305 12.7783C24.7425 12.7783 22.3485 14.7523 22.3485 17.9583C22.3485 21.1643 24.6305 23.1243 27.3045 23.1243C28.8025 23.1243 29.7825 22.4523 30.2305 21.7803L30.3565 22.9143H31.9245ZM36.828 21.4303C35.918 21.4303 35.078 20.7583 35.078 19.4703C35.078 18.1683 35.918 17.5103 36.828 17.5103C37.738 17.5103 38.578 18.1683 38.578 19.4703C38.578 20.7723 37.738 21.4303 36.828 21.4303ZM36.828 15.8163C34.77 15.8163 33.216 17.3423 33.216 19.4703C33.216 21.5843 34.77 23.1243 36.828 23.1243C38.886 23.1243 40.44 21.5843 40.44 19.4703C40.44 17.3423 38.886 15.8163 36.828 15.8163ZM45.0038 21.4303C44.0938 21.4303 43.2538 20.7583 43.2538 19.4703C43.2538 18.1683 44.0938 17.5103 45.0038 17.5103C45.9138 17.5103 46.7538 18.1683 46.7538 19.4703C46.7538 20.7723 45.9138 21.4303 45.0038 21.4303ZM45.0038 15.8163C42.9458 15.8163 41.3918 17.3423 41.3918 19.4703C41.3918 21.5843 42.9458 23.1243 45.0038 23.1243C47.0618 23.1243 48.6158 21.5843 48.6158 19.4703C48.6158 17.3423 47.0618 15.8163 45.0038 15.8163ZM49.5956 23.2923C49.7916 24.6083 51.0516 25.7843 52.9416 25.7843C55.5316 25.7843 56.5536 24.0623 56.5536 22.1723V16.0263H54.7616V16.8383C54.5236 16.3763 53.8936 15.9003 52.8016 15.9003C50.9116 15.9003 49.5956 17.4403 49.5956 19.2603C49.5956 21.1923 50.9676 22.6063 52.8016 22.6063C53.7956 22.6063 54.4396 22.1723 54.7196 21.7243V22.2283C54.7196 23.5583 54.0616 24.1463 52.8856 24.1463C52.0036 24.1463 51.4016 23.6003 51.2756 22.8443L49.5956 23.2923ZM53.1236 21.0103C52.1576 21.0103 51.4716 20.3383 51.4716 19.2603C51.4716 18.1963 52.1996 17.5243 53.1236 17.5243C54.0196 17.5243 54.7476 18.1963 54.7476 19.2603C54.7476 20.3243 54.0756 21.0103 53.1236 21.0103ZM60.3011 22.9143V12.7783H58.4391V22.9143H60.3011ZM63.6525 18.6863C63.6945 18.0563 64.2265 17.3283 65.1925 17.3283C66.2565 17.3283 66.7045 18.0003 66.7325 18.6863H63.6525ZM66.9145 20.4783C66.6905 21.0943 66.2145 21.5283 65.3465 21.5283C64.4225 21.5283 63.6525 20.8703 63.6105 19.9603H68.5385C68.5385 19.9323 68.5665 19.6523 68.5665 19.3863C68.5665 17.1743 67.2925 15.8163 65.1645 15.8163C63.4005 15.8163 61.7765 17.2443 61.7765 19.4423C61.7765 21.7663 63.4425 23.1243 65.3325 23.1243C67.0265 23.1243 68.1185 22.1303 68.4685 20.9403L66.9145 20.4783ZM75.5778 17.5103V14.6683H77.1038C78.0698 14.6683 78.6578 15.2143 78.6578 16.0963C78.6578 16.9503 78.0698 17.5103 77.1038 17.5103H75.5778ZM77.3418 19.1763C79.3018 19.1763 80.6038 17.8883 80.6038 16.0823C80.6038 14.2903 79.3018 12.9883 77.3418 12.9883H73.6318V22.9143H75.5638V19.1763H77.3418ZM83.7483 22.9143V12.7783H81.8863V22.9143H83.7483ZM85.2808 21.0383C85.2808 22.1163 86.1768 23.1103 87.6468 23.1103C88.6688 23.1103 89.3268 22.6343 89.6768 22.0883C89.6768 22.3543 89.7048 22.7323 89.7468 22.9143H91.4548C91.4128 22.6763 91.3708 22.1863 91.3708 21.8223V18.4343C91.3708 17.0483 90.5588 15.8163 88.3748 15.8163C86.5268 15.8163 85.5328 17.0063 85.4208 18.0843L87.0728 18.4343C87.1288 17.8323 87.5768 17.3143 88.3888 17.3143C89.1728 17.3143 89.5508 17.7203 89.5508 18.2103C89.5508 18.4483 89.4248 18.6443 89.0328 18.7003L87.3388 18.9523C86.1908 19.1203 85.2808 19.8063 85.2808 21.0383ZM88.0388 21.7243C87.4368 21.7243 87.1428 21.3323 87.1428 20.9263C87.1428 20.3943 87.5208 20.1283 87.9968 20.0583L89.5508 19.8203V20.1283C89.5508 21.3463 88.8228 21.7243 88.0388 21.7243ZM95.4499 25.6303L99.7759 16.0263H97.7879L96.0939 20.0583L94.2599 16.0263H92.1739L95.0999 22.0463L93.4759 25.6303H95.4499Z" fill="#0F0F10"/>
</svg>
