<svg width="120" height="120" viewBox="0 0 120 120" fill="none" xmlns="http://www.w3.org/2000/svg">
<rect width="120" height="120" rx="10" fill="white"/>
<path d="M38.8817 9.83541C38.8817 8.96763 38.1783 8.26416 37.3105 8.26416C36.4427 8.26416 35.7393 8.96763 35.7393 9.83541C35.7393 10.7032 36.4427 11.4067 37.3105 11.4067C38.1783 11.4067 38.8817 10.7032 38.8817 9.83541Z" fill="#454647"/>
<path d="M42.0222 9.83614C42.0222 8.96836 41.3187 8.26489 40.4509 8.26489C39.5832 8.26489 38.8797 8.96836 38.8797 9.83614C38.8797 10.7039 39.5832 11.4074 40.4509 11.4074C41.3187 11.4074 42.0222 10.7039 42.0222 9.83614Z" fill="#454647"/>
<path d="M57.7332 9.83589C57.7332 8.96812 57.0297 8.26465 56.1619 8.26465C55.2942 8.26465 54.5907 8.96812 54.5907 9.83589C54.5907 10.7037 55.2942 11.4071 56.1619 11.4071C57.0297 11.4071 57.7332 10.7037 57.7332 9.83589Z" fill="#454647"/>
<path d="M60.8812 9.83516C60.8812 8.96739 60.1777 8.26392 59.31 8.26392C58.4422 8.26392 57.7387 8.96739 57.7387 9.83516C57.7387 10.7029 58.4422 11.4064 59.31 11.4064C60.1777 11.4064 60.8812 10.7029 60.8812 9.83516Z" fill="#454647"/>
<path d="M64.0294 9.83589C64.0294 8.96812 63.3259 8.26465 62.4581 8.26465C61.5904 8.26465 60.8869 8.96812 60.8869 9.83589C60.8869 10.7037 61.5904 11.4071 62.4581 11.4071C63.3259 11.4071 64.0294 10.7037 64.0294 9.83589Z" fill="#454647"/>
<path d="M82.8747 9.83541C82.8747 8.96763 82.1713 8.26416 81.3035 8.26416C80.4357 8.26416 79.7322 8.96763 79.7322 9.83541C79.7322 10.7032 80.4357 11.4067 81.3035 11.4067C82.1713 11.4067 82.8747 10.7032 82.8747 9.83541Z" fill="#454647"/>
<path d="M86.0229 9.83589C86.0229 8.96812 85.3195 8.26465 84.4517 8.26465C83.5839 8.26465 82.8804 8.96812 82.8804 9.83589C82.8804 10.7037 83.5839 11.4071 84.4517 11.4071C85.3195 11.4071 86.0229 10.7037 86.0229 9.83589Z" fill="#454647"/>
<path d="M42.0222 12.9777C42.0222 12.11 41.3187 11.4065 40.4509 11.4065C39.5832 11.4065 38.8797 12.11 38.8797 12.9777C38.8797 13.8455 39.5832 14.549 40.4509 14.549C41.3187 14.549 42.0222 13.8455 42.0222 12.9777Z" fill="#454647"/>
<path d="M45.1662 12.9777C45.1662 12.11 44.4627 11.4065 43.5949 11.4065C42.7272 11.4065 42.0237 12.11 42.0237 12.9777C42.0237 13.8455 42.7272 14.549 43.5949 14.549C44.4627 14.549 45.1662 13.8455 45.1662 12.9777Z" fill="#454647"/>
<path d="M54.5968 12.9777C54.5968 12.11 53.8934 11.4065 53.0256 11.4065C52.1578 11.4065 51.4543 12.11 51.4543 12.9777C51.4543 13.8455 52.1578 14.549 53.0256 14.549C53.8934 14.549 54.5968 13.8455 54.5968 12.9777Z" fill="#454647"/>
<path d="M57.7332 12.9775C57.7332 12.1097 57.0297 11.4062 56.1619 11.4062C55.2942 11.4062 54.5907 12.1097 54.5907 12.9775C54.5907 13.8453 55.2942 14.5487 56.1619 14.5487C57.0297 14.5487 57.7332 13.8453 57.7332 12.9775Z" fill="#454647"/>
<path d="M60.8812 12.9775C60.8812 12.1097 60.1777 11.4062 59.31 11.4062C58.4422 11.4062 57.7387 12.1097 57.7387 12.9775C57.7387 13.8453 58.4422 14.5487 59.31 14.5487C60.1777 14.5487 60.8812 13.8453 60.8812 12.9775Z" fill="#454647"/>
<path d="M73.4541 12.9775C73.4541 12.1097 72.7506 11.4062 71.8828 11.4062C71.0151 11.4062 70.3116 12.1097 70.3116 12.9775C70.3116 13.8453 71.0151 14.5487 71.8828 14.5487C72.7506 14.5487 73.4541 13.8453 73.4541 12.9775Z" fill="#454647"/>
<path d="M76.6003 12.9775C76.6003 12.1097 75.8968 11.4062 75.029 11.4062C74.1612 11.4062 73.4578 12.1097 73.4578 12.9775C73.4578 13.8453 74.1612 14.5487 75.029 14.5487C75.8968 14.5487 76.6003 13.8453 76.6003 12.9775Z" fill="#454647"/>
<path d="M79.7365 12.9777C79.7365 12.11 79.033 11.4065 78.1652 11.4065C77.2975 11.4065 76.594 12.11 76.594 12.9777C76.594 13.8455 77.2975 14.549 78.1652 14.549C79.033 14.549 79.7365 13.8455 79.7365 12.9777Z" fill="#454647"/>
<path d="M82.8747 12.977C82.8747 12.1092 82.1713 11.4058 81.3035 11.4058C80.4357 11.4058 79.7322 12.1092 79.7322 12.977C79.7322 13.8448 80.4357 14.5483 81.3035 14.5483C82.1713 14.5483 82.8747 13.8448 82.8747 12.977Z" fill="#454647"/>
<path d="M42.0222 16.1174C42.0222 15.2496 41.3187 14.5461 40.4509 14.5461C39.5832 14.5461 38.8797 15.2496 38.8797 16.1174C38.8797 16.9852 39.5832 17.6886 40.4509 17.6886C41.3187 17.6886 42.0222 16.9852 42.0222 16.1174Z" fill="#454647"/>
<path d="M54.5968 16.1171C54.5968 15.2494 53.8934 14.5459 53.0256 14.5459C52.1578 14.5459 51.4543 15.2494 51.4543 16.1171C51.4543 16.9849 52.1578 17.6884 53.0256 17.6884C53.8934 17.6884 54.5968 16.9849 54.5968 16.1171Z" fill="#454647"/>
<path d="M64.0294 16.1176C64.0294 15.2499 63.3259 14.5464 62.4581 14.5464C61.5904 14.5464 60.8869 15.2499 60.8869 16.1176C60.8869 16.9854 61.5904 17.6889 62.4581 17.6889C63.3259 17.6889 64.0294 16.9854 64.0294 16.1176Z" fill="#454647"/>
<path d="M67.1656 16.1174C67.1656 15.2496 66.4622 14.5461 65.5944 14.5461C64.7266 14.5461 64.0231 15.2496 64.0231 16.1174C64.0231 16.9852 64.7266 17.6886 65.5944 17.6886C66.4622 17.6886 67.1656 16.9852 67.1656 16.1174Z" fill="#454647"/>
<path d="M70.3079 16.1176C70.3079 15.2499 69.6044 14.5464 68.7367 14.5464C67.8689 14.5464 67.1654 15.2499 67.1654 16.1176C67.1654 16.9854 67.8689 17.6889 68.7367 17.6889C69.6044 17.6889 70.3079 16.9854 70.3079 16.1176Z" fill="#454647"/>
<path d="M82.8747 16.1179C82.8747 15.2501 82.1713 14.5466 81.3035 14.5466C80.4357 14.5466 79.7322 15.2501 79.7322 16.1179C79.7322 16.9857 80.4357 17.6891 81.3035 17.6891C82.1713 17.6891 82.8747 16.9857 82.8747 16.1179Z" fill="#454647"/>
<path d="M38.8817 19.2629C38.8817 18.3951 38.1783 17.6917 37.3105 17.6917C36.4427 17.6917 35.7393 18.3951 35.7393 19.2629C35.7393 20.1307 36.4427 20.8341 37.3105 20.8341C38.1783 20.8341 38.8817 20.1307 38.8817 19.2629Z" fill="#454647"/>
<path d="M42.0222 19.2631C42.0222 18.3954 41.3187 17.6919 40.4509 17.6919C39.5832 17.6919 38.8797 18.3954 38.8797 19.2631C38.8797 20.1309 39.5832 20.8344 40.4509 20.8344C41.3187 20.8344 42.0222 20.1309 42.0222 19.2631Z" fill="#454647"/>
<path d="M48.3104 19.2634C48.3104 18.3956 47.6069 17.6921 46.7392 17.6921C45.8714 17.6921 45.1679 18.3956 45.1679 19.2634C45.1679 20.1312 45.8714 20.8346 46.7392 20.8346C47.6069 20.8346 48.3104 20.1312 48.3104 19.2634Z" fill="#454647"/>
<path d="M57.7332 19.2629C57.7332 18.3951 57.0297 17.6917 56.1619 17.6917C55.2942 17.6917 54.5907 18.3951 54.5907 19.2629C54.5907 20.1307 55.2942 20.8341 56.1619 20.8341C57.0297 20.8341 57.7332 20.1307 57.7332 19.2629Z" fill="#454647"/>
<path d="M64.0294 19.2622C64.0294 18.3944 63.3259 17.6909 62.4581 17.6909C61.5904 17.6909 60.8869 18.3944 60.8869 19.2622C60.8869 20.1299 61.5904 20.8334 62.4581 20.8334C63.3259 20.8334 64.0294 20.1299 64.0294 19.2622Z" fill="#454647"/>
<path d="M67.1656 19.2629C67.1656 18.3951 66.4622 17.6917 65.5944 17.6917C64.7266 17.6917 64.0231 18.3951 64.0231 19.2629C64.0231 20.1307 64.7266 20.8341 65.5944 20.8341C66.4622 20.8341 67.1656 20.1307 67.1656 19.2629Z" fill="#454647"/>
<path d="M70.3079 19.2622C70.3079 18.3944 69.6044 17.6909 68.7367 17.6909C67.8689 17.6909 67.1654 18.3944 67.1654 19.2622C67.1654 20.1299 67.8689 20.8334 68.7367 20.8334C69.6044 20.8334 70.3079 20.1299 70.3079 19.2622Z" fill="#454647"/>
<path d="M82.8747 19.2631C82.8747 18.3954 82.1713 17.6919 81.3035 17.6919C80.4357 17.6919 79.7322 18.3954 79.7322 19.2631C79.7322 20.1309 80.4357 20.8344 81.3035 20.8344C82.1713 20.8344 82.8747 20.1309 82.8747 19.2631Z" fill="#454647"/>
<path d="M86.0229 19.2631C86.0229 18.3954 85.3195 17.6919 84.4517 17.6919C83.5839 17.6919 82.8804 18.3954 82.8804 19.2631C82.8804 20.1309 83.5839 20.8344 84.4517 20.8344C85.3195 20.8344 86.0229 20.1309 86.0229 19.2631Z" fill="#454647"/>
<path d="M35.7394 22.4011C35.7394 21.5333 35.0359 20.8298 34.1681 20.8298C33.3003 20.8298 32.5969 21.5333 32.5969 22.4011C32.5969 23.2689 33.3003 23.9723 34.1681 23.9723C35.0359 23.9723 35.7394 23.2689 35.7394 22.4011Z" fill="#454647"/>
<path d="M42.0222 22.4016C42.0222 21.5338 41.3187 20.8303 40.4509 20.8303C39.5832 20.8303 38.8797 21.5338 38.8797 22.4016C38.8797 23.2693 39.5832 23.9728 40.4509 23.9728C41.3187 23.9728 42.0222 23.2693 42.0222 22.4016Z" fill="#454647"/>
<path d="M45.1662 22.4033C45.1662 21.5355 44.4627 20.832 43.5949 20.832C42.7272 20.832 42.0237 21.5355 42.0237 22.4033C42.0237 23.2711 42.7272 23.9745 43.5949 23.9745C44.4627 23.9745 45.1662 23.2711 45.1662 22.4033Z" fill="#454647"/>
<path d="M48.3104 22.4016C48.3104 21.5338 47.6069 20.8303 46.7392 20.8303C45.8714 20.8303 45.1679 21.5338 45.1679 22.4016C45.1679 23.2693 45.8714 23.9728 46.7392 23.9728C47.6069 23.9728 48.3104 23.2693 48.3104 22.4016Z" fill="#454647"/>
<path d="M51.4504 22.4033C51.4504 21.5355 50.7469 20.832 49.8791 20.832C49.0113 20.832 48.3079 21.5355 48.3079 22.4033C48.3079 23.2711 49.0113 23.9745 49.8791 23.9745C50.7469 23.9745 51.4504 23.2711 51.4504 22.4033Z" fill="#454647"/>
<path d="M54.5968 22.4016C54.5968 21.5338 53.8934 20.8303 53.0256 20.8303C52.1578 20.8303 51.4543 21.5338 51.4543 22.4016C51.4543 23.2693 52.1578 23.9728 53.0256 23.9728C53.8934 23.9728 54.5968 23.2693 54.5968 22.4016Z" fill="#454647"/>
<path d="M57.7332 22.4033C57.7332 21.5355 57.0297 20.832 56.1619 20.832C55.2942 20.832 54.5907 21.5355 54.5907 22.4033C54.5907 23.2711 55.2942 23.9745 56.1619 23.9745C57.0297 23.9745 57.7332 23.2711 57.7332 22.4033Z" fill="#454647"/>
<path d="M60.8812 22.4016C60.8812 21.5338 60.1777 20.8303 59.31 20.8303C58.4422 20.8303 57.7387 21.5338 57.7387 22.4016C57.7387 23.2693 58.4422 23.9728 59.31 23.9728C60.1777 23.9728 60.8812 23.2693 60.8812 22.4016Z" fill="#454647"/>
<path d="M67.1656 22.4008C67.1656 21.5331 66.4622 20.8296 65.5944 20.8296C64.7266 20.8296 64.0231 21.5331 64.0231 22.4008C64.0231 23.2686 64.7266 23.9721 65.5944 23.9721C66.4622 23.9721 67.1656 23.2686 67.1656 22.4008Z" fill="#454647"/>
<path d="M73.4541 22.4011C73.4541 21.5333 72.7506 20.8298 71.8828 20.8298C71.0151 20.8298 70.3116 21.5333 70.3116 22.4011C70.3116 23.2689 71.0151 23.9723 71.8828 23.9723C72.7506 23.9723 73.4541 23.2689 73.4541 22.4011Z" fill="#454647"/>
<path d="M76.5982 22.4011C76.5982 21.5333 75.8948 20.8298 75.027 20.8298C74.1592 20.8298 73.4557 21.5333 73.4557 22.4011C73.4557 23.2689 74.1592 23.9723 75.027 23.9723C75.8948 23.9723 76.5982 23.2689 76.5982 22.4011Z" fill="#454647"/>
<path d="M82.8747 22.4013C82.8747 21.5335 82.1713 20.8301 81.3035 20.8301C80.4357 20.8301 79.7322 21.5335 79.7322 22.4013C79.7322 23.2691 80.4357 23.9726 81.3035 23.9726C82.1713 23.9726 82.8747 23.2691 82.8747 22.4013Z" fill="#454647"/>
<path d="M86.0229 22.403C86.0229 21.5353 85.3195 20.8318 84.4517 20.8318C83.5839 20.8318 82.8804 21.5353 82.8804 22.403C82.8804 23.2708 83.5839 23.9743 84.4517 23.9743C85.3195 23.9743 86.0229 23.2708 86.0229 22.403Z" fill="#454647"/>
<path d="M38.8817 25.549C38.8817 24.6813 38.1783 23.9778 37.3105 23.9778C36.4427 23.9778 35.7393 24.6813 35.7393 25.549C35.7393 26.4168 36.4427 27.1203 37.3105 27.1203C38.1783 27.1203 38.8817 26.4168 38.8817 25.549Z" fill="#454647"/>
<path d="M45.1662 25.5488C45.1662 24.681 44.4627 23.9775 43.5949 23.9775C42.7272 23.9775 42.0237 24.681 42.0237 25.5488C42.0237 26.4166 42.7272 27.12 43.5949 27.12C44.4627 27.12 45.1662 26.4166 45.1662 25.5488Z" fill="#454647"/>
<path d="M48.3104 25.5488C48.3104 24.681 47.6069 23.9775 46.7392 23.9775C45.8714 23.9775 45.1679 24.681 45.1679 25.5488C45.1679 26.4166 45.8714 27.12 46.7392 27.12C47.6069 27.12 48.3104 26.4166 48.3104 25.5488Z" fill="#454647"/>
<path d="M51.4504 25.5488C51.4504 24.681 50.7469 23.9775 49.8791 23.9775C49.0113 23.9775 48.3079 24.681 48.3079 25.5488C48.3079 26.4166 49.0113 27.12 49.8791 27.12C50.7469 27.12 51.4504 26.4166 51.4504 25.5488Z" fill="#454647"/>
<path d="M54.5968 25.5488C54.5968 24.681 53.8934 23.9775 53.0256 23.9775C52.1578 23.9775 51.4543 24.681 51.4543 25.5488C51.4543 26.4166 52.1578 27.12 53.0256 27.12C53.8934 27.12 54.5968 26.4166 54.5968 25.5488Z" fill="#454647"/>
<path d="M60.8812 25.549C60.8812 24.6813 60.1777 23.9778 59.31 23.9778C58.4422 23.9778 57.7387 24.6813 57.7387 25.549C57.7387 26.4168 58.4422 27.1203 59.31 27.1203C60.1777 27.1203 60.8812 26.4168 60.8812 25.549Z" fill="#454647"/>
<path d="M64.0294 25.549C64.0294 24.6813 63.3259 23.9778 62.4581 23.9778C61.5904 23.9778 60.8869 24.6813 60.8869 25.549C60.8869 26.4168 61.5904 27.1203 62.4581 27.1203C63.3259 27.1203 64.0294 26.4168 64.0294 25.549Z" fill="#454647"/>
<path d="M67.1656 25.5488C67.1656 24.681 66.4622 23.9775 65.5944 23.9775C64.7266 23.9775 64.0231 24.681 64.0231 25.5488C64.0231 26.4166 64.7266 27.12 65.5944 27.12C66.4622 27.12 67.1656 26.4166 67.1656 25.5488Z" fill="#454647"/>
<path d="M70.3079 25.549C70.3079 24.6813 69.6044 23.9778 68.7367 23.9778C67.8689 23.9778 67.1654 24.6813 67.1654 25.549C67.1654 26.4168 67.8689 27.1203 68.7367 27.1203C69.6044 27.1203 70.3079 26.4168 70.3079 25.549Z" fill="#454647"/>
<path d="M82.8747 25.5485C82.8747 24.6808 82.1713 23.9773 81.3035 23.9773C80.4357 23.9773 79.7322 24.6808 79.7322 25.5485C79.7322 26.4163 80.4357 27.1198 81.3035 27.1198C82.1713 27.1198 82.8747 26.4163 82.8747 25.5485Z" fill="#454647"/>
<path d="M35.7394 28.6884C35.7394 27.8207 35.0359 27.1172 34.1681 27.1172C33.3003 27.1172 32.5969 27.8207 32.5969 28.6884C32.5969 29.5562 33.3003 30.2597 34.1681 30.2597C35.0359 30.2597 35.7394 29.5562 35.7394 28.6884Z" fill="#454647"/>
<path d="M42.0222 28.6887C42.0222 27.8209 41.3187 27.1174 40.4509 27.1174C39.5832 27.1174 38.8797 27.8209 38.8797 28.6887C38.8797 29.5565 39.5832 30.2599 40.4509 30.2599C41.3187 30.2599 42.0222 29.5565 42.0222 28.6887Z" fill="#454647"/>
<path d="M48.3104 28.6887C48.3104 27.8209 47.6069 27.1174 46.7392 27.1174C45.8714 27.1174 45.1679 27.8209 45.1679 28.6887C45.1679 29.5565 45.8714 30.2599 46.7392 30.2599C47.6069 30.2599 48.3104 29.5565 48.3104 28.6887Z" fill="#454647"/>
<path d="M54.5968 28.6884C54.5968 27.8207 53.8934 27.1172 53.0256 27.1172C52.1578 27.1172 51.4543 27.8207 51.4543 28.6884C51.4543 29.5562 52.1578 30.2597 53.0256 30.2597C53.8934 30.2597 54.5968 29.5562 54.5968 28.6884Z" fill="#454647"/>
<path d="M60.8812 28.6887C60.8812 27.8209 60.1777 27.1174 59.31 27.1174C58.4422 27.1174 57.7387 27.8209 57.7387 28.6887C57.7387 29.5565 58.4422 30.2599 59.31 30.2599C60.1777 30.2599 60.8812 29.5565 60.8812 28.6887Z" fill="#454647"/>
<path d="M67.1656 28.6884C67.1656 27.8207 66.4622 27.1172 65.5944 27.1172C64.7266 27.1172 64.0231 27.8207 64.0231 28.6884C64.0231 29.5562 64.7266 30.2597 65.5944 30.2597C66.4622 30.2597 67.1656 29.5562 67.1656 28.6884Z" fill="#454647"/>
<path d="M73.4541 28.6882C73.4541 27.8204 72.7506 27.1169 71.8828 27.1169C71.0151 27.1169 70.3116 27.8204 70.3116 28.6882C70.3116 29.556 71.0151 30.2594 71.8828 30.2594C72.7506 30.2594 73.4541 29.556 73.4541 28.6882Z" fill="#454647"/>
<path d="M79.7365 28.6884C79.7365 27.8207 79.033 27.1172 78.1652 27.1172C77.2975 27.1172 76.594 27.8207 76.594 28.6884C76.594 29.5562 77.2975 30.2597 78.1652 30.2597C79.033 30.2597 79.7365 29.5562 79.7365 28.6884Z" fill="#454647"/>
<path d="M86.0229 28.6887C86.0229 27.8209 85.3195 27.1174 84.4517 27.1174C83.5839 27.1174 82.8804 27.8209 82.8804 28.6887C82.8804 29.5565 83.5839 30.2599 84.4517 30.2599C85.3195 30.2599 86.0229 29.5565 86.0229 28.6887Z" fill="#454647"/>
<path d="M35.7394 31.8342C35.7394 30.9664 35.0359 30.2629 34.1681 30.2629C33.3003 30.2629 32.5969 30.9664 32.5969 31.8342C32.5969 32.702 33.3003 33.4054 34.1681 33.4054C35.0359 33.4054 35.7394 32.702 35.7394 31.8342Z" fill="#454647"/>
<path d="M38.8817 31.8344C38.8817 30.9667 38.1783 30.2632 37.3105 30.2632C36.4427 30.2632 35.7393 30.9667 35.7393 31.8344C35.7393 32.7022 36.4427 33.4057 37.3105 33.4057C38.1783 33.4057 38.8817 32.7022 38.8817 31.8344Z" fill="#454647"/>
<path d="M45.1662 31.8344C45.1662 30.9667 44.4627 30.2632 43.5949 30.2632C42.7272 30.2632 42.0237 30.9667 42.0237 31.8344C42.0237 32.7022 42.7272 33.4057 43.5949 33.4057C44.4627 33.4057 45.1662 32.7022 45.1662 31.8344Z" fill="#454647"/>
<path d="M48.3104 31.8342C48.3104 30.9664 47.6069 30.2629 46.7392 30.2629C45.8714 30.2629 45.1679 30.9664 45.1679 31.8342C45.1679 32.702 45.8714 33.4054 46.7392 33.4054C47.6069 33.4054 48.3104 32.702 48.3104 31.8342Z" fill="#454647"/>
<path d="M51.4504 31.8347C51.4504 30.9669 50.7469 30.2634 49.8791 30.2634C49.0113 30.2634 48.3079 30.9669 48.3079 31.8347C48.3079 32.7024 49.0113 33.4059 49.8791 33.4059C50.7469 33.4059 51.4504 32.7024 51.4504 31.8347Z" fill="#454647"/>
<path d="M54.5968 31.8339C54.5968 30.9662 53.8934 30.2627 53.0256 30.2627C52.1578 30.2627 51.4543 30.9662 51.4543 31.8339C51.4543 32.7017 52.1578 33.4052 53.0256 33.4052C53.8934 33.4052 54.5968 32.7017 54.5968 31.8339Z" fill="#454647"/>
<path d="M70.3079 31.8344C70.3079 30.9667 69.6044 30.2632 68.7367 30.2632C67.8689 30.2632 67.1654 30.9667 67.1654 31.8344C67.1654 32.7022 67.8689 33.4057 68.7367 33.4057C69.6044 33.4057 70.3079 32.7022 70.3079 31.8344Z" fill="#454647"/>
<path d="M79.7365 31.8344C79.7365 30.9667 79.033 30.2632 78.1652 30.2632C77.2975 30.2632 76.594 30.9667 76.594 31.8344C76.594 32.7022 77.2975 33.4057 78.1652 33.4057C79.033 33.4057 79.7365 32.7022 79.7365 31.8344Z" fill="#454647"/>
<path d="M86.0229 31.8347C86.0229 30.9669 85.3195 30.2634 84.4517 30.2634C83.5839 30.2634 82.8804 30.9669 82.8804 31.8347C82.8804 32.7024 83.5839 33.4059 84.4517 33.4059C85.3195 33.4059 86.0229 32.7024 86.0229 31.8347Z" fill="#454647"/>
<path d="M16.8863 34.9675C16.8863 34.0997 16.1828 33.3962 15.315 33.3962C14.4472 33.3962 13.7438 34.0997 13.7438 34.9675C13.7438 35.8353 14.4472 36.5387 15.315 36.5387C16.1828 36.5387 16.8863 35.8353 16.8863 34.9675Z" fill="#454647"/>
<path d="M20.0303 34.9672C20.0303 34.0995 19.3268 33.396 18.4591 33.396C17.5913 33.396 16.8878 34.0995 16.8878 34.9672C16.8878 35.835 17.5913 36.5385 18.4591 36.5385C19.3268 36.5385 20.0303 35.835 20.0303 34.9672Z" fill="#454647"/>
<path d="M29.4571 34.9675C29.4571 34.0997 28.7536 33.3962 27.8858 33.3962C27.018 33.3962 26.3146 34.0997 26.3146 34.9675C26.3146 35.8353 27.018 36.5387 27.8858 36.5387C28.7536 36.5387 29.4571 35.8353 29.4571 34.9675Z" fill="#454647"/>
<path d="M32.5934 34.9672C32.5934 34.0995 31.8899 33.396 31.0221 33.396C30.1543 33.396 29.4509 34.0995 29.4509 34.9672C29.4509 35.835 30.1543 36.5385 31.0221 36.5385C31.8899 36.5385 32.5934 35.835 32.5934 34.9672Z" fill="#454647"/>
<path d="M35.7394 34.9677C35.7394 34.1 35.0359 33.3965 34.1681 33.3965C33.3003 33.3965 32.5969 34.1 32.5969 34.9677C32.5969 35.8355 33.3003 36.539 34.1681 36.539C35.0359 36.539 35.7394 35.8355 35.7394 34.9677Z" fill="#454647"/>
<path d="M38.8817 34.9675C38.8817 34.0997 38.1783 33.3962 37.3105 33.3962C36.4427 33.3962 35.7393 34.0997 35.7393 34.9675C35.7393 35.8353 36.4427 36.5387 37.3105 36.5387C38.1783 36.5387 38.8817 35.8353 38.8817 34.9675Z" fill="#454647"/>
<path d="M45.1662 34.9675C45.1662 34.0997 44.4627 33.3962 43.5949 33.3962C42.7272 33.3962 42.0237 34.0997 42.0237 34.9675C42.0237 35.8353 42.7272 36.5387 43.5949 36.5387C44.4627 36.5387 45.1662 35.8353 45.1662 34.9675Z" fill="#454647"/>
<path d="M48.3104 34.9677C48.3104 34.1 47.6069 33.3965 46.7392 33.3965C45.8714 33.3965 45.1679 34.1 45.1679 34.9677C45.1679 35.8355 45.8714 36.539 46.7392 36.539C47.6069 36.539 48.3104 35.8355 48.3104 34.9677Z" fill="#454647"/>
<path d="M51.4504 34.9675C51.4504 34.0997 50.7469 33.3962 49.8791 33.3962C49.0113 33.3962 48.3079 34.0997 48.3079 34.9675C48.3079 35.8353 49.0113 36.5387 49.8791 36.5387C50.7469 36.5387 51.4504 35.8353 51.4504 34.9675Z" fill="#454647"/>
<path d="M57.7332 34.9675C57.7332 34.0997 57.0297 33.3962 56.1619 33.3962C55.2942 33.3962 54.5907 34.0997 54.5907 34.9675C54.5907 35.8353 55.2942 36.5387 56.1619 36.5387C57.0297 36.5387 57.7332 35.8353 57.7332 34.9675Z" fill="#454647"/>
<path d="M67.1656 34.9677C67.1656 34.1 66.4622 33.3965 65.5944 33.3965C64.7266 33.3965 64.0231 34.1 64.0231 34.9677C64.0231 35.8355 64.7266 36.539 65.5944 36.539C66.4622 36.539 67.1656 35.8355 67.1656 34.9677Z" fill="#454647"/>
<path d="M70.3079 34.9675C70.3079 34.0997 69.6044 33.3962 68.7367 33.3962C67.8689 33.3962 67.1654 34.0997 67.1654 34.9675C67.1654 35.8353 67.8689 36.5387 68.7367 36.5387C69.6044 36.5387 70.3079 35.8353 70.3079 34.9675Z" fill="#454647"/>
<path d="M76.6003 34.9675C76.6003 34.0997 75.8968 33.3962 75.029 33.3962C74.1612 33.3962 73.4578 34.0997 73.4578 34.9675C73.4578 35.8353 74.1612 36.5387 75.029 36.5387C75.8968 36.5387 76.6003 35.8353 76.6003 34.9675Z" fill="#454647"/>
<path d="M79.7365 34.9672C79.7365 34.0995 79.033 33.396 78.1652 33.396C77.2975 33.396 76.594 34.0995 76.594 34.9672C76.594 35.835 77.2975 36.5385 78.1652 36.5385C79.033 36.5385 79.7365 35.835 79.7365 34.9672Z" fill="#454647"/>
<path d="M82.8747 34.9677C82.8747 34.1 82.1713 33.3965 81.3035 33.3965C80.4357 33.3965 79.7322 34.1 79.7322 34.9677C79.7322 35.8355 80.4357 36.539 81.3035 36.539C82.1713 36.539 82.8747 35.8355 82.8747 34.9677Z" fill="#454647"/>
<path d="M86.0229 34.9672C86.0229 34.0995 85.3195 33.396 84.4517 33.396C83.5839 33.396 82.8804 34.0995 82.8804 34.9672C82.8804 35.835 83.5839 36.5385 84.4517 36.5385C85.3195 36.5385 86.0229 35.835 86.0229 34.9672Z" fill="#454647"/>
<path d="M89.167 34.9672C89.167 34.0995 88.4636 33.396 87.5958 33.396C86.728 33.396 86.0245 34.0995 86.0245 34.9672C86.0245 35.835 86.728 36.5385 87.5958 36.5385C88.4636 36.5385 89.167 35.835 89.167 34.9672Z" fill="#454647"/>
<path d="M92.3073 34.9672C92.3073 34.0995 91.6039 33.396 90.7361 33.396C89.8683 33.396 89.1649 34.0995 89.1649 34.9672C89.1649 35.835 89.8683 36.5385 90.7361 36.5385C91.6039 36.5385 92.3073 35.835 92.3073 34.9672Z" fill="#454647"/>
<path d="M98.5878 34.9672C98.5878 34.0995 97.8843 33.396 97.0166 33.396C96.1488 33.396 95.4453 34.0995 95.4453 34.9672C95.4453 35.835 96.1488 36.5385 97.0166 36.5385C97.8843 36.5385 98.5878 35.835 98.5878 34.9672Z" fill="#454647"/>
<path d="M10.6058 38.1171C10.6058 37.2494 9.90234 36.5459 9.03456 36.5459C8.16679 36.5459 7.46332 37.2494 7.46332 38.1171C7.46332 38.9849 8.16679 39.6884 9.03456 39.6884C9.90234 39.6884 10.6058 38.9849 10.6058 38.1171Z" fill="#454647"/>
<path d="M20.0303 38.1167C20.0303 37.2489 19.3268 36.5454 18.4591 36.5454C17.5913 36.5454 16.8878 37.2489 16.8878 38.1167C16.8878 38.9844 17.5913 39.6879 18.4591 39.6879C19.3268 39.6879 20.0303 38.9844 20.0303 38.1167Z" fill="#454647"/>
<path d="M23.1687 38.1169C23.1687 37.2491 22.4652 36.5457 21.5974 36.5457C20.7297 36.5457 20.0262 37.2491 20.0262 38.1169C20.0262 38.9847 20.7297 39.6881 21.5974 39.6881C22.4652 39.6881 23.1687 38.9847 23.1687 38.1169Z" fill="#454647"/>
<path d="M26.3149 38.1164C26.3149 37.2486 25.6114 36.5452 24.7437 36.5452C23.8759 36.5452 23.1724 37.2486 23.1724 38.1164C23.1724 38.9842 23.8759 39.6877 24.7437 39.6877C25.6114 39.6877 26.3149 38.9842 26.3149 38.1164Z" fill="#454647"/>
<path d="M42.0222 38.1159C42.0222 37.2481 41.3187 36.5447 40.4509 36.5447C39.5832 36.5447 38.8797 37.2481 38.8797 38.1159C38.8797 38.9837 39.5832 39.6872 40.4509 39.6872C41.3187 39.6872 42.0222 38.9837 42.0222 38.1159Z" fill="#454647"/>
<path d="M45.1662 38.1174C45.1662 37.2496 44.4627 36.5461 43.5949 36.5461C42.7272 36.5461 42.0237 37.2496 42.0237 38.1174C42.0237 38.9852 42.7272 39.6886 43.5949 39.6886C44.4627 39.6886 45.1662 38.9852 45.1662 38.1174Z" fill="#454647"/>
<path d="M64.0294 38.1171C64.0294 37.2494 63.3259 36.5459 62.4581 36.5459C61.5904 36.5459 60.8869 37.2494 60.8869 38.1171C60.8869 38.9849 61.5904 39.6884 62.4581 39.6884C63.3259 39.6884 64.0294 38.9849 64.0294 38.1171Z" fill="#454647"/>
<path d="M67.1656 38.1174C67.1656 37.2496 66.4622 36.5461 65.5944 36.5461C64.7266 36.5461 64.0231 37.2496 64.0231 38.1174C64.0231 38.9852 64.7266 39.6886 65.5944 39.6886C66.4622 39.6886 67.1656 38.9852 67.1656 38.1174Z" fill="#454647"/>
<path d="M70.3079 38.1174C70.3079 37.2496 69.6044 36.5461 68.7367 36.5461C67.8689 36.5461 67.1654 37.2496 67.1654 38.1174C67.1654 38.9852 67.8689 39.6886 68.7367 39.6886C69.6044 39.6886 70.3079 38.9852 70.3079 38.1174Z" fill="#454647"/>
<path d="M73.4541 38.1169C73.4541 37.2491 72.7506 36.5457 71.8828 36.5457C71.0151 36.5457 70.3116 37.2491 70.3116 38.1169C70.3116 38.9847 71.0151 39.6881 71.8828 39.6881C72.7506 39.6881 73.4541 38.9847 73.4541 38.1169Z" fill="#454647"/>
<path d="M76.6003 38.1169C76.6003 37.2491 75.8968 36.5457 75.029 36.5457C74.1612 36.5457 73.4578 37.2491 73.4578 38.1169C73.4578 38.9847 74.1612 39.6881 75.029 39.6881C75.8968 39.6881 76.6003 38.9847 76.6003 38.1169Z" fill="#454647"/>
<path d="M79.7365 38.1171C79.7365 37.2494 79.033 36.5459 78.1652 36.5459C77.2975 36.5459 76.594 37.2494 76.594 38.1171C76.594 38.9849 77.2975 39.6884 78.1652 39.6884C79.033 39.6884 79.7365 38.9849 79.7365 38.1171Z" fill="#454647"/>
<path d="M82.8747 38.1171C82.8747 37.2494 82.1713 36.5459 81.3035 36.5459C80.4357 36.5459 79.7322 37.2494 79.7322 38.1171C79.7322 38.9849 80.4357 39.6884 81.3035 39.6884C82.1713 39.6884 82.8747 38.9849 82.8747 38.1171Z" fill="#454647"/>
<path d="M86.0229 38.1171C86.0229 37.2494 85.3195 36.5459 84.4517 36.5459C83.5839 36.5459 82.8804 37.2494 82.8804 38.1171C82.8804 38.9849 83.5839 39.6884 84.4517 39.6884C85.3195 39.6884 86.0229 38.9849 86.0229 38.1171Z" fill="#454647"/>
<path d="M89.167 38.1169C89.167 37.2491 88.4636 36.5457 87.5958 36.5457C86.728 36.5457 86.0245 37.2491 86.0245 38.1169C86.0245 38.9847 86.728 39.6881 87.5958 39.6881C88.4636 39.6881 89.167 38.9847 89.167 38.1169Z" fill="#454647"/>
<path d="M92.3073 38.1169C92.3073 37.2491 91.6039 36.5457 90.7361 36.5457C89.8683 36.5457 89.1649 37.2491 89.1649 38.1169C89.1649 38.9847 89.8683 39.6881 90.7361 39.6881C91.6039 39.6881 92.3073 38.9847 92.3073 38.1169Z" fill="#454647"/>
<path d="M104.874 38.1162C104.874 37.2484 104.171 36.5449 103.303 36.5449C102.435 36.5449 101.732 37.2484 101.732 38.1162C101.732 38.9839 102.435 39.6874 103.303 39.6874C104.171 39.6874 104.874 38.9839 104.874 38.1162Z" fill="#454647"/>
<path d="M111.159 38.1171C111.159 37.2494 110.455 36.5459 109.587 36.5459C108.72 36.5459 108.016 37.2494 108.016 38.1171C108.016 38.9849 108.72 39.6884 109.587 39.6884C110.455 39.6884 111.159 38.9849 111.159 38.1171Z" fill="#454647"/>
<path d="M13.7441 41.2597C13.7441 40.3919 13.0406 39.6885 12.1728 39.6885C11.305 39.6885 10.6016 40.3919 10.6016 41.2597C10.6016 42.1275 11.305 42.831 12.1728 42.831C13.0406 42.831 13.7441 42.1275 13.7441 41.2597Z" fill="#454647"/>
<path d="M23.1707 41.259C23.1707 40.3912 22.4672 39.6877 21.5994 39.6877C20.7317 39.6877 20.0282 40.3912 20.0282 41.259C20.0282 42.1268 20.7317 42.8302 21.5994 42.8302C22.4672 42.8302 23.1707 42.1268 23.1707 41.259Z" fill="#454647"/>
<path d="M29.4571 41.2595C29.4571 40.3917 28.7536 39.6882 27.8858 39.6882C27.018 39.6882 26.3146 40.3917 26.3146 41.2595C26.3146 42.1273 27.018 42.8307 27.8858 42.8307C28.7536 42.8307 29.4571 42.1273 29.4571 41.2595Z" fill="#454647"/>
<path d="M38.8817 41.2597C38.8817 40.3919 38.1783 39.6885 37.3105 39.6885C36.4427 39.6885 35.7393 40.3919 35.7393 41.2597C35.7393 42.1275 36.4427 42.831 37.3105 42.831C38.1783 42.831 38.8817 42.1275 38.8817 41.2597Z" fill="#454647"/>
<path d="M42.0222 41.26C42.0222 40.3922 41.3187 39.6887 40.4509 39.6887C39.5832 39.6887 38.8797 40.3922 38.8797 41.26C38.8797 42.1277 39.5832 42.8312 40.4509 42.8312C41.3187 42.8312 42.0222 42.1277 42.0222 41.26Z" fill="#454647"/>
<path d="M45.1662 41.2597C45.1662 40.3919 44.4627 39.6885 43.5949 39.6885C42.7272 39.6885 42.0237 40.3919 42.0237 41.2597C42.0237 42.1275 42.7272 42.831 43.5949 42.831C44.4627 42.831 45.1662 42.1275 45.1662 41.2597Z" fill="#454647"/>
<path d="M64.0294 41.2597C64.0294 40.3919 63.3259 39.6885 62.4581 39.6885C61.5904 39.6885 60.8869 40.3919 60.8869 41.2597C60.8869 42.1275 61.5904 42.831 62.4581 42.831C63.3259 42.831 64.0294 42.1275 64.0294 41.2597Z" fill="#454647"/>
<path d="M70.3079 41.2597C70.3079 40.3919 69.6044 39.6885 68.7367 39.6885C67.8689 39.6885 67.1654 40.3919 67.1654 41.2597C67.1654 42.1275 67.8689 42.831 68.7367 42.831C69.6044 42.831 70.3079 42.1275 70.3079 41.2597Z" fill="#454647"/>
<path d="M82.8747 41.2595C82.8747 40.3917 82.1713 39.6882 81.3035 39.6882C80.4357 39.6882 79.7322 40.3917 79.7322 41.2595C79.7322 42.1273 80.4357 42.8307 81.3035 42.8307C82.1713 42.8307 82.8747 42.1273 82.8747 41.2595Z" fill="#454647"/>
<path d="M89.167 41.2597C89.167 40.3919 88.4636 39.6885 87.5958 39.6885C86.728 39.6885 86.0245 40.3919 86.0245 41.2597C86.0245 42.1275 86.728 42.831 87.5958 42.831C88.4636 42.831 89.167 42.1275 89.167 41.2597Z" fill="#454647"/>
<path d="M92.3073 41.2597C92.3073 40.3919 91.6039 39.6885 90.7361 39.6885C89.8683 39.6885 89.1649 40.3919 89.1649 41.2597C89.1649 42.1275 89.8683 42.831 90.7361 42.831C91.6039 42.831 92.3073 42.1275 92.3073 41.2597Z" fill="#454647"/>
<path d="M108.018 41.2597C108.018 40.3919 107.315 39.6885 106.447 39.6885C105.579 39.6885 104.876 40.3919 104.876 41.2597C104.876 42.1275 105.579 42.831 106.447 42.831C107.315 42.831 108.018 42.1275 108.018 41.2597Z" fill="#454647"/>
<path d="M111.159 41.2597C111.159 40.3919 110.455 39.6885 109.587 39.6885C108.72 39.6885 108.016 40.3919 108.016 41.2597C108.016 42.1275 108.72 42.831 109.587 42.831C110.455 42.831 111.159 42.1275 111.159 41.2597Z" fill="#454647"/>
<path d="M13.7441 44.4043C13.7441 43.5365 13.0406 42.833 12.1728 42.833C11.305 42.833 10.6016 43.5365 10.6016 44.4043C10.6016 45.272 11.305 45.9755 12.1728 45.9755C13.0406 45.9755 13.7441 45.272 13.7441 44.4043Z" fill="#454647"/>
<path d="M16.8863 44.4038C16.8863 43.536 16.1828 42.8325 15.315 42.8325C14.4472 42.8325 13.7438 43.536 13.7438 44.4038C13.7438 45.2715 14.4472 45.975 15.315 45.975C16.1828 45.975 16.8863 45.2715 16.8863 44.4038Z" fill="#454647"/>
<path d="M26.3149 44.4038C26.3149 43.536 25.6114 42.8325 24.7437 42.8325C23.8759 42.8325 23.1724 43.536 23.1724 44.4038C23.1724 45.2715 23.8759 45.975 24.7437 45.975C25.6114 45.975 26.3149 45.2715 26.3149 44.4038Z" fill="#454647"/>
<path d="M35.7394 44.4038C35.7394 43.536 35.0359 42.8325 34.1681 42.8325C33.3003 42.8325 32.5969 43.536 32.5969 44.4038C32.5969 45.2715 33.3003 45.975 34.1681 45.975C35.0359 45.975 35.7394 45.2715 35.7394 44.4038Z" fill="#454647"/>
<path d="M38.8817 44.4038C38.8817 43.536 38.1783 42.8325 37.3105 42.8325C36.4427 42.8325 35.7393 43.536 35.7393 44.4038C35.7393 45.2715 36.4427 45.975 37.3105 45.975C38.1783 45.975 38.8817 45.2715 38.8817 44.4038Z" fill="#454647"/>
<path d="M42.0222 44.4038C42.0222 43.536 41.3187 42.8325 40.4509 42.8325C39.5832 42.8325 38.8797 43.536 38.8797 44.4038C38.8797 45.2715 39.5832 45.975 40.4509 45.975C41.3187 45.975 42.0222 45.2715 42.0222 44.4038Z" fill="#454647"/>
<path d="M82.8747 44.4035C82.8747 43.5357 82.1713 42.8323 81.3035 42.8323C80.4357 42.8323 79.7322 43.5357 79.7322 44.4035C79.7322 45.2713 80.4357 45.9748 81.3035 45.9748C82.1713 45.9748 82.8747 45.2713 82.8747 44.4035Z" fill="#454647"/>
<path d="M89.167 44.4038C89.167 43.536 88.4636 42.8325 87.5958 42.8325C86.728 42.8325 86.0245 43.536 86.0245 44.4038C86.0245 45.2715 86.728 45.975 87.5958 45.975C88.4636 45.975 89.167 45.2715 89.167 44.4038Z" fill="#454647"/>
<path d="M92.3073 44.4038C92.3073 43.536 91.6039 42.8325 90.7361 42.8325C89.8683 42.8325 89.1649 43.536 89.1649 44.4038C89.1649 45.2715 89.8683 45.975 90.7361 45.975C91.6039 45.975 92.3073 45.2715 92.3073 44.4038Z" fill="#454647"/>
<path d="M95.4475 44.4035C95.4475 43.5357 94.7441 42.8323 93.8763 42.8323C93.0085 42.8323 92.3051 43.5357 92.3051 44.4035C92.3051 45.2713 93.0085 45.9748 93.8763 45.9748C94.7441 45.9748 95.4475 45.2713 95.4475 44.4035Z" fill="#454647"/>
<path d="M98.5878 44.4038C98.5878 43.536 97.8843 42.8325 97.0166 42.8325C96.1488 42.8325 95.4453 43.536 95.4453 44.4038C95.4453 45.2715 96.1488 45.975 97.0166 45.975C97.8843 45.975 98.5878 45.2715 98.5878 44.4038Z" fill="#454647"/>
<path d="M101.73 44.4038C101.73 43.536 101.027 42.8325 100.159 42.8325C99.291 42.8325 98.5875 43.536 98.5875 44.4038C98.5875 45.2715 99.291 45.975 100.159 45.975C101.027 45.975 101.73 45.2715 101.73 44.4038Z" fill="#454647"/>
<path d="M111.159 44.4038C111.159 43.536 110.455 42.8325 109.587 42.8325C108.72 42.8325 108.016 43.536 108.016 44.4038C108.016 45.2715 108.72 45.975 109.587 45.975C110.455 45.975 111.159 45.2715 111.159 44.4038Z" fill="#454647"/>
<path d="M13.7441 47.5454C13.7441 46.6776 13.0406 45.9741 12.1728 45.9741C11.305 45.9741 10.6016 46.6776 10.6016 47.5454C10.6016 48.4131 11.305 49.1166 12.1728 49.1166C13.0406 49.1166 13.7441 48.4131 13.7441 47.5454Z" fill="#454647"/>
<path d="M23.1707 47.5454C23.1707 46.6776 22.4672 45.9741 21.5994 45.9741C20.7317 45.9741 20.0282 46.6776 20.0282 47.5454C20.0282 48.4131 20.7317 49.1166 21.5994 49.1166C22.4672 49.1166 23.1707 48.4131 23.1707 47.5454Z" fill="#454647"/>
<path d="M29.4571 47.5451C29.4571 46.6773 28.7536 45.9739 27.8858 45.9739C27.018 45.9739 26.3146 46.6773 26.3146 47.5451C26.3146 48.4129 27.018 49.1164 27.8858 49.1164C28.7536 49.1164 29.4571 48.4129 29.4571 47.5451Z" fill="#454647"/>
<path d="M32.5934 47.5454C32.5934 46.6776 31.8899 45.9741 31.0221 45.9741C30.1543 45.9741 29.4509 46.6776 29.4509 47.5454C29.4509 48.4131 30.1543 49.1166 31.0221 49.1166C31.8899 49.1166 32.5934 48.4131 32.5934 47.5454Z" fill="#454647"/>
<path d="M38.8817 47.5454C38.8817 46.6776 38.1783 45.9741 37.3105 45.9741C36.4427 45.9741 35.7393 46.6776 35.7393 47.5454C35.7393 48.4131 36.4427 49.1166 37.3105 49.1166C38.1783 49.1166 38.8817 48.4131 38.8817 47.5454Z" fill="#454647"/>
<path d="M42.0222 47.5451C42.0222 46.6773 41.3187 45.9739 40.4509 45.9739C39.5832 45.9739 38.8797 46.6773 38.8797 47.5451C38.8797 48.4129 39.5832 49.1164 40.4509 49.1164C41.3187 49.1164 42.0222 48.4129 42.0222 47.5451Z" fill="#454647"/>
<path d="M86.0229 47.5459C86.0229 46.6781 85.3195 45.9746 84.4517 45.9746C83.5839 45.9746 82.8804 46.6781 82.8804 47.5459C82.8804 48.4136 83.5839 49.1171 84.4517 49.1171C85.3195 49.1171 86.0229 48.4136 86.0229 47.5459Z" fill="#454647"/>
<path d="M20.0303 50.6923C20.0303 49.8246 19.3268 49.1211 18.4591 49.1211C17.5913 49.1211 16.8878 49.8246 16.8878 50.6923C16.8878 51.5601 17.5913 52.2636 18.4591 52.2636C19.3268 52.2636 20.0303 51.5601 20.0303 50.6923Z" fill="#454647"/>
<path d="M32.5934 50.6928C32.5934 49.8251 31.8899 49.1216 31.0221 49.1216C30.1543 49.1216 29.4509 49.8251 29.4509 50.6928C29.4509 51.5606 30.1543 52.2641 31.0221 52.2641C31.8899 52.2641 32.5934 51.5606 32.5934 50.6928Z" fill="#454647"/>
<path d="M35.7394 50.6923C35.7394 49.8246 35.0359 49.1211 34.1681 49.1211C33.3003 49.1211 32.5969 49.8246 32.5969 50.6923C32.5969 51.5601 33.3003 52.2636 34.1681 52.2636C35.0359 52.2636 35.7394 51.5601 35.7394 50.6923Z" fill="#454647"/>
<path d="M38.8817 50.6931C38.8817 49.8253 38.1783 49.1218 37.3105 49.1218C36.4427 49.1218 35.7393 49.8253 35.7393 50.6931C35.7393 51.5608 36.4427 52.2643 37.3105 52.2643C38.1783 52.2643 38.8817 51.5608 38.8817 50.6931Z" fill="#454647"/>
<path d="M42.0222 50.6923C42.0222 49.8246 41.3187 49.1211 40.4509 49.1211C39.5832 49.1211 38.8797 49.8246 38.8797 50.6923C38.8797 51.5601 39.5832 52.2636 40.4509 52.2636C41.3187 52.2636 42.0222 51.5601 42.0222 50.6923Z" fill="#454647"/>
<path d="M79.7365 50.6933C79.7365 49.8255 79.033 49.1221 78.1652 49.1221C77.2975 49.1221 76.594 49.8255 76.594 50.6933C76.594 51.5611 77.2975 52.2646 78.1652 52.2646C79.033 52.2646 79.7365 51.5611 79.7365 50.6933Z" fill="#454647"/>
<path d="M86.0229 50.6928C86.0229 49.8251 85.3195 49.1216 84.4517 49.1216C83.5839 49.1216 82.8804 49.8251 82.8804 50.6928C82.8804 51.5606 83.5839 52.2641 84.4517 52.2641C85.3195 52.2641 86.0229 51.5606 86.0229 50.6928Z" fill="#454647"/>
<path d="M101.73 50.6923C101.73 49.8246 101.027 49.1211 100.159 49.1211C99.291 49.1211 98.5875 49.8246 98.5875 50.6923C98.5875 51.5601 99.291 52.2636 100.159 52.2636C101.027 52.2636 101.73 51.5601 101.73 50.6923Z" fill="#454647"/>
<path d="M16.8863 53.8242C16.8863 52.9564 16.1828 52.2529 15.315 52.2529C14.4472 52.2529 13.7438 52.9564 13.7438 53.8242C13.7438 54.692 14.4472 55.3954 15.315 55.3954C16.1828 55.3954 16.8863 54.692 16.8863 53.8242Z" fill="#454647"/>
<path d="M20.0303 53.8256C20.0303 52.9579 19.3268 52.2544 18.4591 52.2544C17.5913 52.2544 16.8878 52.9579 16.8878 53.8256C16.8878 54.6934 17.5913 55.3969 18.4591 55.3969C19.3268 55.3969 20.0303 54.6934 20.0303 53.8256Z" fill="#454647"/>
<path d="M23.1687 53.8256C23.1687 52.9579 22.4652 52.2544 21.5974 52.2544C20.7297 52.2544 20.0262 52.9579 20.0262 53.8256C20.0262 54.6934 20.7297 55.3969 21.5974 55.3969C22.4652 55.3969 23.1687 54.6934 23.1687 53.8256Z" fill="#454647"/>
<path d="M26.3149 53.8259C26.3149 52.9581 25.6114 52.2546 24.7437 52.2546C23.8759 52.2546 23.1724 52.9581 23.1724 53.8259C23.1724 54.6937 23.8759 55.3971 24.7437 55.3971C25.6114 55.3971 26.3149 54.6937 26.3149 53.8259Z" fill="#454647"/>
<path d="M29.4571 53.8237C29.4571 52.9559 28.7536 52.2524 27.8858 52.2524C27.018 52.2524 26.3146 52.9559 26.3146 53.8237C26.3146 54.6915 27.018 55.3949 27.8858 55.3949C28.7536 55.3949 29.4571 54.6915 29.4571 53.8237Z" fill="#454647"/>
<path d="M32.5934 53.8239C32.5934 52.9562 31.8899 52.2527 31.0221 52.2527C30.1543 52.2527 29.4509 52.9562 29.4509 53.8239C29.4509 54.6917 30.1543 55.3952 31.0221 55.3952C31.8899 55.3952 32.5934 54.6917 32.5934 53.8239Z" fill="#454647"/>
<path d="M35.7394 53.8259C35.7394 52.9581 35.0359 52.2546 34.1681 52.2546C33.3003 52.2546 32.5969 52.9581 32.5969 53.8259C32.5969 54.6937 33.3003 55.3971 34.1681 55.3971C35.0359 55.3971 35.7394 54.6937 35.7394 53.8259Z" fill="#454647"/>
<path d="M38.8817 53.8242C38.8817 52.9564 38.1783 52.2529 37.3105 52.2529C36.4427 52.2529 35.7393 52.9564 35.7393 53.8242C35.7393 54.692 36.4427 55.3954 37.3105 55.3954C38.1783 55.3954 38.8817 54.692 38.8817 53.8242Z" fill="#454647"/>
<path d="M86.0229 53.8242C86.0229 52.9564 85.3195 52.2529 84.4517 52.2529C83.5839 52.2529 82.8804 52.9564 82.8804 53.8242C82.8804 54.692 83.5839 55.3954 84.4517 55.3954C85.3195 55.3954 86.0229 54.692 86.0229 53.8242Z" fill="#454647"/>
<path d="M92.3073 53.8256C92.3073 52.9579 91.6039 52.2544 90.7361 52.2544C89.8683 52.2544 89.1649 52.9579 89.1649 53.8256C89.1649 54.6934 89.8683 55.3969 90.7361 55.3969C91.6039 55.3969 92.3073 54.6934 92.3073 53.8256Z" fill="#454647"/>
<path d="M95.4475 53.8259C95.4475 52.9581 94.7441 52.2546 93.8763 52.2546C93.0085 52.2546 92.3051 52.9581 92.3051 53.8259C92.3051 54.6937 93.0085 55.3971 93.8763 55.3971C94.7441 55.3971 95.4475 54.6937 95.4475 53.8259Z" fill="#454647"/>
<path d="M98.5878 53.8256C98.5878 52.9579 97.8843 52.2544 97.0166 52.2544C96.1488 52.2544 95.4453 52.9579 95.4453 53.8256C95.4453 54.6934 96.1488 55.3969 97.0166 55.3969C97.8843 55.3969 98.5878 54.6934 98.5878 53.8256Z" fill="#454647"/>
<path d="M101.73 53.8242C101.73 52.9564 101.027 52.2529 100.159 52.2529C99.291 52.2529 98.5875 52.9564 98.5875 53.8242C98.5875 54.692 99.291 55.3954 100.159 55.3954C101.027 55.3954 101.73 54.692 101.73 53.8242Z" fill="#454647"/>
<path d="M23.1687 56.9763C23.1687 56.1085 22.4652 55.405 21.5974 55.405C20.7297 55.405 20.0262 56.1085 20.0262 56.9763C20.0262 57.8441 20.7297 58.5475 21.5974 58.5475C22.4652 58.5475 23.1687 57.8441 23.1687 56.9763Z" fill="#454647"/>
<path d="M26.3149 56.9763C26.3149 56.1085 25.6114 55.405 24.7437 55.405C23.8759 55.405 23.1724 56.1085 23.1724 56.9763C23.1724 57.8441 23.8759 58.5475 24.7437 58.5475C25.6114 58.5475 26.3149 57.8441 26.3149 56.9763Z" fill="#454647"/>
<path d="M32.5934 56.9763C32.5934 56.1085 31.8899 55.405 31.0221 55.405C30.1543 55.405 29.4509 56.1085 29.4509 56.9763C29.4509 57.8441 30.1543 58.5475 31.0221 58.5475C31.8899 58.5475 32.5934 57.8441 32.5934 56.9763Z" fill="#454647"/>
<path d="M42.0222 56.977C42.0222 56.1092 41.3187 55.4058 40.4509 55.4058C39.5832 55.4058 38.8797 56.1092 38.8797 56.977C38.8797 57.8448 39.5832 58.5483 40.4509 58.5483C41.3187 58.5483 42.0222 57.8448 42.0222 56.977Z" fill="#454647"/>
<path d="M79.7365 56.9765C79.7365 56.1087 79.033 55.4053 78.1652 55.4053C77.2975 55.4053 76.594 56.1087 76.594 56.9765C76.594 57.8443 77.2975 58.5478 78.1652 58.5478C79.033 58.5478 79.7365 57.8443 79.7365 56.9765Z" fill="#454647"/>
<path d="M86.0229 56.9763C86.0229 56.1085 85.3195 55.405 84.4517 55.405C83.5839 55.405 82.8804 56.1085 82.8804 56.9763C82.8804 57.8441 83.5839 58.5475 84.4517 58.5475C85.3195 58.5475 86.0229 57.8441 86.0229 56.9763Z" fill="#454647"/>
<path d="M89.167 56.9768C89.167 56.109 88.4636 55.4055 87.5958 55.4055C86.728 55.4055 86.0245 56.109 86.0245 56.9768C86.0245 57.8445 86.728 58.548 87.5958 58.548C88.4636 58.548 89.167 57.8445 89.167 56.9768Z" fill="#454647"/>
<path d="M92.3073 56.9763C92.3073 56.1085 91.6039 55.405 90.7361 55.405C89.8683 55.405 89.1649 56.1085 89.1649 56.9763C89.1649 57.8441 89.8683 58.5475 90.7361 58.5475C91.6039 58.5475 92.3073 57.8441 92.3073 56.9763Z" fill="#454647"/>
<path d="M95.4475 56.9768C95.4475 56.109 94.7441 55.4055 93.8763 55.4055C93.0085 55.4055 92.3051 56.109 92.3051 56.9768C92.3051 57.8445 93.0085 58.548 93.8763 58.548C94.7441 58.548 95.4475 57.8445 95.4475 56.9768Z" fill="#454647"/>
<path d="M104.874 56.9765C104.874 56.1087 104.171 55.4053 103.303 55.4053C102.435 55.4053 101.732 56.1087 101.732 56.9765C101.732 57.8443 102.435 58.5478 103.303 58.5478C104.171 58.5478 104.874 57.8443 104.874 56.9765Z" fill="#454647"/>
<path d="M108.018 56.9768C108.018 56.109 107.315 55.4055 106.447 55.4055C105.579 55.4055 104.876 56.109 104.876 56.9768C104.876 57.8445 105.579 58.548 106.447 58.548C107.315 58.548 108.018 57.8445 108.018 56.9768Z" fill="#454647"/>
<path d="M10.6058 60.1132C10.6058 59.2455 9.90234 58.542 9.03456 58.542C8.16679 58.542 7.46332 59.2455 7.46332 60.1132C7.46332 60.981 8.16679 61.6845 9.03456 61.6845C9.90234 61.6845 10.6058 60.981 10.6058 60.1132Z" fill="#454647"/>
<path d="M26.3149 60.1135C26.3149 59.2457 25.6114 58.5422 24.7437 58.5422C23.8759 58.5422 23.1724 59.2457 23.1724 60.1135C23.1724 60.9813 23.8759 61.6847 24.7437 61.6847C25.6114 61.6847 26.3149 60.9813 26.3149 60.1135Z" fill="#454647"/>
<path d="M29.4571 60.113C29.4571 59.2452 28.7536 58.5417 27.8858 58.5417C27.018 58.5417 26.3146 59.2452 26.3146 60.113C26.3146 60.9808 27.018 61.6842 27.8858 61.6842C28.7536 61.6842 29.4571 60.9808 29.4571 60.113Z" fill="#454647"/>
<path d="M32.5934 60.1132C32.5934 59.2455 31.8899 58.542 31.0221 58.542C30.1543 58.542 29.4509 59.2455 29.4509 60.1132C29.4509 60.981 30.1543 61.6845 31.0221 61.6845C31.8899 61.6845 32.5934 60.981 32.5934 60.1132Z" fill="#454647"/>
<path d="M38.8817 60.1135C38.8817 59.2457 38.1783 58.5422 37.3105 58.5422C36.4427 58.5422 35.7393 59.2457 35.7393 60.1135C35.7393 60.9813 36.4427 61.6847 37.3105 61.6847C38.1783 61.6847 38.8817 60.9813 38.8817 60.1135Z" fill="#454647"/>
<path d="M86.0229 60.1135C86.0229 59.2457 85.3195 58.5422 84.4517 58.5422C83.5839 58.5422 82.8804 59.2457 82.8804 60.1135C82.8804 60.9813 83.5839 61.6847 84.4517 61.6847C85.3195 61.6847 86.0229 60.9813 86.0229 60.1135Z" fill="#454647"/>
<path d="M89.167 60.1128C89.167 59.245 88.4636 58.5415 87.5958 58.5415C86.728 58.5415 86.0245 59.245 86.0245 60.1128C86.0245 60.9805 86.728 61.684 87.5958 61.684C88.4636 61.684 89.167 60.9805 89.167 60.1128Z" fill="#454647"/>
<path d="M92.3073 60.1132C92.3073 59.2455 91.6039 58.542 90.7361 58.542C89.8683 58.542 89.1649 59.2455 89.1649 60.1132C89.1649 60.981 89.8683 61.6845 90.7361 61.6845C91.6039 61.6845 92.3073 60.981 92.3073 60.1132Z" fill="#454647"/>
<path d="M95.4475 60.1132C95.4475 59.2455 94.7441 58.542 93.8763 58.542C93.0085 58.542 92.3051 59.2455 92.3051 60.1132C92.3051 60.981 93.0085 61.6845 93.8763 61.6845C94.7441 61.6845 95.4475 60.981 95.4475 60.1132Z" fill="#454647"/>
<path d="M98.5878 60.1128C98.5878 59.245 97.8843 58.5415 97.0166 58.5415C96.1488 58.5415 95.4453 59.245 95.4453 60.1128C95.4453 60.9805 96.1488 61.684 97.0166 61.684C97.8843 61.684 98.5878 60.9805 98.5878 60.1128Z" fill="#454647"/>
<path d="M13.7441 63.2573C13.7441 62.3895 13.0406 61.686 12.1728 61.686C11.305 61.686 10.6016 62.3895 10.6016 63.2573C10.6016 64.1251 11.305 64.8285 12.1728 64.8285C13.0406 64.8285 13.7441 64.1251 13.7441 63.2573Z" fill="#454647"/>
<path d="M16.8863 63.2553C16.8863 62.3876 16.1828 61.6841 15.315 61.6841C14.4472 61.6841 13.7438 62.3876 13.7438 63.2553C13.7438 64.1231 14.4472 64.8266 15.315 64.8266C16.1828 64.8266 16.8863 64.1231 16.8863 63.2553Z" fill="#454647"/>
<path d="M26.3149 63.2553C26.3149 62.3876 25.6114 61.6841 24.7437 61.6841C23.8759 61.6841 23.1724 62.3876 23.1724 63.2553C23.1724 64.1231 23.8759 64.8266 24.7437 64.8266C25.6114 64.8266 26.3149 64.1231 26.3149 63.2553Z" fill="#454647"/>
<path d="M32.5934 63.2553C32.5934 62.3876 31.8899 61.6841 31.0221 61.6841C30.1543 61.6841 29.4509 62.3876 29.4509 63.2553C29.4509 64.1231 30.1543 64.8266 31.0221 64.8266C31.8899 64.8266 32.5934 64.1231 32.5934 63.2553Z" fill="#454647"/>
<path d="M61.3892 59.8041C61.3892 59.1099 60.8264 58.5471 60.1322 58.5471C59.438 58.5471 58.8752 59.1099 58.8752 59.8041C58.8752 60.4983 59.438 61.0611 60.1322 61.0611C60.8264 61.0611 61.3892 60.4983 61.3892 59.8041Z" fill="#454647"/>
<path d="M44 60C44 46.824 46.824 44 60 44C73.176 44 76 46.824 76 60C76 73.176 73.176 76 60 76C46.824 76 44 73.176 44 60Z" fill="url(#paint0_linear_6996_143678)"/>
<path d="M44 60C44 46.824 46.824 44 60 44C73.176 44 76 46.824 76 60C76 73.176 73.176 76 60 76C46.824 76 44 73.176 44 60Z" fill="black" fill-opacity="0.05"/>
<path d="M68.218 52.2114L68.211 51.996L63.5712 51.2246L63.5874 51.5512C63.7611 54.9518 63.5874 57.574 63.0639 59.5639C62.3504 62.2672 60.9721 63.7382 58.9637 63.9374C58.2039 64.0115 57.4047 63.766 56.7747 63.2633C56.228 62.7977 55.9245 62.1931 55.8434 61.4147L55.8388 61.3916C55.8249 61.3221 55.818 61.241 55.818 61.1437V60.8403C55.818 60.0202 56.0172 59.2882 56.4087 58.6697C56.8001 58.0489 57.3491 57.5578 58.0394 57.2127C58.7529 56.849 59.5683 56.6637 60.4671 56.6637C60.5134 56.6637 60.7011 56.6729 60.9072 56.6845C61.2524 56.7031 61.5952 56.7725 61.9242 56.8907L62.4037 57.0621L62.4732 56.7795C62.6399 56.1054 62.7465 55.2529 62.772 54.3773C62.7951 53.6013 62.7535 52.8832 62.6585 52.457L62.6307 52.3272L62.5079 52.274C61.7365 51.9358 60.8146 51.8848 60.3351 51.8848C59.1166 51.8848 57.9375 52.1025 56.8279 52.5311C55.716 52.9434 54.7084 53.5527 53.8258 54.3426C52.9618 55.1348 52.2714 56.0985 51.7688 57.2127C51.2661 58.3037 51.0113 59.5523 51.0113 60.9144C51.0113 62.3691 51.331 63.7104 51.961 64.8987V64.9033C52.612 66.0755 53.5015 67.0183 54.5995 67.7039C55.7044 68.4105 56.9553 68.7695 58.3128 68.7695C59.193 68.7695 60.342 68.7255 61.4308 68.3896C63.8167 67.653 65.4429 66.2492 66.5501 63.9721C67.8427 61.3151 68.3871 57.4698 68.2157 52.2114H68.218Z" fill="white"/>
<path d="M67.926 62.9509L67.8449 63.1964C67.3538 64.6975 66.777 65.9229 65.5539 67.0232L65.225 67.3197L68.2457 68.3876L68.98 63.2775L67.9237 62.9509H67.926Z" fill="white"/>
<path d="M82.8747 63.2568C82.8747 62.389 82.1713 61.6855 81.3035 61.6855C80.4357 61.6855 79.7322 62.389 79.7322 63.2568C79.7322 64.1246 80.4357 64.828 81.3035 64.828C82.1713 64.828 82.8747 64.1246 82.8747 63.2568Z" fill="#454647"/>
<path d="M92.3073 63.2553C92.3073 62.3876 91.6039 61.6841 90.7361 61.6841C89.8683 61.6841 89.1649 62.3876 89.1649 63.2553C89.1649 64.1231 89.8683 64.8266 90.7361 64.8266C91.6039 64.8266 92.3073 64.1231 92.3073 63.2553Z" fill="#454647"/>
<path d="M98.5878 63.2553C98.5878 62.3876 97.8843 61.6841 97.0166 61.6841C96.1488 61.6841 95.4453 62.3876 95.4453 63.2553C95.4453 64.1231 96.1488 64.8266 97.0166 64.8266C97.8843 64.8266 98.5878 64.1231 98.5878 63.2553Z" fill="#454647"/>
<path d="M104.874 63.257C104.874 62.3893 104.171 61.6858 103.303 61.6858C102.435 61.6858 101.732 62.3893 101.732 63.257C101.732 64.1248 102.435 64.8283 103.303 64.8283C104.171 64.8283 104.874 64.1248 104.874 63.257Z" fill="#454647"/>
<path d="M108.018 63.2568C108.018 62.389 107.315 61.6855 106.447 61.6855C105.579 61.6855 104.876 62.389 104.876 63.2568C104.876 64.1246 105.579 64.828 106.447 64.828C107.315 64.828 108.018 64.1246 108.018 63.2568Z" fill="#454647"/>
<path d="M13.7441 66.4003C13.7441 65.5326 13.0406 64.8291 12.1728 64.8291C11.305 64.8291 10.6016 65.5326 10.6016 66.4003C10.6016 67.2681 11.305 67.9716 12.1728 67.9716C13.0406 67.9716 13.7441 67.2681 13.7441 66.4003Z" fill="#454647"/>
<path d="M16.8863 66.3999C16.8863 65.5321 16.1828 64.8286 15.315 64.8286C14.4472 64.8286 13.7438 65.5321 13.7438 66.3999C13.7438 67.2676 14.4472 67.9711 15.315 67.9711C16.1828 67.9711 16.8863 67.2676 16.8863 66.3999Z" fill="#454647"/>
<path d="M20.0303 66.4006C20.0303 65.5328 19.3268 64.8293 18.4591 64.8293C17.5913 64.8293 16.8878 65.5328 16.8878 66.4006C16.8878 67.2684 17.5913 67.9718 18.4591 67.9718C19.3268 67.9718 20.0303 67.2684 20.0303 66.4006Z" fill="#454647"/>
<path d="M23.1687 66.4003C23.1687 65.5326 22.4652 64.8291 21.5974 64.8291C20.7297 64.8291 20.0262 65.5326 20.0262 66.4003C20.0262 67.2681 20.7297 67.9716 21.5974 67.9716C22.4652 67.9716 23.1687 67.2681 23.1687 66.4003Z" fill="#454647"/>
<path d="M29.4571 66.4003C29.4571 65.5326 28.7536 64.8291 27.8858 64.8291C27.018 64.8291 26.3146 65.5326 26.3146 66.4003C26.3146 67.2681 27.018 67.9716 27.8858 67.9716C28.7536 67.9716 29.4571 67.2681 29.4571 66.4003Z" fill="#454647"/>
<path d="M35.7394 66.4008C35.7394 65.5331 35.0359 64.8296 34.1681 64.8296C33.3003 64.8296 32.5969 65.5331 32.5969 66.4008C32.5969 67.2686 33.3003 67.9721 34.1681 67.9721C35.0359 67.9721 35.7394 67.2686 35.7394 66.4008Z" fill="#454647"/>
<path d="M42.0222 66.4006C42.0222 65.5328 41.3187 64.8293 40.4509 64.8293C39.5832 64.8293 38.8797 65.5328 38.8797 66.4006C38.8797 67.2684 39.5832 67.9718 40.4509 67.9718C41.3187 67.9718 42.0222 67.2684 42.0222 66.4006Z" fill="#454647"/>
<path d="M79.7365 66.4001C79.7365 65.5323 79.033 64.8289 78.1652 64.8289C77.2975 64.8289 76.594 65.5323 76.594 66.4001C76.594 67.2679 77.2975 67.9713 78.1652 67.9713C79.033 67.9713 79.7365 67.2679 79.7365 66.4001Z" fill="#454647"/>
<path d="M89.167 66.4003C89.167 65.5326 88.4636 64.8291 87.5958 64.8291C86.728 64.8291 86.0245 65.5326 86.0245 66.4003C86.0245 67.2681 86.728 67.9716 87.5958 67.9716C88.4636 67.9716 89.167 67.2681 89.167 66.4003Z" fill="#454647"/>
<path d="M92.3073 66.4001C92.3073 65.5323 91.6039 64.8289 90.7361 64.8289C89.8683 64.8289 89.1649 65.5323 89.1649 66.4001C89.1649 67.2679 89.8683 67.9713 90.7361 67.9713C91.6039 67.9713 92.3073 67.2679 92.3073 66.4001Z" fill="#454647"/>
<path d="M104.874 66.4003C104.874 65.5326 104.171 64.8291 103.303 64.8291C102.435 64.8291 101.732 65.5326 101.732 66.4003C101.732 67.2681 102.435 67.9716 103.303 67.9716C104.171 67.9716 104.874 67.2681 104.874 66.4003Z" fill="#454647"/>
<path d="M108.018 66.4003C108.018 65.5326 107.315 64.8291 106.447 64.8291C105.579 64.8291 104.876 65.5326 104.876 66.4003C104.876 67.2681 105.579 67.9716 106.447 67.9716C107.315 67.9716 108.018 67.2681 108.018 66.4003Z" fill="#454647"/>
<path d="M111.159 66.4003C111.159 65.5326 110.455 64.8291 109.587 64.8291C108.72 64.8291 108.016 65.5326 108.016 66.4003C108.016 67.2681 108.72 67.9716 109.587 67.9716C110.455 67.9716 111.159 67.2681 111.159 66.4003Z" fill="#454647"/>
<path d="M10.6058 69.5405C10.6058 68.6727 9.90234 67.9692 9.03456 67.9692C8.16679 67.9692 7.46332 68.6727 7.46332 69.5405C7.46332 70.4083 8.16679 71.1117 9.03456 71.1117C9.90234 71.1117 10.6058 70.4083 10.6058 69.5405Z" fill="#454647"/>
<path d="M13.7441 69.541C13.7441 68.6732 13.0406 67.9697 12.1728 67.9697C11.305 67.9697 10.6016 68.6732 10.6016 69.541C10.6016 70.4087 11.305 71.1122 12.1728 71.1122C13.0406 71.1122 13.7441 70.4087 13.7441 69.541Z" fill="#454647"/>
<path d="M16.8863 69.5407C16.8863 68.673 16.1828 67.9695 15.315 67.9695C14.4472 67.9695 13.7438 68.673 13.7438 69.5407C13.7438 70.4085 14.4472 71.112 15.315 71.112C16.1828 71.112 16.8863 70.4085 16.8863 69.5407Z" fill="#454647"/>
<path d="M20.0303 69.5407C20.0303 68.673 19.3268 67.9695 18.4591 67.9695C17.5913 67.9695 16.8878 68.673 16.8878 69.5407C16.8878 70.4085 17.5913 71.112 18.4591 71.112C19.3268 71.112 20.0303 70.4085 20.0303 69.5407Z" fill="#454647"/>
<path d="M23.1707 69.5405C23.1707 68.6727 22.4672 67.9692 21.5994 67.9692C20.7317 67.9692 20.0282 68.6727 20.0282 69.5405C20.0282 70.4083 20.7317 71.1117 21.5994 71.1117C22.4672 71.1117 23.1707 70.4083 23.1707 69.5405Z" fill="#454647"/>
<path d="M26.3149 69.5407C26.3149 68.673 25.6114 67.9695 24.7437 67.9695C23.8759 67.9695 23.1724 68.673 23.1724 69.5407C23.1724 70.4085 23.8759 71.112 24.7437 71.112C25.6114 71.112 26.3149 70.4085 26.3149 69.5407Z" fill="#454647"/>
<path d="M38.8817 69.5405C38.8817 68.6727 38.1783 67.9692 37.3105 67.9692C36.4427 67.9692 35.7393 68.6727 35.7393 69.5405C35.7393 70.4083 36.4427 71.1117 37.3105 71.1117C38.1783 71.1117 38.8817 70.4083 38.8817 69.5405Z" fill="#454647"/>
<path d="M42.0222 69.5405C42.0222 68.6727 41.3187 67.9692 40.4509 67.9692C39.5832 67.9692 38.8797 68.6727 38.8797 69.5405C38.8797 70.4083 39.5832 71.1117 40.4509 71.1117C41.3187 71.1117 42.0222 70.4083 42.0222 69.5405Z" fill="#454647"/>
<path d="M79.7365 69.5405C79.7365 68.6727 79.033 67.9692 78.1652 67.9692C77.2975 67.9692 76.594 68.6727 76.594 69.5405C76.594 70.4083 77.2975 71.1117 78.1652 71.1117C79.033 71.1117 79.7365 70.4083 79.7365 69.5405Z" fill="#454647"/>
<path d="M10.6058 72.6845C10.6058 71.8168 9.90234 71.1133 9.03456 71.1133C8.16679 71.1133 7.46332 71.8168 7.46332 72.6845C7.46332 73.5523 8.16679 74.2558 9.03456 74.2558C9.90234 74.2558 10.6058 73.5523 10.6058 72.6845Z" fill="#454647"/>
<path d="M16.8863 72.6843C16.8863 71.8165 16.1828 71.113 15.315 71.113C14.4472 71.113 13.7438 71.8165 13.7438 72.6843C13.7438 73.5521 14.4472 74.2555 15.315 74.2555C16.1828 74.2555 16.8863 73.5521 16.8863 72.6843Z" fill="#454647"/>
<path d="M23.1687 72.6845C23.1687 71.8168 22.4652 71.1133 21.5974 71.1133C20.7297 71.1133 20.0262 71.8168 20.0262 72.6845C20.0262 73.5523 20.7297 74.2558 21.5974 74.2558C22.4652 74.2558 23.1687 73.5523 23.1687 72.6845Z" fill="#454647"/>
<path d="M29.4571 72.6845C29.4571 71.8168 28.7536 71.1133 27.8858 71.1133C27.018 71.1133 26.3146 71.8168 26.3146 72.6845C26.3146 73.5523 27.018 74.2558 27.8858 74.2558C28.7536 74.2558 29.4571 73.5523 29.4571 72.6845Z" fill="#454647"/>
<path d="M32.5934 72.6845C32.5934 71.8168 31.8899 71.1133 31.0221 71.1133C30.1543 71.1133 29.4509 71.8168 29.4509 72.6845C29.4509 73.5523 30.1543 74.2558 31.0221 74.2558C31.8899 74.2558 32.5934 73.5523 32.5934 72.6845Z" fill="#454647"/>
<path d="M35.7394 72.6838C35.7394 71.816 35.0359 71.1125 34.1681 71.1125C33.3003 71.1125 32.5969 71.816 32.5969 72.6838C32.5969 73.5516 33.3003 74.255 34.1681 74.255C35.0359 74.255 35.7394 73.5516 35.7394 72.6838Z" fill="#454647"/>
<path d="M42.0222 72.6848C42.0222 71.817 41.3187 71.1135 40.4509 71.1135C39.5832 71.1135 38.8797 71.817 38.8797 72.6848C38.8797 73.5525 39.5832 74.256 40.4509 74.256C41.3187 74.256 42.0222 73.5525 42.0222 72.6848Z" fill="#454647"/>
<path d="M79.7365 72.6843C79.7365 71.8165 79.033 71.113 78.1652 71.113C77.2975 71.113 76.594 71.8165 76.594 72.6843C76.594 73.5521 77.2975 74.2555 78.1652 74.2555C79.033 74.2555 79.7365 73.5521 79.7365 72.6843Z" fill="#454647"/>
<path d="M86.0229 72.6848C86.0229 71.817 85.3195 71.1135 84.4517 71.1135C83.5839 71.1135 82.8804 71.817 82.8804 72.6848C82.8804 73.5525 83.5839 74.256 84.4517 74.256C85.3195 74.256 86.0229 73.5525 86.0229 72.6848Z" fill="#454647"/>
<path d="M92.3073 72.6848C92.3073 71.817 91.6039 71.1135 90.7361 71.1135C89.8683 71.1135 89.1649 71.817 89.1649 72.6848C89.1649 73.5525 89.8683 74.256 90.7361 74.256C91.6039 74.256 92.3073 73.5525 92.3073 72.6848Z" fill="#454647"/>
<path d="M95.4475 72.6848C95.4475 71.817 94.7441 71.1135 93.8763 71.1135C93.0085 71.1135 92.3051 71.817 92.3051 72.6848C92.3051 73.5525 93.0085 74.256 93.8763 74.256C94.7441 74.256 95.4475 73.5525 95.4475 72.6848Z" fill="#454647"/>
<path d="M101.73 72.6843C101.73 71.8165 101.027 71.113 100.159 71.113C99.291 71.113 98.5875 71.8165 98.5875 72.6843C98.5875 73.5521 99.291 74.2555 100.159 74.2555C101.027 74.2555 101.73 73.5521 101.73 72.6843Z" fill="#454647"/>
<path d="M104.874 72.684C104.874 71.8163 104.171 71.1128 103.303 71.1128C102.435 71.1128 101.732 71.8163 101.732 72.684C101.732 73.5518 102.435 74.2553 103.303 74.2553C104.171 74.2553 104.874 73.5518 104.874 72.684Z" fill="#454647"/>
<path d="M111.159 72.6838C111.159 71.816 110.455 71.1125 109.587 71.1125C108.72 71.1125 108.016 71.816 108.016 72.6838C108.016 73.5516 108.72 74.255 109.587 74.255C110.455 74.255 111.159 73.5516 111.159 72.6838Z" fill="#454647"/>
<path d="M10.6058 75.83C10.6058 74.9623 9.90234 74.2588 9.03456 74.2588C8.16679 74.2588 7.46332 74.9623 7.46332 75.83C7.46332 76.6978 8.16679 77.4013 9.03456 77.4013C9.90234 77.4013 10.6058 76.6978 10.6058 75.83Z" fill="#454647"/>
<path d="M16.8863 75.8298C16.8863 74.962 16.1828 74.2585 15.315 74.2585C14.4472 74.2585 13.7438 74.962 13.7438 75.8298C13.7438 76.6976 14.4472 77.401 15.315 77.401C16.1828 77.401 16.8863 76.6976 16.8863 75.8298Z" fill="#454647"/>
<path d="M23.1687 75.8298C23.1687 74.962 22.4652 74.2585 21.5974 74.2585C20.7297 74.2585 20.0262 74.962 20.0262 75.8298C20.0262 76.6976 20.7297 77.401 21.5974 77.401C22.4652 77.401 23.1687 76.6976 23.1687 75.8298Z" fill="#454647"/>
<path d="M26.3149 75.83C26.3149 74.9623 25.6114 74.2588 24.7437 74.2588C23.8759 74.2588 23.1724 74.9623 23.1724 75.83C23.1724 76.6978 23.8759 77.4013 24.7437 77.4013C25.6114 77.4013 26.3149 76.6978 26.3149 75.83Z" fill="#454647"/>
<path d="M35.7394 75.8295C35.7394 74.9618 35.0359 74.2583 34.1681 74.2583C33.3003 74.2583 32.5969 74.9618 32.5969 75.8295C32.5969 76.6973 33.3003 77.4008 34.1681 77.4008C35.0359 77.4008 35.7394 76.6973 35.7394 75.8295Z" fill="#454647"/>
<path d="M38.8817 75.83C38.8817 74.9623 38.1783 74.2588 37.3105 74.2588C36.4427 74.2588 35.7393 74.9623 35.7393 75.83C35.7393 76.6978 36.4427 77.4013 37.3105 77.4013C38.1783 77.4013 38.8817 76.6978 38.8817 75.83Z" fill="#454647"/>
<path d="M42.0222 75.8295C42.0222 74.9618 41.3187 74.2583 40.4509 74.2583C39.5832 74.2583 38.8797 74.9618 38.8797 75.8295C38.8797 76.6973 39.5832 77.4008 40.4509 77.4008C41.3187 77.4008 42.0222 76.6973 42.0222 75.8295Z" fill="#454647"/>
<path d="M79.7365 75.8303C79.7365 74.9625 79.033 74.259 78.1652 74.259C77.2975 74.259 76.594 74.9625 76.594 75.8303C76.594 76.6981 77.2975 77.4015 78.1652 77.4015C79.033 77.4015 79.7365 76.6981 79.7365 75.8303Z" fill="#454647"/>
<path d="M86.0229 75.83C86.0229 74.9623 85.3195 74.2588 84.4517 74.2588C83.5839 74.2588 82.8804 74.9623 82.8804 75.83C82.8804 76.6978 83.5839 77.4013 84.4517 77.4013C85.3195 77.4013 86.0229 76.6978 86.0229 75.83Z" fill="#454647"/>
<path d="M104.874 75.83C104.874 74.9623 104.171 74.2588 103.303 74.2588C102.435 74.2588 101.732 74.9623 101.732 75.83C101.732 76.6978 102.435 77.4013 103.303 77.4013C104.171 77.4013 104.874 76.6978 104.874 75.83Z" fill="#454647"/>
<path d="M111.159 75.8293C111.159 74.9615 110.455 74.2581 109.587 74.2581C108.72 74.2581 108.016 74.9615 108.016 75.8293C108.016 76.6971 108.72 77.4005 109.587 77.4005C110.455 77.4005 111.159 76.6971 111.159 75.8293Z" fill="#454647"/>
<path d="M16.8863 78.9697C16.8863 78.1019 16.1828 77.3984 15.315 77.3984C14.4472 77.3984 13.7438 78.1019 13.7438 78.9697C13.7438 79.8375 14.4472 80.5409 15.315 80.5409C16.1828 80.5409 16.8863 79.8375 16.8863 78.9697Z" fill="#454647"/>
<path d="M23.1687 78.9702C23.1687 78.1024 22.4652 77.3989 21.5974 77.3989C20.7297 77.3989 20.0262 78.1024 20.0262 78.9702C20.0262 79.8379 20.7297 80.5414 21.5974 80.5414C22.4652 80.5414 23.1687 79.8379 23.1687 78.9702Z" fill="#454647"/>
<path d="M29.4571 78.9697C29.4571 78.1019 28.7536 77.3984 27.8858 77.3984C27.018 77.3984 26.3146 78.1019 26.3146 78.9697C26.3146 79.8375 27.018 80.5409 27.8858 80.5409C28.7536 80.5409 29.4571 79.8375 29.4571 78.9697Z" fill="#454647"/>
<path d="M32.5934 78.9697C32.5934 78.1019 31.8899 77.3984 31.0221 77.3984C30.1543 77.3984 29.4509 78.1019 29.4509 78.9697C29.4509 79.8375 30.1543 80.5409 31.0221 80.5409C31.8899 80.5409 32.5934 79.8375 32.5934 78.9697Z" fill="#454647"/>
<path d="M35.7394 78.9702C35.7394 78.1024 35.0359 77.3989 34.1681 77.3989C33.3003 77.3989 32.5969 78.1024 32.5969 78.9702C32.5969 79.8379 33.3003 80.5414 34.1681 80.5414C35.0359 80.5414 35.7394 79.8379 35.7394 78.9702Z" fill="#454647"/>
<path d="M45.1662 78.9697C45.1662 78.1019 44.4627 77.3984 43.5949 77.3984C42.7272 77.3984 42.0237 78.1019 42.0237 78.9697C42.0237 79.8375 42.7272 80.5409 43.5949 80.5409C44.4627 80.5409 45.1662 79.8375 45.1662 78.9697Z" fill="#454647"/>
<path d="M51.4504 78.9699C51.4504 78.1022 50.7469 77.3987 49.8791 77.3987C49.0113 77.3987 48.3079 78.1022 48.3079 78.9699C48.3079 79.8377 49.0113 80.5412 49.8791 80.5412C50.7469 80.5412 51.4504 79.8377 51.4504 78.9699Z" fill="#454647"/>
<path d="M57.7332 78.9699C57.7332 78.1022 57.0297 77.3987 56.1619 77.3987C55.2942 77.3987 54.5907 78.1022 54.5907 78.9699C54.5907 79.8377 55.2942 80.5412 56.1619 80.5412C57.0297 80.5412 57.7332 79.8377 57.7332 78.9699Z" fill="#454647"/>
<path d="M60.8812 78.9707C60.8812 78.1029 60.1777 77.3994 59.31 77.3994C58.4422 77.3994 57.7387 78.1029 57.7387 78.9707C57.7387 79.8384 58.4422 80.5419 59.31 80.5419C60.1777 80.5419 60.8812 79.8384 60.8812 78.9707Z" fill="#454647"/>
<path d="M64.0294 78.9702C64.0294 78.1024 63.3259 77.3989 62.4581 77.3989C61.5904 77.3989 60.8869 78.1024 60.8869 78.9702C60.8869 79.8379 61.5904 80.5414 62.4581 80.5414C63.3259 80.5414 64.0294 79.8379 64.0294 78.9702Z" fill="#454647"/>
<path d="M82.8747 78.9697C82.8747 78.1019 82.1713 77.3984 81.3035 77.3984C80.4357 77.3984 79.7322 78.1019 79.7322 78.9697C79.7322 79.8375 80.4357 80.5409 81.3035 80.5409C82.1713 80.5409 82.8747 79.8375 82.8747 78.9697Z" fill="#454647"/>
<path d="M86.0229 78.9697C86.0229 78.1019 85.3195 77.3984 84.4517 77.3984C83.5839 77.3984 82.8804 78.1019 82.8804 78.9697C82.8804 79.8375 83.5839 80.5409 84.4517 80.5409C85.3195 80.5409 86.0229 79.8375 86.0229 78.9697Z" fill="#454647"/>
<path d="M92.3073 78.9697C92.3073 78.1019 91.6039 77.3984 90.7361 77.3984C89.8683 77.3984 89.1649 78.1019 89.1649 78.9697C89.1649 79.8375 89.8683 80.5409 90.7361 80.5409C91.6039 80.5409 92.3073 79.8375 92.3073 78.9697Z" fill="#454647"/>
<path d="M98.5878 78.9692C98.5878 78.1014 97.8843 77.3979 97.0166 77.3979C96.1488 77.3979 95.4453 78.1014 95.4453 78.9692C95.4453 79.837 96.1488 80.5404 97.0166 80.5404C97.8843 80.5404 98.5878 79.837 98.5878 78.9692Z" fill="#454647"/>
<path d="M104.874 78.9694C104.874 78.1017 104.171 77.3982 103.303 77.3982C102.435 77.3982 101.732 78.1017 101.732 78.9694C101.732 79.8372 102.435 80.5407 103.303 80.5407C104.171 80.5407 104.874 79.8372 104.874 78.9694Z" fill="#454647"/>
<path d="M108.018 78.9704C108.018 78.1026 107.315 77.3992 106.447 77.3992C105.579 77.3992 104.876 78.1026 104.876 78.9704C104.876 79.8382 105.579 80.5417 106.447 80.5417C107.315 80.5417 108.018 79.8382 108.018 78.9704Z" fill="#454647"/>
<path d="M111.159 78.9697C111.159 78.1019 110.455 77.3984 109.587 77.3984C108.72 77.3984 108.016 78.1019 108.016 78.9697C108.016 79.8375 108.72 80.5409 109.587 80.5409C110.455 80.5409 111.159 79.8375 111.159 78.9697Z" fill="#454647"/>
<path d="M13.7441 82.114C13.7441 81.2462 13.0406 80.5427 12.1728 80.5427C11.305 80.5427 10.6016 81.2462 10.6016 82.114C10.6016 82.9817 11.305 83.6852 12.1728 83.6852C13.0406 83.6852 13.7441 82.9817 13.7441 82.114Z" fill="#454647"/>
<path d="M23.1687 82.1135C23.1687 81.2457 22.4652 80.5422 21.5974 80.5422C20.7297 80.5422 20.0262 81.2457 20.0262 82.1135C20.0262 82.9813 20.7297 83.6847 21.5974 83.6847C22.4652 83.6847 23.1687 82.9813 23.1687 82.1135Z" fill="#454647"/>
<path d="M26.3149 82.1135C26.3149 81.2457 25.6114 80.5422 24.7437 80.5422C23.8759 80.5422 23.1724 81.2457 23.1724 82.1135C23.1724 82.9813 23.8759 83.6847 24.7437 83.6847C25.6114 83.6847 26.3149 82.9813 26.3149 82.1135Z" fill="#454647"/>
<path d="M35.7394 82.1137C35.7394 81.246 35.0359 80.5425 34.1681 80.5425C33.3003 80.5425 32.5969 81.246 32.5969 82.1137C32.5969 82.9815 33.3003 83.685 34.1681 83.685C35.0359 83.685 35.7394 82.9815 35.7394 82.1137Z" fill="#454647"/>
<path d="M48.3104 82.1135C48.3104 81.2457 47.6069 80.5422 46.7392 80.5422C45.8714 80.5422 45.1679 81.2457 45.1679 82.1135C45.1679 82.9813 45.8714 83.6847 46.7392 83.6847C47.6069 83.6847 48.3104 82.9813 48.3104 82.1135Z" fill="#454647"/>
<path d="M51.4504 82.1142C51.4504 81.2464 50.7469 80.543 49.8791 80.543C49.0113 80.543 48.3079 81.2464 48.3079 82.1142C48.3079 82.982 49.0113 83.6855 49.8791 83.6855C50.7469 83.6855 51.4504 82.982 51.4504 82.1142Z" fill="#454647"/>
<path d="M57.7332 82.1137C57.7332 81.246 57.0297 80.5425 56.1619 80.5425C55.2942 80.5425 54.5907 81.246 54.5907 82.1137C54.5907 82.9815 55.2942 83.685 56.1619 83.685C57.0297 83.685 57.7332 82.9815 57.7332 82.1137Z" fill="#454647"/>
<path d="M60.8812 82.1137C60.8812 81.246 60.1777 80.5425 59.31 80.5425C58.4422 80.5425 57.7387 81.246 57.7387 82.1137C57.7387 82.9815 58.4422 83.685 59.31 83.685C60.1777 83.685 60.8812 82.9815 60.8812 82.1137Z" fill="#454647"/>
<path d="M67.1656 82.114C67.1656 81.2462 66.4622 80.5427 65.5944 80.5427C64.7266 80.5427 64.0231 81.2462 64.0231 82.114C64.0231 82.9817 64.7266 83.6852 65.5944 83.6852C66.4622 83.6852 67.1656 82.9817 67.1656 82.114Z" fill="#454647"/>
<path d="M73.4541 82.1135C73.4541 81.2457 72.7506 80.5422 71.8828 80.5422C71.0151 80.5422 70.3116 81.2457 70.3116 82.1135C70.3116 82.9813 71.0151 83.6847 71.8828 83.6847C72.7506 83.6847 73.4541 82.9813 73.4541 82.1135Z" fill="#454647"/>
<path d="M89.167 82.1137C89.167 81.246 88.4636 80.5425 87.5958 80.5425C86.728 80.5425 86.0245 81.246 86.0245 82.1137C86.0245 82.9815 86.728 83.685 87.5958 83.685C88.4636 83.685 89.167 82.9815 89.167 82.1137Z" fill="#454647"/>
<path d="M95.4475 82.113C95.4475 81.2452 94.7441 80.5417 93.8763 80.5417C93.0085 80.5417 92.3051 81.2452 92.3051 82.113C92.3051 82.9808 93.0085 83.6842 93.8763 83.6842C94.7441 83.6842 95.4475 82.9808 95.4475 82.113Z" fill="#454647"/>
<path d="M101.73 82.1135C101.73 81.2457 101.027 80.5422 100.159 80.5422C99.291 80.5422 98.5875 81.2457 98.5875 82.1135C98.5875 82.9813 99.291 83.6847 100.159 83.6847C101.027 83.6847 101.73 82.9813 101.73 82.1135Z" fill="#454647"/>
<path d="M10.6058 85.2558C10.6058 84.388 9.90234 83.6846 9.03456 83.6846C8.16679 83.6846 7.46332 84.388 7.46332 85.2558C7.46332 86.1236 8.16679 86.8271 9.03456 86.8271C9.90234 86.8271 10.6058 86.1236 10.6058 85.2558Z" fill="#454647"/>
<path d="M16.8863 85.2551C16.8863 84.3873 16.1828 83.6838 15.315 83.6838C14.4472 83.6838 13.7438 84.3873 13.7438 85.2551C13.7438 86.1229 14.4472 86.8263 15.315 86.8263C16.1828 86.8263 16.8863 86.1229 16.8863 85.2551Z" fill="#454647"/>
<path d="M20.0303 85.2556C20.0303 84.3878 19.3268 83.6843 18.4591 83.6843C17.5913 83.6843 16.8878 84.3878 16.8878 85.2556C16.8878 86.1233 17.5913 86.8268 18.4591 86.8268C19.3268 86.8268 20.0303 86.1233 20.0303 85.2556Z" fill="#454647"/>
<path d="M23.1687 85.2553C23.1687 84.3876 22.4652 83.6841 21.5974 83.6841C20.7297 83.6841 20.0262 84.3876 20.0262 85.2553C20.0262 86.1231 20.7297 86.8266 21.5974 86.8266C22.4652 86.8266 23.1687 86.1231 23.1687 85.2553Z" fill="#454647"/>
<path d="M26.3149 85.2561C26.3149 84.3883 25.6114 83.6848 24.7437 83.6848C23.8759 83.6848 23.1724 84.3883 23.1724 85.2561C23.1724 86.1238 23.8759 86.8273 24.7437 86.8273C25.6114 86.8273 26.3149 86.1238 26.3149 85.2561Z" fill="#454647"/>
<path d="M29.4571 85.2558C29.4571 84.388 28.7536 83.6846 27.8858 83.6846C27.018 83.6846 26.3146 84.388 26.3146 85.2558C26.3146 86.1236 27.018 86.8271 27.8858 86.8271C28.7536 86.8271 29.4571 86.1236 29.4571 85.2558Z" fill="#454647"/>
<path d="M35.7394 85.2553C35.7394 84.3876 35.0359 83.6841 34.1681 83.6841C33.3003 83.6841 32.5969 84.3876 32.5969 85.2553C32.5969 86.1231 33.3003 86.8266 34.1681 86.8266C35.0359 86.8266 35.7394 86.1231 35.7394 85.2553Z" fill="#454647"/>
<path d="M42.0222 85.2553C42.0222 84.3876 41.3187 83.6841 40.4509 83.6841C39.5832 83.6841 38.8797 84.3876 38.8797 85.2553C38.8797 86.1231 39.5832 86.8266 40.4509 86.8266C41.3187 86.8266 42.0222 86.1231 42.0222 85.2553Z" fill="#454647"/>
<path d="M48.3104 85.2553C48.3104 84.3876 47.6069 83.6841 46.7392 83.6841C45.8714 83.6841 45.1679 84.3876 45.1679 85.2553C45.1679 86.1231 45.8714 86.8266 46.7392 86.8266C47.6069 86.8266 48.3104 86.1231 48.3104 85.2553Z" fill="#454647"/>
<path d="M54.5968 85.2558C54.5968 84.388 53.8934 83.6846 53.0256 83.6846C52.1578 83.6846 51.4543 84.388 51.4543 85.2558C51.4543 86.1236 52.1578 86.8271 53.0256 86.8271C53.8934 86.8271 54.5968 86.1236 54.5968 85.2558Z" fill="#454647"/>
<path d="M57.7332 85.2556C57.7332 84.3878 57.0297 83.6843 56.1619 83.6843C55.2942 83.6843 54.5907 84.3878 54.5907 85.2556C54.5907 86.1233 55.2942 86.8268 56.1619 86.8268C57.0297 86.8268 57.7332 86.1233 57.7332 85.2556Z" fill="#454647"/>
<path d="M73.4541 85.2558C73.4541 84.388 72.7506 83.6846 71.8828 83.6846C71.0151 83.6846 70.3116 84.388 70.3116 85.2558C70.3116 86.1236 71.0151 86.8271 71.8828 86.8271C72.7506 86.8271 73.4541 86.1236 73.4541 85.2558Z" fill="#454647"/>
<path d="M76.6003 85.2558C76.6003 84.388 75.8968 83.6846 75.029 83.6846C74.1612 83.6846 73.4578 84.388 73.4578 85.2558C73.4578 86.1236 74.1612 86.8271 75.029 86.8271C75.8968 86.8271 76.6003 86.1236 76.6003 85.2558Z" fill="#454647"/>
<path d="M86.0229 85.2556C86.0229 84.3878 85.3195 83.6843 84.4517 83.6843C83.5839 83.6843 82.8804 84.3878 82.8804 85.2556C82.8804 86.1233 83.5839 86.8268 84.4517 86.8268C85.3195 86.8268 86.0229 86.1233 86.0229 85.2556Z" fill="#454647"/>
<path d="M89.167 85.2556C89.167 84.3878 88.4636 83.6843 87.5958 83.6843C86.728 83.6843 86.0245 84.3878 86.0245 85.2556C86.0245 86.1233 86.728 86.8268 87.5958 86.8268C88.4636 86.8268 89.167 86.1233 89.167 85.2556Z" fill="#454647"/>
<path d="M92.3073 85.2561C92.3073 84.3883 91.6039 83.6848 90.7361 83.6848C89.8683 83.6848 89.1649 84.3883 89.1649 85.2561C89.1649 86.1238 89.8683 86.8273 90.7361 86.8273C91.6039 86.8273 92.3073 86.1238 92.3073 85.2561Z" fill="#454647"/>
<path d="M95.4475 85.2558C95.4475 84.388 94.7441 83.6846 93.8763 83.6846C93.0085 83.6846 92.3051 84.388 92.3051 85.2558C92.3051 86.1236 93.0085 86.8271 93.8763 86.8271C94.7441 86.8271 95.4475 86.1236 95.4475 85.2558Z" fill="#454647"/>
<path d="M98.5878 85.2558C98.5878 84.388 97.8843 83.6846 97.0166 83.6846C96.1488 83.6846 95.4453 84.388 95.4453 85.2558C95.4453 86.1236 96.1488 86.8271 97.0166 86.8271C97.8843 86.8271 98.5878 86.1236 98.5878 85.2558Z" fill="#454647"/>
<path d="M111.159 85.2558C111.159 84.388 110.455 83.6846 109.587 83.6846C108.72 83.6846 108.016 84.388 108.016 85.2558C108.016 86.1236 108.72 86.8271 109.587 86.8271C110.455 86.8271 111.159 86.1236 111.159 85.2558Z" fill="#454647"/>
<path d="M35.7394 88.3986C35.7394 87.5309 35.0359 86.8274 34.1681 86.8274C33.3003 86.8274 32.5969 87.5309 32.5969 88.3986C32.5969 89.2664 33.3003 89.9699 34.1681 89.9699C35.0359 89.9699 35.7394 89.2664 35.7394 88.3986Z" fill="#454647"/>
<path d="M42.0222 88.3991C42.0222 87.5314 41.3187 86.8279 40.4509 86.8279C39.5832 86.8279 38.8797 87.5314 38.8797 88.3991C38.8797 89.2669 39.5832 89.9704 40.4509 89.9704C41.3187 89.9704 42.0222 89.2669 42.0222 88.3991Z" fill="#454647"/>
<path d="M57.7332 88.3986C57.7332 87.5309 57.0297 86.8274 56.1619 86.8274C55.2942 86.8274 54.5907 87.5309 54.5907 88.3986C54.5907 89.2664 55.2942 89.9699 56.1619 89.9699C57.0297 89.9699 57.7332 89.2664 57.7332 88.3986Z" fill="#454647"/>
<path d="M60.8812 88.3986C60.8812 87.5309 60.1777 86.8274 59.31 86.8274C58.4422 86.8274 57.7387 87.5309 57.7387 88.3986C57.7387 89.2664 58.4422 89.9699 59.31 89.9699C60.1777 89.9699 60.8812 89.2664 60.8812 88.3986Z" fill="#454647"/>
<path d="M64.0294 88.3986C64.0294 87.5309 63.3259 86.8274 62.4581 86.8274C61.5904 86.8274 60.8869 87.5309 60.8869 88.3986C60.8869 89.2664 61.5904 89.9699 62.4581 89.9699C63.3259 89.9699 64.0294 89.2664 64.0294 88.3986Z" fill="#454647"/>
<path d="M70.3079 88.3989C70.3079 87.5311 69.6044 86.8276 68.7367 86.8276C67.8689 86.8276 67.1654 87.5311 67.1654 88.3989C67.1654 89.2667 67.8689 89.9701 68.7367 89.9701C69.6044 89.9701 70.3079 89.2667 70.3079 88.3989Z" fill="#454647"/>
<path d="M73.4541 88.3989C73.4541 87.5311 72.7506 86.8276 71.8828 86.8276C71.0151 86.8276 70.3116 87.5311 70.3116 88.3989C70.3116 89.2667 71.0151 89.9701 71.8828 89.9701C72.7506 89.9701 73.4541 89.2667 73.4541 88.3989Z" fill="#454647"/>
<path d="M76.6003 88.3989C76.6003 87.5311 75.8968 86.8276 75.029 86.8276C74.1612 86.8276 73.4578 87.5311 73.4578 88.3989C73.4578 89.2667 74.1612 89.9701 75.029 89.9701C75.8968 89.9701 76.6003 89.2667 76.6003 88.3989Z" fill="#454647"/>
<path d="M86.0229 88.3991C86.0229 87.5314 85.3195 86.8279 84.4517 86.8279C83.5839 86.8279 82.8804 87.5314 82.8804 88.3991C82.8804 89.2669 83.5839 89.9704 84.4517 89.9704C85.3195 89.9704 86.0229 89.2669 86.0229 88.3991Z" fill="#454647"/>
<path d="M98.5878 88.3989C98.5878 87.5311 97.8843 86.8276 97.0166 86.8276C96.1488 86.8276 95.4453 87.5311 95.4453 88.3989C95.4453 89.2667 96.1488 89.9701 97.0166 89.9701C97.8843 89.9701 98.5878 89.2667 98.5878 88.3989Z" fill="#454647"/>
<path d="M108.018 88.3984C108.018 87.5306 107.315 86.8271 106.447 86.8271C105.579 86.8271 104.876 87.5306 104.876 88.3984C104.876 89.2662 105.579 89.9696 106.447 89.9696C107.315 89.9696 108.018 89.2662 108.018 88.3984Z" fill="#454647"/>
<path d="M35.7394 91.5405C35.7394 90.6727 35.0359 89.9692 34.1681 89.9692C33.3003 89.9692 32.5969 90.6727 32.5969 91.5405C32.5969 92.4083 33.3003 93.1117 34.1681 93.1117C35.0359 93.1117 35.7394 92.4083 35.7394 91.5405Z" fill="#454647"/>
<path d="M38.8817 91.541C38.8817 90.6732 38.1783 89.9697 37.3105 89.9697C36.4427 89.9697 35.7393 90.6732 35.7393 91.541C35.7393 92.4087 36.4427 93.1122 37.3105 93.1122C38.1783 93.1122 38.8817 92.4087 38.8817 91.541Z" fill="#454647"/>
<path d="M42.0222 91.5405C42.0222 90.6727 41.3187 89.9692 40.4509 89.9692C39.5832 89.9692 38.8797 90.6727 38.8797 91.5405C38.8797 92.4083 39.5832 93.1117 40.4509 93.1117C41.3187 93.1117 42.0222 92.4083 42.0222 91.5405Z" fill="#454647"/>
<path d="M45.1662 91.5405C45.1662 90.6727 44.4627 89.9692 43.5949 89.9692C42.7272 89.9692 42.0237 90.6727 42.0237 91.5405C42.0237 92.4083 42.7272 93.1117 43.5949 93.1117C44.4627 93.1117 45.1662 92.4083 45.1662 91.5405Z" fill="#454647"/>
<path d="M54.5968 91.5407C54.5968 90.673 53.8934 89.9695 53.0256 89.9695C52.1578 89.9695 51.4543 90.673 51.4543 91.5407C51.4543 92.4085 52.1578 93.112 53.0256 93.112C53.8934 93.112 54.5968 92.4085 54.5968 91.5407Z" fill="#454647"/>
<path d="M57.7332 91.5405C57.7332 90.6727 57.0297 89.9692 56.1619 89.9692C55.2942 89.9692 54.5907 90.6727 54.5907 91.5405C54.5907 92.4083 55.2942 93.1117 56.1619 93.1117C57.0297 93.1117 57.7332 92.4083 57.7332 91.5405Z" fill="#454647"/>
<path d="M73.4541 91.5407C73.4541 90.673 72.7506 89.9695 71.8828 89.9695C71.0151 89.9695 70.3116 90.673 70.3116 91.5407C70.3116 92.4085 71.0151 93.112 71.8828 93.112C72.7506 93.112 73.4541 92.4085 73.4541 91.5407Z" fill="#454647"/>
<path d="M76.6003 91.541C76.6003 90.6732 75.8968 89.9697 75.029 89.9697C74.1612 89.9697 73.4578 90.6732 73.4578 91.541C73.4578 92.4087 74.1612 93.1122 75.029 93.1122C75.8968 93.1122 76.6003 92.4087 76.6003 91.541Z" fill="#454647"/>
<path d="M82.8747 91.5412C82.8747 90.6734 82.1713 89.97 81.3035 89.97C80.4357 89.97 79.7322 90.6734 79.7322 91.5412C79.7322 92.409 80.4357 93.1125 81.3035 93.1125C82.1713 93.1125 82.8747 92.409 82.8747 91.5412Z" fill="#454647"/>
<path d="M86.0229 91.5415C86.0229 90.6737 85.3195 89.9702 84.4517 89.9702C83.5839 89.9702 82.8804 90.6737 82.8804 91.5415C82.8804 92.4092 83.5839 93.1127 84.4517 93.1127C85.3195 93.1127 86.0229 92.4092 86.0229 91.5415Z" fill="#454647"/>
<path d="M92.3073 91.5412C92.3073 90.6734 91.6039 89.97 90.7361 89.97C89.8683 89.97 89.1649 90.6734 89.1649 91.5412C89.1649 92.409 89.8683 93.1125 90.7361 93.1125C91.6039 93.1125 92.3073 92.409 92.3073 91.5412Z" fill="#454647"/>
<path d="M98.5878 91.541C98.5878 90.6732 97.8843 89.9697 97.0166 89.9697C96.1488 89.9697 95.4453 90.6732 95.4453 91.541C95.4453 92.4087 96.1488 93.1122 97.0166 93.1122C97.8843 93.1122 98.5878 92.4087 98.5878 91.541Z" fill="#454647"/>
<path d="M104.874 91.5412C104.874 90.6734 104.171 89.97 103.303 89.97C102.435 89.97 101.732 90.6734 101.732 91.5412C101.732 92.409 102.435 93.1125 103.303 93.1125C104.171 93.1125 104.874 92.409 104.874 91.5412Z" fill="#454647"/>
<path d="M38.8817 94.6816C38.8817 93.8138 38.1783 93.1104 37.3105 93.1104C36.4427 93.1104 35.7393 93.8138 35.7393 94.6816C35.7393 95.5494 36.4427 96.2528 37.3105 96.2528C38.1783 96.2528 38.8817 95.5494 38.8817 94.6816Z" fill="#454647"/>
<path d="M42.0222 94.6814C42.0222 93.8136 41.3187 93.1101 40.4509 93.1101C39.5832 93.1101 38.8797 93.8136 38.8797 94.6814C38.8797 95.5491 39.5832 96.2526 40.4509 96.2526C41.3187 96.2526 42.0222 95.5491 42.0222 94.6814Z" fill="#454647"/>
<path d="M45.1662 94.6814C45.1662 93.8136 44.4627 93.1101 43.5949 93.1101C42.7272 93.1101 42.0237 93.8136 42.0237 94.6814C42.0237 95.5491 42.7272 96.2526 43.5949 96.2526C44.4627 96.2526 45.1662 95.5491 45.1662 94.6814Z" fill="#454647"/>
<path d="M51.4504 94.6811C51.4504 93.8133 50.7469 93.1099 49.8791 93.1099C49.0113 93.1099 48.3079 93.8133 48.3079 94.6811C48.3079 95.5489 49.0113 96.2524 49.8791 96.2524C50.7469 96.2524 51.4504 95.5489 51.4504 94.6811Z" fill="#454647"/>
<path d="M70.3079 94.6814C70.3079 93.8136 69.6044 93.1101 68.7367 93.1101C67.8689 93.1101 67.1654 93.8136 67.1654 94.6814C67.1654 95.5491 67.8689 96.2526 68.7367 96.2526C69.6044 96.2526 70.3079 95.5491 70.3079 94.6814Z" fill="#454647"/>
<path d="M73.4541 94.6816C73.4541 93.8138 72.7506 93.1104 71.8828 93.1104C71.0151 93.1104 70.3116 93.8138 70.3116 94.6816C70.3116 95.5494 71.0151 96.2528 71.8828 96.2528C72.7506 96.2528 73.4541 95.5494 73.4541 94.6816Z" fill="#454647"/>
<path d="M82.8747 94.6828C82.8747 93.815 82.1713 93.1116 81.3035 93.1116C80.4357 93.1116 79.7322 93.815 79.7322 94.6828C79.7322 95.5506 80.4357 96.2541 81.3035 96.2541C82.1713 96.2541 82.8747 95.5506 82.8747 94.6828Z" fill="#454647"/>
<path d="M86.0229 94.6809C86.0229 93.8131 85.3195 93.1096 84.4517 93.1096C83.5839 93.1096 82.8804 93.8131 82.8804 94.6809C82.8804 95.5486 83.5839 96.2521 84.4517 96.2521C85.3195 96.2521 86.0229 95.5486 86.0229 94.6809Z" fill="#454647"/>
<path d="M98.5878 94.6814C98.5878 93.8136 97.8843 93.1101 97.0166 93.1101C96.1488 93.1101 95.4453 93.8136 95.4453 94.6814C95.4453 95.5491 96.1488 96.2526 97.0166 96.2526C97.8843 96.2526 98.5878 95.5491 98.5878 94.6814Z" fill="#454647"/>
<path d="M104.874 94.6811C104.874 93.8133 104.171 93.1099 103.303 93.1099C102.435 93.1099 101.732 93.8133 101.732 94.6811C101.732 95.5489 102.435 96.2524 103.303 96.2524C104.171 96.2524 104.874 95.5489 104.874 94.6811Z" fill="#454647"/>
<path d="M108.018 94.6814C108.018 93.8136 107.315 93.1101 106.447 93.1101C105.579 93.1101 104.876 93.8136 104.876 94.6814C104.876 95.5491 105.579 96.2526 106.447 96.2526C107.315 96.2526 108.018 95.5491 108.018 94.6814Z" fill="#454647"/>
<path d="M111.159 94.6814C111.159 93.8136 110.455 93.1101 109.587 93.1101C108.72 93.1101 108.016 93.8136 108.016 94.6814C108.016 95.5491 108.72 96.2526 109.587 96.2526C110.455 96.2526 111.159 95.5491 111.159 94.6814Z" fill="#454647"/>
<path d="M42.0222 97.8252C42.0222 96.9574 41.3187 96.2539 40.4509 96.2539C39.5832 96.2539 38.8797 96.9574 38.8797 97.8252C38.8797 98.6929 39.5832 99.3964 40.4509 99.3964C41.3187 99.3964 42.0222 98.6929 42.0222 97.8252Z" fill="#454647"/>
<path d="M48.3104 97.8252C48.3104 96.9574 47.6069 96.2539 46.7392 96.2539C45.8714 96.2539 45.1679 96.9574 45.1679 97.8252C45.1679 98.6929 45.8714 99.3964 46.7392 99.3964C47.6069 99.3964 48.3104 98.6929 48.3104 97.8252Z" fill="#454647"/>
<path d="M51.4504 97.8249C51.4504 96.9571 50.7469 96.2537 49.8791 96.2537C49.0113 96.2537 48.3079 96.9571 48.3079 97.8249C48.3079 98.6927 49.0113 99.3962 49.8791 99.3962C50.7469 99.3962 51.4504 98.6927 51.4504 97.8249Z" fill="#454647"/>
<path d="M57.7332 97.8252C57.7332 96.9574 57.0297 96.2539 56.1619 96.2539C55.2942 96.2539 54.5907 96.9574 54.5907 97.8252C54.5907 98.6929 55.2942 99.3964 56.1619 99.3964C57.0297 99.3964 57.7332 98.6929 57.7332 97.8252Z" fill="#454647"/>
<path d="M60.8812 97.8249C60.8812 96.9571 60.1777 96.2537 59.31 96.2537C58.4422 96.2537 57.7387 96.9571 57.7387 97.8249C57.7387 98.6927 58.4422 99.3962 59.31 99.3962C60.1777 99.3962 60.8812 98.6927 60.8812 97.8249Z" fill="#454647"/>
<path d="M64.0294 97.8249C64.0294 96.9571 63.3259 96.2537 62.4581 96.2537C61.5904 96.2537 60.8869 96.9571 60.8869 97.8249C60.8869 98.6927 61.5904 99.3962 62.4581 99.3962C63.3259 99.3962 64.0294 98.6927 64.0294 97.8249Z" fill="#454647"/>
<path d="M67.1656 97.8254C67.1656 96.9576 66.4622 96.2542 65.5944 96.2542C64.7266 96.2542 64.0231 96.9576 64.0231 97.8254C64.0231 98.6932 64.7266 99.3966 65.5944 99.3966C66.4622 99.3966 67.1656 98.6932 67.1656 97.8254Z" fill="#454647"/>
<path d="M70.3079 97.8252C70.3079 96.9574 69.6044 96.2539 68.7367 96.2539C67.8689 96.2539 67.1654 96.9574 67.1654 97.8252C67.1654 98.6929 67.8689 99.3964 68.7367 99.3964C69.6044 99.3964 70.3079 98.6929 70.3079 97.8252Z" fill="#454647"/>
<path d="M79.7365 97.8247C79.7365 96.9569 79.033 96.2534 78.1652 96.2534C77.2975 96.2534 76.594 96.9569 76.594 97.8247C76.594 98.6924 77.2975 99.3959 78.1652 99.3959C79.033 99.3959 79.7365 98.6924 79.7365 97.8247Z" fill="#454647"/>
<path d="M82.8747 97.8252C82.8747 96.9574 82.1713 96.2539 81.3035 96.2539C80.4357 96.2539 79.7322 96.9574 79.7322 97.8252C79.7322 98.6929 80.4357 99.3964 81.3035 99.3964C82.1713 99.3964 82.8747 98.6929 82.8747 97.8252Z" fill="#454647"/>
<path d="M86.0229 97.8249C86.0229 96.9571 85.3195 96.2537 84.4517 96.2537C83.5839 96.2537 82.8804 96.9571 82.8804 97.8249C82.8804 98.6927 83.5839 99.3962 84.4517 99.3962C85.3195 99.3962 86.0229 98.6927 86.0229 97.8249Z" fill="#454647"/>
<path d="M89.167 97.8247C89.167 96.9569 88.4636 96.2534 87.5958 96.2534C86.728 96.2534 86.0245 96.9569 86.0245 97.8247C86.0245 98.6924 86.728 99.3959 87.5958 99.3959C88.4636 99.3959 89.167 98.6924 89.167 97.8247Z" fill="#454647"/>
<path d="M92.3073 97.8252C92.3073 96.9574 91.6039 96.2539 90.7361 96.2539C89.8683 96.2539 89.1649 96.9574 89.1649 97.8252C89.1649 98.6929 89.8683 99.3964 90.7361 99.3964C91.6039 99.3964 92.3073 98.6929 92.3073 97.8252Z" fill="#454647"/>
<path d="M95.4475 97.8247C95.4475 96.9569 94.7441 96.2534 93.8763 96.2534C93.0085 96.2534 92.3051 96.9569 92.3051 97.8247C92.3051 98.6924 93.0085 99.3959 93.8763 99.3959C94.7441 99.3959 95.4475 98.6924 95.4475 97.8247Z" fill="#454647"/>
<path d="M98.5878 97.8249C98.5878 96.9571 97.8843 96.2537 97.0166 96.2537C96.1488 96.2537 95.4453 96.9571 95.4453 97.8249C95.4453 98.6927 96.1488 99.3962 97.0166 99.3962C97.8843 99.3962 98.5878 98.6927 98.5878 97.8249Z" fill="#454647"/>
<path d="M104.874 97.8244C104.874 96.9566 104.171 96.2532 103.303 96.2532C102.435 96.2532 101.732 96.9566 101.732 97.8244C101.732 98.6922 102.435 99.3957 103.303 99.3957C104.171 99.3957 104.874 98.6922 104.874 97.8244Z" fill="#454647"/>
<path d="M108.018 97.8249C108.018 96.9571 107.315 96.2537 106.447 96.2537C105.579 96.2537 104.876 96.9571 104.876 97.8249C104.876 98.6927 105.579 99.3962 106.447 99.3962C107.315 99.3962 108.018 98.6927 108.018 97.8249Z" fill="#454647"/>
<path d="M35.7394 100.967C35.7394 100.099 35.0359 99.3955 34.1681 99.3955C33.3003 99.3955 32.5969 100.099 32.5969 100.967C32.5969 101.835 33.3003 102.538 34.1681 102.538C35.0359 102.538 35.7394 101.835 35.7394 100.967Z" fill="#454647"/>
<path d="M38.8817 100.967C38.8817 100.099 38.1783 99.396 37.3105 99.396C36.4427 99.396 35.7393 100.099 35.7393 100.967C35.7393 101.835 36.4427 102.538 37.3105 102.538C38.1783 102.538 38.8817 101.835 38.8817 100.967Z" fill="#454647"/>
<path d="M42.0222 100.967C42.0222 100.099 41.3187 99.3953 40.4509 99.3953C39.5832 99.3953 38.8797 100.099 38.8797 100.967C38.8797 101.834 39.5832 102.538 40.4509 102.538C41.3187 102.538 42.0222 101.834 42.0222 100.967Z" fill="#454647"/>
<path d="M51.4504 100.967C51.4504 100.099 50.7469 99.3955 49.8791 99.3955C49.0113 99.3955 48.3079 100.099 48.3079 100.967C48.3079 101.835 49.0113 102.538 49.8791 102.538C50.7469 102.538 51.4504 101.835 51.4504 100.967Z" fill="#454647"/>
<path d="M57.7332 100.967C57.7332 100.099 57.0297 99.3955 56.1619 99.3955C55.2942 99.3955 54.5907 100.099 54.5907 100.967C54.5907 101.835 55.2942 102.538 56.1619 102.538C57.0297 102.538 57.7332 101.835 57.7332 100.967Z" fill="#454647"/>
<path d="M64.0294 100.967C64.0294 100.099 63.3259 99.3955 62.4581 99.3955C61.5904 99.3955 60.8869 100.099 60.8869 100.967C60.8869 101.835 61.5904 102.538 62.4581 102.538C63.3259 102.538 64.0294 101.835 64.0294 100.967Z" fill="#454647"/>
<path d="M67.1656 100.967C67.1656 100.099 66.4622 99.3953 65.5944 99.3953C64.7266 99.3953 64.0231 100.099 64.0231 100.967C64.0231 101.834 64.7266 102.538 65.5944 102.538C66.4622 102.538 67.1656 101.834 67.1656 100.967Z" fill="#454647"/>
<path d="M70.3079 100.967C70.3079 100.099 69.6044 99.3955 68.7367 99.3955C67.8689 99.3955 67.1654 100.099 67.1654 100.967C67.1654 101.835 67.8689 102.538 68.7367 102.538C69.6044 102.538 70.3079 101.835 70.3079 100.967Z" fill="#454647"/>
<path d="M76.6003 100.967C76.6003 100.099 75.8968 99.3955 75.029 99.3955C74.1612 99.3955 73.4578 100.099 73.4578 100.967C73.4578 101.835 74.1612 102.538 75.029 102.538C75.8968 102.538 76.6003 101.835 76.6003 100.967Z" fill="#454647"/>
<path d="M79.7365 100.967C79.7365 100.099 79.033 99.3955 78.1652 99.3955C77.2975 99.3955 76.594 100.099 76.594 100.967C76.594 101.835 77.2975 102.538 78.1652 102.538C79.033 102.538 79.7365 101.835 79.7365 100.967Z" fill="#454647"/>
<path d="M82.8747 100.967C82.8747 100.099 82.1713 99.396 81.3035 99.396C80.4357 99.396 79.7322 100.099 79.7322 100.967C79.7322 101.835 80.4357 102.538 81.3035 102.538C82.1713 102.538 82.8747 101.835 82.8747 100.967Z" fill="#454647"/>
<path d="M95.4475 100.967C95.4475 100.099 94.7441 99.3953 93.8763 99.3953C93.0085 99.3953 92.3051 100.099 92.3051 100.967C92.3051 101.834 93.0085 102.538 93.8763 102.538C94.7441 102.538 95.4475 101.834 95.4475 100.967Z" fill="#454647"/>
<path d="M101.73 100.967C101.73 100.099 101.027 99.3955 100.159 99.3955C99.291 99.3955 98.5875 100.099 98.5875 100.967C98.5875 101.835 99.291 102.538 100.159 102.538C101.027 102.538 101.73 101.835 101.73 100.967Z" fill="#454647"/>
<path d="M104.874 100.967C104.874 100.099 104.171 99.3955 103.303 99.3955C102.435 99.3955 101.732 100.099 101.732 100.967C101.732 101.835 102.435 102.538 103.303 102.538C104.171 102.538 104.874 101.835 104.874 100.967Z" fill="#454647"/>
<path d="M35.7394 104.11C35.7394 103.243 35.0359 102.539 34.1681 102.539C33.3003 102.539 32.5969 103.243 32.5969 104.11C32.5969 104.978 33.3003 105.682 34.1681 105.682C35.0359 105.682 35.7394 104.978 35.7394 104.11Z" fill="#454647"/>
<path d="M38.8817 104.11C38.8817 103.243 38.1783 102.539 37.3105 102.539C36.4427 102.539 35.7393 103.243 35.7393 104.11C35.7393 104.978 36.4427 105.682 37.3105 105.682C38.1783 105.682 38.8817 104.978 38.8817 104.11Z" fill="#454647"/>
<path d="M45.1662 104.11C45.1662 103.243 44.4627 102.539 43.5949 102.539C42.7272 102.539 42.0237 103.243 42.0237 104.11C42.0237 104.978 42.7272 105.682 43.5949 105.682C44.4627 105.682 45.1662 104.978 45.1662 104.11Z" fill="#454647"/>
<path d="M48.3104 104.11C48.3104 103.243 47.6069 102.539 46.7392 102.539C45.8714 102.539 45.1679 103.243 45.1679 104.11C45.1679 104.978 45.8714 105.682 46.7392 105.682C47.6069 105.682 48.3104 104.978 48.3104 104.11Z" fill="#454647"/>
<path d="M54.5968 104.11C54.5968 103.243 53.8934 102.539 53.0256 102.539C52.1578 102.539 51.4543 103.243 51.4543 104.11C51.4543 104.978 52.1578 105.682 53.0256 105.682C53.8934 105.682 54.5968 104.978 54.5968 104.11Z" fill="#454647"/>
<path d="M64.0294 104.11C64.0294 103.243 63.3259 102.539 62.4581 102.539C61.5904 102.539 60.8869 103.243 60.8869 104.11C60.8869 104.978 61.5904 105.682 62.4581 105.682C63.3259 105.682 64.0294 104.978 64.0294 104.11Z" fill="#454647"/>
<path d="M70.3079 104.11C70.3079 103.243 69.6044 102.539 68.7367 102.539C67.8689 102.539 67.1654 103.243 67.1654 104.11C67.1654 104.978 67.8689 105.682 68.7367 105.682C69.6044 105.682 70.3079 104.978 70.3079 104.11Z" fill="#454647"/>
<path d="M73.4541 104.11C73.4541 103.243 72.7506 102.539 71.8828 102.539C71.0151 102.539 70.3116 103.243 70.3116 104.11C70.3116 104.978 71.0151 105.682 71.8828 105.682C72.7506 105.682 73.4541 104.978 73.4541 104.11Z" fill="#454647"/>
<path d="M76.6003 104.11C76.6003 103.243 75.8968 102.539 75.029 102.539C74.1612 102.539 73.4578 103.243 73.4578 104.11C73.4578 104.978 74.1612 105.682 75.029 105.682C75.8968 105.682 76.6003 104.978 76.6003 104.11Z" fill="#454647"/>
<path d="M79.7365 104.11C79.7365 103.243 79.033 102.539 78.1652 102.539C77.2975 102.539 76.594 103.243 76.594 104.11C76.594 104.978 77.2975 105.682 78.1652 105.682C79.033 105.682 79.7365 104.978 79.7365 104.11Z" fill="#454647"/>
<path d="M86.0229 104.11C86.0229 103.243 85.3195 102.539 84.4517 102.539C83.5839 102.539 82.8804 103.243 82.8804 104.11C82.8804 104.978 83.5839 105.682 84.4517 105.682C85.3195 105.682 86.0229 104.978 86.0229 104.11Z" fill="#454647"/>
<path d="M89.167 104.11C89.167 103.243 88.4636 102.539 87.5958 102.539C86.728 102.539 86.0245 103.243 86.0245 104.11C86.0245 104.978 86.728 105.682 87.5958 105.682C88.4636 105.682 89.167 104.978 89.167 104.11Z" fill="#454647"/>
<path d="M92.3073 104.11C92.3073 103.243 91.6039 102.539 90.7361 102.539C89.8683 102.539 89.1649 103.243 89.1649 104.11C89.1649 104.978 89.8683 105.682 90.7361 105.682C91.6039 105.682 92.3073 104.978 92.3073 104.11Z" fill="#454647"/>
<path d="M38.8817 107.249C38.8817 106.381 38.1783 105.677 37.3105 105.677C36.4427 105.677 35.7393 106.381 35.7393 107.249C35.7393 108.117 36.4427 108.82 37.3105 108.82C38.1783 108.82 38.8817 108.117 38.8817 107.249Z" fill="#454647"/>
<path d="M48.3104 107.248C48.3104 106.38 47.6069 105.677 46.7392 105.677C45.8714 105.677 45.1679 106.38 45.1679 107.248C45.1679 108.116 45.8714 108.819 46.7392 108.819C47.6069 108.819 48.3104 108.116 48.3104 107.248Z" fill="#454647"/>
<path d="M51.4504 107.249C51.4504 106.381 50.7469 105.678 49.8791 105.678C49.0113 105.678 48.3079 106.381 48.3079 107.249C48.3079 108.117 49.0113 108.82 49.8791 108.82C50.7469 108.82 51.4504 108.117 51.4504 107.249Z" fill="#454647"/>
<path d="M60.8812 107.248C60.8812 106.38 60.1777 105.677 59.31 105.677C58.4422 105.677 57.7387 106.38 57.7387 107.248C57.7387 108.116 58.4422 108.819 59.31 108.819C60.1777 108.819 60.8812 108.116 60.8812 107.248Z" fill="#454647"/>
<path d="M64.0294 107.249C64.0294 106.381 63.3259 105.677 62.4581 105.677C61.5904 105.677 60.8869 106.381 60.8869 107.249C60.8869 108.117 61.5904 108.82 62.4581 108.82C63.3259 108.82 64.0294 108.117 64.0294 107.249Z" fill="#454647"/>
<path d="M67.1656 107.248C67.1656 106.38 66.4622 105.677 65.5944 105.677C64.7266 105.677 64.0231 106.38 64.0231 107.248C64.0231 108.116 64.7266 108.819 65.5944 108.819C66.4622 108.819 67.1656 108.116 67.1656 107.248Z" fill="#454647"/>
<path d="M70.3079 107.249C70.3079 106.381 69.6044 105.677 68.7367 105.677C67.8689 105.677 67.1654 106.381 67.1654 107.249C67.1654 108.117 67.8689 108.82 68.7367 108.82C69.6044 108.82 70.3079 108.117 70.3079 107.249Z" fill="#454647"/>
<path d="M82.8747 107.249C82.8747 106.381 82.1713 105.678 81.3035 105.678C80.4357 105.678 79.7322 106.381 79.7322 107.249C79.7322 108.117 80.4357 108.82 81.3035 108.82C82.1713 108.82 82.8747 108.117 82.8747 107.249Z" fill="#454647"/>
<path d="M86.0229 107.249C86.0229 106.381 85.3195 105.678 84.4517 105.678C83.5839 105.678 82.8804 106.381 82.8804 107.249C82.8804 108.117 83.5839 108.82 84.4517 108.82C85.3195 108.82 86.0229 108.117 86.0229 107.249Z" fill="#454647"/>
<path d="M89.167 107.249C89.167 106.381 88.4636 105.678 87.5958 105.678C86.728 105.678 86.0245 106.381 86.0245 107.249C86.0245 108.117 86.728 108.82 87.5958 108.82C88.4636 108.82 89.167 108.117 89.167 107.249Z" fill="#454647"/>
<path d="M104.874 107.249C104.874 106.382 104.171 105.678 103.303 105.678C102.435 105.678 101.732 106.382 101.732 107.249C101.732 108.117 102.435 108.821 103.303 108.821C104.171 108.821 104.874 108.117 104.874 107.249Z" fill="#454647"/>
<path d="M111.159 107.249C111.159 106.381 110.455 105.677 109.587 105.677C108.72 105.677 108.016 106.381 108.016 107.249C108.016 108.117 108.72 108.82 109.587 108.82C110.455 108.82 111.159 108.117 111.159 107.249Z" fill="#454647"/>
<path d="M38.8817 110.394C38.8817 109.526 38.1783 108.823 37.3105 108.823C36.4427 108.823 35.7393 109.526 35.7393 110.394C35.7393 111.262 36.4427 111.965 37.3105 111.965C38.1783 111.965 38.8817 111.262 38.8817 110.394Z" fill="#454647"/>
<path d="M51.4504 110.394C51.4504 109.526 50.7469 108.823 49.8791 108.823C49.0113 108.823 48.3079 109.526 48.3079 110.394C48.3079 111.262 49.0113 111.965 49.8791 111.965C50.7469 111.965 51.4504 111.262 51.4504 110.394Z" fill="#454647"/>
<path d="M57.7332 110.394C57.7332 109.526 57.0297 108.823 56.1619 108.823C55.2942 108.823 54.5907 109.526 54.5907 110.394C54.5907 111.262 55.2942 111.965 56.1619 111.965C57.0297 111.965 57.7332 111.262 57.7332 110.394Z" fill="#454647"/>
<path d="M60.8812 110.394C60.8812 109.526 60.1777 108.823 59.31 108.823C58.4422 108.823 57.7387 109.526 57.7387 110.394C57.7387 111.262 58.4422 111.965 59.31 111.965C60.1777 111.965 60.8812 111.262 60.8812 110.394Z" fill="#454647"/>
<path d="M64.0294 110.394C64.0294 109.526 63.3259 108.823 62.4581 108.823C61.5904 108.823 60.8869 109.526 60.8869 110.394C60.8869 111.262 61.5904 111.965 62.4581 111.965C63.3259 111.965 64.0294 111.262 64.0294 110.394Z" fill="#454647"/>
<path d="M70.3079 110.394C70.3079 109.526 69.6044 108.823 68.7367 108.823C67.8689 108.823 67.1654 109.526 67.1654 110.394C67.1654 111.262 67.8689 111.965 68.7367 111.965C69.6044 111.965 70.3079 111.262 70.3079 110.394Z" fill="#454647"/>
<path d="M73.4541 110.394C73.4541 109.526 72.7506 108.823 71.8828 108.823C71.0151 108.823 70.3116 109.526 70.3116 110.394C70.3116 111.262 71.0151 111.965 71.8828 111.965C72.7506 111.965 73.4541 111.262 73.4541 110.394Z" fill="#454647"/>
<path d="M79.7365 110.394C79.7365 109.526 79.033 108.823 78.1652 108.823C77.2975 108.823 76.594 109.526 76.594 110.394C76.594 111.262 77.2975 111.965 78.1652 111.965C79.033 111.965 79.7365 111.262 79.7365 110.394Z" fill="#454647"/>
<path d="M82.8747 110.395C82.8747 109.527 82.1713 108.823 81.3035 108.823C80.4357 108.823 79.7322 109.527 79.7322 110.395C79.7322 111.263 80.4357 111.966 81.3035 111.966C82.1713 111.966 82.8747 111.263 82.8747 110.395Z" fill="#454647"/>
<path d="M89.167 110.394C89.167 109.526 88.4636 108.823 87.5958 108.823C86.728 108.823 86.0245 109.526 86.0245 110.394C86.0245 111.262 86.728 111.965 87.5958 111.965C88.4636 111.965 89.167 111.262 89.167 110.394Z" fill="#454647"/>
<path d="M92.3073 110.394C92.3073 109.526 91.6039 108.823 90.7361 108.823C89.8683 108.823 89.1649 109.526 89.1649 110.394C89.1649 111.262 89.8683 111.965 90.7361 111.965C91.6039 111.965 92.3073 111.262 92.3073 110.394Z" fill="#454647"/>
<path d="M95.4475 110.394C95.4475 109.526 94.7441 108.823 93.8763 108.823C93.0085 108.823 92.3051 109.526 92.3051 110.394C92.3051 111.262 93.0085 111.965 93.8763 111.965C94.7441 111.965 95.4475 111.262 95.4475 110.394Z" fill="#454647"/>
<path d="M98.5878 110.394C98.5878 109.526 97.8843 108.823 97.0166 108.823C96.1488 108.823 95.4453 109.526 95.4453 110.394C95.4453 111.262 96.1488 111.965 97.0166 111.965C97.8843 111.965 98.5878 111.262 98.5878 110.394Z" fill="#454647"/>
<path fill-rule="evenodd" clip-rule="evenodd" d="M13.7319 90.8069C10.3978 90.8069 7.69495 93.5097 7.69495 96.8438V105.511C7.69495 108.845 10.3978 111.548 13.7319 111.548H22.3992C25.7333 111.548 28.4361 108.845 28.4361 105.511V96.8438C28.4361 93.5097 25.7333 90.8069 22.3992 90.8069H13.7319ZM10.4812 96.8438C10.4812 95.0485 11.9366 93.5932 13.7319 93.5932H22.3992C24.1945 93.5932 25.6499 95.0485 25.6499 96.8438V105.511C25.6499 107.306 24.1945 108.762 22.3992 108.762H13.7319C11.9366 108.762 10.4812 107.306 10.4812 105.511V96.8438ZM20.6988 105.932H15.825H13.6927V103.8V98.9259V96.7936H15.825H20.6988H22.8311V98.9259V103.8V105.932H20.6988Z" fill="#454647"/>
<path fill-rule="evenodd" clip-rule="evenodd" d="M97.603 8.35352C94.2689 8.35352 91.566 11.0563 91.566 14.3904V23.0578C91.566 26.3919 94.2689 29.0947 97.603 29.0947H106.27C109.604 29.0947 112.307 26.3919 112.307 23.0578V14.3904C112.307 11.0563 109.604 8.35352 106.27 8.35352H97.603ZM94.3523 14.3904C94.3523 12.5952 95.8077 11.1398 97.603 11.1398H106.27C108.066 11.1398 109.521 12.5952 109.521 14.3904V23.0578C109.521 24.8531 108.066 26.3084 106.27 26.3084H97.603C95.8077 26.3084 94.3523 24.8531 94.3523 23.0578V14.3904ZM104.57 23.4786H99.6961H97.5638V21.3463V16.4725V14.3402H99.6961H104.57H106.702V16.4725V21.3463V23.4786H104.57Z" fill="#454647"/>
<path fill-rule="evenodd" clip-rule="evenodd" d="M13.6691 8.35034C10.368 8.35034 7.69189 11.0264 7.69189 14.3276V22.9092C7.69189 26.2103 10.368 28.8864 13.6691 28.8864H22.2507C25.5518 28.8864 28.2279 26.2103 28.2279 22.9092V14.3276C28.2279 11.0264 25.5519 8.35034 22.2507 8.35034H13.6691ZM10.4506 14.3276C10.4506 12.55 11.8916 11.1091 13.6691 11.1091H22.2507C24.0283 11.1091 25.4692 12.55 25.4692 14.3276V22.9092C25.4692 24.6867 24.0283 26.1277 22.2507 26.1277H13.6691C11.8916 26.1277 10.4506 24.6867 10.4506 22.9092V14.3276ZM20.5671 23.326H15.7415H13.6303V21.2148V16.3892V14.278H15.7415H20.5671H22.6783V16.3892V21.2148V23.326H20.5671Z" fill="#454647"/>
<defs>
<linearGradient id="paint0_linear_6996_143678" x1="60" y1="44" x2="60" y2="76" gradientUnits="userSpaceOnUse">
<stop stop-color="#6771FF"/>
<stop offset="1" stop-color="#4F59DD"/>
</linearGradient>
</defs>
</svg>
