<svg width="309" height="309" viewBox="0 0 309 309" fill="none" xmlns="http://www.w3.org/2000/svg">
<rect width="309" height="309" rx="20" fill="white"/>
<path d="M26.25 102.25H16.75V111.75H26.25V102.25Z" fill="black"/>
<path d="M26.25 111.75H16.75V121.25H26.25V111.75Z" fill="black"/>
<path d="M26.25 159.25H16.75V168.75H26.25V159.25Z" fill="black"/>
<path d="M26.25 178.25H16.75V187.75H26.25V178.25Z" fill="black"/>
<path d="M26.25 187.75H16.75V197.25H26.25V187.75Z" fill="black"/>
<path d="M26.25 197.25H16.75V206.75H26.25V197.25Z" fill="black"/>
<path d="M35.75 130.75H26.25V140.25H35.75V130.75Z" fill="black"/>
<path d="M35.75 140.25H26.25V149.75H35.75V140.25Z" fill="black"/>
<path d="M35.75 149.75H26.25V159.25H35.75V149.75Z" fill="black"/>
<path d="M35.75 168.75H26.25V178.25H35.75V168.75Z" fill="black"/>
<path d="M35.75 206.75H26.25V216.25H35.75V206.75Z" fill="black"/>
<path d="M45.25 92.75H35.75V102.25H45.25V92.75Z" fill="black"/>
<path d="M45.25 102.25H35.75V111.75H45.25V102.25Z" fill="black"/>
<path d="M45.25 111.75H35.75V121.25H45.25V111.75Z" fill="black"/>
<path d="M45.25 159.25H35.75V168.75H45.25V159.25Z" fill="black"/>
<path d="M45.25 178.25H35.75V187.75H45.25V178.25Z" fill="black"/>
<path d="M45.25 187.75H35.75V197.25H45.25V187.75Z" fill="black"/>
<path d="M45.25 197.25H35.75V206.75H45.25V197.25Z" fill="black"/>
<path d="M45.25 206.75H35.75V216.25H45.25V206.75Z" fill="black"/>
<path d="M54.75 121.25H45.25V130.75H54.75V121.25Z" fill="black"/>
<path d="M54.75 159.25H45.25V168.75H54.75V159.25Z" fill="black"/>
<path d="M54.75 187.75H45.25V197.25H54.75V187.75Z" fill="black"/>
<path d="M54.75 197.25H45.25V206.75H54.75V197.25Z" fill="black"/>
<path d="M64.25 92.75H54.75V102.25H64.25V92.75Z" fill="black"/>
<path d="M64.25 102.25H54.75V111.75H64.25V102.25Z" fill="black"/>
<path d="M64.25 111.75H54.75V121.25H64.25V111.75Z" fill="black"/>
<path d="M64.25 140.25H54.75V149.75H64.25V140.25Z" fill="black"/>
<path d="M64.25 168.75H54.75V178.25H64.25V168.75Z" fill="black"/>
<path d="M64.25 206.75H54.75V216.25H64.25V206.75Z" fill="black"/>
<path d="M73.75 92.75H64.25V102.25H73.75V92.75Z" fill="black"/>
<path d="M73.75 111.75H64.25V121.25H73.75V111.75Z" fill="black"/>
<path d="M73.75 130.75H64.25V140.25H73.75V130.75Z" fill="black"/>
<path d="M73.75 140.25H64.25V149.75H73.75V140.25Z" fill="black"/>
<path d="M73.75 168.75H64.25V178.25H73.75V168.75Z" fill="black"/>
<path d="M73.75 187.75H64.25V197.25H73.75V187.75Z" fill="black"/>
<path d="M73.75 197.25H64.25V206.75H73.75V197.25Z" fill="black"/>
<path d="M83.25 92.75H73.75V102.25H83.25V92.75Z" fill="black"/>
<path d="M83.25 111.75H73.75V121.25H83.25V111.75Z" fill="black"/>
<path d="M83.25 130.75H73.75V140.25H83.25V130.75Z" fill="black"/>
<path d="M83.25 149.75H73.75V159.25H83.25V149.75Z" fill="black"/>
<path d="M83.25 168.75H73.75V178.25H83.25V168.75Z" fill="black"/>
<path d="M83.25 187.75H73.75V197.25H83.25V187.75Z" fill="black"/>
<path d="M83.25 206.75H73.75V216.25H83.25V206.75Z" fill="black"/>
<path d="M92.75 102.25H83.25V111.75H92.75V102.25Z" fill="black"/>
<path d="M92.75 111.75H83.25V121.25H92.75V111.75Z" fill="black"/>
<path d="M92.75 130.75H83.25V140.25H92.75V130.75Z" fill="black"/>
<path d="M92.75 140.25H83.25V149.75H92.75V140.25Z" fill="black"/>
<path d="M92.75 178.25H83.25V187.75H92.75V178.25Z" fill="black"/>
<path d="M92.75 187.75H83.25V197.25H92.75V187.75Z" fill="black"/>
<path d="M92.75 206.75H83.25V216.25H92.75V206.75Z" fill="black"/>
<path d="M102.25 26.25H92.75V35.75H102.25V26.25Z" fill="black"/>
<path d="M102.25 54.75H92.75V64.25H102.25V54.75Z" fill="black"/>
<path d="M102.25 73.75H92.75V83.25H102.25V73.75Z" fill="black"/>
<path d="M102.25 92.75H92.75V102.25H102.25V92.75Z" fill="black"/>
<path d="M102.25 102.25H92.75V111.75H102.25V102.25Z" fill="black"/>
<path d="M102.25 111.75H92.75V121.25H102.25V111.75Z" fill="black"/>
<path d="M102.25 140.25H92.75V149.75H102.25V140.25Z" fill="black"/>
<path d="M102.25 149.75H92.75V159.25H102.25V149.75Z" fill="black"/>
<path d="M102.25 187.75H92.75V197.25H102.25V187.75Z" fill="black"/>
<path d="M102.25 197.25H92.75V206.75H102.25V197.25Z" fill="black"/>
<path d="M102.25 206.75H92.75V216.25H102.25V206.75Z" fill="black"/>
<path d="M102.25 216.25H92.75V225.75H102.25V216.25Z" fill="black"/>
<path d="M102.25 235.25H92.75V244.75H102.25V235.25Z" fill="black"/>
<path d="M102.25 244.75H92.75V254.25H102.25V244.75Z" fill="black"/>
<path d="M102.25 263.75H92.75V273.25H102.25V263.75Z" fill="black"/>
<path d="M111.75 26.25H102.25V35.75H111.75V26.25Z" fill="black"/>
<path d="M111.75 35.75H102.25V45.25H111.75V35.75Z" fill="black"/>
<path d="M111.75 45.25H102.25V54.75H111.75V45.25Z" fill="black"/>
<path d="M111.75 54.75H102.25V64.25H111.75V54.75Z" fill="black"/>
<path d="M111.75 64.25H102.25V73.75H111.75V64.25Z" fill="black"/>
<path d="M111.75 102.25H102.25V111.75H111.75V102.25Z" fill="black"/>
<path d="M111.75 140.25H102.25V149.75H111.75V140.25Z" fill="black"/>
<path d="M111.75 159.25H102.25V168.75H111.75V159.25Z" fill="black"/>
<path d="M111.75 168.75H102.25V178.25H111.75V168.75Z" fill="black"/>
<path d="M111.75 197.25H102.25V206.75H111.75V197.25Z" fill="black"/>
<path d="M111.75 206.75H102.25V216.25H111.75V206.75Z" fill="black"/>
<path d="M111.75 216.25H102.25V225.75H111.75V216.25Z" fill="black"/>
<path d="M111.75 225.75H102.25V235.25H111.75V225.75Z" fill="black"/>
<path d="M111.75 244.75H102.25V254.25H111.75V244.75Z" fill="black"/>
<path d="M111.75 273.25H102.25V282.75H111.75V273.25Z" fill="black"/>
<path d="M111.75 282.75H102.25V292.25H111.75V282.75Z" fill="black"/>
<path d="M121.25 16.75H111.75V26.25H121.25V16.75Z" fill="black"/>
<path d="M121.25 26.25H111.75V35.75H121.25V26.25Z" fill="black"/>
<path d="M121.25 45.25H111.75V54.75H121.25V45.25Z" fill="black"/>
<path d="M121.25 54.75H111.75V64.25H121.25V54.75Z" fill="black"/>
<path d="M121.25 73.75H111.75V83.25H121.25V73.75Z" fill="black"/>
<path d="M121.25 83.25H111.75V92.75H121.25V83.25Z" fill="black"/>
<path d="M121.25 92.75H111.75V102.25H121.25V92.75Z" fill="black"/>
<path d="M121.25 102.25H111.75V111.75H121.25V102.25Z" fill="black"/>
<path d="M121.25 121.25H111.75V130.75H121.25V121.25Z" fill="black"/>
<path d="M121.25 140.25H111.75V149.75H121.25V140.25Z" fill="black"/>
<path d="M121.25 149.75H111.75V159.25H121.25V149.75Z" fill="black"/>
<path d="M121.25 178.25H111.75V187.75H121.25V178.25Z" fill="black"/>
<path d="M121.25 216.25H111.75V225.75H121.25V216.25Z" fill="black"/>
<path d="M121.25 235.25H111.75V244.75H121.25V235.25Z" fill="black"/>
<path d="M121.25 244.75H111.75V254.25H121.25V244.75Z" fill="black"/>
<path d="M121.25 254.25H111.75V263.75H121.25V254.25Z" fill="black"/>
<path d="M121.25 263.75H111.75V273.25H121.25V263.75Z" fill="black"/>
<path d="M121.25 282.75H111.75V292.25H121.25V282.75Z" fill="black"/>
<path d="M130.75 26.25H121.25V35.75H130.75V26.25Z" fill="black"/>
<path d="M130.75 45.25H121.25V54.75H130.75V45.25Z" fill="black"/>
<path d="M130.75 54.75H121.25V64.25H130.75V54.75Z" fill="black"/>
<path d="M130.75 64.25H121.25V73.75H130.75V64.25Z" fill="black"/>
<path d="M130.75 83.25H121.25V92.75H130.75V83.25Z" fill="black"/>
<path d="M130.75 102.25H121.25V111.75H130.75V102.25Z" fill="black"/>
<path d="M130.75 130.75H121.25V140.25H130.75V130.75Z" fill="black"/>
<path d="M130.75 140.25H121.25V149.75H130.75V140.25Z" fill="black"/>
<path d="M130.75 178.25H121.25V187.75H130.75V178.25Z" fill="black"/>
<path d="M130.75 187.75H121.25V197.25H130.75V187.75Z" fill="black"/>
<path d="M130.75 206.75H121.25V216.25H130.75V206.75Z" fill="black"/>
<path d="M130.75 216.25H121.25V225.75H130.75V216.25Z" fill="black"/>
<path d="M130.75 235.25H121.25V244.75H130.75V235.25Z" fill="black"/>
<path d="M130.75 254.25H121.25V263.75H130.75V254.25Z" fill="black"/>
<path d="M130.75 273.25H121.25V282.75H130.75V273.25Z" fill="black"/>
<path d="M130.75 282.75H121.25V292.25H130.75V282.75Z" fill="black"/>
<path d="M140.25 54.75H130.75V64.25H140.25V54.75Z" fill="black"/>
<path d="M140.25 73.75H130.75V83.25H140.25V73.75Z" fill="black"/>
<path d="M140.25 83.25H130.75V92.75H140.25V83.25Z" fill="black"/>
<path d="M140.25 92.75H130.75V102.25H140.25V92.75Z" fill="black"/>
<path d="M140.25 140.25H130.75V149.75H140.25V140.25Z" fill="black"/>
<path d="M140.25 149.75H130.75V159.25H140.25V149.75Z" fill="black"/>
<path d="M140.25 168.75H130.75V178.25H140.25V168.75Z" fill="black"/>
<path d="M140.25 178.25H130.75V187.75H140.25V178.25Z" fill="black"/>
<path d="M140.25 197.25H130.75V206.75H140.25V197.25Z" fill="black"/>
<path d="M140.25 206.75H130.75V216.25H140.25V206.75Z" fill="black"/>
<path d="M140.25 235.25H130.75V244.75H140.25V235.25Z" fill="black"/>
<path d="M140.25 254.25H130.75V263.75H140.25V254.25Z" fill="black"/>
<path d="M140.25 263.75H130.75V273.25H140.25V263.75Z" fill="black"/>
<path d="M140.25 282.75H130.75V292.25H140.25V282.75Z" fill="black"/>
<path d="M149.75 16.75H140.25V26.25H149.75V16.75Z" fill="black"/>
<path d="M149.75 26.25H140.25V35.75H149.75V26.25Z" fill="black"/>
<path d="M149.75 54.75H140.25V64.25H149.75V54.75Z" fill="black"/>
<path d="M149.75 64.25H140.25V73.75H149.75V64.25Z" fill="black"/>
<path d="M149.75 83.25H140.25V92.75H149.75V83.25Z" fill="black"/>
<path d="M149.75 92.75H140.25V102.25H149.75V92.75Z" fill="black"/>
<path d="M149.75 102.25H140.25V111.75H149.75V102.25Z" fill="black"/>
<path d="M149.75 168.75H140.25V178.25H149.75V168.75Z" fill="black"/>
<path d="M149.75 178.25H140.25V187.75H149.75V178.25Z" fill="black"/>
<path d="M149.75 225.75H140.25V235.25H149.75V225.75Z" fill="black"/>
<path d="M149.75 244.75H140.25V254.25H149.75V244.75Z" fill="black"/>
<path d="M149.75 263.75H140.25V273.25H149.75V263.75Z" fill="black"/>
<path d="M149.75 282.75H140.25V292.25H149.75V282.75Z" fill="black"/>
<path d="M159.25 16.75H149.75V26.25H159.25V16.75Z" fill="black"/>
<path d="M159.25 26.25H149.75V35.75H159.25V26.25Z" fill="black"/>
<path d="M159.25 35.75H149.75V45.25H159.25V35.75Z" fill="black"/>
<path d="M159.25 73.75H149.75V83.25H159.25V73.75Z" fill="black"/>
<path d="M159.25 83.25H149.75V92.75H159.25V83.25Z" fill="black"/>
<path d="M159.25 92.75H149.75V102.25H159.25V92.75Z" fill="black"/>
<path d="M159.25 140.25H149.75V149.75H159.25V140.25Z" fill="black"/>
<path d="M159.25 159.25H149.75V168.75H159.25V159.25Z" fill="black"/>
<path d="M159.25 168.75H149.75V178.25H159.25V168.75Z" fill="black"/>
<path d="M159.25 187.75H149.75V197.25H159.25V187.75Z" fill="black"/>
<path d="M159.25 206.75H149.75V216.25H159.25V206.75Z" fill="black"/>
<path d="M159.25 216.25H149.75V225.75H159.25V216.25Z" fill="black"/>
<path d="M159.25 225.75H149.75V235.25H159.25V225.75Z" fill="black"/>
<path d="M159.25 244.75H149.75V254.25H159.25V244.75Z" fill="black"/>
<path d="M159.25 273.25H149.75V282.75H159.25V273.25Z" fill="black"/>
<path d="M159.25 282.75H149.75V292.25H159.25V282.75Z" fill="black"/>
<path d="M168.75 26.25H159.25V35.75H168.75V26.25Z" fill="black"/>
<path d="M168.75 54.75H159.25V64.25H168.75V54.75Z" fill="black"/>
<path d="M168.75 64.25H159.25V73.75H168.75V64.25Z" fill="black"/>
<path d="M168.75 83.25H159.25V92.75H168.75V83.25Z" fill="black"/>
<path d="M168.75 92.75H159.25V102.25H168.75V92.75Z" fill="black"/>
<path d="M168.75 102.25H159.25V111.75H168.75V102.25Z" fill="black"/>
<path d="M168.75 111.75H159.25V121.25H168.75V111.75Z" fill="black"/>
<path d="M168.75 121.25H159.25V130.75H168.75V121.25Z" fill="black"/>
<path d="M168.75 168.75H159.25V178.25H168.75V168.75Z" fill="black"/>
<path d="M168.75 206.75H159.25V216.25H168.75V206.75Z" fill="black"/>
<path d="M168.75 235.25H159.25V244.75H168.75V235.25Z" fill="black"/>
<path d="M168.75 254.25H159.25V263.75H168.75V254.25Z" fill="black"/>
<path d="M168.75 282.75H159.25V292.25H168.75V282.75Z" fill="black"/>
<path d="M178.25 16.75H168.75V26.25H178.25V16.75Z" fill="black"/>
<path d="M178.25 26.25H168.75V35.75H178.25V26.25Z" fill="black"/>
<path d="M178.25 35.75H168.75V45.25H178.25V35.75Z" fill="black"/>
<path d="M178.25 73.75H168.75V83.25H178.25V73.75Z" fill="black"/>
<path d="M178.25 121.25H168.75V130.75H178.25V121.25Z" fill="black"/>
<path d="M178.25 140.25H168.75V149.75H178.25V140.25Z" fill="black"/>
<path d="M178.25 149.75H168.75V159.25H178.25V149.75Z" fill="black"/>
<path d="M178.25 159.25H168.75V168.75H178.25V159.25Z" fill="black"/>
<path d="M178.25 168.75H168.75V178.25H178.25V168.75Z" fill="black"/>
<path d="M178.25 206.75H168.75V216.25H178.25V206.75Z" fill="black"/>
<path d="M178.25 216.25H168.75V225.75H178.25V216.25Z" fill="black"/>
<path d="M178.25 273.25H168.75V282.75H178.25V273.25Z" fill="black"/>
<path d="M178.25 282.75H168.75V292.25H178.25V282.75Z" fill="black"/>
<path d="M187.75 16.75H178.25V26.25H187.75V16.75Z" fill="black"/>
<path d="M187.75 26.25H178.25V35.75H187.75V26.25Z" fill="black"/>
<path d="M187.75 35.75H178.25V45.25H187.75V35.75Z" fill="black"/>
<path d="M187.75 54.75H178.25V64.25H187.75V54.75Z" fill="black"/>
<path d="M187.75 83.25H178.25V92.75H187.75V83.25Z" fill="black"/>
<path d="M187.75 111.75H178.25V121.25H187.75V111.75Z" fill="black"/>
<path d="M187.75 121.25H178.25V130.75H187.75V121.25Z" fill="black"/>
<path d="M187.75 130.75H178.25V140.25H187.75V130.75Z" fill="black"/>
<path d="M187.75 140.25H178.25V149.75H187.75V140.25Z" fill="black"/>
<path d="M187.75 187.75H178.25V197.25H187.75V187.75Z" fill="black"/>
<path d="M187.75 197.25H178.25V206.75H187.75V197.25Z" fill="black"/>
<path d="M187.75 216.25H178.25V225.75H187.75V216.25Z" fill="black"/>
<path d="M187.75 225.75H178.25V235.25H187.75V225.75Z" fill="black"/>
<path d="M187.75 235.25H178.25V244.75H187.75V235.25Z" fill="black"/>
<path d="M187.75 244.75H178.25V254.25H187.75V244.75Z" fill="black"/>
<path d="M187.75 254.25H178.25V263.75H187.75V254.25Z" fill="black"/>
<path d="M187.75 263.75H178.25V273.25H187.75V263.75Z" fill="black"/>
<path d="M187.75 282.75H178.25V292.25H187.75V282.75Z" fill="black"/>
<path d="M197.25 54.75H187.75V64.25H197.25V54.75Z" fill="black"/>
<path d="M197.25 64.25H187.75V73.75H197.25V64.25Z" fill="black"/>
<path d="M197.25 73.75H187.75V83.25H197.25V73.75Z" fill="black"/>
<path d="M197.25 92.75H187.75V102.25H197.25V92.75Z" fill="black"/>
<path d="M197.25 121.25H187.75V130.75H197.25V121.25Z" fill="black"/>
<path d="M197.25 140.25H187.75V149.75H197.25V140.25Z" fill="black"/>
<path d="M197.25 159.25H187.75V168.75H197.25V159.25Z" fill="black"/>
<path d="M197.25 244.75H187.75V254.25H197.25V244.75Z" fill="black"/>
<path d="M197.25 254.25H187.75V263.75H197.25V254.25Z" fill="black"/>
<path d="M197.25 263.75H187.75V273.25H197.25V263.75Z" fill="black"/>
<path d="M197.25 282.75H187.75V292.25H197.25V282.75Z" fill="black"/>
<path d="M206.75 35.75H197.25V45.25H206.75V35.75Z" fill="black"/>
<path d="M206.75 45.25H197.25V54.75H206.75V45.25Z" fill="black"/>
<path d="M206.75 54.75H197.25V64.25H206.75V54.75Z" fill="black"/>
<path d="M206.75 83.25H197.25V92.75H206.75V83.25Z" fill="black"/>
<path d="M206.75 92.75H197.25V102.25H206.75V92.75Z" fill="black"/>
<path d="M206.75 130.75H197.25V140.25H206.75V130.75Z" fill="black"/>
<path d="M206.75 140.25H197.25V149.75H206.75V140.25Z" fill="black"/>
<path d="M206.75 159.25H197.25V168.75H206.75V159.25Z" fill="black"/>
<path d="M206.75 168.75H197.25V178.25H206.75V168.75Z" fill="black"/>
<path d="M206.75 178.25H197.25V187.75H206.75V178.25Z" fill="black"/>
<path d="M206.75 197.25H197.25V206.75H206.75V197.25Z" fill="black"/>
<path d="M206.75 235.25H197.25V244.75H206.75V235.25Z" fill="black"/>
<path d="M206.75 254.25H197.25V263.75H206.75V254.25Z" fill="black"/>
<path d="M206.75 273.25H197.25V282.75H206.75V273.25Z" fill="black"/>
<path d="M216.25 16.75H206.75V26.25H216.25V16.75Z" fill="black"/>
<path d="M216.25 26.25H206.75V35.75H216.25V26.25Z" fill="black"/>
<path d="M216.25 35.75H206.75V45.25H216.25V35.75Z" fill="black"/>
<path d="M216.25 54.75H206.75V64.25H216.25V54.75Z" fill="black"/>
<path d="M216.25 64.25H206.75V73.75H216.25V64.25Z" fill="black"/>
<path d="M216.25 73.75H206.75V83.25H216.25V73.75Z" fill="black"/>
<path d="M216.25 111.75H206.75V121.25H216.25V111.75Z" fill="black"/>
<path d="M216.25 130.75H206.75V140.25H216.25V130.75Z" fill="black"/>
<path d="M216.25 140.25H206.75V149.75H216.25V140.25Z" fill="black"/>
<path d="M216.25 178.25H206.75V187.75H216.25V178.25Z" fill="black"/>
<path d="M216.25 187.75H206.75V197.25H216.25V187.75Z" fill="black"/>
<path d="M216.25 206.75H206.75V216.25H216.25V206.75Z" fill="black"/>
<path d="M216.25 216.25H206.75V225.75H216.25V216.25Z" fill="black"/>
<path d="M216.25 225.75H206.75V235.25H216.25V225.75Z" fill="black"/>
<path d="M216.25 235.25H206.75V244.75H216.25V235.25Z" fill="black"/>
<path d="M216.25 244.75H206.75V254.25H216.25V244.75Z" fill="black"/>
<path d="M216.25 254.25H206.75V263.75H216.25V254.25Z" fill="black"/>
<path d="M216.25 263.75H206.75V273.25H216.25V263.75Z" fill="black"/>
<path d="M216.25 282.75H206.75V292.25H216.25V282.75Z" fill="black"/>
<path d="M225.75 92.75H216.25V102.25H225.75V92.75Z" fill="black"/>
<path d="M225.75 111.75H216.25V121.25H225.75V111.75Z" fill="black"/>
<path d="M225.75 130.75H216.25V140.25H225.75V130.75Z" fill="black"/>
<path d="M225.75 140.25H216.25V149.75H225.75V140.25Z" fill="black"/>
<path d="M225.75 149.75H216.25V159.25H225.75V149.75Z" fill="black"/>
<path d="M225.75 159.25H216.25V168.75H225.75V159.25Z" fill="black"/>
<path d="M225.75 168.75H216.25V178.25H225.75V168.75Z" fill="black"/>
<path d="M225.75 187.75H216.25V197.25H225.75V187.75Z" fill="black"/>
<path d="M225.75 197.25H216.25V206.75H225.75V197.25Z" fill="black"/>
<path d="M225.75 206.75H216.25V216.25H225.75V206.75Z" fill="black"/>
<path d="M225.75 244.75H216.25V254.25H225.75V244.75Z" fill="black"/>
<path d="M225.75 263.75H216.25V273.25H225.75V263.75Z" fill="black"/>
<path d="M225.75 282.75H216.25V292.25H225.75V282.75Z" fill="black"/>
<path d="M235.25 111.75H225.75V121.25H235.25V111.75Z" fill="black"/>
<path d="M235.25 121.25H225.75V130.75H235.25V121.25Z" fill="black"/>
<path d="M235.25 130.75H225.75V140.25H235.25V130.75Z" fill="black"/>
<path d="M235.25 140.25H225.75V149.75H235.25V140.25Z" fill="black"/>
<path d="M235.25 149.75H225.75V159.25H235.25V149.75Z" fill="black"/>
<path d="M235.25 159.25H225.75V168.75H235.25V159.25Z" fill="black"/>
<path d="M235.25 178.25H225.75V187.75H235.25V178.25Z" fill="black"/>
<path d="M235.25 197.25H225.75V206.75H235.25V197.25Z" fill="black"/>
<path d="M235.25 206.75H225.75V216.25H235.25V206.75Z" fill="black"/>
<path d="M235.25 225.75H225.75V235.25H235.25V225.75Z" fill="black"/>
<path d="M235.25 244.75H225.75V254.25H235.25V244.75Z" fill="black"/>
<path d="M235.25 282.75H225.75V292.25H235.25V282.75Z" fill="black"/>
<path d="M244.75 121.25H235.25V130.75H244.75V121.25Z" fill="black"/>
<path d="M244.75 130.75H235.25V140.25H244.75V130.75Z" fill="black"/>
<path d="M244.75 140.25H235.25V149.75H244.75V140.25Z" fill="black"/>
<path d="M244.75 168.75H235.25V178.25H244.75V168.75Z" fill="black"/>
<path d="M244.75 178.25H235.25V187.75H244.75V178.25Z" fill="black"/>
<path d="M244.75 187.75H235.25V197.25H244.75V187.75Z" fill="black"/>
<path d="M244.75 197.25H235.25V206.75H244.75V197.25Z" fill="black"/>
<path d="M244.75 206.75H235.25V216.25H244.75V206.75Z" fill="black"/>
<path d="M244.75 244.75H235.25V254.25H244.75V244.75Z" fill="black"/>
<path d="M244.75 254.25H235.25V263.75H244.75V254.25Z" fill="black"/>
<path d="M254.25 92.75H244.75V102.25H254.25V92.75Z" fill="black"/>
<path d="M254.25 111.75H244.75V121.25H254.25V111.75Z" fill="black"/>
<path d="M254.25 121.25H244.75V130.75H254.25V121.25Z" fill="black"/>
<path d="M254.25 187.75H244.75V197.25H254.25V187.75Z" fill="black"/>
<path d="M254.25 197.25H244.75V206.75H254.25V197.25Z" fill="black"/>
<path d="M254.25 206.75H244.75V216.25H254.25V206.75Z" fill="black"/>
<path d="M254.25 216.25H244.75V225.75H254.25V216.25Z" fill="black"/>
<path d="M254.25 225.75H244.75V235.25H254.25V225.75Z" fill="black"/>
<path d="M254.25 235.25H244.75V244.75H254.25V235.25Z" fill="black"/>
<path d="M254.25 244.75H244.75V254.25H254.25V244.75Z" fill="black"/>
<path d="M254.25 273.25H244.75V282.75H254.25V273.25Z" fill="black"/>
<path d="M254.25 282.75H244.75V292.25H254.25V282.75Z" fill="black"/>
<path d="M263.75 121.25H254.25V130.75H263.75V121.25Z" fill="black"/>
<path d="M263.75 130.75H254.25V140.25H263.75V130.75Z" fill="black"/>
<path d="M263.75 140.25H254.25V149.75H263.75V140.25Z" fill="black"/>
<path d="M263.75 168.75H254.25V178.25H263.75V168.75Z" fill="black"/>
<path d="M263.75 178.25H254.25V187.75H263.75V178.25Z" fill="black"/>
<path d="M263.75 235.25H254.25V244.75H263.75V235.25Z" fill="black"/>
<path d="M263.75 273.25H254.25V282.75H263.75V273.25Z" fill="black"/>
<path d="M273.25 111.75H263.75V121.25H273.25V111.75Z" fill="black"/>
<path d="M273.25 121.25H263.75V130.75H273.25V121.25Z" fill="black"/>
<path d="M273.25 140.25H263.75V149.75H273.25V140.25Z" fill="black"/>
<path d="M273.25 149.75H263.75V159.25H273.25V149.75Z" fill="black"/>
<path d="M273.25 168.75H263.75V178.25H273.25V168.75Z" fill="black"/>
<path d="M273.25 187.75H263.75V197.25H273.25V187.75Z" fill="black"/>
<path d="M273.25 197.25H263.75V206.75H273.25V197.25Z" fill="black"/>
<path d="M273.25 206.75H263.75V216.25H273.25V206.75Z" fill="black"/>
<path d="M273.25 216.25H263.75V225.75H273.25V216.25Z" fill="black"/>
<path d="M273.25 273.25H263.75V282.75H273.25V273.25Z" fill="black"/>
<path d="M273.25 282.75H263.75V292.25H273.25V282.75Z" fill="black"/>
<path d="M282.75 92.75H273.25V102.25H282.75V92.75Z" fill="black"/>
<path d="M282.75 102.25H273.25V111.75H282.75V102.25Z" fill="black"/>
<path d="M282.75 130.75H273.25V140.25H282.75V130.75Z" fill="black"/>
<path d="M282.75 149.75H273.25V159.25H282.75V149.75Z" fill="black"/>
<path d="M282.75 178.25H273.25V187.75H282.75V178.25Z" fill="black"/>
<path d="M282.75 216.25H273.25V225.75H282.75V216.25Z" fill="black"/>
<path d="M282.75 225.75H273.25V235.25H282.75V225.75Z" fill="black"/>
<path d="M282.75 235.25H273.25V244.75H282.75V235.25Z" fill="black"/>
<path d="M282.75 254.25H273.25V263.75H282.75V254.25Z" fill="black"/>
<path d="M282.75 273.25H273.25V282.75H282.75V273.25Z" fill="black"/>
<path d="M282.75 282.75H273.25V292.25H282.75V282.75Z" fill="black"/>
<path d="M292.25 102.25H282.75V111.75H292.25V102.25Z" fill="black"/>
<path d="M292.25 111.75H282.75V121.25H292.25V111.75Z" fill="black"/>
<path d="M292.25 140.25H282.75V149.75H292.25V140.25Z" fill="black"/>
<path d="M292.25 159.25H282.75V168.75H292.25V159.25Z" fill="black"/>
<path d="M292.25 178.25H282.75V187.75H292.25V178.25Z" fill="black"/>
<path d="M292.25 206.75H282.75V216.25H292.25V206.75Z" fill="black"/>
<path d="M292.25 244.75H282.75V254.25H292.25V244.75Z" fill="black"/>
<path d="M292.25 254.25H282.75V263.75H292.25V254.25Z" fill="black"/>
<path d="M292.25 263.75H282.75V273.25H292.25V263.75Z" fill="black"/>
<path d="M292.25 273.25H282.75V282.75H292.25V273.25Z" fill="black"/>
<path d="M16.75 40.5V59.5C16.75 65.7989 19.2522 71.8398 23.7062 76.2938C28.1602 80.7478 34.2011 83.25 40.5 83.25H59.5C65.7989 83.25 71.8398 80.7478 76.2938 76.2938C80.7478 71.8398 83.25 65.7989 83.25 59.5V40.5C83.25 34.2011 80.7478 28.1602 76.2938 23.7062C71.8398 19.2522 65.7989 16.75 59.5 16.75H40.5C34.2011 16.75 28.1602 19.2522 23.7062 23.7062C19.2522 28.1602 16.75 34.2011 16.75 40.5ZM40.5 26.25H59.5C63.2793 26.25 66.9039 27.7513 69.5763 30.4237C72.2487 33.0961 73.75 36.7207 73.75 40.5V59.5C73.75 63.2793 72.2487 66.9039 69.5763 69.5763C66.9039 72.2487 63.2793 73.75 59.5 73.75H40.5C36.7207 73.75 33.0961 72.2487 30.4237 69.5763C27.7513 66.9039 26.25 63.2793 26.25 59.5V40.5C26.25 36.7207 27.7513 33.0961 30.4237 30.4237C33.0961 27.7513 36.7207 26.25 40.5 26.25Z" fill="black"/>
<path d="M64.25 35.75H35.75V64.25H64.25V35.75Z" fill="black"/>
<path d="M268.5 16.75L249.5 16.75C243.201 16.75 237.16 19.2522 232.706 23.7062C228.252 28.1602 225.75 34.2011 225.75 40.5V59.5C225.75 65.7989 228.252 71.8398 232.706 76.2938C237.16 80.7478 243.201 83.25 249.5 83.25H268.5C274.799 83.25 280.84 80.7478 285.294 76.2938C289.748 71.8398 292.25 65.7989 292.25 59.5V40.5C292.25 34.2011 289.748 28.1602 285.294 23.7062C280.84 19.2522 274.799 16.75 268.5 16.75ZM282.75 40.5V59.5C282.75 63.2793 281.249 66.9039 278.576 69.5763C275.904 72.2487 272.279 73.75 268.5 73.75H249.5C245.721 73.75 242.096 72.2487 239.424 69.5763C236.751 66.9039 235.25 63.2793 235.25 59.5V40.5C235.25 36.7207 236.751 33.0961 239.424 30.4237C242.096 27.7513 245.721 26.25 249.5 26.25H268.5C272.279 26.25 275.904 27.7513 278.576 30.4237C281.249 33.0961 282.75 36.7207 282.75 40.5Z" fill="black"/>
<path d="M273.25 64.25V35.75H244.75V64.25H273.25Z" fill="black"/>
<path d="M40.5 292.25H59.5C65.7989 292.25 71.8398 289.748 76.2938 285.294C80.7478 280.84 83.25 274.799 83.25 268.5V249.5C83.25 243.201 80.7478 237.16 76.2938 232.706C71.8398 228.252 65.7989 225.75 59.5 225.75H40.5C34.2011 225.75 28.1602 228.252 23.7062 232.706C19.2522 237.16 16.75 243.201 16.75 249.5L16.75 268.5C16.75 274.799 19.2522 280.84 23.7062 285.294C28.1602 289.748 34.2011 292.25 40.5 292.25ZM26.25 268.5V249.5C26.25 245.721 27.7513 242.096 30.4237 239.424C33.0961 236.751 36.7207 235.25 40.5 235.25H59.5C63.2793 235.25 66.9039 236.751 69.5763 239.424C72.2487 242.096 73.75 245.721 73.75 249.5V268.5C73.75 272.279 72.2487 275.904 69.5763 278.576C66.9039 281.249 63.2793 282.75 59.5 282.75H40.5C36.7207 282.75 33.0961 281.249 30.4237 278.576C27.7513 275.904 26.25 272.279 26.25 268.5Z" fill="black"/>
<path d="M35.75 244.75V273.25H64.25V244.75H35.75Z" fill="black"/>
</svg>
