<svg width="503" height="389" viewBox="0 0 503 389" fill="none" xmlns="http://www.w3.org/2000/svg">
<path d="M440.151 136.07L295.558 52.7205C280.261 43.8969 255.208 43.8969 239.911 52.7205L95.3012 136.07H33.3984V181.173C33.3984 186.993 37.2227 192.796 44.8713 197.208L239.911 309.625C255.208 318.449 280.244 318.449 295.558 309.625L490.598 197.208C498.246 192.796 502.071 187.027 502.071 181.173V136.07H440.151Z" fill="white"/>
<path d="M272.799 271.14H266.969V315.7H272.799V271.14Z" fill="#EBE9E9"/>
<path d="M123.613 205.353C125.539 206.615 127.142 208.31 128.293 210.302C129.444 212.294 130.112 214.528 130.242 216.824V246.417L69.1719 211.224V181.597C69.1719 177.389 72.1463 175.675 75.8006 177.779L123.613 205.353Z" fill="black" stroke="black" stroke-width="1.69969" stroke-miterlimit="10"/>
<path d="M44.8686 197.208L23.7075 184.991C10.8579 177.575 10.8579 165.443 23.7075 158.028L62.6814 135.578L44.8686 197.208Z" fill="black" stroke="black" stroke-width="1.69969" stroke-miterlimit="10" stroke-linecap="round"/>
<path d="M33.3984 136.07V181.173C33.3984 186.993 37.2227 192.796 44.8713 197.208L239.911 309.625C245.895 312.877 252.461 314.923 259.236 315.649V257.209L63.772 136.07H33.3984Z" fill="#EBE9E9"/>
<path d="M440.151 136.07L295.558 52.7205C280.261 43.8969 255.208 43.8969 239.911 52.7205L95.3012 136.07H33.3984V181.173C33.3984 186.993 37.2227 192.796 44.8713 197.208L239.911 309.625C255.208 318.449 280.244 318.449 295.558 309.625L490.598 197.208C498.246 192.796 502.071 187.027 502.071 181.173V136.07H440.151Z" stroke="black" stroke-width="1.69969" stroke-miterlimit="10"/>
<path d="M239.911 264.522C255.208 273.346 280.244 273.346 295.558 264.522L490.598 152.105C505.895 143.282 505.895 128.841 490.598 120.035L295.558 7.61776C280.261 -1.20592 255.208 -1.20592 239.911 7.61776L44.8713 120.035C29.5741 128.841 29.5741 143.282 44.8713 152.105L239.911 264.522Z" fill="white" stroke="black" stroke-width="1.69969" stroke-miterlimit="10"/>
<path d="M267.735 52.4319C187.595 52.4319 122.633 89.8816 122.633 136.07C122.633 182.259 187.595 219.708 267.735 219.708C347.876 219.708 412.838 182.259 412.838 136.07C412.838 89.8816 347.876 52.4319 267.735 52.4319Z" fill="white" stroke="black" stroke-width="1.69969" stroke-miterlimit="10"/>
<path d="M267.715 216.45C339.855 216.45 398.336 182.742 398.336 141.161C398.336 99.5792 339.855 65.8708 267.715 65.8708C195.575 65.8708 137.094 99.5792 137.094 141.161C137.094 182.742 195.575 216.45 267.715 216.45Z" fill="#EBE9E9"/>
<path d="M125.724 216.739C125.64 215.2 125.195 213.702 124.424 212.367C123.654 211.032 122.579 209.896 121.288 209.052L77.4189 183.752C76.9683 183.428 76.4391 183.23 75.8862 183.18C75.3332 183.129 74.7767 183.227 74.2745 183.463V183.463L48.8982 198.073C48.4462 198.394 48.087 198.828 47.8572 199.331C47.6273 199.835 47.535 200.39 47.5894 200.941V212.378C47.6751 213.92 48.1228 215.421 48.8963 216.759C49.6699 218.098 50.7476 219.236 52.0426 220.081L95.9115 245.365C96.3613 245.69 96.8896 245.889 97.4422 245.943C97.9949 245.997 98.5518 245.903 99.0559 245.67L124.483 231.043C124.933 230.722 125.29 230.287 125.517 229.784C125.744 229.28 125.833 228.725 125.775 228.176L125.724 216.739Z" fill="white"/>
<path d="M52.0391 198.379C49.5916 196.97 47.5859 198.124 47.5859 200.941V212.378C47.6716 213.92 48.1193 215.421 48.8929 216.759C49.6664 218.098 50.7441 219.235 52.0391 220.081L95.9081 245.365C98.3556 246.773 100.361 245.619 100.361 242.802V231.366C100.274 229.823 99.826 228.323 99.0526 226.985C98.2791 225.647 97.2021 224.509 95.9081 223.662L52.0391 198.379Z" fill="#EBE9E9"/>
<path d="M125.724 216.739C125.64 215.2 125.195 213.702 124.424 212.367C123.654 211.032 122.579 209.896 121.288 209.052L77.4189 183.752C76.9683 183.428 76.4391 183.23 75.8862 183.18C75.3332 183.129 74.7767 183.227 74.2745 183.463V183.463L48.8982 198.073C48.4462 198.394 48.087 198.828 47.8572 199.331C47.6273 199.835 47.535 200.39 47.5894 200.941V212.378C47.6751 213.92 48.1228 215.421 48.8963 216.759C49.6699 218.098 50.7476 219.236 52.0426 220.081L95.9115 245.365C96.3613 245.69 96.8896 245.889 97.4422 245.943C97.9949 245.997 98.5518 245.903 99.0559 245.67L124.483 231.043C124.933 230.722 125.29 230.287 125.517 229.784C125.744 229.28 125.833 228.725 125.775 228.176L125.724 216.739Z" stroke="black" stroke-width="1.69969" stroke-miterlimit="10"/>
<path d="M82.4873 232.249C85.6315 230.445 86.2703 225.665 83.9141 221.572C81.5579 217.479 77.099 215.624 73.9548 217.428C70.8106 219.232 70.1718 224.012 72.528 228.105C74.8841 232.198 79.343 234.053 82.4873 232.249Z" fill="black"/>
<path d="M77.7609 225.066L67.6817 230.869C46.7076 242.951 57.9425 274.988 34.2149 288.732L25.4784 293.823C-0.492811 308.789 -0.492811 333.275 25.4784 348.241L85.9364 383.095" stroke="black" stroke-width="10.1981" stroke-miterlimit="10" stroke-linecap="round"/>
</svg>
