<svg width="503" height="260" viewBox="0 0 503 260" fill="none" xmlns="http://www.w3.org/2000/svg">
<path d="M44.7319 197.208L23.5708 184.991C10.7212 177.575 10.7212 165.443 23.5708 158.028L62.5447 135.578L44.7319 197.208Z" fill="black" stroke="black" stroke-width="1.69969" stroke-miterlimit="10" stroke-linecap="round"/>
<path d="M33.2617 136.07V181.173C33.2617 186.993 37.086 192.796 44.7346 197.208L239.774 309.625C245.759 312.877 252.325 314.923 259.099 315.649V257.209L63.6353 136.07H33.2617Z" fill="#EBE9E9"/>
<path d="M440.014 136.07L295.422 52.7205C280.125 43.8969 255.071 43.8969 239.774 52.7205L95.1645 136.07H33.2617V181.173C33.2617 186.993 37.086 192.796 44.7346 197.208L239.774 309.625C255.071 318.449 280.108 318.449 295.422 309.625L490.461 197.208C498.11 192.796 501.934 187.027 501.934 181.173V136.07H440.014Z" stroke="black" stroke-width="1.69969" stroke-miterlimit="10"/>
<path d="M239.774 264.522C255.071 273.346 280.108 273.346 295.422 264.522L490.461 152.105C505.758 143.282 505.758 128.841 490.461 120.035L295.422 7.61776C280.125 -1.20592 255.071 -1.20592 239.774 7.61776L44.7346 120.035C29.4374 128.841 29.4374 143.282 44.7346 152.105L239.774 264.522Z" fill="white" stroke="black" stroke-width="1.69969" stroke-miterlimit="10"/>
<path d="M267.597 52.4319C187.456 52.4319 122.494 89.8816 122.494 136.07C122.494 182.259 187.456 219.708 267.597 219.708C347.737 219.708 412.699 182.259 412.699 136.07C412.699 89.8816 347.737 52.4319 267.597 52.4319Z" fill="white" stroke="black" stroke-width="1.69969" stroke-miterlimit="10"/>
<path d="M267.578 216.45C339.718 216.45 398.199 182.742 398.199 141.161C398.199 99.5792 339.718 65.8708 267.578 65.8708C195.438 65.8708 136.957 99.5792 136.957 141.161C136.957 182.742 195.438 216.45 267.578 216.45Z" fill="#EBE9E9"/>
<path d="M125.587 216.739C125.504 215.2 125.058 213.702 124.288 212.367C123.517 211.032 122.443 209.896 121.151 209.052L77.2822 183.752C76.8316 183.428 76.3024 183.23 75.7494 183.18C75.1965 183.129 74.64 183.227 74.1378 183.463V183.463L48.7615 198.073C48.3095 198.394 47.9503 198.828 47.7204 199.331C47.4906 199.835 47.3983 200.39 47.4527 200.941V212.378C47.5384 213.92 47.9861 215.421 48.7596 216.759C49.5331 218.098 50.6109 219.236 51.9059 220.081L95.7748 245.365C96.2246 245.69 96.7529 245.889 97.3055 245.943C97.8581 245.997 98.4151 245.903 98.9192 245.67L124.347 231.043C124.797 230.722 125.154 230.287 125.38 229.784C125.607 229.28 125.696 228.725 125.638 228.176L125.587 216.739Z" fill="white"/>
<path d="M51.904 198.379C49.4565 196.97 47.4508 198.124 47.4508 200.941V212.378C47.5365 213.92 47.9842 215.421 48.7578 216.759C49.5313 218.098 50.609 219.236 51.904 220.082L95.773 245.365C98.2205 246.773 100.226 245.619 100.226 242.803V231.366C100.139 229.823 99.6909 228.323 98.9175 226.985C98.144 225.647 97.067 224.509 95.773 223.662L51.904 198.379Z" fill="#EBE9E9"/>
<path d="M125.587 216.739C125.504 215.2 125.058 213.702 124.288 212.367C123.517 211.032 122.443 209.896 121.151 209.052L77.2822 183.752C76.8316 183.428 76.3024 183.23 75.7494 183.18C75.1965 183.129 74.64 183.227 74.1378 183.463V183.463L48.7615 198.073C48.3095 198.394 47.9503 198.828 47.7204 199.331C47.4906 199.835 47.3983 200.39 47.4527 200.941V212.378C47.5384 213.92 47.9861 215.421 48.7596 216.759C49.5331 218.098 50.6109 219.236 51.9059 220.081L95.7748 245.365C96.2246 245.69 96.7529 245.889 97.3055 245.943C97.8581 245.997 98.4151 245.903 98.9192 245.67L124.347 231.043C124.797 230.722 125.154 230.287 125.38 229.784C125.607 229.28 125.696 228.725 125.638 228.176L125.587 216.739Z" stroke="black" stroke-width="1.69969" stroke-miterlimit="10"/>
<path d="M82.351 232.25C85.4952 230.446 86.134 225.665 83.7778 221.572C81.4217 217.479 76.9627 215.624 73.8185 217.428C70.6743 219.232 70.0355 224.012 72.3917 228.105C74.7479 232.198 79.2068 234.054 82.351 232.25Z" fill="black"/>
<path d="M77.6242 225.066L67.545 230.869C46.5709 242.951 57.8058 274.988 34.0781 288.732L25.3417 293.823C-0.62953 308.789 -0.62953 333.275 25.3417 348.241L85.7997 383.095" stroke="black" stroke-width="10.1981" stroke-miterlimit="10" stroke-linecap="round"/>
</svg>
