<svg width="143" height="20" viewBox="0 0 143 20" fill="none" xmlns="http://www.w3.org/2000/svg">
<path d="M0.399658 0.458496V6.97023H6.90236V19.9838H13.4141V6.97023H19.9168V0.458496H0.399658ZM26.4285 13.4721V6.96941H19.916V19.983H39.4421V13.4713L26.4285 13.4721ZM26.4285 0.458496H39.4421V6.97023H26.4285V0.458496Z" fill="#0A9600" style="mix-blend-mode:luminosity"/>
<path d="M53.9677 7.3081V16.1814H50.7112V7.3081H47.4281V4.46865H57.2508V7.3081H53.9677ZM64.8464 12.6676H59.6555C59.6512 12.8609 59.6875 13.053 59.7619 13.2314C59.8364 13.4099 59.9474 13.5708 60.0879 13.7037C60.2283 13.8366 60.3951 13.9386 60.5774 14.0032C60.7596 14.0677 60.9534 14.0933 61.1462 14.0784C61.9476 14.0741 62.7338 13.86 63.4266 13.4573L64.6068 15.4094C63.5393 16.0667 62.3111 16.4167 61.0575 16.421C58.3955 16.421 56.9491 14.5398 56.9491 11.8424C56.9491 8.80769 58.6617 7.24599 60.9687 7.24599C63.2758 7.24599 64.8907 8.84318 64.8907 12.1086C64.8552 12.3215 64.8552 12.5079 64.8464 12.6587V12.6676ZM60.8534 9.44657C60.1613 9.44657 59.7886 9.91685 59.6821 10.7953H62.1933C62.0424 9.90798 61.7496 9.44657 60.8623 9.44657H60.8534ZM70.4543 16.3944C67.881 16.3944 66.3371 14.7528 66.3371 11.7802C66.3371 9.11826 67.7036 7.21937 70.5253 7.21937C71.2192 7.1964 71.9054 7.37102 72.5039 7.72291C73.1024 8.07479 73.5887 8.58946 73.906 9.20699L71.8297 10.8042C71.4126 10.0411 71.1198 9.6684 70.472 9.6684C69.8243 9.6684 69.3185 10.4404 69.3185 11.8335C69.3185 13.2266 69.7356 13.9453 70.5608 13.9453C71.1287 13.9453 71.5368 13.6259 72.087 12.7918L73.9947 14.2825C72.9654 15.791 72.016 16.3855 70.4454 16.3855L70.4543 16.3944ZM80.7473 16.2169V11.2212C80.7473 10.0677 80.3658 9.77488 79.7446 9.77488C79.1235 9.77488 78.7153 10.0766 78.7153 11.1946V16.2258H75.6984V5.22288L78.7153 4.01611V8.00909C79.3399 7.49698 80.1261 7.22339 80.9336 7.23712C82.8592 7.23712 83.7731 8.53262 83.7731 10.8397V16.2258L80.7473 16.2169Z" fill="#0A9600" style="mix-blend-mode:luminosity"/>
<path d="M90.8717 16.4121C87.3845 16.4121 85.5477 13.8388 85.5477 10.3605C85.5477 6.58937 87.7661 4.30893 90.8717 4.30893C93.7555 4.30893 94.8913 5.55119 95.6988 7.76951L92.7528 8.92304C92.3269 7.83163 91.9276 7.14838 90.854 7.14838C89.4963 7.14838 88.9018 8.506 88.9018 10.3694C88.9018 12.2328 89.4697 13.5815 90.8806 13.5815C91.901 13.5815 92.3358 13.0314 92.9747 11.9222L95.7254 13.3863C95.3181 14.3254 94.6349 15.1186 93.7665 15.6606C92.8981 16.2025 91.8854 16.4677 90.8628 16.421L90.8717 16.4121ZM103.17 10.7332C103.004 10.5163 102.792 10.3382 102.55 10.211C102.308 10.0839 102.041 10.0108 101.768 9.99671C101.032 9.99671 100.579 10.3516 100.579 11.4164V16.208H97.5622V7.42346H100.579V8.06233C100.996 7.62259 101.55 7.33809 102.15 7.25581C102.75 7.17354 103.36 7.2984 103.88 7.6098L103.17 10.7332ZM110.357 16.2169V15.6312C109.741 16.1449 108.959 16.419 108.157 16.4032C106.231 16.4032 105.317 15.1077 105.317 12.7918V7.4412H108.334V12.4102C108.334 13.546 108.725 13.8477 109.346 13.8477C109.967 13.8477 110.349 13.546 110.349 12.4457V7.4412H113.383V16.2435L110.357 16.2169ZM120.615 16.2169V11.2212C120.615 10.0677 120.225 9.77488 119.612 9.77488C119 9.77488 118.583 10.0766 118.583 11.1946V16.2258H115.566V7.4412H118.583V8.02684C119.208 7.51473 119.994 7.24114 120.801 7.25487C122.727 7.25487 123.641 8.55036 123.641 10.8574V16.2435L120.615 16.2169ZM129.533 16.3944C126.959 16.3944 125.407 14.7528 125.407 11.7802C125.407 9.11826 126.782 7.21937 129.595 7.21937C130.29 7.19789 130.976 7.37305 131.576 7.72468C132.176 8.07631 132.664 8.59013 132.984 9.20699L130.908 10.7776C130.482 10.0145 130.198 9.64178 129.55 9.64178C128.903 9.64178 128.397 10.4138 128.397 11.8069C128.397 13.2 128.814 13.9187 129.639 13.9187C130.207 13.9187 130.615 13.5993 131.165 12.7652L133.073 14.2559C132.053 15.7998 131.094 16.3855 129.542 16.3855L129.533 16.3944ZM139.826 16.2169V11.2212C139.826 10.0677 139.444 9.77488 138.823 9.77488C138.202 9.77488 137.803 10.0766 137.803 11.1946V16.2258H134.786V5.22288L137.803 4.01611V8.00909C138.423 7.49553 139.207 7.2216 140.012 7.23712C141.946 7.23712 142.851 8.53262 142.851 10.8397V16.2258L139.826 16.2169Z" fill="#5B5B5C" style="mix-blend-mode:luminosity"/>
</svg>
