<svg width="168" height="24" viewBox="0 0 168 24" fill="none" xmlns="http://www.w3.org/2000/svg">
<path d="M0.483521 0.478516V8.09897H8.09341V23.3284H15.7139V8.09897H23.3238V0.478516H0.483521ZM30.9442 15.7079V8.09801H23.3228V23.3274H46.1736V15.7069L30.9442 15.7079ZM30.9442 0.478516H46.1736V8.09897H30.9442V0.478516Z" fill="#0A9600" style="mix-blend-mode:luminosity"/>
<path d="M63.1724 8.49435V18.8785H59.3614V8.49435H55.5193V5.17143H67.0145V8.49435H63.1724ZM75.9033 14.7664H69.8286C69.8236 14.9926 69.866 15.2174 69.9531 15.4262C70.0403 15.6351 70.1702 15.8233 70.3346 15.9789C70.499 16.1344 70.6941 16.2538 70.9074 16.3294C71.1207 16.4049 71.3475 16.4349 71.5731 16.4174C72.5109 16.4124 73.431 16.1618 74.2418 15.6905L75.6229 17.975C74.3736 18.7442 72.9364 19.1538 71.4693 19.1588C68.354 19.1588 66.6614 16.9574 66.6614 13.8006C66.6614 10.2493 68.6656 8.42166 71.3654 8.42166C74.0653 8.42166 75.9552 10.2908 75.9552 14.1122C75.9137 14.3614 75.9137 14.5794 75.9033 14.756V14.7664ZM71.2304 10.9969C70.4205 10.9969 69.9843 11.5473 69.8597 12.5753H72.7984C72.6219 11.5369 72.2792 10.9969 71.2408 10.9969H71.2304ZM82.466 19.1277C79.4547 19.1277 77.6478 17.2066 77.6478 13.7279C77.6478 10.6127 79.247 8.39051 82.5491 8.39051C83.3612 8.36362 84.1642 8.56798 84.8646 8.97978C85.565 9.39158 86.1341 9.99388 86.5055 10.7165L84.0756 12.5857C83.5875 11.6927 83.2449 11.2565 82.4868 11.2565C81.7288 11.2565 81.1369 12.1599 81.1369 13.7902C81.1369 15.4206 81.6249 16.2617 82.5907 16.2617C83.2552 16.2617 83.7329 15.8878 84.3767 14.9117L86.6093 16.6563C85.4047 18.4216 84.2936 19.1173 82.4557 19.1173L82.466 19.1277ZM94.5116 18.92V13.0737C94.5116 11.7238 94.0651 11.3811 93.3382 11.3811C92.6113 11.3811 92.1336 11.7342 92.1336 13.0426V18.9304H88.6031V6.05409L92.1336 4.64185V9.31469C92.8646 8.71539 93.7846 8.39522 94.7297 8.41128C96.983 8.41128 98.0526 9.92736 98.0526 12.6272V18.9304L94.5116 18.92Z" fill="#0A9600" style="mix-blend-mode:luminosity"/>
<path d="M106.36 19.1484C102.279 19.1484 100.129 16.1371 100.129 12.0665C100.129 7.65324 102.725 4.98452 106.36 4.98452C109.735 4.98452 111.064 6.4383 112.009 9.03432L108.561 10.3843C108.063 9.10701 107.596 8.30743 106.339 8.30743C104.75 8.30743 104.055 9.8962 104.055 12.0769C104.055 14.2575 104.719 15.8359 106.37 15.8359C107.564 15.8359 108.073 15.1921 108.821 13.8941L112.04 15.6075C111.563 16.7065 110.764 17.6347 109.748 18.2689C108.731 18.9032 107.546 19.2135 106.349 19.1588L106.36 19.1484ZM120.752 12.5026C120.557 12.2488 120.31 12.0403 120.027 11.8915C119.743 11.7427 119.431 11.6572 119.112 11.6407C118.25 11.6407 117.72 12.0561 117.72 13.3022V18.9096H114.189V8.62934H117.72V9.377C118.208 8.86239 118.856 8.52944 119.558 8.43316C120.261 8.33687 120.975 8.483 121.583 8.84741L120.752 12.5026ZM129.163 18.92V18.2346C128.442 18.8358 127.527 19.1565 126.588 19.1381C124.335 19.1381 123.265 17.622 123.265 14.9117V8.65011H126.796V14.4652C126.796 15.7944 127.253 16.1474 127.98 16.1474C128.706 16.1474 129.153 15.7944 129.153 14.5067V8.65011H132.704V18.9511L129.163 18.92ZM141.167 18.92V13.0737C141.167 11.7238 140.711 11.3811 139.994 11.3811C139.277 11.3811 138.789 11.7342 138.789 13.0426V18.9304H135.259V8.65011H138.789V9.33546C139.52 8.73616 140.44 8.41598 141.385 8.43205C143.639 8.43205 144.708 9.94812 144.708 12.648V18.9511L141.167 18.92ZM151.603 19.1277C148.592 19.1277 146.775 17.2066 146.775 13.7279C146.775 10.6127 148.384 8.39051 151.676 8.39051C152.489 8.36537 153.293 8.57035 153.995 8.98186C154.696 9.39336 155.268 9.99466 155.643 10.7166L153.213 12.5545C152.715 11.6615 152.382 11.2254 151.624 11.2254C150.866 11.2254 150.274 12.1288 150.274 13.7591C150.274 15.3894 150.762 16.2305 151.728 16.2305C152.393 16.2305 152.87 15.8567 153.514 14.8806L155.747 16.6251C154.553 18.4319 153.431 19.1173 151.614 19.1173L151.603 19.1277ZM163.649 18.92V13.0737C163.649 11.7238 163.202 11.3811 162.476 11.3811C161.749 11.3811 161.281 11.7342 161.281 13.0426V18.9304H157.751V6.05409L161.281 4.64185V9.31469C162.007 8.71369 162.925 8.39312 163.867 8.41128C166.131 8.41128 167.19 9.92736 167.19 12.6272V18.9304L163.649 18.92Z" fill="#5B5B5C" style="mix-blend-mode:luminosity"/>
</svg>
