<svg width="32" height="32" viewBox="0 0 32 32" fill="none" xmlns="http://www.w3.org/2000/svg">
<path d="M23.8484 14.3998C22.2441 14.3998 20.7568 13.8868 19.5432 13.0153V19.3043C19.5432 22.4454 16.9879 25 13.8475 25C12.6339 25 11.5081 24.6175 10.5833 23.968C9.11477 22.9367 8.15173 21.2311 8.15173 19.3043C8.15173 16.1631 10.7071 13.6078 13.8482 13.6078C14.1092 13.6078 14.3642 13.6295 14.6155 13.6633V14.3961V16.8224C14.3725 16.7467 14.116 16.7024 13.8482 16.7024C12.4142 16.7024 11.2471 17.8695 11.2471 19.3043C11.2471 20.3033 11.8141 21.1711 12.6422 21.6069C13.0029 21.7966 13.4132 21.9054 13.849 21.9054C15.25 21.9054 16.3931 20.7908 16.4456 19.4018L16.4478 7H19.5425C19.5425 7.26851 19.5687 7.53027 19.6152 7.78528C19.8335 8.96433 20.5332 9.97612 21.503 10.6084C22.1781 11.0487 22.9836 11.3059 23.8476 11.3059V14.3998H23.8484Z" fill="white"/>
</svg>
