<svg width="32" height="32" viewBox="0 0 32 32" fill="none" xmlns="http://www.w3.org/2000/svg">
<path d="M12.0922 24.5599C20.042 24.5599 24.389 17.974 24.389 12.2631C24.389 12.0761 24.3853 11.8898 24.3769 11.7045C25.2207 11.0944 25.9543 10.3331 26.5327 9.46645C25.7584 9.81067 24.9249 10.0424 24.0507 10.1469C24.9431 9.6118 25.6281 8.76539 25.9512 7.75635C25.1162 8.25139 24.1915 8.61119 23.2069 8.80541C22.4181 7.96532 21.2953 7.43994 20.0521 7.43994C17.6653 7.43994 15.7298 9.37545 15.7298 11.7613C15.7298 12.1005 15.7677 12.4304 15.8419 12.7468C12.2498 12.566 9.06467 10.8462 6.93324 8.23117C6.56207 8.86988 6.34804 9.6118 6.34804 10.4035C6.34804 11.9029 7.11104 13.2267 8.27133 14.001C7.56226 13.9791 6.89617 13.7845 6.31392 13.4605C6.31328 13.4786 6.31328 13.4963 6.31328 13.5157C6.31328 15.6088 7.80304 17.3564 9.78069 17.7524C9.41751 17.8514 9.03537 17.9045 8.64103 17.9045C8.36297 17.9045 8.09206 17.8771 7.82874 17.8266C8.37897 19.5438 9.97449 20.7934 11.8662 20.8284C10.387 21.9879 8.52348 22.6784 6.49824 22.6784C6.14981 22.6784 5.8056 22.6586 5.46729 22.6186C7.38004 23.8445 9.65134 24.5599 12.0924 24.5599" fill="white"/>
</svg>
