<svg width="32" height="32" viewBox="0 0 32 32" fill="none" xmlns="http://www.w3.org/2000/svg">
<path d="M13.4626 17.1261C13.3906 17.1261 11.8063 17.1261 11.0861 17.1261C10.7021 17.1261 10.582 16.982 10.582 16.622C10.582 15.6618 10.582 14.6776 10.582 13.7174C10.582 13.3333 10.7261 13.2132 11.0861 13.2132H13.4626C13.4626 13.1412 13.4626 11.7489 13.4626 11.1008C13.4626 10.1406 13.6307 9.22842 14.1108 8.38824C14.6149 7.52406 15.335 6.94794 16.2472 6.61187C16.8473 6.39582 17.4475 6.2998 18.0956 6.2998H20.4481C20.7842 6.2998 20.9282 6.44383 20.9282 6.7799V9.51648C20.9282 9.85255 20.7842 9.99658 20.4481 9.99658C19.8 9.99658 19.1518 9.99658 18.5037 10.0206C17.8555 10.0206 17.5195 10.3326 17.5195 11.0048C17.4955 11.7249 17.5195 12.4211 17.5195 13.1652H20.3041C20.6881 13.1652 20.8322 13.3093 20.8322 13.6933V16.598C20.8322 16.982 20.7121 17.1021 20.3041 17.1021C19.4399 17.1021 17.5915 17.1021 17.5195 17.1021V24.9277C17.5195 25.3358 17.3995 25.4798 16.9674 25.4798C15.9592 25.4798 14.9749 25.4798 13.9667 25.4798C13.6067 25.4798 13.4626 25.3358 13.4626 24.9757C13.4626 22.4552 13.4626 17.1981 13.4626 17.1261V17.1261Z" fill="white"/>
</svg>
