<svg width="32" height="32" viewBox="0 0 32 32" fill="none" xmlns="http://www.w3.org/2000/svg">
<path d="M13.4305 17.143C13.3575 17.143 11.7511 17.143 11.0209 17.143C10.6315 17.143 10.5098 16.997 10.5098 16.6319C10.5098 15.6583 10.5098 14.6604 10.5098 13.6869C10.5098 13.2974 10.6558 13.1757 11.0209 13.1757H13.4305C13.4305 13.1027 13.4305 11.691 13.4305 11.0339C13.4305 10.0603 13.6009 9.13541 14.0876 8.28353C14.5988 7.40732 15.3289 6.82318 16.2538 6.48243C16.8623 6.26337 17.4708 6.16602 18.128 6.16602H20.5132C20.854 6.16602 21 6.31205 21 6.6528V9.42748C21 9.76823 20.854 9.91427 20.5132 9.91427C19.8561 9.91427 19.1989 9.91427 18.5417 9.93861C17.8846 9.93861 17.5438 10.255 17.5438 10.9365C17.5195 11.6667 17.5438 12.3725 17.5438 13.1271H20.3672C20.7566 13.1271 20.9026 13.2731 20.9026 13.6625V16.6076C20.9026 16.997 20.7809 17.1187 20.3672 17.1187C19.491 17.1187 17.6168 17.1187 17.5438 17.1187V25.0533C17.5438 25.4671 17.4221 25.6131 16.984 25.6131C15.9618 25.6131 14.9639 25.6131 13.9416 25.6131C13.5765 25.6131 13.4305 25.4671 13.4305 25.102C13.4305 22.5464 13.4305 17.2161 13.4305 17.143V17.143Z" fill="#FFCC00"/>
</svg>
