<svg width="32" height="32" viewBox="0 0 32 32" fill="none" xmlns="http://www.w3.org/2000/svg">
<path d="M16 8.62149C18.4029 8.62149 18.6879 8.63049 19.6367 8.67399C20.6177 8.71899 21.6279 8.94249 22.3427 9.65724C23.0642 10.3787 23.2809 11.3792 23.3259 12.3632C23.3694 13.312 23.3784 13.597 23.3784 16C23.3784 18.4029 23.3694 18.6879 23.3259 19.6367C23.2817 20.6124 23.0529 21.6324 22.3427 22.3427C21.6212 23.0642 20.6214 23.2809 19.6367 23.3259C18.6879 23.3694 18.4029 23.3784 16 23.3784C13.597 23.3784 13.312 23.3694 12.3632 23.3259C11.395 23.2817 10.3615 23.0477 9.65724 22.3427C8.93949 21.6249 8.71899 20.6147 8.67399 19.6367C8.63049 18.6879 8.62149 18.4029 8.62149 16C8.62149 13.597 8.63049 13.312 8.67399 12.3632C8.71824 11.3912 8.94924 10.3652 9.65724 9.65724C10.3772 8.93724 11.3815 8.71899 12.3632 8.67399C13.312 8.63049 13.597 8.62149 16 8.62149ZM16 7C13.5557 7 13.249 7.0105 12.289 7.054C10.8977 7.11775 9.51624 7.50475 8.51049 8.51049C7.501 9.51999 7.11775 10.8985 7.054 12.289C7.0105 13.249 7 13.5557 7 16C7 18.4442 7.0105 18.7509 7.054 19.7109C7.11775 21.1007 7.50625 22.4859 8.51049 23.4894C9.51924 24.4982 10.9 24.8822 12.289 24.9459C13.249 24.9894 13.5557 24.9999 16 24.9999C18.4442 24.9999 18.7509 24.9894 19.7109 24.9459C21.1014 24.8822 22.4844 24.4944 23.4894 23.4894C24.4997 22.4792 24.8822 21.1014 24.9459 19.7109C24.9894 18.7509 24.9999 18.4442 24.9999 16C24.9999 13.5557 24.9894 13.249 24.9459 12.289C24.8822 10.8977 24.4944 9.51549 23.4894 8.51049C22.4822 7.50325 21.0977 7.117 19.7109 7.054C18.7509 7.0105 18.4442 7 16 7Z" fill="white"/>
<path d="M16.0004 11.3784C13.4481 11.3784 11.3789 13.4477 11.3789 15.9999C11.3789 18.5521 13.4481 20.6214 16.0004 20.6214C18.5526 20.6214 20.6219 18.5521 20.6219 15.9999C20.6219 13.4477 18.5526 11.3784 16.0004 11.3784ZM16.0004 18.9999C14.3436 18.9999 13.0004 17.6566 13.0004 15.9999C13.0004 14.3432 14.3436 12.9999 16.0004 12.9999C17.6571 12.9999 19.0004 14.3432 19.0004 15.9999C19.0004 17.6566 17.6571 18.9999 16.0004 18.9999Z" fill="white"/>
<path d="M20.8046 12.2757C21.4011 12.2757 21.8846 11.7922 21.8846 11.1957C21.8846 10.5993 21.4011 10.1157 20.8046 10.1157C20.2081 10.1157 19.7246 10.5993 19.7246 11.1957C19.7246 11.7922 20.2081 12.2757 20.8046 12.2757Z" fill="white"/>
</svg>
