<svg width="32" height="32" viewBox="0 0 32 32" fill="none" xmlns="http://www.w3.org/2000/svg">
<path d="M16 6.16201C19.2041 6.16201 19.5841 6.17401 20.8491 6.23201C22.1571 6.29201 23.5041 6.59001 24.4571 7.54301C25.4191 8.50502 25.7081 9.83902 25.7681 11.151C25.8261 12.416 25.8381 12.796 25.8381 16C25.8381 19.2041 25.8261 19.5841 25.7681 20.8491C25.7091 22.1501 25.4041 23.5101 24.4571 24.4571C23.4951 25.4191 22.1621 25.7081 20.8491 25.7681C19.5841 25.8261 19.2041 25.8381 16 25.8381C12.796 25.8381 12.416 25.8261 11.151 25.7681C9.86002 25.7091 8.48202 25.3971 7.54301 24.4571C6.58601 23.5001 6.29201 22.1531 6.23201 20.8491C6.17401 19.5841 6.16201 19.2041 6.16201 16C6.16201 12.796 6.17401 12.416 6.23201 11.151C6.29101 9.85502 6.59901 8.48702 7.54301 7.54301C8.50302 6.58301 9.84202 6.29201 11.151 6.23201C12.416 6.17401 12.796 6.16201 16 6.16201ZM16 4C12.741 4 12.332 4.014 11.052 4.072C9.19702 4.157 7.35501 4.673 6.01401 6.01401C4.668 7.36001 4.157 9.19802 4.072 11.052C4.014 12.332 4 12.741 4 16C4 19.2591 4.014 19.6681 4.072 20.9481C4.157 22.8011 4.675 24.6481 6.01401 25.9861C7.35901 27.3311 9.20002 27.8431 11.052 27.9281C12.332 27.9861 12.741 28.0001 16 28.0001C19.2591 28.0001 19.6681 27.9861 20.9481 27.9281C22.8021 27.8431 24.6461 27.3261 25.9861 25.9861C27.3331 24.6391 27.8431 22.8021 27.9281 20.9481C27.9861 19.6681 28.0001 19.2591 28.0001 16C28.0001 12.741 27.9861 12.332 27.9281 11.052C27.8431 9.19702 27.3261 7.35401 25.9861 6.01401C24.6431 4.671 22.7971 4.156 20.9481 4.072C19.6681 4.014 19.2591 4 16 4Z" fill="#FFCC00"/>
<path d="M15.9999 9.83789C12.5969 9.83789 9.83789 12.5969 9.83789 15.9999C9.83789 19.4029 12.5969 22.1619 15.9999 22.1619C19.4029 22.1619 22.1619 19.4029 22.1619 15.9999C22.1619 12.5969 19.4029 9.83789 15.9999 9.83789ZM15.9999 19.9999C13.7909 19.9999 11.9999 18.2089 11.9999 15.9999C11.9999 13.7909 13.7909 11.9999 15.9999 11.9999C18.2089 11.9999 19.9999 13.7909 19.9999 15.9999C19.9999 18.2089 18.2089 19.9999 15.9999 19.9999Z" fill="#FFCC00"/>
<path d="M22.4068 11.0343C23.2021 11.0343 23.8468 10.3896 23.8468 9.5943C23.8468 8.79901 23.2021 8.1543 22.4068 8.1543C21.6115 8.1543 20.9668 8.79901 20.9668 9.5943C20.9668 10.3896 21.6115 11.0343 22.4068 11.0343Z" fill="#FFCC00"/>
</svg>
