<svg width="32" height="32" viewBox="0 0 32 32" fill="none" xmlns="http://www.w3.org/2000/svg">
<path d="M24.9938 25V24.9993H24.9983V18.3978C24.9983 15.1684 24.3031 12.6807 20.5276 12.6807C18.7127 12.6807 17.4947 13.6767 16.9974 14.6209H16.9449V12.9822H13.3652V24.9993H17.0927V19.0488C17.0927 17.4821 17.3897 15.9671 19.3299 15.9671C21.2416 15.9671 21.2701 17.7551 21.2701 19.1493V25H24.9938Z" fill="white"/>
<path d="M7.29102 12.9824H11.023V24.9995H7.29102V12.9824Z" fill="white"/>
<path d="M9.15952 7C7.96629 7 6.99805 7.96824 6.99805 9.16147C6.99805 10.3547 7.96629 11.3432 9.15952 11.3432C10.3528 11.3432 11.321 10.3547 11.321 9.16147C11.3202 7.96824 10.352 7 9.15952 7V7Z" fill="white"/>
</svg>
