<svg width="32" height="32" viewBox="0 0 32 32" fill="none" xmlns="http://www.w3.org/2000/svg">
<path d="M25.9964 26.0028V26.002H26.0014V18.6651C26.0014 15.0759 25.2287 12.311 21.0326 12.311C19.0154 12.311 17.6618 13.418 17.1091 14.4674H17.0508V12.6461H13.0723V26.002H17.215V19.3887C17.215 17.6474 17.5451 15.9636 19.7014 15.9636C21.8262 15.9636 21.8578 17.9508 21.8578 19.5004V26.0028H25.9964Z" fill="#FFCC00"/>
<path d="M6.32031 12.646H10.468V26.0019H6.32031V12.646Z" fill="#FFCC00"/>
<path d="M8.39642 5.99707C7.07025 5.99707 5.99414 7.07318 5.99414 8.39935C5.99414 9.72552 7.07025 10.8241 8.39642 10.8241C9.72259 10.8241 10.7987 9.72552 10.7987 8.39935C10.7979 7.07318 9.72175 5.99707 8.39642 5.99707V5.99707Z" fill="#FFCC00"/>
</svg>
