<svg width="32" height="32" viewBox="0 0 32 32" fill="none" xmlns="http://www.w3.org/2000/svg">
<path d="M25.25 14.114C23.3592 14.114 21.6062 13.5093 20.1759 12.4821V19.8943C20.1759 23.5964 17.1642 26.6073 13.463 26.6073C12.0327 26.6073 10.7058 26.1565 9.61587 25.3909C7.88503 24.1755 6.75 22.1653 6.75 19.8943C6.75 16.1922 9.76173 13.1805 13.4639 13.1805C13.7715 13.1805 14.072 13.2061 14.3682 13.2459V14.1095V16.9692C14.0818 16.8799 13.7794 16.8278 13.4639 16.8278C11.7737 16.8278 10.3982 18.2033 10.3982 19.8943C10.3982 21.0718 11.0665 22.0946 12.0424 22.6082C12.4676 22.8318 12.9511 22.96 13.4647 22.96C15.116 22.96 16.4632 21.6464 16.5251 20.0092L16.5277 5.39258H20.1751C20.1751 5.70904 20.206 6.01755 20.2608 6.31811C20.518 7.70773 21.3428 8.90022 22.4858 9.64542C23.2814 10.1643 24.2308 10.4675 25.2491 10.4675V14.114H25.25Z" fill="#FFCC00"/>
</svg>
