<svg width="32" height="32" viewBox="0 0 32 32" fill="none" xmlns="http://www.w3.org/2000/svg">
<path d="M23.849 14.3998C22.2447 14.3998 20.7574 13.8868 19.5438 13.0153V19.3043C19.5438 22.4454 16.9885 25 13.8481 25C12.6345 25 11.5087 24.6175 10.5839 23.968C9.11538 22.9367 8.15234 21.2311 8.15234 19.3043C8.15234 16.1631 10.7077 13.6078 13.8488 13.6078C14.1098 13.6078 14.3649 13.6295 14.6161 13.6633V14.3961V16.8224C14.3731 16.7467 14.1166 16.7024 13.8488 16.7024C12.4148 16.7024 11.2477 17.8695 11.2477 19.3043C11.2477 20.3033 11.8147 21.1711 12.6428 21.6069C13.0035 21.7966 13.4138 21.9054 13.8496 21.9054C15.2506 21.9054 16.3937 20.7908 16.4462 19.4018L16.4484 7H19.5431C19.5431 7.26851 19.5693 7.53027 19.6158 7.78528C19.8341 8.96433 20.5339 9.97612 21.5036 10.6084C22.1787 11.0487 22.9842 11.3059 23.8482 11.3059V14.3998H23.849Z" fill="white"/>
</svg>
