<svg width="32" height="32" viewBox="0 0 32 32" fill="none" xmlns="http://www.w3.org/2000/svg">
<path d="M12.0917 24.5599C20.0415 24.5599 24.3885 17.974 24.3885 12.2631C24.3885 12.0761 24.3848 11.8898 24.3764 11.7045C25.2202 11.0944 25.9538 10.3331 26.5322 9.46645C25.7579 9.81067 24.9245 10.0424 24.0502 10.1469C24.9426 9.6118 25.6276 8.76539 25.9508 7.75635C25.1157 8.25139 24.191 8.61119 23.2064 8.80541C22.4177 7.96532 21.2948 7.43994 20.0516 7.43994C17.6648 7.43994 15.7293 9.37545 15.7293 11.7613C15.7293 12.1005 15.7672 12.4304 15.8414 12.7468C12.2493 12.566 9.06418 10.8462 6.93275 8.23117C6.56158 8.86988 6.34755 9.6118 6.34755 10.4035C6.34755 11.9029 7.11055 13.2267 8.27084 14.001C7.56177 13.9791 6.89568 13.7845 6.31343 13.4605C6.31279 13.4786 6.31279 13.4963 6.31279 13.5157C6.31279 15.6088 7.80255 17.3564 9.7802 17.7524C9.41702 17.8514 9.03489 17.9045 8.64054 17.9045C8.36248 17.9045 8.09157 17.8771 7.82825 17.8266C8.37848 19.5438 9.974 20.7934 11.8657 20.8284C10.3865 21.9879 8.523 22.6784 6.49775 22.6784C6.14932 22.6784 5.80511 22.6586 5.4668 22.6186C7.37955 23.8445 9.65085 24.5599 12.0919 24.5599" fill="white"/>
</svg>
