<svg width="32" height="32" viewBox="0 0 32 32" fill="none" xmlns="http://www.w3.org/2000/svg">
<path d="M11.3623 26.159C20.797 26.159 25.956 18.3429 25.956 11.5654C25.956 11.3434 25.9515 11.1224 25.9416 10.9024C26.943 10.1784 27.8136 9.27485 28.5 8.24633C27.5811 8.65484 26.592 8.92985 25.5545 9.05385C26.6136 8.41884 27.4265 7.41432 27.81 6.21681C26.819 6.80432 25.7215 7.23133 24.553 7.46182C23.617 6.46482 22.2844 5.84131 20.809 5.84131C17.9764 5.84131 15.6794 8.13834 15.6794 10.9699C15.6794 11.3724 15.7244 11.7639 15.8124 12.1394C11.5494 11.9249 7.76931 9.88385 5.23977 6.78032C4.79927 7.53833 4.54527 8.41884 4.54527 9.35835C4.54527 11.1379 5.45078 12.7089 6.82779 13.6279C5.98628 13.6019 5.19577 13.3709 4.50477 12.9864C4.50401 13.0079 4.50401 13.0289 4.50401 13.0519C4.50401 15.5359 6.27203 17.6099 8.61907 18.0799C8.18806 18.1975 7.73454 18.2604 7.26654 18.2604C6.93654 18.2604 6.61503 18.2279 6.30253 18.168C6.95554 20.206 8.84907 21.689 11.0941 21.7305C9.33857 23.1065 7.12704 23.926 4.72352 23.926C4.31001 23.926 3.9015 23.9025 3.5 23.855C5.77002 25.31 8.46556 26.159 11.3626 26.159" fill="#FFCC00"/>
</svg>
