<svg width="187" height="68" viewBox="0 0 187 68" fill="none" xmlns="http://www.w3.org/2000/svg">
<rect width="187" height="68" rx="34" fill="#4F59DD"/>
<path fill-rule="evenodd" clip-rule="evenodd" d="M45.87 24.4675C46.8908 23.256 47.403 21.9471 47.403 20.5452C47.403 20.3592 47.3944 20.1718 47.3736 19.9844C46.6625 20.0213 45.9063 20.2367 45.1069 20.6263C44.3057 21.0218 43.6452 21.5176 43.1257 22.1138C42.0854 23.2915 41.4994 24.7317 41.4994 26.0775C41.4994 26.2636 41.5114 26.4406 41.532 26.6087C43.1478 26.7401 44.638 25.9078 45.87 24.4675ZM51.3048 44.5389C51.8861 43.7101 52.3879 42.8087 52.8118 41.8293C52.9866 41.414 53.151 40.9815 53.3066 40.5298C52.5886 40.2287 51.9432 39.8049 51.3654 39.2564C50.0901 38.0746 49.4413 36.5862 49.4222 34.7976C49.4015 32.5014 50.4448 30.7114 52.554 29.4334C51.3757 27.7585 49.6039 26.8288 47.2455 26.6385C46.3751 26.5646 45.3128 26.7522 44.054 27.2052C42.7229 27.6936 41.9377 27.9386 41.706 27.9386C41.3961 27.9386 40.6893 27.7291 39.5885 27.3159C38.4846 26.9041 37.5963 26.6946 36.9189 26.6946C35.6809 26.7152 34.5313 27.037 33.4673 27.6685C32.4034 28.3001 31.5533 29.1604 30.9143 30.251C30.1012 31.6087 29.6953 33.2289 29.6953 35.1076C29.6953 36.7475 29.9964 38.4414 30.597 40.1908C31.1577 41.8103 31.8736 43.2309 32.7442 44.4559C33.5557 45.6031 34.2331 46.4129 34.7747 46.8852C35.6232 47.6742 36.4733 48.0496 37.3262 48.0134C37.887 47.9943 38.6204 47.8022 39.5309 47.4337C40.44 47.0669 41.2899 46.8852 42.0824 46.8852C42.838 46.8852 43.6644 47.0669 44.5636 47.4337C45.4598 47.8022 46.2298 47.9839 46.8684 47.9839C47.7577 47.9631 48.5883 47.5981 49.3634 46.8852C49.8635 46.4508 50.5123 45.6688 51.3048 44.5389Z" fill="white"/>
<path d="M65.4966 26.72V22.19H66.6066C67.7666 22.19 68.7266 22.92 68.7266 24.46C68.7266 26 67.7566 26.72 66.5966 26.72H65.4966ZM66.6466 28C68.6666 28 70.1566 26.7 70.1566 24.46C70.1566 22.22 68.6766 20.91 66.6566 20.91H64.1166V28H66.6466ZM73.4923 26.94C72.8423 26.94 72.2423 26.46 72.2423 25.54C72.2423 24.61 72.8423 24.14 73.4923 24.14C74.1423 24.14 74.7423 24.61 74.7423 25.54C74.7423 26.47 74.1423 26.94 73.4923 26.94ZM73.4923 22.93C72.0223 22.93 70.9123 24.02 70.9123 25.54C70.9123 27.05 72.0223 28.15 73.4923 28.15C74.9623 28.15 76.0723 27.05 76.0723 25.54C76.0723 24.02 74.9623 22.93 73.4923 22.93ZM79.7852 23.08L78.7152 26.24L77.8052 23.08H76.4052L77.9752 28H79.3252L80.4552 24.64L81.6052 28H82.9352L84.4752 23.08H83.1552L82.2452 26.25L81.1852 23.08H79.7852ZM86.6357 25.17C86.6357 24.6 86.9757 24.15 87.5557 24.15C88.1957 24.15 88.4657 24.58 88.4657 25.13V28H89.7957V24.9C89.7957 23.82 89.2357 22.95 88.0157 22.95C87.4857 22.95 86.8957 23.18 86.5957 23.69V23.08H85.3057V28H86.6357V25.17ZM92.4755 28V20.76H91.1455V28H92.4755ZM96.1095 26.94C95.4595 26.94 94.8595 26.46 94.8595 25.54C94.8595 24.61 95.4595 24.14 96.1095 24.14C96.7595 24.14 97.3595 24.61 97.3595 25.54C97.3595 26.47 96.7595 26.94 96.1095 26.94ZM96.1095 22.93C94.6395 22.93 93.5295 24.02 93.5295 25.54C93.5295 27.05 94.6395 28.15 96.1095 28.15C97.5795 28.15 98.6895 27.05 98.6895 25.54C98.6895 24.02 97.5795 22.93 96.1095 22.93ZM99.4393 26.66C99.4393 27.43 100.079 28.14 101.129 28.14C101.859 28.14 102.329 27.8 102.579 27.41C102.579 27.6 102.599 27.87 102.629 28H103.849C103.819 27.83 103.789 27.48 103.789 27.22V24.8C103.789 23.81 103.209 22.93 101.649 22.93C100.329 22.93 99.6193 23.78 99.5393 24.55L100.719 24.8C100.759 24.37 101.079 24 101.659 24C102.219 24 102.489 24.29 102.489 24.64C102.489 24.81 102.399 24.95 102.119 24.99L100.909 25.17C100.089 25.29 99.4393 25.78 99.4393 26.66ZM101.409 27.15C100.979 27.15 100.769 26.87 100.769 26.58C100.769 26.2 101.039 26.01 101.379 25.96L102.489 25.79V26.01C102.489 26.88 101.969 27.15 101.409 27.15ZM109.8 20.76H108.49V23.57C108.35 23.31 107.95 22.96 107.1 22.96C105.71 22.96 104.74 24.09 104.74 25.53C104.74 27.02 105.74 28.12 107.14 28.12C107.8 28.12 108.3 27.82 108.52 27.43C108.52 27.66 108.55 27.9 108.57 28H109.84C109.82 27.8 109.8 27.44 109.8 27.11V20.76ZM106.08 25.53C106.08 24.65 106.62 24.15 107.3 24.15C107.98 24.15 108.51 24.64 108.51 25.52C108.51 26.41 107.98 26.93 107.3 26.93C106.6 26.93 106.08 26.41 106.08 25.53ZM115.924 26.94C115.274 26.94 114.674 26.46 114.674 25.54C114.674 24.61 115.274 24.14 115.924 24.14C116.574 24.14 117.174 24.61 117.174 25.54C117.174 26.47 116.574 26.94 115.924 26.94ZM115.924 22.93C114.454 22.93 113.344 24.02 113.344 25.54C113.344 27.05 114.454 28.15 115.924 28.15C117.394 28.15 118.504 27.05 118.504 25.54C118.504 24.02 117.394 22.93 115.924 22.93ZM120.884 25.17C120.884 24.6 121.224 24.15 121.804 24.15C122.444 24.15 122.714 24.58 122.714 25.13V28H124.044V24.9C124.044 23.82 123.484 22.95 122.264 22.95C121.734 22.95 121.144 23.18 120.844 23.69V23.08H119.554V28H120.884V25.17ZM129.504 21.61H128.304V22.3C128.304 22.74 128.064 23.08 127.544 23.08H127.294V24.26H128.184V26.55C128.184 27.5 128.784 28.07 129.744 28.07C130.134 28.07 130.374 28 130.494 27.95V26.85C130.424 26.87 130.244 26.89 130.084 26.89C129.704 26.89 129.504 26.75 129.504 26.32V24.26H130.494V23.08H129.504V21.61ZM132.71 25.11C132.74 24.57 133.07 24.15 133.63 24.15C134.27 24.15 134.54 24.58 134.54 25.13V28H135.87V24.9C135.87 23.82 135.29 22.95 134.04 22.95C133.57 22.95 133.03 23.11 132.71 23.49V20.76H131.38V28H132.71V25.11ZM138.19 24.98C138.22 24.53 138.6 24.01 139.29 24.01C140.05 24.01 140.37 24.49 140.39 24.98H138.19ZM140.52 26.26C140.36 26.7 140.02 27.01 139.4 27.01C138.74 27.01 138.19 26.54 138.16 25.89H141.68C141.68 25.87 141.7 25.67 141.7 25.48C141.7 23.9 140.79 22.93 139.27 22.93C138.01 22.93 136.85 23.95 136.85 25.52C136.85 27.18 138.04 28.15 139.39 28.15C140.6 28.15 141.38 27.44 141.63 26.59L140.52 26.26Z" fill="white"/>
<path d="M74.5466 48H77.5466L72.1466 33.82H68.9466L63.5066 48H66.4266L67.6066 44.76H73.3666L74.5466 48ZM70.4866 36.88L72.4466 42.24H68.5266L70.4866 36.88ZM81.7812 51.8V47.04C82.2612 47.7 83.2612 48.24 84.6212 48.24C87.4012 48.24 89.2612 46.04 89.2612 43.06C89.2612 40.14 87.6012 37.94 84.7212 37.94C83.2412 37.94 82.1412 38.6 81.7012 39.36V38.16H79.1212V51.8H81.7812ZM86.6412 43.08C86.6412 44.84 85.5612 45.86 84.2012 45.86C82.8412 45.86 81.7412 44.82 81.7412 43.08C81.7412 41.34 82.8412 40.32 84.2012 40.32C85.5612 40.32 86.6412 41.34 86.6412 43.08ZM94.0273 51.8V47.04C94.5073 47.7 95.5073 48.24 96.8673 48.24C99.6473 48.24 101.507 46.04 101.507 43.06C101.507 40.14 99.8473 37.94 96.9673 37.94C95.4873 37.94 94.3873 38.6 93.9473 39.36V38.16H91.3673V51.8H94.0273ZM98.8873 43.08C98.8873 44.84 97.8073 45.86 96.4473 45.86C95.0873 45.86 93.9873 44.82 93.9873 43.08C93.9873 41.34 95.0873 40.32 96.4473 40.32C97.8073 40.32 98.8873 41.34 98.8873 43.08ZM118.295 37.2C117.975 35.6 116.655 33.52 113.215 33.52C110.535 33.52 108.275 35.44 108.275 37.96C108.275 40.1 109.735 41.56 111.995 42.02L113.975 42.42C115.075 42.64 115.695 43.28 115.695 44.1C115.695 45.1 114.875 45.84 113.395 45.84C111.395 45.84 110.415 44.58 110.295 43.18L107.735 43.86C107.955 45.88 109.615 48.3 113.375 48.3C116.675 48.3 118.495 46.1 118.495 43.92C118.495 41.92 117.115 40.24 114.535 39.74L112.555 39.36C111.515 39.16 111.015 38.54 111.015 37.76C111.015 36.82 111.895 35.96 113.235 35.96C115.035 35.96 115.675 37.18 115.815 37.96L118.295 37.2ZM124.003 35.22H121.603V36.6C121.603 37.48 121.123 38.16 120.083 38.16H119.583V40.52H121.363V45.1C121.363 47 122.563 48.14 124.483 48.14C125.263 48.14 125.743 48 125.983 47.9V45.7C125.843 45.74 125.483 45.78 125.163 45.78C124.403 45.78 124.003 45.5 124.003 44.64V40.52H125.983V38.16H124.003V35.22ZM132.565 45.88C131.265 45.88 130.065 44.92 130.065 43.08C130.065 41.22 131.265 40.28 132.565 40.28C133.865 40.28 135.065 41.22 135.065 43.08C135.065 44.94 133.865 45.88 132.565 45.88ZM132.565 37.86C129.625 37.86 127.405 40.04 127.405 43.08C127.405 46.1 129.625 48.3 132.565 48.3C135.505 48.3 137.725 46.1 137.725 43.08C137.725 40.04 135.505 37.86 132.565 37.86ZM145.824 38.12C145.624 38.1 145.424 38.08 145.204 38.08C144.364 38.08 143.004 38.32 142.404 39.62V38.16H139.824V48H142.484V43.5C142.484 41.38 143.664 40.72 145.024 40.72C145.264 40.72 145.524 40.74 145.824 40.8V38.12ZM149.538 41.96C149.598 41.06 150.358 40.02 151.738 40.02C153.258 40.02 153.898 40.98 153.938 41.96H149.538ZM154.198 44.52C153.878 45.4 153.198 46.02 151.958 46.02C150.638 46.02 149.538 45.08 149.478 43.78H156.518C156.518 43.74 156.558 43.34 156.558 42.96C156.558 39.8 154.738 37.86 151.698 37.86C149.178 37.86 146.858 39.9 146.858 43.04C146.858 46.36 149.238 48.3 151.938 48.3C154.358 48.3 155.918 46.88 156.418 45.18L154.198 44.52Z" fill="white"/>
</svg>
