<svg width="187" height="68" viewBox="0 0 187 68" fill="none" xmlns="http://www.w3.org/2000/svg">
<rect width="187" height="68" rx="34" fill="#4F59DD"/>
<path d="M42.6101 28.4776L48.0927 31.5985C49 32.3997 49 32.8888 49 33.5209C49 34.1528 49 34.8674 48.0927 35.6034L42.6101 38.9338L37.8495 33.5209L42.6101 28.4776Z" fill="#F7CB45"/>
<path d="M23.9991 20.2269C24.1037 20.1258 24.221 20.0375 24.3512 19.9631C24.9007 19.6483 25.8162 19.4168 26.3692 19.7235L42.6101 28.4776L37.8495 33.5209L23.9991 20.2269Z" fill="#6DEB84"/>
<path fill-rule="evenodd" clip-rule="evenodd" d="M37.8495 33.5209L23.8226 48.0366L24.0456 48.1876C24.5951 48.5025 26.3971 48.4943 26.9501 48.1876L42.6101 38.9338L37.8495 33.5209Z" fill="#EB4D4D"/>
<path d="M37.8495 33.5209L23.8226 48.0366C23.2836 47.0986 23 46.0358 23 44.954V23.0583C23 22.0281 23.3526 21.0289 23.9991 20.2269L37.8495 33.5209Z" fill="#60D6FB"/>
<path d="M61.23 28V24.31H57.69V25.51H59.93C59.85 26.01 59.34 26.89 58.03 26.89C56.84 26.89 55.79 26.06 55.79 24.46C55.79 22.78 56.95 22.05 58.02 22.05C59.17 22.05 59.76 22.78 59.94 23.41L61.26 22.94C60.91 21.85 59.88 20.76 58.02 20.76C56.1 20.76 54.39 22.17 54.39 24.46C54.39 26.75 56.02 28.15 57.93 28.15C59 28.15 59.7 27.67 60.02 27.19L60.11 28H61.23ZM67.0625 28V26.7H64.0025V25.06H66.7725V23.83H64.0025V22.21H67.0625V20.91H62.6225V28H67.0625ZM73.78 22.22V20.91H67.91V22.22H70.15V28H71.54V22.22H73.78ZM78.6221 28V20.91H77.2221V28H78.6221ZM85.4597 22.22V20.91H79.5897V22.22H81.8297V28H83.2197V22.22H85.4597ZM89.9118 24.45C89.9118 22.85 91.0318 22.09 92.1218 22.09C93.2218 22.09 94.3418 22.85 94.3418 24.45C94.3418 26.05 93.2218 26.81 92.1218 26.81C91.0318 26.81 89.9118 26.05 89.9118 24.45ZM88.4818 24.46C88.4818 26.74 90.2018 28.15 92.1218 28.15C94.0518 28.15 95.7718 26.74 95.7718 24.46C95.7718 22.17 94.0518 20.76 92.1218 20.76C90.2018 20.76 88.4818 22.17 88.4818 24.46ZM103.018 28V20.91H101.638V25.6L98.6882 20.91H96.9682V28H98.3482V22.97L101.568 28H103.018Z" fill="white"/>
<path d="M68.46 48V40.62H61.38V43.02H65.86C65.7 44.02 64.68 45.78 62.06 45.78C59.68 45.78 57.58 44.12 57.58 40.92C57.58 37.56 59.9 36.1 62.04 36.1C64.34 36.1 65.52 37.56 65.88 38.82L68.52 37.88C67.82 35.7 65.76 33.52 62.04 33.52C58.2 33.52 54.78 36.34 54.78 40.92C54.78 45.5 58.04 48.3 61.86 48.3C64 48.3 65.4 47.34 66.04 46.38L66.22 48H68.46ZM75.465 45.88C74.165 45.88 72.965 44.92 72.965 43.08C72.965 41.22 74.165 40.28 75.465 40.28C76.765 40.28 77.965 41.22 77.965 43.08C77.965 44.94 76.765 45.88 75.465 45.88ZM75.465 37.86C72.525 37.86 70.305 40.04 70.305 43.08C70.305 46.1 72.525 48.3 75.465 48.3C78.405 48.3 80.625 46.1 80.625 43.08C80.625 40.04 78.405 37.86 75.465 37.86ZM87.1447 45.88C85.8447 45.88 84.6447 44.92 84.6447 43.08C84.6447 41.22 85.8447 40.28 87.1447 40.28C88.4447 40.28 89.6447 41.22 89.6447 43.08C89.6447 44.94 88.4447 45.88 87.1447 45.88ZM87.1447 37.86C84.2047 37.86 81.9847 40.04 81.9847 43.08C81.9847 46.1 84.2047 48.3 87.1447 48.3C90.0847 48.3 92.3047 46.1 92.3047 43.08C92.3047 40.04 90.0847 37.86 87.1447 37.86ZM93.7044 48.54C93.9844 50.42 95.7844 52.1 98.4844 52.1C102.184 52.1 103.644 49.64 103.644 46.94V38.16H101.084V39.32C100.744 38.66 99.8444 37.98 98.2844 37.98C95.5844 37.98 93.7044 40.18 93.7044 42.78C93.7044 45.54 95.6644 47.56 98.2844 47.56C99.7044 47.56 100.624 46.94 101.024 46.3V47.02C101.024 48.92 100.084 49.76 98.4044 49.76C97.1444 49.76 96.2844 48.98 96.1044 47.9L93.7044 48.54ZM98.7444 45.28C97.3644 45.28 96.3844 44.32 96.3844 42.78C96.3844 41.26 97.4244 40.3 98.7444 40.3C100.024 40.3 101.064 41.26 101.064 42.78C101.064 44.3 100.104 45.28 98.7444 45.28ZM108.998 48V33.52H106.338V48H108.998ZM113.786 41.96C113.846 41.06 114.606 40.02 115.986 40.02C117.506 40.02 118.146 40.98 118.186 41.96H113.786ZM118.446 44.52C118.126 45.4 117.446 46.02 116.206 46.02C114.886 46.02 113.786 45.08 113.726 43.78H120.766C120.766 43.74 120.806 43.34 120.806 42.96C120.806 39.8 118.986 37.86 115.946 37.86C113.426 37.86 111.106 39.9 111.106 43.04C111.106 46.36 113.486 48.3 116.186 48.3C118.606 48.3 120.166 46.88 120.666 45.18L118.446 44.52ZM130.822 40.28V36.22H133.002C134.382 36.22 135.222 37 135.222 38.26C135.222 39.48 134.382 40.28 133.002 40.28H130.822ZM133.342 42.66C136.142 42.66 138.002 40.82 138.002 38.24C138.002 35.68 136.142 33.82 133.342 33.82H128.042V48H130.802V42.66H133.342ZM142.494 48V33.52H139.834V48H142.494ZM144.683 45.32C144.683 46.86 145.963 48.28 148.063 48.28C149.523 48.28 150.463 47.6 150.963 46.82C150.963 47.2 151.003 47.74 151.063 48H153.503C153.443 47.66 153.383 46.96 153.383 46.44V41.6C153.383 39.62 152.223 37.86 149.103 37.86C146.463 37.86 145.043 39.56 144.883 41.1L147.243 41.6C147.323 40.74 147.963 40 149.123 40C150.243 40 150.783 40.58 150.783 41.28C150.783 41.62 150.603 41.9 150.043 41.98L147.623 42.34C145.983 42.58 144.683 43.56 144.683 45.32ZM148.623 46.3C147.763 46.3 147.343 45.74 147.343 45.16C147.343 44.4 147.883 44.02 148.563 43.92L150.783 43.58V44.02C150.783 45.76 149.743 46.3 148.623 46.3ZM159.211 51.88L165.391 38.16H162.551L160.131 43.92L157.511 38.16H154.531L158.711 46.76L156.391 51.88H159.211Z" fill="white"/>
</svg>
