<svg width="19" height="15" viewBox="0 0 19 15" fill="none" xmlns="http://www.w3.org/2000/svg">
<g clip-path="url(#clip0_4436_23179)">
<path fill-rule="evenodd" clip-rule="evenodd" d="M0.333984 0.5H26.934V1.57736H0.333984V0.5ZM0.333984 2.65469H26.934V3.73205H0.333984V2.65469ZM0.333984 4.80663H26.934V5.8867H0.333984V4.80663ZM0.333984 6.96132H26.934V8.03868H0.333984V6.96132ZM0.333984 9.11601H26.934V10.1934H0.333984V9.11601ZM0.333984 11.268H26.934V12.3453H0.333984V11.268ZM0.333984 13.4226H26.934V14.5H0.333984V13.4226Z" fill="#BD3D44"/>
<path fill-rule="evenodd" clip-rule="evenodd" d="M0.333984 1.57715H26.934V2.65448H0.333984V1.57715ZM0.333984 3.73181H26.934V4.80642H0.333984V3.73181ZM0.333984 5.88378H26.934V6.96111H0.333984V5.88378ZM0.333984 8.03847H26.934V9.1158H0.333984V8.03847ZM0.333984 10.1932H26.934V11.2705H0.333984V10.1932ZM0.333984 12.3451H26.934V13.4225H0.333984V12.3451Z" fill="white"/>
<path fill-rule="evenodd" clip-rule="evenodd" d="M0.333984 0.5H10.9734V8.03868H0.333984V0.5Z" fill="#192F5D"/>
<path fill-rule="evenodd" clip-rule="evenodd" d="M1.22069 0.822754L1.31913 1.12075H1.63086L1.37927 1.30397L1.47499 1.60474L1.22069 1.4188L0.969126 1.602L1.06482 1.30397L0.810547 1.12075H1.12773L1.22069 0.822754ZM2.99531 0.822754L3.091 1.12075H3.40545L3.15114 1.30397L3.24687 1.60474L2.99531 1.4188L2.741 1.602L2.8367 1.30397L2.58513 1.12075H2.89687L2.99531 0.822754ZM4.76718 0.822754L4.86562 1.12078H5.17461L4.92305 1.304L5.01871 1.60477L4.76444 1.41883L4.51288 1.60203L4.60857 1.304L4.35427 1.12078H4.66874L4.76718 0.822754ZM6.5418 0.822754L6.63746 1.12078H6.95194L6.69763 1.304L6.79607 1.60477L6.54177 1.41883L6.28749 1.60203L6.38593 1.304L6.13163 1.12078H6.44336L6.5418 0.822754ZM8.31367 0.822754L8.41211 1.12078H8.72381L8.47225 1.304L8.56795 1.60477L8.31364 1.41883L8.06208 1.60203L8.1578 1.304L7.90624 1.12078H8.21795L8.31367 0.822754ZM10.0883 0.822754L10.184 1.12078H10.4984L10.2441 1.304L10.3426 1.60477L10.0883 1.41883L9.83395 1.60203L9.93239 1.304L9.67812 1.12078H9.99256L10.0883 0.822754ZM2.10937 1.57738L2.20506 1.87547H2.51951L2.2652 2.05863L2.35819 2.35672L2.11208 2.17349L1.85781 2.35669L1.94802 2.05866L1.70194 1.87544H2.01367L2.10937 1.57738ZM3.88124 1.57738L3.97968 1.87547H4.29138L4.03708 2.05863L4.13555 2.35672L3.88121 2.17349L3.62694 2.35669L3.72538 2.05866L3.47107 1.87544H3.78552L3.88124 1.57738ZM5.65586 1.57738L5.75153 1.87547H6.066L5.8117 2.05863L5.90739 2.35672L5.65583 2.17349L5.40155 2.35669L5.49725 2.05869L5.24569 1.87547H5.55742L5.65586 1.57738ZM7.42773 1.57738L7.52617 1.87547H7.83787L7.58357 2.05863L7.68201 2.35672L7.4277 2.17349L7.17614 2.35669L7.27187 2.05866L7.01756 1.87544H7.33475L7.42773 1.57738ZM9.20232 1.57738L9.29802 1.87547H9.61249L9.35819 2.05863L9.45388 2.35672L9.20232 2.17349L8.94802 2.35669L9.04374 2.05866L8.79218 1.87544H9.10388L9.20232 1.57738ZM1.22069 2.32942L1.31913 2.63292H1.63086L1.37927 2.81612L1.47499 3.11417L1.22069 2.92824L0.969126 3.11417L1.06482 2.81338L0.810547 2.63021H1.12773L1.22069 2.32942ZM2.99531 2.32942L3.091 2.63012H3.40545L3.15114 2.81332L3.24687 3.1114L2.99531 2.92544L2.741 3.11137L2.8367 2.81061L2.58513 2.62741H2.89687L2.99531 2.32942ZM4.76718 2.32942L4.86562 2.63018H5.17461L4.92305 2.81338L5.01871 3.11146L4.76444 2.9255L4.51288 3.11143L4.60857 2.81067L4.35427 2.62747H4.66874L4.76718 2.32942ZM6.5418 2.32942L6.63746 2.63018H6.95194L6.69763 2.81338L6.79607 3.11146L6.54177 2.9255L6.28749 3.11143L6.38593 2.81067L6.13163 2.62747H6.44336L6.5418 2.32942ZM8.31367 2.32942L8.41211 2.63018H8.72381L8.47225 2.81335L8.56795 3.11143L8.31364 2.92547L8.06208 3.1114L8.1578 2.81064L7.90624 2.62744H8.21795L8.31367 2.32942ZM10.0883 2.32942L10.184 2.63018H10.4984L10.2441 2.81338L10.3426 3.11146L10.0883 2.9255L9.83395 3.11143L9.93239 2.81067L9.67812 2.62747H9.99256L10.0883 2.32942ZM2.10937 3.08407L2.20506 3.38213H2.51951L2.2652 3.5653L2.36093 3.86609L2.10937 3.68015L1.85506 3.86335L1.95076 3.56533L1.6992 3.38213H2.01096L2.10937 3.08407ZM3.88124 3.08407L3.97968 3.38213H4.29138L4.03708 3.5653L4.13555 3.86609L3.88121 3.68015L3.62694 3.86335L3.72538 3.56533L3.47107 3.38213H3.78552L3.88124 3.08407ZM5.65586 3.08407L5.75153 3.38213H6.066L5.8117 3.5653L5.90739 3.86609L5.65583 3.68015L5.40155 3.86335L5.49725 3.56533L5.24569 3.38213H5.55742L5.65586 3.08407ZM7.42773 3.08407L7.52617 3.38213H7.83787L7.58631 3.5653L7.68201 3.86609L7.4277 3.68015L7.17614 3.86335L7.27187 3.56533L7.01756 3.38213H7.33475L7.42773 3.08407ZM9.20232 3.08407L9.29802 3.38213H9.61249L9.35819 3.5653L9.45388 3.86609L9.20232 3.68015L8.94802 3.86335L9.04374 3.56533L8.79218 3.38213H9.10388L9.20232 3.08407ZM1.22069 3.83876L1.31913 4.13682H1.63086L1.37927 4.31998L1.47499 4.62078L1.22069 4.43484L0.969126 4.61804L1.06482 4.32001L0.810547 4.13682H1.12773L1.22069 3.83876ZM2.99531 3.83876L3.091 4.13682H3.40545L3.15114 4.31998L3.24687 4.61807L2.99531 4.43484L2.741 4.61804L2.8367 4.32001L2.58513 4.13682H2.89687L2.99531 3.83876ZM4.76718 3.83876L4.86562 4.13682H5.17461L4.92305 4.31998L5.01871 4.62078L4.76444 4.43484L4.51288 4.61804L4.60857 4.32001L4.35427 4.13682H4.66874L4.76718 3.83876ZM6.5418 3.83876L6.63746 4.13682H6.95194L6.69763 4.31998L6.79607 4.62078L6.54177 4.43484L6.28749 4.61804L6.38593 4.32001L6.13163 4.13682H6.44336L6.5418 3.83876ZM8.31367 3.83876L8.41211 4.13682H8.72381L8.47225 4.31998L8.56795 4.62078L8.31364 4.43484L8.06208 4.61804L8.1578 4.32001L7.90624 4.13682H8.21795L8.31367 3.83876ZM10.0883 3.83876L10.184 4.13682H10.4984L10.2441 4.31998L10.3426 4.62078L10.0883 4.43484L9.83395 4.61804L9.93239 4.32001L9.67812 4.13682H9.99256L10.0883 3.83876ZM2.10937 4.59345L2.20506 4.8915H2.51951L2.2652 5.07467L2.36093 5.37275L2.10937 5.18682L1.85506 5.37275L1.95076 5.07196L1.6992 4.88876H2.01096L2.10937 4.59345ZM3.88124 4.59345L3.97968 4.8915H4.29138L4.03708 5.07467L4.13555 5.37275L3.88121 5.18682L3.62694 5.37275L3.72538 5.07196L3.47107 4.88876H3.78552L3.88124 4.59345ZM5.65586 4.59345L5.75153 4.8915H6.066L5.8117 5.07467L5.90739 5.37275L5.65583 5.18682L5.40155 5.37275L5.49725 5.07196L5.24569 4.88876H5.55742L5.65586 4.59345ZM7.42773 4.59345L7.52617 4.8915H7.83787L7.58631 5.07467L7.68201 5.37275L7.4277 5.18682L7.17614 5.37275L7.27187 5.07196L7.01756 4.88876H7.33475L7.42773 4.59345ZM9.20232 4.59345L9.29802 4.8915H9.61249L9.35819 5.07467L9.45388 5.37275L9.20232 5.18682L8.94802 5.37275L9.04374 5.07196L8.79218 4.88876H9.10388L9.20232 4.59345ZM1.22069 5.3454L1.31913 5.64619H1.63086L1.37927 5.82936L1.47499 6.1247L1.22069 5.9415L0.969126 6.12467L1.06482 5.82665L0.810547 5.64345H1.12773L1.22069 5.3454ZM2.99531 5.3454L3.091 5.64619H3.40545L3.15114 5.82936L3.24961 6.1247L2.99528 5.9415L2.741 6.12467L2.83944 5.82665L2.58513 5.64345H2.89687L2.99531 5.3454ZM4.76718 5.3454L4.86562 5.64619H5.17461L4.92305 5.82936L5.01871 6.1247L4.76444 5.9415L4.51288 6.12467L4.60857 5.82665L4.35427 5.64345H4.66874L4.76718 5.3454ZM6.5418 5.3454L6.63746 5.64619H6.95194L6.69763 5.82936L6.79607 6.1247L6.54177 5.9415L6.28749 6.12467L6.38593 5.82665L6.13163 5.64345H6.44336L6.5418 5.3454ZM8.31367 5.3454L8.41211 5.64619H8.72381L8.47225 5.82936L8.56795 6.1247L8.31364 5.9415L8.06208 6.12467L8.1578 5.82665L7.90624 5.64345H8.21795L8.31367 5.3454ZM10.0883 5.3454L10.184 5.64619H10.4984L10.2441 5.82936L10.3426 6.1247L10.0883 5.9415L9.83395 6.12467L9.93239 5.82665L9.67812 5.64345H9.99256L10.0883 5.3454ZM2.10937 6.10008L2.20506 6.39814H2.51951L2.2652 6.58133L2.36093 6.88213L2.10937 6.69619L1.85506 6.87936L1.95076 6.58133L1.6992 6.39814H2.01096L2.10937 6.10008ZM3.88124 6.10008L3.97968 6.39814H4.29138L4.03708 6.58133L4.13555 6.88213L3.88121 6.69619L3.62694 6.87936L3.72538 6.58133L3.47107 6.39814H3.78552L3.88124 6.10008ZM5.65586 6.10008L5.75153 6.39814H6.066L5.8117 6.58133L5.90739 6.88213L5.65583 6.69619L5.40155 6.87936L5.49725 6.58133L5.24569 6.39814H5.55742L5.65586 6.10008ZM7.42773 6.10008L7.52617 6.39814H7.83787L7.58631 6.58133L7.68201 6.88213L7.4277 6.69619L7.17614 6.87936L7.27187 6.58133L7.01756 6.39814H7.33475L7.42773 6.10008ZM9.20232 6.10008L9.29802 6.39814H9.61249L9.35819 6.58133L9.45388 6.88213L9.20232 6.69619L8.94802 6.87936L9.04374 6.58133L8.79218 6.39814H9.10388L9.20232 6.10008ZM1.22069 6.85477L1.31913 7.15282H1.63086L1.37927 7.33602L1.47499 7.63407L1.22069 7.45088L0.969126 7.63405L1.06482 7.33328L0.810547 7.15008H1.12773L1.22069 6.85477ZM2.99531 6.85477L3.091 7.15282H3.40545L3.15114 7.33602L3.24961 7.63407L2.99528 7.45088L2.741 7.63405L2.83944 7.33328L2.58513 7.15008H2.89687L2.99531 6.85477ZM4.76718 6.85477L4.86562 7.15282H5.17461L4.9285 7.33602L5.0242 7.63407L4.76989 7.45088L4.51833 7.63405L4.61405 7.33328L4.35975 7.15008H4.6742L4.76718 6.85477ZM6.5418 6.85477L6.63746 7.15282H6.95194L6.69763 7.33602L6.79607 7.63407L6.54177 7.45088L6.28749 7.63405L6.38593 7.33328L6.13163 7.15008H6.44336L6.5418 6.85477ZM8.31367 6.85477L8.41211 7.15282H8.72381L8.47225 7.33602L8.56795 7.63407L8.31364 7.45088L8.06208 7.63405L8.1578 7.33328L7.90624 7.15008H8.21795L8.31367 6.85477ZM10.0883 6.85477L10.184 7.15282H10.4984L10.2441 7.33602L10.3426 7.63407L10.0883 7.45088L9.83395 7.63405L9.93239 7.33328L9.67812 7.15008H9.99256L10.0883 6.85477Z" fill="white"/>
</g>
<defs>
<clipPath id="clip0_4436_23179">
<rect width="18.6667" height="14" fill="white" transform="translate(0.333984 0.5)"/>
</clipPath>
</defs>
</svg>
