<svg width="87" height="24" viewBox="0 0 87 24" fill="none" xmlns="http://www.w3.org/2000/svg">
<g clip-path="url(#clip0_4182_22890)">
<path d="M8.53947 2.66205H10.4395C11.5965 2.4916 12.7782 2.64146 13.8561 3.09538C15.2084 3.90897 16.1892 5.21876 16.5894 6.74534C16.8727 7.54534 16.8727 7.54534 17.556 7.26201H18.0894V0.928739H0.206229V2.04539H0.939555C1.25823 2.04319 1.57334 2.1124 1.86176 2.24796C2.15017 2.38351 2.40455 2.58196 2.6062 2.82872C3.28953 3.92871 3.4062 5.16203 3.4062 11.5786C3.4062 18.3952 3.2562 20.0619 2.6062 20.9119C2.44574 21.1304 2.23798 21.3098 1.99845 21.4368C1.75892 21.5638 1.4938 21.635 1.22288 21.6452C0.206229 21.8285 0.206229 21.8119 0.206229 22.2618C0.150007 22.4123 0.150007 22.578 0.206229 22.7285H11.4894C11.5641 22.5813 11.603 22.4186 11.603 22.2535C11.603 22.0885 11.5641 21.9257 11.4894 21.7785C11.2162 21.7025 10.9376 21.6468 10.6561 21.6119C10.3516 21.5756 10.0506 21.5143 9.75613 21.4285C9.33449 21.1207 9.00048 20.7082 8.7871 20.2317C8.57373 19.7553 8.48837 19.2314 8.53947 18.7119C8.37281 17.6119 8.28948 15.5953 8.28948 13.9286V12.6119H8.95614C9.78672 12.5865 10.6168 12.6763 11.4228 12.8786C11.8089 13.1172 12.1376 13.4381 12.3853 13.8184C12.6331 14.1987 12.7938 14.629 12.8561 15.0786L13.0061 15.5953H14.0227V8.212H13.0894L12.9394 8.92865C12.8763 9.38843 12.7062 9.82698 12.4428 10.2091C12.1794 10.5912 11.83 10.9061 11.4228 11.1286C11.0284 11.246 10.6128 11.2745 10.2061 11.212H8.28948V9.41198C8.28948 7.54534 8.38948 3.61204 8.45614 2.99538L8.53947 2.66205ZM86.5387 15.8786C85.7509 14.6106 84.5221 13.6787 83.0887 13.2619C81.9898 12.9184 80.974 12.351 80.1054 11.5953C79.9099 11.4062 79.7637 11.1722 79.6795 10.9137C79.5952 10.6551 79.5755 10.3799 79.6221 10.112C79.6233 9.58646 79.8331 9.08294 80.2054 8.71199C80.4577 8.44776 80.777 8.25702 81.1292 8.16015C81.4815 8.06328 81.8534 8.06392 82.2054 8.162C82.934 8.36964 83.5928 8.7705 84.1122 9.32211C84.6315 9.87371 84.9919 10.5555 85.1553 11.2953C85.422 12.0453 85.4553 12.0453 85.9387 11.8453L86.2387 11.7286V7.57867L86.022 7.47867C84.3812 6.90239 82.6407 6.66428 80.9054 6.77868C79.411 6.81654 77.9846 7.41089 76.9054 8.44533C76.416 8.90347 76.0326 9.46306 75.7822 10.0849C75.5317 10.7067 75.4202 11.3758 75.4554 12.0453C75.4648 13.0688 75.8711 14.0487 76.5888 14.7786C77.3818 15.5586 78.355 16.131 79.4221 16.4452C82.0054 17.4619 82.7554 18.1119 82.7554 19.2952C82.7664 19.7942 82.6075 20.2822 82.3046 20.6789C82.0018 21.0757 81.573 21.3576 81.0887 21.4785C80.5068 21.6064 79.904 21.6064 79.3221 21.4785C78.5601 21.1828 77.8798 20.7094 77.3377 20.0978C76.7956 19.4861 76.4074 18.7538 76.2054 17.9619L75.9888 17.4286H75.6888C75.5454 17.4392 75.4047 17.473 75.2721 17.5286H75.1054V22.2618H75.3888C76.5147 22.6364 77.6765 22.8933 78.8554 23.0285H80.522C81.2448 23.0815 81.9714 23.014 82.672 22.8285C83.5615 22.6644 84.3925 22.2703 85.0825 21.6856C85.7725 21.1008 86.2975 20.3457 86.6053 19.4952C86.8042 19.0202 86.9062 18.5102 86.9053 17.9952C86.971 17.2697 86.8445 16.5397 86.5387 15.8786ZM70.8388 7.26201C69.8401 6.84269 68.764 6.63929 67.6811 6.66514C66.5983 6.69099 65.5331 6.94551 64.5555 7.412C63.6367 7.86147 62.8222 8.49862 62.1648 9.28233C61.5074 10.066 61.0217 10.9789 60.7389 11.962C60.3784 13.0344 60.2257 14.1657 60.2889 15.2953C60.277 15.9099 60.3272 16.5241 60.4389 17.1286C60.7081 18.6149 61.4256 19.9833 62.4952 21.0498C63.5648 22.1164 64.9351 22.8302 66.4222 23.0952C67.3906 23.2172 68.3704 23.2172 69.3388 23.0952C70.3437 22.9181 71.3054 22.5503 72.1721 22.0118C72.889 21.6099 73.4958 21.0375 73.9388 20.3452C73.9104 20.2366 73.8603 20.1348 73.7915 20.046C73.7228 19.9572 73.6368 19.8833 73.5388 19.8285C73.3486 19.8974 73.169 19.9928 73.0055 20.1119C72.1765 20.6582 71.1976 20.9321 70.2055 20.8952C69.547 20.9397 68.8868 20.8372 68.2728 20.595C67.6588 20.3529 67.1064 19.9772 66.6555 19.4952C66.3068 19.1713 66.0189 18.7874 65.8055 18.3619C65.2876 17.3258 65.0086 16.1868 64.9889 15.0286V14.3786H74.2221V14.0453C74.2425 13.7122 74.2425 13.3783 74.2221 13.0453C74.2188 11.8685 73.904 10.7135 73.3098 9.69772C72.7156 8.68195 71.863 7.84159 70.8388 7.26201ZM66.1889 13.0286H65.0222V12.0453C65.4055 9.52865 66.3555 8.02866 67.5222 8.02866C68.6888 8.02866 69.1888 9.51198 69.4055 12.2286V12.9953H68.4055L66.1889 13.0286ZM42.2225 6.71201C41.6466 6.68968 41.0741 6.8099 40.5558 7.06201C39.4294 7.60905 38.5195 8.51888 37.9725 9.64531L37.7558 10.0453V6.71201H37.6725C37.4725 6.71201 31.3059 7.94533 31.1059 8.02866C30.9059 8.112 30.9726 8.12866 30.9726 8.42866C30.9726 8.72866 30.9726 8.77866 31.1059 8.79532L31.7559 8.92865C31.9379 8.93312 32.1166 8.97896 32.2783 9.0627C32.44 9.14644 32.5805 9.26588 32.6892 9.41198C33.1059 9.96198 33.1892 10.9286 33.1892 15.0453C33.2715 16.8985 33.1935 18.7554 32.9559 20.5952C32.9 20.8726 32.7593 21.1258 32.5533 21.3199C32.3473 21.5139 32.0862 21.6392 31.8059 21.6785L31.2392 21.7952H31.0226V22.2618C30.9621 22.4173 30.9621 22.5897 31.0226 22.7452H40.3391V22.2618C40.3715 22.1024 40.3715 21.938 40.3391 21.7785C39.7782 21.7567 39.2204 21.6841 38.6725 21.5619C38.3741 21.4058 38.13 21.163 37.9724 20.8655C37.8147 20.568 37.7508 20.2297 37.7892 19.8952C37.6558 18.9285 37.5892 16.0952 37.6225 13.9286C37.6558 11.762 37.6225 11.6286 37.8058 11.4786C38.3635 11.051 39.0537 10.8328 39.7558 10.862C40.4177 10.8764 41.0675 11.0417 41.6558 11.3453C41.8597 11.4585 42.0785 11.5427 42.3058 11.5953C42.3058 11.5953 43.9724 7.562 43.9724 7.37867C43.7592 7.13083 43.4874 6.94008 43.1819 6.82368C42.8763 6.70728 42.5466 6.6689 42.2225 6.71201ZM30.9892 13.7119C30.9311 12.521 30.5891 11.3611 29.9919 10.3291C29.3947 9.29699 28.5595 8.42258 27.5559 7.77867C26.3633 7.13525 25.0364 6.78049 23.6817 6.74286C22.3271 6.70523 20.9826 6.98579 19.756 7.562C18.0219 8.47646 16.7125 10.0309 16.1061 11.8953C15.4797 13.9826 15.4797 16.2079 16.1061 18.2952C16.4344 19.436 17.0482 20.4742 17.8894 21.3119C18.937 22.3341 20.2879 22.9891 21.7393 23.1785C22.671 23.2564 23.6076 23.2564 24.5393 23.1785C24.8822 23.1263 25.2216 23.054 25.556 22.9618C26.9126 22.5824 28.133 21.8244 29.0746 20.7766C30.0161 19.7288 30.6398 18.4345 30.8726 17.0452C31.039 15.9423 31.0781 14.8238 30.9892 13.7119ZM24.056 22.0452C22.3893 22.5452 21.1393 20.9285 20.7227 17.5286C20.5697 15.7485 20.5697 13.9587 20.7227 12.1786C21.056 9.44532 21.906 8.062 23.2227 8.062C23.4883 8.04553 23.754 8.09293 23.9976 8.20021C24.2411 8.3075 24.4555 8.47156 24.6226 8.67866C25.7393 9.79531 26.2893 12.012 26.2893 15.3453C26.428 17.2317 26.1315 19.1248 25.4226 20.8785C25.1096 21.39 24.6254 21.7739 24.056 21.9618V22.0452ZM54.0557 7.04534C53.5854 6.98483 53.1093 6.98483 52.639 7.04534C51.7363 7.04457 50.8439 7.23782 50.0224 7.612L49.5057 7.82867V4.21204C49.596 2.9915 49.596 1.76595 49.5057 0.54541C49.3057 0.54541 42.9391 1.76206 42.8391 1.81206C42.79 1.93511 42.79 2.07234 42.8391 2.19539C42.8391 2.54539 42.8391 2.52872 43.5891 2.69539C43.7997 2.74261 44.0019 2.82127 44.1891 2.92872C44.5144 3.23465 44.731 3.63844 44.8058 4.07871C44.9955 5.34706 45.0569 6.63132 44.9891 7.912V22.5452L45.4391 22.6452C46.1057 22.7952 47.9891 23.1118 48.6057 23.1785C49.8371 23.2764 51.0743 23.2764 52.3057 23.1785C53.6725 23.0389 54.9752 22.529 56.0736 21.7037C57.172 20.8785 58.0244 19.7691 58.5389 18.4952C58.8457 17.6776 59.0582 16.8277 59.1723 15.9619C59.2715 14.7892 59.2323 13.6089 59.0556 12.4453C58.8768 11.141 58.3011 9.92326 57.4067 8.95728C56.5123 7.99129 55.3424 7.3238 54.0557 7.04534ZM49.689 21.7619C49.689 21.5452 49.5224 14.2453 49.5557 11.3286V9.04532L50.039 8.92865C50.3651 8.88193 50.6963 8.88193 51.0224 8.92865C51.383 8.89198 51.7458 8.9739 52.0557 9.16199C52.6781 9.59154 53.1949 10.1567 53.5673 10.8149C53.9398 11.4731 54.158 12.2072 54.2057 12.9619C54.3271 14.1756 54.3271 15.3983 54.2057 16.6119C54.1059 18.3758 53.4263 20.0574 52.2723 21.3952C51.9448 21.7063 51.5335 21.9148 51.089 21.9952C50.7527 22.0537 50.4087 22.0537 50.0724 21.9952C49.7557 21.9952 49.7557 21.8952 49.7557 21.7619H49.689Z" fill="#33629A" style="mix-blend-mode:luminosity"/>
</g>
<defs>
<clipPath id="clip0_4182_22890">
<rect width="86.7324" height="22.7164" fill="white" transform="translate(0.189453 0.545166)"/>
</clipPath>
</defs>
</svg>
