<svg width="168" height="24" viewBox="0 0 168 24" fill="none" xmlns="http://www.w3.org/2000/svg">
<path d="M0.484375 0.478516V8.09897H8.09426V23.3284H15.7147V8.09897H23.3246V0.478516H0.484375ZM30.9451 15.7079V8.09801H23.3236V23.3274H46.1744V15.7069L30.9451 15.7079ZM30.9451 0.478516H46.1744V8.09897H30.9451V0.478516Z" fill="#0A9600" style="mix-blend-mode:luminosity"/>
<path d="M63.1726 8.49435V18.8785H59.3617V8.49435H55.5195V5.17143H67.0147V8.49435H63.1726ZM75.9035 14.7664H69.8288C69.8238 14.9926 69.8662 15.2174 69.9534 15.4262C70.0405 15.6351 70.1705 15.8233 70.3348 15.9789C70.4992 16.1344 70.6943 16.2538 70.9076 16.3294C71.121 16.4049 71.3477 16.4349 71.5734 16.4174C72.5112 16.4124 73.4313 16.1618 74.2421 15.6905L75.6232 17.975C74.3739 18.7442 72.9366 19.1538 71.4695 19.1588C68.3543 19.1588 66.6617 16.9574 66.6617 13.8006C66.6617 10.2493 68.6658 8.42166 71.3657 8.42166C74.0655 8.42166 75.9555 10.2908 75.9555 14.1122C75.9139 14.3614 75.9139 14.5794 75.9035 14.756V14.7664ZM71.2307 10.9969C70.4207 10.9969 69.9846 11.5473 69.86 12.5753H72.7987C72.6222 11.5369 72.2795 10.9969 71.2411 10.9969H71.2307ZM82.4663 19.1277C79.4549 19.1277 77.6481 17.2066 77.6481 13.7279C77.6481 10.6127 79.2472 8.39051 82.5494 8.39051C83.3614 8.36362 84.1644 8.56798 84.8649 8.97978C85.5653 9.39158 86.1343 9.99388 86.5057 10.7165L84.0758 12.5857C83.5878 11.6927 83.2451 11.2565 82.4871 11.2565C81.729 11.2565 81.1371 12.1599 81.1371 13.7902C81.1371 15.4206 81.6252 16.2617 82.5909 16.2617C83.2555 16.2617 83.7332 15.8878 84.377 14.9117L86.6095 16.6563C85.405 18.4216 84.2939 19.1173 82.4559 19.1173L82.4663 19.1277ZM94.5119 18.92V13.0737C94.5119 11.7238 94.0653 11.3811 93.3385 11.3811C92.6116 11.3811 92.1339 11.7342 92.1339 13.0426V18.9304H88.6033V6.05409L92.1339 4.64185V9.31469C92.8648 8.71539 93.7849 8.39522 94.7299 8.41128C96.9833 8.41128 98.0528 9.92736 98.0528 12.6272V18.9304L94.5119 18.92Z" fill="#0A9600" style="mix-blend-mode:luminosity"/>
<path d="M106.359 19.1484C102.278 19.1484 100.129 16.1371 100.129 12.0665C100.129 7.65324 102.725 4.98452 106.359 4.98452C109.734 4.98452 111.063 6.4383 112.008 9.03432L108.561 10.3843C108.062 9.10701 107.595 8.30743 106.339 8.30743C104.75 8.30743 104.054 9.8962 104.054 12.0769C104.054 14.2575 104.719 15.8359 106.37 15.8359C107.564 15.8359 108.073 15.1921 108.82 13.8941L112.039 15.6075C111.563 16.7065 110.763 17.6347 109.747 18.2689C108.731 18.9032 107.546 19.2135 106.349 19.1588L106.359 19.1484ZM120.752 12.5026C120.557 12.2488 120.309 12.0403 120.026 11.8915C119.743 11.7427 119.431 11.6572 119.111 11.6407C118.249 11.6407 117.72 12.0561 117.72 13.3022V18.9096H114.189V8.62934H117.72V9.377C118.207 8.86239 118.856 8.52944 119.558 8.43316C120.26 8.33687 120.974 8.483 121.582 8.84741L120.752 12.5026ZM129.163 18.92V18.2346C128.441 18.8358 127.527 19.1565 126.588 19.1381C124.334 19.1381 123.265 17.622 123.265 14.9117V8.65011H126.795V14.4652C126.795 15.7944 127.252 16.1474 127.979 16.1474C128.706 16.1474 129.152 15.7944 129.152 14.5067V8.65011H132.704V18.9511L129.163 18.92ZM141.167 18.92V13.0737C141.167 11.7238 140.71 11.3811 139.993 11.3811C139.277 11.3811 138.789 11.7342 138.789 13.0426V18.9304H135.258V8.65011H138.789V9.33546C139.52 8.73616 140.44 8.41598 141.385 8.43205C143.638 8.43205 144.708 9.94812 144.708 12.648V18.9511L141.167 18.92ZM151.603 19.1277C148.592 19.1277 146.774 17.2066 146.774 13.7279C146.774 10.6127 148.384 8.39051 151.676 8.39051C152.489 8.36537 153.292 8.57035 153.994 8.98186C154.696 9.39336 155.267 9.99466 155.642 10.7166L153.212 12.5545C152.714 11.6615 152.382 11.2254 151.624 11.2254C150.866 11.2254 150.274 12.1288 150.274 13.7591C150.274 15.3894 150.762 16.2305 151.728 16.2305C152.392 16.2305 152.87 15.8567 153.514 14.8806L155.746 16.6251C154.552 18.4319 153.431 19.1173 151.613 19.1173L151.603 19.1277ZM163.648 18.92V13.0737C163.648 11.7238 163.202 11.3811 162.475 11.3811C161.748 11.3811 161.281 11.7342 161.281 13.0426V18.9304H157.75V6.05409L161.281 4.64185V9.31469C162.007 8.71369 162.924 8.39312 163.867 8.41128C166.13 8.41128 167.189 9.92736 167.189 12.6272V18.9304L163.648 18.92Z" fill="#5B5B5C" style="mix-blend-mode:luminosity"/>
</svg>
